<svg xmlns="http://www.w3.org/2000/svg" xmlns:xlink="http://www.w3.org/1999/xlink" width="169" height="169" viewBox="0 0 169 169">
  <defs>
    <clipPath id="clip-path">
      <rect id="Rect치ngulo_380357" data-name="Rect치ngulo 380357" width="78.766" height="122.027" fill="none"/>
    </clipPath>
  </defs>
  <g id="Grupo_1082123" data-name="Grupo 1082123" transform="translate(-719.001 -9826.865)">
    <g id="Grupo_1015076" data-name="Grupo 1015076" transform="translate(-18 7768.865)">
      <g id="Grupo_159183" data-name="Grupo 159183" transform="translate(737.001 2058)">
        <path id="Uni칩n_12" data-name="Uni칩n 12" d="M84.5,0A84.5,84.5,0,1,1,0,84.5,84.5,84.5,0,0,1,84.5,0Z" fill="#9f0f6a"/>
      </g>
    </g>
    <g id="Grupo_1082075" data-name="Grupo 1082075" transform="translate(760.004 9851.952)">
      <g id="Grupo_1082074" data-name="Grupo 1082074" clip-path="url(#clip-path)">
        <path id="Trazado_836280" data-name="Trazado 836280" d="M25.586,78.43q0-2.271.01-4.542c1.413-.506,1.8-1.56,1.781-2.982-.05-4.273-.023-8.548-.01-12.822a5.522,5.522,0,0,1,3.667-5.55c4.011-1.6,7.825,1.326,7.839,6.05q.049,17.1,0,34.193c0,1.343.029,2.751,1.787,2.73s1.752-1.471,1.748-2.789c-.011-2.928,0-5.857,0-8.786a6.17,6.17,0,0,1,1.934-4.914,5.5,5.5,0,0,1,5.972-1.073,5.592,5.592,0,0,1,3.656,5.585c.049,4.274.022,8.548.02,12.822,0,1.274.452,2.277,1.86,2.211,1.226-.057,1.685-.97,1.674-2.165q-.034-3.8,0-7.6c.03-3.918,2.255-6.475,5.666-6.545,3.5-.071,5.808,2.5,5.837,6.558.027,3.72,0,7.44.012,11.16,0,1.244.465,2.3,1.838,2.291,1.353-.012,1.814-1.024,1.8-2.3-.022-2.137-.039-4.275.007-6.411.062-2.9,1.389-4.6,4.227-5.537.808,1.77,2.005,3.332,1.989,5.476-.072,9.893.168,19.793-.1,29.679A23.529,23.529,0,0,1,69.373,141.7c-1.411,1.107-2.864,2.161-4.3,3.24a17.22,17.22,0,0,1-2.321.369c-7.832.2-15.675.407-23.493-.045a22.518,22.518,0,0,1-20.746-18.715c-1.267-8.217-.939-16.574-1.168-24.872A5.556,5.556,0,0,1,22.179,96.3c1.009-.146,1.647-.055,1.574,1.259-.1,1.815.007,3.641-.035,5.46-.03,1.312.225,2.564,1.729,2.61,1.685.052,1.921-1.31,1.92-2.682q-.007-10.923.005-21.846c0-1.325-.355-2.339-1.785-2.671" transform="translate(-9.094 -27.313)" fill="#fdbb85"/>
        <path id="Trazado_836281" data-name="Trazado 836281" d="M76.5,69.435c-2.838.94-4.164,2.638-4.227,5.537-.046,2.136-.029,4.274-.006,6.411.013,1.277-.448,2.289-1.8,2.3-1.373.012-1.834-1.047-1.838-2.291-.01-3.72.014-7.44-.012-11.16-.029-4.063-2.334-6.629-5.837-6.558-3.411.069-5.636,2.626-5.666,6.544q-.029,3.8,0,7.6c.011,1.194-.448,2.108-1.674,2.165-1.407.066-1.86-.937-1.859-2.211,0-4.274.028-8.548-.02-12.822A5.591,5.591,0,0,0,49.9,59.365a5.5,5.5,0,0,0-5.972,1.073,6.174,6.174,0,0,0-1.934,4.914c.007,2.928-.007,5.857,0,8.786.005,1.319.017,2.768-1.747,2.789S38.46,75.54,38.462,74.2q.02-17.1,0-34.193c-.013-4.725-3.828-7.648-7.839-6.05A5.523,5.523,0,0,0,26.953,39.5c-.012,4.274-.039,8.548.01,12.822.017,1.422-.368,2.476-1.781,2.982a2.355,2.355,0,0,1-1.866-2.851c.029-.234-.016-.477.007-.713A9.953,9.953,0,0,0,20.5,43.338c-6.089-6.69-4.9-17.126,2.025-22.874a16.348,16.348,0,1,1,20.915,25.13,3.542,3.542,0,0,0-1.48,3.2c.092,2.675.027,5.355.027,8.106,7.988-2.721,11.927-1.334,14.869,5.17a14.628,14.628,0,0,1,4.741-1.942,9.3,9.3,0,0,1,10,5.972c.425,1.01.554,1.312,1.727.732,7.052-3.487,13.918.757,14.062,8.608.02,1.109-.012,2.219,0,3.328a2.119,2.119,0,0,1-1.79,2.406,2.154,2.154,0,0,1-1.876-2.542c.035-1.258.039-2.519-.007-3.777-.148-4.03-3.2-6.31-7.22-5.422M42.207,41.511c4.61-3.781,4.778-11.992.349-16.989a12.76,12.76,0,0,0-18.416-.7c-4.817,4.65-5.275,12.784-.952,16.934.617-6.919,3.769-10.6,9.186-10.741,5.829-.147,8.658,3.16,9.833,11.492" transform="translate(-8.68 -8.733)" fill="#070706"/>
        <path id="Trazado_836282" data-name="Trazado 836282" d="M21.609,107.456c1.43.333,1.789,1.346,1.785,2.671q-.025,10.923-.005,21.846c0,1.372-.235,2.734-1.92,2.682-1.5-.046-1.759-1.3-1.729-2.61.042-1.82-.065-3.645.035-5.46.073-1.314-.565-1.4-1.574-1.259A5.556,5.556,0,0,0,13.37,130.7c.23,8.3-.1,16.654,1.168,24.872a22.518,22.518,0,0,0,20.746,18.715c7.818.452,15.662.245,23.493.045a17.165,17.165,0,0,0,2.322-.37c10.192-1.459,18.695-10.954,19-21.414.158-5.36.078-10.728.038-16.091-.011-1.491.26-2.663,1.876-3.1,1.03.5,1.863,1.077,1.823,2.44-.18,6.246.381,12.511-.326,18.741-1.41,12.429-11.69,22.653-24.283,23.342-8.823.483-17.746.9-26.544-.314a26.107,26.107,0,0,1-21.994-23.438c-.6-7.647-.749-15.334-.931-23.006a9,9,0,0,1,8.075-9.274c1.6-.219,2.031-.759,1.96-2.336-.143-3.16-.006-6.331-.059-9.5-.023-1.39.454-2.287,1.87-2.564" transform="translate(-5.117 -56.339)" fill="#0c0a08"/>
        <path id="Trazado_836283" data-name="Trazado 836283" d="M138.6,143.717c-1.616.434-1.887,1.606-1.876,3.1.04,5.364.12,10.731-.038,16.091-.309,10.459-8.812,19.955-19,21.414,1.433-1.078,2.886-2.132,4.3-3.239a23.529,23.529,0,0,0,9.428-18.531c.265-9.887.025-19.786.1-29.679.016-2.144-1.181-3.706-1.989-5.476,4.021-.887,7.071,1.392,7.22,5.422.046,1.257.041,2.519.006,3.777a2.155,2.155,0,0,0,1.877,2.542q-.009,2.291-.017,4.581" transform="translate(-61.701 -66.693)" fill="#f3a76b"/>
        <path id="Trazado_836284" data-name="Trazado 836284" d="M24.54,0A24.286,24.286,0,0,1,48.571,23.109c.062,1.321.11,2.807-1.591,2.918-1.874.123-1.895-1.407-1.972-2.829a20.691,20.691,0,0,0-41.323-.014c-.071,1.426-.151,2.975-1.992,2.843C-.121,25.9-.061,24.3.042,22.912A24.376,24.376,0,0,1,24.54,0" transform="translate(0 0)" fill="#090909"/>
        <path id="Trazado_836285" data-name="Trazado 836285" d="M46.242,45.455c-1.175-8.332-4-11.638-9.833-11.492-5.417.137-8.57,3.822-9.186,10.741-4.322-4.15-3.865-12.285.952-16.934a12.76,12.76,0,0,1,18.416.7c4.429,5,4.261,13.208-.349,16.989" transform="translate(-12.715 -12.677)" fill="#95e0f6"/>
      </g>
    </g>
  </g>
</svg>
