<svg xmlns="http://www.w3.org/2000/svg" xmlns:xlink="http://www.w3.org/1999/xlink" width="169" height="169" viewBox="0 0 169 169">
  <defs>
    <clipPath id="clip-path">
      <rect id="Rect치ngulo_380215" data-name="Rect치ngulo 380215" width="111.5" height="126.634" fill="none"/>
    </clipPath>
  </defs>
  <g id="Grupo_1082125" data-name="Grupo 1082125" transform="translate(7280.499 1873.135)">
    <g id="Grupo_1081725" data-name="Grupo 1081725" transform="translate(-7665.5 -3931.135)">
      <g id="Grupo_159182" data-name="Grupo 159182" transform="translate(385.001 2058)">
        <path id="Uni칩n_12" data-name="Uni칩n 12" d="M84.5,0A84.5,84.5,0,1,1,0,84.5,84.5,84.5,0,0,1,84.5,0Z" transform="translate(0 0)" fill="#9f0f6a"/>
      </g>
    </g>
    <g id="Grupo_1081888" data-name="Grupo 1081888" transform="translate(-7251.749 -1858.952)">
      <g id="Grupo_1081887" data-name="Grupo 1081887" clip-path="url(#clip-path)">
        <path id="Trazado_835840" data-name="Trazado 835840" d="M21.578,176.893a39.644,39.644,0,0,1,8.819-2.625A25.921,25.921,0,0,1,46.4,177.089a22.754,22.754,0,0,0,10.89,2.655c3.952.013,7.9.144,11.855.247,4.647.121,8.5,1.879,11.145,5.781.789,1.165,1.409.97,2.417.486,4.962-2.381,9.925-4.764,14.941-7.028a10.329,10.329,0,0,1,12.808,3.183c1.545,2.092,1.423,3.012-.737,4.413-11.8,7.654-23.519,15.434-35.455,22.867-5.84,3.637-12.423,4.141-19.061,2.375-8.018-2.133-16.033-4.3-23.97-6.706-4.032-1.224-6.994.717-10.138,2.485a1.044,1.044,0,0,0-.512,1.043c.133,2.737-1.573,3-3.724,2.916q-6.91-.284-13.828-.382c-2.188-.027-3.1-.913-3.033-3.151.351-11.276.6-22.555.935-33.832.092-3.113.577-3.486,3.747-3.394,4.28.125,8.559.265,12.84.366,3.859.092,3.975.193,3.977,4.13,0,.386.042.773.075,1.349m-.208,26.07c4.534-3.336,9.409-2.181,14.422-.65q10.138,3.1,20.425,5.7a20.982,20.982,0,0,0,17.269-2.67c10.137-6.6,20.311-13.146,30.457-19.735.736-.478,1.649-.775,2.109-1.737a6.158,6.158,0,0,0-7.124-.681c-4.9,2.337-9.8,4.674-14.727,6.94-1.1.506-1.716,1.013-1.532,2.365.319,2.345-.849,3.239-3.182,3.16-7.573-.258-15.149-.406-22.724-.6a5.048,5.048,0,0,1-1.221-.136,1.962,1.962,0,0,1-1.6-2.177,1.879,1.879,0,0,1,1.679-1.856,14.514,14.514,0,0,1,2.461-.044c6.654,0,13.307,0,19.9,0a8.365,8.365,0,0,0-7.8-6.577c-2.3-.144-4.609-.189-6.915-.2-7.363-.026-14.417-.784-21.27-4.214-6.2-3.1-12.839-2.084-19,1.171-.877.463-1.664.878-1.652,2.156.058,6.5.027,13,.027,19.787M16.527,191.62l.864,0c0-4.682-.021-9.364.014-14.046.009-1.175,0-2.113-1.594-2.109-3.123.009-6.247-.055-9.369-.151-1.13-.035-1.356.511-1.384,1.491-.271,9.528-.547,19.056-.893,28.583-.056,1.555.539,2,1.985,1.992,2.876-.022,5.757,0,8.629.154,1.5.079,1.782-.565,1.768-1.869-.05-4.682-.02-9.364-.02-14.046" transform="translate(0 -86.42)"/>
        <path id="Trazado_835841" data-name="Trazado 835841" d="M84.425,55.764A30.12,30.12,0,1,1,54.366,86,30.1,30.1,0,0,1,84.425,55.764M58.591,85.525A25.9,25.9,0,1,0,84.764,59.866,25.817,25.817,0,0,0,58.591,85.525" transform="translate(-27.469 -28.176)"/>
        <path id="Trazado_835842" data-name="Trazado 835842" d="M111.137,11.794c0-2.875.018-5.751-.007-8.626C111.116,1.6,111.17-.03,113.24,0c1.885.029,1.994,1.55,1.988,3.047q-.034,8.749-.005,17.5c0,1.545.021,3.2-2.108,3.147s-1.978-1.776-1.978-3.273q0-4.313,0-8.626" transform="translate(-56.15 -0.001)"/>
        <path id="Trazado_835843" data-name="Trazado 835843" d="M83.721,27.851c0,1.391.051,2.785-.015,4.173-.06,1.273-.62,2.236-2.056,2.274a1.974,1.974,0,0,1-2.163-2.151q-.112-4.539,0-9.083a2,2,0,0,1,2.16-2.171c1.39.042,2.006,1.011,2.057,2.294.062,1.552.015,3.109.015,4.664" transform="translate(-40.134 -10.556)"/>
        <path id="Trazado_835844" data-name="Trazado 835844" d="M142.419,27.625c0-1.473-.043-2.948.012-4.419.048-1.285.65-2.253,2.037-2.312a1.993,1.993,0,0,1,2.177,2.151c.085,3.026.079,6.056.008,9.083a1.982,1.982,0,0,1-2.147,2.171c-1.431-.027-2.016-.975-2.072-2.255-.065-1.47-.015-2.946-.016-4.419" transform="translate(-71.951 -10.555)"/>
        <path id="Trazado_835845" data-name="Trazado 835845" d="M43.168,210.057c0-6.785.031-13.286-.027-19.787-.011-1.278.776-1.692,1.652-2.156,6.164-3.255,12.806-4.273,19-1.171,6.853,3.43,13.908,4.188,21.27,4.214,2.306.008,4.615.054,6.916.2a8.366,8.366,0,0,1,7.8,6.577c-6.594,0-13.247,0-19.9,0a14.517,14.517,0,0,0-2.461.044,1.879,1.879,0,0,0-1.679,1.856,1.962,1.962,0,0,0,1.6,2.177,5.05,5.05,0,0,0,1.221.136c7.575.2,15.151.345,22.724.6,2.333.08,3.5-.815,3.182-3.159-.184-1.352.433-1.86,1.533-2.365,4.93-2.266,9.828-4.6,14.726-6.94a6.159,6.159,0,0,1,7.124.68c-.459.962-1.372,1.259-2.109,1.737-10.146,6.588-20.32,13.134-30.457,19.735a20.98,20.98,0,0,1-17.269,2.669q-10.277-2.6-20.425-5.7c-5.013-1.532-9.888-2.686-14.422.65" transform="translate(-21.798 -93.513)" fill="#f3c8a4"/>
        <path id="Trazado_835846" data-name="Trazado 835846" d="M20.777,195.99c0,4.682-.031,9.364.02,14.046.014,1.3-.269,1.948-1.768,1.869-2.871-.151-5.752-.176-8.629-.154-1.446.011-2.041-.436-1.985-1.992.346-9.526.622-19.055.893-28.583.028-.98.253-1.526,1.384-1.491,3.122.1,6.246.16,9.369.151,1.59,0,1.6.934,1.594,2.109-.035,4.682-.014,9.364-.014,14.046l-.864,0" transform="translate(-4.25 -90.789)" fill="#00ebce"/>
        <path id="Trazado_835847" data-name="Trazado 835847" d="M62.9,89.714A25.9,25.9,0,1,1,88.175,115.93,25.979,25.979,0,0,1,62.9,89.714M84.157,83.2a4.735,4.735,0,0,1,4.1-4.8,4.666,4.666,0,0,1,5.118,3.958c.32,1.55.651,3.166,2.68,2.694,1.919-.446,1.8-2.118,1.46-3.637a8.547,8.547,0,0,0-5.007-6.335c-1.139-.5-1.975-.885-1.9-2.4a1.967,1.967,0,0,0-2.14-2.2,2.007,2.007,0,0,0-2.008,2.343c.138,1.494-.686,1.944-1.8,2.479a8.2,8.2,0,0,0-4.242,4.919c-1.94,5.593,1.8,11.119,8.073,11.737,2.168.214,3.848.9,4.688,2.974a4.625,4.625,0,0,1-2.9,6.168c-2.883.945-5.41-.658-6.1-3.969-.293-1.417-.713-2.716-2.428-2.466-1.826.266-2,1.745-1.752,3.239a8.426,8.426,0,0,0,4.462,6.459c1.272.656,2.147,1.2,2.021,2.849a2.06,2.06,0,1,0,4.117-.029c-.113-1.651.865-2,2.035-2.569a8.33,8.33,0,0,0,5.011-8.123,8.491,8.491,0,0,0-5.328-7.941,13.073,13.073,0,0,0-4.083-.854,4.486,4.486,0,0,1-4.084-4.5" transform="translate(-31.782 -32.363)" fill="#fbd841"/>
        <path id="Trazado_835848" data-name="Trazado 835848" d="M101.528,89.758a4.486,4.486,0,0,0,4.084,4.5,13.073,13.073,0,0,1,4.083.854,8.491,8.491,0,0,1,5.328,7.941,8.33,8.33,0,0,1-5.011,8.123c-1.171.565-2.149.917-2.035,2.569a2.06,2.06,0,1,1-4.117.029c.126-1.646-.749-2.193-2.021-2.849a8.426,8.426,0,0,1-4.462-6.459c-.25-1.495-.074-2.973,1.752-3.239,1.714-.25,2.134,1.049,2.428,2.466.686,3.311,3.213,4.914,6.1,3.969a4.625,4.625,0,0,0,2.9-6.168c-.841-2.072-2.52-2.76-4.688-2.974C99.6,97.9,95.855,92.372,97.795,86.779a8.2,8.2,0,0,1,4.242-4.919c1.117-.535,1.94-.986,1.8-2.479a2.007,2.007,0,0,1,2.008-2.343,1.967,1.967,0,0,1,2.14,2.2c-.08,1.513.756,1.9,1.9,2.4a8.547,8.547,0,0,1,5.007,6.335c.34,1.518.458,3.191-1.46,3.637-2.029.471-2.36-1.145-2.68-2.694a4.666,4.666,0,0,0-5.118-3.958,4.735,4.735,0,0,0-4.1,4.8" transform="translate(-49.153 -38.924)"/>
      </g>
    </g>
  </g>
</svg>
