<svg xmlns="http://www.w3.org/2000/svg" xmlns:xlink="http://www.w3.org/1999/xlink" width="169" height="169" viewBox="0 0 169 169">
  <defs>
    <clipPath id="clip-path">
      <rect id="Rect치ngulo_380214" data-name="Rect치ngulo 380214" width="111.215" height="125.69" fill="none"/>
    </clipPath>
  </defs>
  <g id="Grupo_1082124" data-name="Grupo 1082124" transform="translate(-1069.666 -9826.865)">
    <g id="Grupo_1015077" data-name="Grupo 1015077" transform="translate(-18.334 7768.866)">
      <g id="Grupo_159184" data-name="Grupo 159184" transform="translate(1088 2057.999)">
        <path id="Uni칩n_12" data-name="Uni칩n 12" d="M84.5,0A84.5,84.5,0,1,1,0,84.5,84.5,84.5,0,0,1,84.5,0Z" transform="translate(0 0)" fill="#9f0f6a"/>
      </g>
    </g>
    <g id="Grupo_1081886" data-name="Grupo 1081886" transform="translate(1098.559 9843.725)">
      <g id="Grupo_1081885" data-name="Grupo 1081885" clip-path="url(#clip-path)">
        <path id="Trazado_835819" data-name="Trazado 835819" d="M53.175,124.207c-.531,1.245-1.529,1.485-2.787,1.483-14.3-.029-28.6.015-42.9-.037-5.664-.021-8.378-3.667-7.221-9.579,1.487-7.6,3.044-15.191,4.571-22.785.225-1.12.432-2.243.673-3.359a12.034,12.034,0,0,1,8.2-9.259c5.83-2.081,11.7-4.044,17.548-6.075.878-.3,2.1-.382,1.923-1.758-.2-1.489.753-3.157-1.178-4.37A23.405,23.405,0,0,1,21.038,52.11c-.209-1.173-.7-1.451-1.85-1.635C14.6,49.74,12.273,46,13.318,41.558c.7-2.972.3-6.023.276-9.033A34.712,34.712,0,0,1,17,17.136c.8-1.677,1.837-2.624,3.754-2.343.159,1.081.749,2.063.07,3.264-2.978,5.269-3.764,11.027-3.471,16.974.032.648-.681,1.936.668,1.875.949-.042,2.323.5,2.881-1.122A29.1,29.1,0,0,1,22.747,32.1c2.333-1.689,4.7-3.4,7.8-2.957,8.883,1.282,17.031-.258,24.2-5.95,2.414-1.917,4.464-1.578,6.221.879a8.008,8.008,0,0,0,4.048,3.39c4.3,1.331,4.3,1.327,4.3,5.685,0,.654.049,1.311-.008,1.96-.11,1.248.392,1.748,1.669,1.771,1.372.024,1.387-.8,1.386-1.758,0-3.268.023-6.537-.013-9.8-.054-4.958-1.127-9.413-6-11.992a6.906,6.906,0,0,1-1.4-1.355c-7.778-7.787-17.076-9.6-27.5-7-4.083.786-7.454,2.979-10.569,5.559a4.953,4.953,0,0,1-3.733,1.26c-.7-2.382.709-3.694,2.373-5.023A31.875,31.875,0,0,1,67.69,9.336a4.113,4.113,0,0,0,.665.716c6.566,3.988,8,10.285,7.883,17.324-.066,3.92-.023,7.843,0,11.765a9.3,9.3,0,0,0,.218,2.167c1.16,4.71-1.072,8.4-5.789,9.161-1.319.212-1.651.631-1.883,1.881a22.837,22.837,0,0,1-9.929,15.4c-2.114,1.413-1.408,3.221-1.519,4.971-.114,1.8,1.542,1.555,2.55,2.04a10.081,10.081,0,0,0,4.528.777q17.649-.042,35.3-.012c4.49,0,6,1.532,6.017,6.029,0,1.634-.079,3.273.023,4.9a2.3,2.3,0,0,1-2.058,2.778,2.455,2.455,0,0,1-1.6-2.71c.081-1.632-.079-3.278.043-4.905.148-1.982-.718-2.544-2.594-2.515-5.643.085-11.289.017-16.934.033q-15.211.044-30.422.117c-1.508.23-4.007-1.365-4.036,1.744-.1,10.682-.028,21.365-.053,32.048,0,1.35.5,1.976,1.881,1.848.727-.068,1.461-.071,2.193-.1q24.025.046,48.05.115c1.842.008,1.9-1.048,1.9-2.382-.018-5.23.019-10.46-.025-15.69-.011-1.342.226-2.423,1.63-2.917,1.585.281,2.046,1.266,2.027,2.807-.064,5.4,0,10.8-.048,16.2-.012,1.262-.008,1.926,1.674,2.089,3.025.293,4.517,3.237,3.536,6.286a6.276,6.276,0,0,1-5.925,4.354c-14.807.043-29.614.014-44.421.043a2.448,2.448,0,0,1-2.544-1.485c.088-2.278,1.718-2.2,3.324-2.195q20.6.009,41.19,0a22.977,22.977,0,0,0,2.449-.055c1.483-.16,2.607-1.028,2.475-2.5-.125-1.4-1.559-.847-2.431-.848q-24.518-.047-49.035-.022-5.761,0-11.523.044c-.606.005-1.423-.247-1.68.593a1.978,1.978,0,0,0,.853,2.139,3.436,3.436,0,0,0,2.318.612c1.553.014,3.106.021,4.659.006,1.526-.015,2.541.525,2.55,2.23M72.843,42.6a2.478,2.478,0,0,0-2.966-1.883c-1.268.327-.405,1.8-.6,2.75a2.331,2.331,0,0,0,.083.717c.046.876-.646,2.156.519,2.481a2.681,2.681,0,0,0,2.94-1.619,1.98,1.98,0,0,0,.024-2.446m-52.26,3.522c.032-1.467.048-2.934.1-4.4.039-1.056-.515-1.271-1.392-1.032-1.46.4-2.54,1.217-2.546,2.854-.006,1.957,1.119,2.944,3.016,3.129.513.172.859.1.82-.551M41.36,72.148C36.934,70.8,36.934,70.8,36.939,75.42c0,.409,0,.817,0,1.225.03,3.35.895,4.354,4.344,5.049,1.793.621,3.15.989,3.191-1.882.038-2.737,2.181-4.218,5.233-4.281,4.06-.083,4.062-.083,3.885-4.237-.006-.137-.124-.269-.257-.54-3.848,1.545-7.9,1.577-11.976,1.393M8.486,121.827c1.294.039,2.589.108,3.884.111,4.441.014,4.441.005,4.441-4.42,0-7.531,0-7.531-7.793-6.748-3.835-.494-3.834-.494-4.546,3.147-.2,1.035-.43,2.065-.623,3.1-.7,3.768.712,5.231,4.638,4.808m8.255-15.305c.04-.733.024-1.474.134-2.2a1.711,1.711,0,0,1,1.67-1.528,1.683,1.683,0,0,1,1.831,1.323,9.657,9.657,0,0,1,.207,2.177c.018,4.41.081,8.822-.026,13.229-.043,1.756.382,2.461,2.294,2.411,4.816-.128,9.638-.081,14.456-.019,1.4.018,1.958-.15,1.7-1.841a4.177,4.177,0,0,1,3.74-5.095c1.479-.205,1.616-.805,1.61-2.022-.039-8.33-.053-16.661.013-24.99.012-1.519-.382-2.036-1.98-2.23-4.232-.513-8.051-1.807-9.052-6.759-.219-1.084-.892-.877-1.672-.6-5.755,2.063-11.521,4.1-17.282,6.138-3.186,1.086-4.733,3.511-5.378,6.642-.817,3.969-1.6,7.944-2.4,11.916-.819,4.063-.821,4.062,3.364,3.813l6.35.027c.318.055.449-.087.418-.4M28.481,33.13c-2.936,1.026-4.118,2.5-4.178,5.532-.066,3.334-.122,6.677.026,10.006.417,9.4,6.4,16.86,15.084,18.977a20.291,20.291,0,0,0,26.005-18.7c.143-5.222.015-10.452.088-15.677.017-1.216-.2-1.949-1.532-2.269A8.532,8.532,0,0,1,58.7,27.266c-.967-1.517-1.618-1.195-2.8-.312-7.23,5.387-15.394,7.2-24.274,6.127a6.106,6.106,0,0,0-3.139.049" transform="translate(0 0)" fill="#060505"/>
        <path id="Trazado_835820" data-name="Trazado 835820" d="M106.238,161.2q15.211-.06,30.423-.117c5.644-.016,11.29.052,16.934-.033,1.876-.028,2.742.533,2.594,2.515-.122,1.627.038,3.274-.043,4.905a2.456,2.456,0,0,0,1.6,2.71q.016,2.341.033,4.681c-1.4.494-1.641,1.576-1.63,2.917.043,5.23.006,10.46.025,15.69,0,1.334-.056,2.39-1.9,2.382q-24.025-.108-48.05-.115.007-17.768.015-35.536M135.2,178.888a6.152,6.152,0,0,0-6.111-6.033,6.281,6.281,0,0,0-6.1,6.1,6.153,6.153,0,0,0,6.288,6.1,6.058,6.058,0,0,0,5.922-6.174" transform="translate(-54.051 -81.95)" fill="#ebebeb"/>
        <path id="Trazado_835821" data-name="Trazado 835821" d="M97.43,246.972c-.009-1.705-1.024-2.245-2.55-2.23-1.553.015-3.106.008-4.659-.006a3.436,3.436,0,0,1-2.318-.612,1.978,1.978,0,0,1-.853-2.139c.256-.84,1.074-.588,1.68-.593q5.761-.052,11.523-.044,24.517-.006,49.035.022c.872,0,2.306-.547,2.431.848.132,1.475-.992,2.344-2.475,2.5a22.975,22.975,0,0,1-2.449.055q-20.595,0-41.19,0c-1.607,0-3.236-.083-3.324,2.195l-4.852,0" transform="translate(-44.255 -122.765)" fill="#bababa"/>
        <path id="Trazado_835822" data-name="Trazado 835822" d="M40.952,16.935a4.953,4.953,0,0,0,3.733-1.26c3.115-2.581,6.487-4.773,10.57-5.56-.04.738-.512,1.106-1.1,1.489-9.242,6.043-14.012,14.472-13.6,25.641a29.1,29.1,0,0,0-1.847,3.687c-.558,1.625-1.932,1.08-2.881,1.122-1.35.06-.637-1.227-.668-1.875-.292-5.947.493-11.706,3.472-16.974.678-1.2.088-2.183-.07-3.264a6.124,6.124,0,0,1,2.392-3.005" transform="translate(-17.809 -5.147)" fill="#3c3938"/>
        <path id="Trazado_835823" data-name="Trazado 835823" d="M57.988,60.284a6.106,6.106,0,0,1,3.139-.049c8.88,1.078,17.044-.74,24.274-6.127,1.185-.883,1.836-1.205,2.8.312a8.532,8.532,0,0,0,5.277,3.736c1.33.32,1.549,1.053,1.532,2.269-.073,5.225.056,10.455-.088,15.677A20.291,20.291,0,0,1,68.92,94.8c-.038-.69-.623-.9-1.078-1.222-6.721-4.71-9.771-11.251-9.749-19.367.012-4.642-.067-9.284-.105-13.926" transform="translate(-29.507 -27.154)" fill="#ebad6a"/>
        <path id="Trazado_835824" data-name="Trazado 835824" d="M24.717,165.5Q33.36,162.436,42,159.361c.78-.279,1.454-.487,1.673.6,1,4.952,4.819,6.247,9.052,6.76,1.6.194,1.992.711,1.979,2.23-.066,8.33-.052,16.66-.013,24.99.005,1.217-.132,1.815-1.61,2.022a4.176,4.176,0,0,0-3.74,5.094c.254,1.692-.3,1.86-1.7,1.841-4.818-.062-9.64-.11-14.456.018-1.911.051-2.336-.654-2.294-2.411.107-4.407.044-8.819.027-13.228a9.658,9.658,0,0,0-.207-2.177,1.683,1.683,0,0,0-1.831-1.323,1.71,1.71,0,0,0-1.67,1.527c-.11.722-.093,1.464-.133,2.2l-.419.4-6.35-.027c1.47-7.457,2.436-15.014,4.413-22.371" transform="translate(-10.332 -80.976)" fill="#6b7c86"/>
        <path id="Trazado_835825" data-name="Trazado 835825" d="M46.288,36.089c-.41-11.169,4.36-19.6,13.6-25.641.585-.383,1.057-.75,1.1-1.488,10.423-2.608,19.721-.791,27.5,7a6.881,6.881,0,0,0,1.4,1.356c4.871,2.578,5.944,7.033,6,11.992.035,3.268.008,6.537.013,9.8,0,.953-.014,1.782-1.386,1.758-1.277-.022-1.779-.522-1.669-1.77.057-.649.008-1.306.008-1.96,0-4.358,0-4.354-4.3-5.685a8.013,8.013,0,0,1-4.048-3.39c-1.756-2.457-3.806-2.8-6.221-.879-7.17,5.693-15.318,7.233-24.2,5.95-3.1-.447-5.462,1.269-7.8,2.958" transform="translate(-23.541 -3.991)" fill="#4b4745"/>
        <path id="Trazado_835826" data-name="Trazado 835826" d="M102.016,161.146,102,196.682c-.731.032-1.465.036-2.193.1-1.378.128-1.884-.5-1.881-1.848.025-10.683-.047-21.366.052-32.049.029-3.109,2.527-1.513,4.036-1.744" transform="translate(-49.829 -81.892)" fill="#d2d2d2"/>
        <path id="Trazado_835827" data-name="Trazado 835827" d="M53.589,67.453c.038,4.642.117,9.284.105,13.926-.022,8.115,3.029,14.657,9.749,19.367.455.318,1.04.532,1.078,1.223C55.834,99.852,49.855,92.4,49.437,82.992c-.148-3.33-.092-6.672-.026-10.006.06-3.029,1.243-4.507,4.178-5.532" transform="translate(-25.108 -34.323)" fill="#d6955b"/>
        <path id="Trazado_835828" data-name="Trazado 835828" d="M17.314,225.181c7.793-.783,7.793-.783,7.793,6.748,0,4.426,0,4.435-4.441,4.42-1.295,0-2.589-.072-3.884-.111a10.013,10.013,0,0,1-.166-5.514,40.982,40.982,0,0,0,.7-5.543" transform="translate(-8.297 -114.411)" fill="#dc995e"/>
        <path id="Trazado_835829" data-name="Trazado 835829" d="M20.791,172.09c-1.977,7.357-2.944,14.914-4.413,22.371-4.185.25-4.183.25-3.364-3.813.8-3.972,1.583-7.947,2.4-11.916.644-3.131,2.192-5.555,5.377-6.642" transform="translate(-6.406 -87.567)" fill="#556873"/>
        <path id="Trazado_835830" data-name="Trazado 835830" d="M84.132,145.449c4.076.184,8.128.152,11.976-1.393.133.271.251.4.257.54.177,4.154.176,4.154-3.885,4.237-3.052.062-5.195,1.544-5.233,4.281-.04,2.871-1.4,2.5-3.191,1.882q.038-4.774.076-9.547" transform="translate(-42.771 -73.302)" fill="#d6955b"/>
        <path id="Trazado_835831" data-name="Trazado 835831" d="M12.824,225.291a40.981,40.981,0,0,1-.7,5.543,10.013,10.013,0,0,0,.166,5.514c-3.926.423-5.341-1.04-4.638-4.808.193-1.036.421-2.066.624-3.1.712-3.64.71-3.641,4.546-3.147" transform="translate(-3.807 -114.52)" fill="#bd7f4c"/>
        <path id="Trazado_835832" data-name="Trazado 835832" d="M79.63,146.084q-.038,4.773-.076,9.547c-3.448-.7-4.313-1.7-4.343-5.05,0-.408,0-.816,0-1.224,0-4.623,0-4.623,4.421-3.273" transform="translate(-38.269 -73.936)" fill="#cd8952"/>
        <path id="Trazado_835833" data-name="Trazado 835833" d="M37.112,88.748c-1.9-.185-3.023-1.171-3.016-3.129.005-1.637,1.086-2.455,2.546-2.853.877-.239,1.431-.025,1.392,1.032-.054,1.466-.07,2.933-.1,4.4a.886.886,0,0,0-.82.551" transform="translate(-17.349 -42.069)" fill="#d6955b"/>
        <path id="Trazado_835834" data-name="Trazado 835834" d="M141.021,86.3a2.328,2.328,0,0,1-.083-.717c.194-.947-.669-2.423.6-2.75a2.477,2.477,0,0,1,2.966,1.883c-.762,1.4-2.058,1.635-3.482,1.583" transform="translate(-71.66 -42.11)" fill="#d6955b"/>
        <path id="Trazado_835835" data-name="Trazado 835835" d="M141.052,88.328c1.424.051,2.72-.179,3.482-1.583a1.98,1.98,0,0,1-.024,2.446,2.68,2.68,0,0,1-2.94,1.619c-1.165-.325-.473-1.605-.519-2.481" transform="translate(-71.69 -44.139)" fill="#cd8952"/>
        <path id="Trazado_835836" data-name="Trazado 835836" d="M40.237,94.466a.886.886,0,0,1,.82-.551c.038.647-.307.723-.82.551" transform="translate(-20.474 -47.788)" fill="#bd7f4c"/>
        <path id="Trazado_835837" data-name="Trazado 835837" d="M33.233,217.277l.418-.4c.031.312-.1.454-.418.4" transform="translate(-16.91 -110.357)" fill="#556873"/>
        <path id="Trazado_835838" data-name="Trazado 835838" d="M152.572,191.116a6.058,6.058,0,0,1-5.921,6.173,6.153,6.153,0,0,1-6.288-6.1,6.282,6.282,0,0,1,6.1-6.1,6.152,6.152,0,0,1,6.111,6.033m-3.683.09c-.161-1.271-.757-2.272-2.236-2.313a2.148,2.148,0,0,0-2.456,2.355,2.1,2.1,0,0,0,2.3,2.266,2.25,2.25,0,0,0,2.39-2.308" transform="translate(-71.422 -94.178)" fill="#080808"/>
        <path id="Trazado_835839" data-name="Trazado 835839" d="M152.862,195.153a2.25,2.25,0,0,1-2.39,2.308,2.1,2.1,0,0,1-2.3-2.266,2.148,2.148,0,0,1,2.456-2.355c1.479.041,2.075,1.042,2.236,2.313" transform="translate(-75.395 -98.125)" fill="#d2d2d2"/>
      </g>
    </g>
  </g>
</svg>
