<svg id="Grupo_1082041" data-name="Grupo 1082041" xmlns="http://www.w3.org/2000/svg" xmlns:xlink="http://www.w3.org/1999/xlink" width="190" height="190" viewBox="0 0 190 190">
  <defs>
    <clipPath id="clip-path">
      <rect id="Rectángulo_380303" data-name="Rectángulo 380303" width="190" height="190" transform="translate(0 0)" fill="none"/>
    </clipPath>
    <clipPath id="clip-path-3">
      <path id="Trazado_836201" data-name="Trazado 836201" d="M291.471,471.262A64.764,64.764,0,1,0,356.235,406.5a64.765,64.765,0,0,0-64.764,64.764" transform="translate(-291.471 -406.498)" fill="none"/>
    </clipPath>
    <clipPath id="clip-path-5">
      <rect id="Rectángulo_380300" data-name="Rectángulo 380300" width="56.364" height="24.54" fill="none"/>
    </clipPath>
    <clipPath id="clip-path-6">
      <rect id="Rectángulo_380301" data-name="Rectángulo 380301" width="61.423" height="13.977" fill="none"/>
    </clipPath>
  </defs>
  <g id="Grupo_1082040" data-name="Grupo 1082040" transform="translate(0 0)" clip-path="url(#clip-path)">
    <g id="Grupo_1082029" data-name="Grupo 1082029">
      <g id="Grupo_1082028" data-name="Grupo 1082028" clip-path="url(#clip-path)">
        <path id="Trazado_836178" data-name="Trazado 836178" d="M190,95A95,95,0,1,1,95,0a95,95,0,0,1,95,95" transform="translate(0 0)" fill="#f2e6dc"/>
        <path id="Trazado_836179" data-name="Trazado 836179" d="M153.8,629.206a.229.229,0,0,1-.194-.108c-11.054-17.688-25.855-29.649-36.324-36.569A114.381,114.381,0,0,0,97,581.637a.229.229,0,0,1,.161-.429,114.841,114.841,0,0,1,20.365,10.932c10.511,6.946,25.372,18.954,36.472,36.716a.229.229,0,0,1-.194.35" transform="translate(-86.792 -520.851)" fill="#e6d0be"/>
        <path id="Trazado_836180" data-name="Trazado 836180" d="M17.652,546.932s-2.243-6.529-15.766-7.039c0,0,7.027,11.313,15.766,7.039" transform="translate(-1.69 -483.838)" fill="#e6d0be"/>
        <path id="Trazado_836181" data-name="Trazado 836181" d="M167.1,500.283c-.081.148-5.151-4.446-3.452-14.267,0,0,6.48,8.756,3.452,14.267" transform="translate(-146.341 -435.555)" fill="#e6d0be"/>
        <path id="Trazado_836182" data-name="Trazado 836182" d="M252.468,526.4s-3.067-5.05,1.422-14.936c0,0,2.979,12.283-1.422,14.936" transform="translate(-225.339 -458.364)" fill="#e6d0be"/>
        <path id="Trazado_836183" data-name="Trazado 836183" d="M324.516,581.929c-.149.078-1.841-6.551,5-13.8,0,0,.57,10.879-5,13.8" transform="translate(-290.561 -509.141)" fill="#e6d0be"/>
        <path id="Trazado_836184" data-name="Trazado 836184" d="M376.444,651.013s.515-5.264,9.021-9.979c0,0-4.454,10.418-9.021,9.979" transform="translate(-337.36 -574.478)" fill="#e6d0be"/>
        <path id="Trazado_836185" data-name="Trazado 836185" d="M91.725,633.85c.067-.134-5.838-1.526-12.156,4.654,0,0,9.654.329,12.156-4.654" transform="translate(-71.308 -567.837)" fill="#e6d0be"/>
        <path id="Trazado_836186" data-name="Trazado 836186" d="M153.684,671.5s-5.9.338-11.5,9.642c0,0,11.807-4.513,11.5-9.642" transform="translate(-127.425 -601.782)" fill="#e6d0be"/>
        <path id="Trazado_836187" data-name="Trazado 836187" d="M247.228,720.594c-.02-.167-6.439,2.2-8.534,11.943,0,0,9.283-5.7,8.534-11.943" transform="translate(-213.912 -645.77)" fill="#e6d0be"/>
        <path id="Trazado_836188" data-name="Trazado 836188" d="M341.59,753.367s-4.044,3.41-3.1,13.09c0,0,6.054-9.577,3.1-13.09" transform="translate(-303.217 -675.148)" fill="#e6d0be"/>
        <path id="Trazado_836189" data-name="Trazado 836189" d="M1012.839,247.3l-.028,0a.229.229,0,0,1-.2-.255,165.826,165.826,0,0,1,10.032-39.636,189.739,189.739,0,0,1,15.181-30.6c10.281-16.789,19.827-26.62,19.922-26.717a.229.229,0,0,1,.327.32c-.095.1-9.611,9.9-19.866,26.648-9.461,15.453-21.5,40.15-25.142,70.045a.229.229,0,0,1-.227.2" transform="translate(-907.475 -134.44)" fill="#e6d0be"/>
        <path id="Trazado_836190" data-name="Trazado 836190" d="M1392.19,54.806s-1.058-9.9,16.3-18.837c0,0-2.269,19.082-16.3,18.837" transform="translate(-1247.634 -32.234)" fill="#e6d0be"/>
        <path id="Trazado_836191" data-name="Trazado 836191" d="M1299.578,87.012c.2.144,4.015-8.959-4.208-20.757,0,0-3.118,15.406,4.208,20.757" transform="translate(-1160.287 -59.376)" fill="#e6d0be"/>
        <path id="Trazado_836192" data-name="Trazado 836192" d="M1186,184.393s.922-8.475-10.987-18.653c0,0,3.614,17.876,10.987,18.653" transform="translate(-1053.017 -148.532)" fill="#e6d0be"/>
        <path id="Trazado_836193" data-name="Trazado 836193" d="M1093.685,316.008c.243.011-1.6-9.687-14.967-14.986,0,0,5.9,14.567,14.967,14.986" transform="translate(-966.72 -269.768)" fill="#e6d0be"/>
        <path id="Trazado_836194" data-name="Trazado 836194" d="M1025.923,457.738s-3.891-6.566-17.891-7.529c0,0,12.189,10.893,17.891,7.529" transform="translate(-903.373 -403.466)" fill="#e6d0be"/>
        <path id="Trazado_836195" data-name="Trazado 836195" d="M1353.372,254.921c-.169-.134,6.7-5.562,18.732-1.348,0,0-12.417,6.331-18.732,1.348" transform="translate(-1212.855 -225.812)" fill="#e6d0be"/>
        <path id="Trazado_836196" data-name="Trazado 836196" d="M1301.686,356.6s7.916-3.163,20.918,5.576c0,0-18.19,1.318-20.918-5.576" transform="translate(-1166.538 -319.075)" fill="#e6d0be"/>
        <path id="Trazado_836197" data-name="Trazado 836197" d="M1242.88,466.286c-.076-.231,9.76-1.061,18.454,10.394,0,0-15.617-1.776-18.454-10.394" transform="translate(-1113.837 -417.776)" fill="#e6d0be"/>
        <path id="Trazado_836198" data-name="Trazado 836198" d="M1197.939,539.735s7.369,1.985,12.056,15.212c0,0-13.766-8.817-12.056-15.212" transform="translate(-1073.431 -483.697)" fill="#e6d0be"/>
        <path id="Trazado_836199" data-name="Trazado 836199" d="M421,471.261a64.671,64.671,0,0,1-26.25,52.073c-10.765,7.975-24.088,11.864-38.514,11.864-14.319,0-27.552-3.82-38.274-11.687A64.766,64.766,0,1,1,421,471.261" transform="translate(-261.21 -364.292)" fill="#efbc73"/>
      </g>
    </g>
    <g id="Grupo_1082031" data-name="Grupo 1082031" transform="translate(30.262 42.205)">
      <g id="Grupo_1082030" data-name="Grupo 1082030" clip-path="url(#clip-path-3)">
        <path id="Trazado_836200" data-name="Trazado 836200" d="M495.663,1163.268c.49-1.32,8.721-52.718,25.381-69.456h40.584s18.433,30.2,18.315,69.456Z" transform="translate(-474.463 -1022.452)" fill="#9e9569"/>
      </g>
    </g>
    <g id="Grupo_1082039" data-name="Grupo 1082039">
      <g id="Grupo_1082038" data-name="Grupo 1082038" clip-path="url(#clip-path)">
        <path id="Trazado_836202" data-name="Trazado 836202" d="M375.46,285.938c-1.043-6.185-6.135-10.671-9.614-13.735a50.232,50.232,0,0,1-4.642-4.279c-2.906-3.141-3.282-4.689-6.041-5.335-5.489-1.285-10.978,3.21-11.9,3.968-5.428,4.445-4.584,9.027-8.241,10.225-4.13,1.353-7.062-3.883-14.04-6.867-7.486-3.2-19.133-3.6-26.249,2.594-4.931,4.291-7.108,11.245-6.911,18.083,1.924-2.508,5.419-5.937,10.449-6.534,0,0-7.9,3.985-9.65,12.542a21.622,21.622,0,0,0,6.113,11.01c1.228,1.108,4.4,3.615,19.687,4.426,8.319.441,10.23-.294,44.41-6.257,3.1-.541,7.376-1.283,11.053-4.671,3.758-3.463,6.557-9.381,5.581-15.168" transform="translate(-257.924 -235.119)" fill="#363e44"/>
        <path id="Trazado_836203" data-name="Trazado 836203" d="M411.129,396.032a8.979,8.979,0,0,1-2.8-.448,19.64,19.64,0,0,1-6.718-4.468q-1.08-.971-2.15-1.956a90.386,90.386,0,0,0-8.241-6.959,27.363,27.363,0,0,0-12.382-5.3,15.492,15.492,0,0,0-12.55,3.7.229.229,0,0,1-.316-.331,15.943,15.943,0,0,1,12.923-3.823,27.808,27.808,0,0,1,12.593,5.383,90.7,90.7,0,0,1,8.284,6.994q1.071.98,2.147,1.954a19.267,19.267,0,0,0,6.556,4.374c2.265.754,5.38.628,7.233-1.35a.229.229,0,0,1,.334.313,6.618,6.618,0,0,1-4.912,1.919" transform="translate(-327.912 -337.236)" fill="#fff"/>
        <path id="Trazado_836204" data-name="Trazado 836204" d="M568.5,520.571a12.69,12.69,0,0,1-3.58-.509c-2.947-.867-5.459-2.749-7.887-4.57-.443-.333-.886-.665-1.331-.99-2.732-2-6.015-4.028-9.633-3.9a.22.22,0,0,1-.237-.221.229.229,0,0,1,.221-.237c3.782-.135,7.287,2.065,9.919,3.99.446.326.89.659,1.335.993,2.4,1.8,4.874,3.653,7.742,4.5a12.556,12.556,0,0,0,10.195-1.461.229.229,0,0,1,.247.385,13,13,0,0,1-6.992,2.025" transform="translate(-489.162 -457.172)" fill="#fff"/>
        <path id="Trazado_836205" data-name="Trazado 836205" d="M1201.052,641.527c10.611-3.59,54.609-16.464,50.32-31.055-3.172-10.791-13.373-14.227-48.111-2.167,1.916,7.831-4.126,25.391-2.209,33.221" transform="translate(-1076.011 -538.325)" fill="#e2a18d"/>
        <path id="Trazado_836206" data-name="Trazado 836206" d="M159.847,727.562c-10.4,4.162-44.183,23.93-39.77,36.792,2.416,7.041,8.4,8.726,22.692,3.426,7.3-2.709,24.917-12.3,28.5-13.473-2.34-7.715-9.083-19.029-11.423-26.744" transform="translate(-107.256 -652.022)" fill="#e2a18d"/>
        <path id="Trazado_836207" data-name="Trazado 836207" d="M137.917,1010.055c6.082,8.9,21.442,29.156,22.863,31.193,2.656,3.808,17.038,22.387,12.8,24.689-2,1.086-8.228-7.886-9.629-9.88,1.185,2.52,7.51,12.781,4.819,13.987-2.77,1.241-9.841-11.233-9.944-11.3.615,1.345,6.027,10.844,3.2,12.379-2.726,1.479-7-9.2-8.048-10.405.563,1.806,3.882,8.3,2.1,9.266-2.384,1.288-6.334-7.3-7.392-8.272-2.362-3.381-6.906-8.049-12-13.964-11.965-13.892-16.717-20.589-21.281-28.346a14.542,14.542,0,0,1,.728-15.781c7.324,2.148,14.458,4.291,21.781,6.439" transform="translate(-101.646 -899.415)" fill="#e2a18d"/>
        <path id="Trazado_836208" data-name="Trazado 836208" d="M344.972,1060.667a.228.228,0,0,1-.188-.1c-.71-1.013-1.862-2.62-2.879-4.038-.927-1.294-1.729-2.411-2.017-2.83a.229.229,0,1,1,.377-.26c.287.415,1.086,1.531,2.013,2.823,1.017,1.419,2.17,3.027,2.882,4.042a.229.229,0,0,1-.187.36" transform="translate(-304.563 -943.979)" fill="#363e44"/>
        <path id="Trazado_836209" data-name="Trazado 836209" d="M581.174,1447.208a.229.229,0,0,1-.119-.425l1.749-1.056a.229.229,0,0,1,.237.392l-1.749,1.056a.229.229,0,0,1-.118.033" transform="translate(-520.628 -1295.594)" fill="#363e44"/>
        <path id="Trazado_836210" data-name="Trazado 836210" d="M538.477,1473.085a.229.229,0,0,1-.119-.425l1.749-1.056a.229.229,0,0,1,.237.392l-1.749,1.057a.228.228,0,0,1-.118.033" transform="translate(-482.364 -1318.784)" fill="#363e44"/>
        <path id="Trazado_836211" data-name="Trazado 836211" d="M495.292,1499.915a.229.229,0,0,1-.119-.425l1.749-1.057a.229.229,0,0,1,.237.392l-1.749,1.056a.225.225,0,0,1-.118.033" transform="translate(-443.663 -1342.829)" fill="#363e44"/>
        <path id="Trazado_836212" data-name="Trazado 836212" d="M455.624,1523.438a.229.229,0,0,1-.119-.425l1.749-1.056a.229.229,0,0,1,.237.392l-1.749,1.056a.228.228,0,0,1-.118.033" transform="translate(-408.113 -1363.909)" fill="#363e44"/>
        <path id="Trazado_836213" data-name="Trazado 836213" d="M1480.632,77.718c2.912-10.38,8.559-35.166,9.206-37.563,1.21-4.482,6.2-27.44,10.687-25.677,2.115.831-.755,11.372-1.381,13.727,1.169-2.527,4.966-13.968,7.619-12.681,2.731,1.324-2.282,14.758-2.271,14.883.635-1.335,4.435-11.586,7.431-10.4,2.885,1.139-2.548,11.273-2.8,12.853,1.022-1.592,3.868-8.311,5.748-7.566,2.519,1-1.521,9.542-1.587,10.98-1.073,3.983-1.729,10.464-2.987,18.168-2.955,18.095-5.032,26.039-8.042,34.522a14.541,14.541,0,0,1-12.559,9.584c-3.061-6.992-6-13.835-9.064-20.826" transform="translate(-1326.905 -12.888)" fill="#e2a18d"/>
        <path id="Trazado_836214" data-name="Trazado 836214" d="M1475.615,564.276a.229.229,0,0,1-.221-.29c.134-.487.476-1.819.871-3.362.433-1.689.924-3.6,1.244-4.8a.229.229,0,1,1,.442.118c-.319,1.194-.81,3.107-1.242,4.8-.4,1.545-.738,2.879-.874,3.37a.229.229,0,0,1-.22.168" transform="translate(-1322.203 -497.964)" fill="#363e44"/>
        <path id="Trazado_836215" data-name="Trazado 836215" d="M1548.038,115.514c-3.051-6.62-4.5-7.6-5.259-7.421-2.489.575-.583,14.358,2.079,17.727a10.814,10.814,0,0,0,2.878,2.459c.992.548,1.657.915,2.064.743.837-.354.992-3.156-1.762-13.507" transform="translate(-1381.561 -96.853)" fill="#e2a18d"/>
        <path id="Trazado_836216" data-name="Trazado 836216" d="M1613.156,197.587a.234.234,0,0,1-.037,0,.229.229,0,0,1-.189-.263c.73-4.462-4.718-7.031-4.773-7.057a.229.229,0,0,1,.192-.416c.058.027,5.821,2.739,5.034,7.546a.229.229,0,0,1-.226.192" transform="translate(-1441.07 -170.118)" fill="#363e44"/>
        <path id="Trazado_836217" data-name="Trazado 836217" d="M457.6,649.819a28.353,28.353,0,0,1,18.168-7.2l72.248-1.847-12.254,52.507h-60.22Z" transform="translate(-410.09 -574.242)" fill="#fff"/>
        <path id="Trazado_836218" data-name="Trazado 836218" d="M976.117,909.442a9.812,9.812,0,0,1-8.466-4.888.229.229,0,0,1,.4-.229,9.317,9.317,0,0,0,16.139,0,.229.229,0,0,1,.4.229,9.813,9.813,0,0,1-8.466,4.888" transform="translate(-867.157 -810.33)" fill="#363e44"/>
        <path id="Trazado_836219" data-name="Trazado 836219" d="M732.565,909.444a9.813,9.813,0,0,1-8.466-4.888.229.229,0,0,1,.4-.229,9.317,9.317,0,0,0,16.139,0,.229.229,0,0,1,.4.229,9.813,9.813,0,0,1-8.466,4.888" transform="translate(-648.892 -810.332)" fill="#363e44"/>
        <path id="Trazado_836220" data-name="Trazado 836220" d="M831.089,274.417a12.151,12.151,0,1,1-12.151-12.151,12.151,12.151,0,0,1,12.151,12.151" transform="translate(-723.023 -235.036)" fill="#363e44"/>
        <rect id="Rectángulo_380299" data-name="Rectángulo 380299" width="12.091" height="20.816" transform="translate(90.001 49.373)" fill="#e2a18d"/>
        <path id="Trazado_836221" data-name="Trazado 836221" d="M847.592,320.686c0,6.472-4.483,13.3-10.013,13.3s-10.013-6.827-10.013-13.3,4.483-11.719,10.013-11.719,10.013,5.247,10.013,11.719" transform="translate(-741.645 -276.888)" fill="#e2a18d"/>
        <path id="Trazado_836222" data-name="Trazado 836222" d="M873.709,523.04a8.319,8.319,0,0,1-5.757-2.566.229.229,0,0,1,.318-.329,7.872,7.872,0,0,0,5.439,2.437,8.061,8.061,0,0,0,5.838-2.842.229.229,0,1,1,.333.313,8.5,8.5,0,0,1-6.172,2.986" transform="translate(-777.774 -465.714)" fill="#363e44"/>
        <path id="Trazado_836223" data-name="Trazado 836223" d="M798.924,396.732c.9,1.982.556,4.082-.778,4.691s-3.148-.5-4.053-2.486-.556-4.082.778-4.691,3.148.5,4.053,2.486" transform="translate(-711.195 -353.164)" fill="#e2a18d"/>
        <path id="Trazado_836224" data-name="Trazado 836224" d="M804.659,412.007a.227.227,0,0,1-.149-.055,3.124,3.124,0,0,1-.8-1.08c-.542-1.187-.3-2.464.535-2.846a1.359,1.359,0,0,1,1.059-.008.229.229,0,1,1-.161.429.91.91,0,0,0-.708,0c-.6.272-.738,1.3-.309,2.239a2.668,2.668,0,0,0,.678.922.229.229,0,0,1-.149.4" transform="translate(-720.008 -365.563)" fill="#363e44"/>
        <path id="Trazado_836225" data-name="Trazado 836225" d="M826.266,405.7a.229.229,0,0,1-.217-.157,13.673,13.673,0,0,1-.686-4.309,14.017,14.017,0,0,1,.172-2.195.229.229,0,0,1,.452.072,13.546,13.546,0,0,0-.167,2.123,13.215,13.215,0,0,0,.663,4.165.229.229,0,0,1-.145.289.232.232,0,0,1-.072.012" transform="translate(-739.67 -357.436)" fill="#363e44"/>
        <path id="Trazado_836226" data-name="Trazado 836226" d="M997.674,396.732c-.9,1.982-.556,4.082.778,4.691s3.148-.5,4.053-2.486.556-4.082-.778-4.691-3.148.5-4.053,2.486" transform="translate(-893.64 -353.164)" fill="#e2a18d"/>
        <path id="Trazado_836227" data-name="Trazado 836227" d="M1024.775,412.008a.229.229,0,0,1-.149-.4,2.672,2.672,0,0,0,.678-.922c.43-.941.288-1.967-.308-2.239a.913.913,0,0,0-.708,0,.229.229,0,1,1-.161-.429,1.362,1.362,0,0,1,1.059.008c.837.382,1.077,1.659.535,2.846a3.125,3.125,0,0,1-.8,1.08.227.227,0,0,1-.148.055" transform="translate(-917.664 -365.564)" fill="#363e44"/>
        <path id="Trazado_836228" data-name="Trazado 836228" d="M1010.938,405.7a.234.234,0,0,1-.072-.012.229.229,0,0,1-.145-.289,13.216,13.216,0,0,0,.663-4.165,13.576,13.576,0,0,0-.167-2.123.229.229,0,0,1,.452-.072,14,14,0,0,1,.172,2.195,13.67,13.67,0,0,1-.686,4.309.229.229,0,0,1-.217.157" transform="translate(-905.771 -357.436)" fill="#363e44"/>
        <path id="Trazado_836229" data-name="Trazado 836229" d="M923.953,438.773a.229.229,0,0,1-.123-.422,1.153,1.153,0,0,0,.557-.669,1.186,1.186,0,0,0-.17-.776,4.118,4.118,0,0,1-.312-.923,3.562,3.562,0,0,1,.053-1.539.229.229,0,0,1,.444.109,3.108,3.108,0,0,0-.048,1.343,3.728,3.728,0,0,0,.282.826,1.386,1.386,0,0,1-.561,2.015.228.228,0,0,1-.122.036" transform="translate(-827.818 -389.181)" fill="#363e44"/>
        <path id="Trazado_836230" data-name="Trazado 836230" d="M901.8,480.907a1.294,1.294,0,0,1-1.072-.534,1.333,1.333,0,0,1-.022-1.424.229.229,0,0,1,.4.229.875.875,0,0,0,0,.933.907.907,0,0,0,1.189.208.229.229,0,0,1,.225.4,1.461,1.461,0,0,1-.718.189" transform="translate(-807.015 -429.119)" fill="#363e44"/>
        <path id="Trazado_836231" data-name="Trazado 836231" d="M800.106,643.355S792.894,650.87,784,650.87s-16.108-7.515-16.108-7.515a51.475,51.475,0,0,1,32.216,0" transform="translate(-688.164 -574.242)" fill="#e2a18d"/>
        <path id="Trazado_836232" data-name="Trazado 836232" d="M947.81,405.6l-.026,0c-.014.054-.05.123-.107.121a1.649,1.649,0,0,0-.146.3c-.083.155-.318.017-.236-.138.056-.1-.315.1-.477.158-.518.2-1.043.375-1.575.535-.248.074-.5.151-.747.216a6.459,6.459,0,0,1-.916.23,6.772,6.772,0,0,0-1.049,1.2,6.973,6.973,0,0,0,2.222.5c0-.017.007-.033.01-.05a10.631,10.631,0,0,1,3-.721,6.957,6.957,0,0,0,1.927-1.878,6.917,6.917,0,0,0-1.877-.47" transform="translate(-844.673 -363.483)" fill="#fff"/>
        <path id="Trazado_836233" data-name="Trazado 836233" d="M954.759,405.471a5.559,5.559,0,0,0-2.112,1.251,2.256,2.256,0,0,0,.769,1.445,2.289,2.289,0,0,0,.364.255,5.216,5.216,0,0,0,1.809-.193,4.954,4.954,0,0,0,1.216-.566,2.266,2.266,0,0,0,.044-2.361,5.36,5.36,0,0,0-2.09.169" transform="translate(-853.738 -363.191)" fill="#363e44"/>
        <path id="Trazado_836234" data-name="Trazado 836234" d="M840.785,407.481l.026,0c.014.054.05.123.107.121a1.635,1.635,0,0,1,.146.3c.083.155.318.017.236-.138-.056-.1.315.1.477.158.518.2,1.043.375,1.575.534.248.074.5.151.746.216a6.475,6.475,0,0,0,.916.231,6.771,6.771,0,0,1,1.049,1.2,6.972,6.972,0,0,1-2.222.5c0-.017-.007-.033-.01-.05a10.625,10.625,0,0,0-3-.721,6.959,6.959,0,0,1-1.927-1.878,6.914,6.914,0,0,1,1.876-.469" transform="translate(-751.809 -365.172)" fill="#fff"/>
        <path id="Trazado_836235" data-name="Trazado 836235" d="M856.642,407.356a5.562,5.562,0,0,1,2.112,1.251,2.256,2.256,0,0,1-1.133,1.7,5.212,5.212,0,0,1-1.809-.193,4.964,4.964,0,0,1-1.216-.566,2.266,2.266,0,0,1-.044-2.362,5.36,5.36,0,0,1,2.09.169" transform="translate(-765.55 -364.88)" fill="#363e44"/>
        <path id="Trazado_836236" data-name="Trazado 836236" d="M827.568,224.678s1.246-4.12,6.093-1.221,18.231,4.578,19.932-5.647-6.72-9.864-9.856-6.27-4.485,8.338-10.077,8.06-6.093,5.078-6.093,5.078" transform="translate(-741.646 -187.521)" fill="#363e44"/>
        <path id="Trazado_836237" data-name="Trazado 836237" d="M920.531,301.9a19.643,19.643,0,0,1-7.338-1.6.229.229,0,0,1,.172-.424c3.782,1.537,7.183,1.948,10.11,1.224,3.048-.754,6.256-3.319,6.491-6.763a.229.229,0,0,1,.457.031c-.25,3.662-3.63,6.382-6.838,7.176a12.673,12.673,0,0,1-3.054.36" transform="translate(-818.252 -263.585)" fill="#fff"/>
        <g id="Grupo_1082034" data-name="Grupo 1082034" transform="translate(128.673 111.72)" opacity="0.5">
          <g id="Grupo_1082033" data-name="Grupo 1082033">
            <g id="Grupo_1082032" data-name="Grupo 1082032" clip-path="url(#clip-path-5)">
              <path id="Trazado_836238" data-name="Trazado 836238" d="M1295.682,1076.033h-56.363v15.454h5.313v9.086l8.7-9.086h42.355Z" transform="translate(-1239.319 -1076.033)" fill="#fff"/>
            </g>
          </g>
        </g>
        <path id="Trazado_836239" data-name="Trazado 836239" d="M1259.223,1115.965v-9.427h-5.312v-15.912h56.821v15.912h-42.487Zm-4.855-9.885h5.313v8.744l8.369-8.744h42.224v-15h-55.906Z" transform="translate(-1123.724 -977.391)" fill="#fff"/>
        <path id="Trazado_836240" data-name="Trazado 836240" d="M1278.557,1129.371l2.51.318-1.779,1.8.474,2.485-2.261-1.136-2.218,1.219.382-2.5-1.844-1.733,2.5-.41,1.078-2.289Z" transform="translate(-1141.567 -1010.099)" fill="#d87355"/>
        <path id="Trazado_836241" data-name="Trazado 836241" d="M1379.342,1129.371l2.51.318-1.779,1.8.474,2.485-2.261-1.136-2.218,1.219.382-2.5-1.844-1.733,2.5-.41,1.078-2.289Z" transform="translate(-1231.887 -1010.099)" fill="#d87355"/>
        <path id="Trazado_836242" data-name="Trazado 836242" d="M1480.127,1129.371l2.51.318-1.779,1.8.474,2.485-2.261-1.136-2.218,1.219.382-2.5-1.844-1.733,2.5-.41,1.078-2.289Z" transform="translate(-1322.208 -1010.099)" fill="#d87355"/>
        <path id="Trazado_836243" data-name="Trazado 836243" d="M1580.911,1129.371l2.51.318-1.779,1.8.473,2.485-2.261-1.136-2.218,1.219.382-2.5-1.844-1.733,2.5-.41,1.078-2.289Z" transform="translate(-1412.529 -1010.099)" fill="#d87355"/>
        <path id="Trazado_836244" data-name="Trazado 836244" d="M1681.7,1129.371l2.51.318-1.779,1.8.474,2.485-2.261-1.136-2.218,1.219.382-2.5-1.844-1.733,2.5-.41,1.078-2.289Z" transform="translate(-1502.85 -1010.099)" fill="#d87355"/>
        <g id="Grupo_1082037" data-name="Grupo 1082037" transform="translate(10.043 10.186)" opacity="0.5">
          <g id="Grupo_1082036" data-name="Grupo 1082036">
            <g id="Grupo_1082035" data-name="Grupo 1082035" clip-path="url(#clip-path-6)">
              <path id="Trazado_836245" data-name="Trazado 836245" d="M158.15,105.092a7.009,7.009,0,0,1-6.988,6.988H103.715a6.988,6.988,0,0,1,0-13.976h47.447a7.009,7.009,0,0,1,6.988,6.988" transform="translate(-96.727 -98.104)" fill="#fff"/>
            </g>
          </g>
        </g>
        <path id="Trazado_836246" data-name="Trazado 836246" d="M180.8,136.538H136.053a7.8,7.8,0,1,1,0-15.6H180.8a7.8,7.8,0,1,1,0,15.6m-44.751-15.146a7.344,7.344,0,1,0,0,14.689H180.8a7.344,7.344,0,0,0,0-14.689Z" transform="translate(-114.935 -108.378)" fill="#fff"/>
        <path id="Trazado_836247" data-name="Trazado 836247" d="M182.381,170.654a2.754,2.754,0,1,1-2.754-2.754,2.754,2.754,0,0,1,2.754,2.754" transform="translate(-158.509 -150.467)" fill="#efbc73"/>
        <path id="Trazado_836248" data-name="Trazado 836248" d="M267.189,170.654a2.754,2.754,0,1,1-2.754-2.754,2.754,2.754,0,0,1,2.754,2.754" transform="translate(-234.512 -150.467)" fill="#efbc73"/>
        <path id="Trazado_836249" data-name="Trazado 836249" d="M352,170.654a2.754,2.754,0,1,1-2.754-2.754A2.754,2.754,0,0,1,352,170.654" transform="translate(-310.515 -150.467)" fill="#efbc73"/>
        <path id="Trazado_836250" data-name="Trazado 836250" d="M436.8,170.654a2.754,2.754,0,1,1-2.754-2.754,2.754,2.754,0,0,1,2.754,2.754" transform="translate(-386.517 -150.467)" fill="#efbc73"/>
      </g>
    </g>
  </g>
</svg>
