<svg xmlns="http://www.w3.org/2000/svg" xmlns:xlink="http://www.w3.org/1999/xlink" width="107" height="107" viewBox="0 0 107 107">
  <defs>
    <clipPath id="clip-path">
      <rect id="Rectángulo_380025" data-name="Rectángulo 380025" width="80.537" height="80.626" fill="#fff"/>
    </clipPath>
  </defs>
  <g id="Grupo_1082121" data-name="Grupo 1082121" transform="translate(-285 -2202.165)">
    <g id="Grupo_156312" data-name="Grupo 156312" transform="translate(-3.668 -2245.835)">
      <circle id="Elipse_5845" data-name="Elipse 5845" cx="53.5" cy="53.5" r="53.5" transform="translate(288.668 4448)" fill="#9f0f6a"/>
    </g>
    <g id="Grupo_1081606" data-name="Grupo 1081606" transform="translate(298.231 2215.352)">
      <g id="Grupo_1081605" data-name="Grupo 1081605" transform="translate(0 0)" clip-path="url(#clip-path)">
        <path id="Trazado_835209" data-name="Trazado 835209" d="M29.49,35.224a15.409,15.409,0,0,1-7.433,10.1C12.46,50.813.109,43.721.027,32.659A14.645,14.645,0,0,1,11.669,17.791c1.232-.284,1.717-.762,1.6-1.971a10.119,10.119,0,0,1,0-1.721c.146-1.83-.107-3.229-1.921-4.459-2.674-1.817-2.667-5.719-.377-8a5.542,5.542,0,0,1,7.988.23,5.386,5.386,0,0,1-.841,8.006,3.285,3.285,0,0,0-1.683,3.472c.123,1.241-.373,2.635.227,3.7.612,1.094,2.158.757,3.242,1.212a15.334,15.334,0,0,1,3.445,1.842,1.262,1.262,0,0,0,1.9-.07c1.908-1.705,3.852-3.374,5.846-4.977a4.174,4.174,0,0,0,1.219-2.776c1.33-6.2,5.036-10.264,11.173-11.828a14.706,14.706,0,0,1,17.781,10.5,3.236,3.236,0,0,0,1.978,2.367c2.29,1.019,4.548,2.115,6.774,3.265a2.739,2.739,0,0,0,2.765.045A5.383,5.383,0,0,1,80.1,19.426a5.5,5.5,0,1,1-10.162,4.188,3.286,3.286,0,0,1-.323-1.83c.33-1.683-.537-2.437-1.951-3.015-1.546-.632-3.015-1.442-4.516-2.178-.782-.387-1.335-.489-1.517.675a14.441,14.441,0,0,1-3.69,7.649,1.358,1.358,0,0,0-.064,2.046c1.792,2.315,3.536,4.664,5.273,7.017a1.94,1.94,0,0,0,1.705.9c6.405-.068,12.995,5.039,14.236,12.642a15.084,15.084,0,0,1-8.818,15.8,14.656,14.656,0,0,1-17.7-4.6c-.93-1.2-1.612-1.437-2.66-.343a.458.458,0,0,1-.125.1c-2.772,1.335-3.72,3.356-2.71,6.385a2.738,2.738,0,0,0,1.478,1.969c2.137.975,4.268,1.976,6.353,3.056a3.424,3.424,0,0,0,3.358.164,5.352,5.352,0,0,1,6.946,2.535,5.5,5.5,0,0,1-9.179,5.96A5.057,5.057,0,0,1,54.9,74.731a1.891,1.891,0,0,0-1.332-2.165c-1.865-.819-3.715-1.68-5.5-2.647-1.1-.593-1.448-.314-1.851.8a14.723,14.723,0,0,1-19.238,8.918,14.3,14.3,0,0,1-9.261-10.828c-.268-1.189-.775-1.589-1.892-1.5a11.587,11.587,0,0,1-1.564,0c-1.905-.109-3.436.009-4.75,1.987-1.746,2.626-5.625,2.567-7.881.348a5.537,5.537,0,0,1,.15-7.99c2.294-2.1,6.173-1.951,7.9.65,1.1,1.658,2.335,1.887,4.036,1.849,3.363-.08,3.3-.048,4.47-3.267a14.3,14.3,0,0,1,11.928-9.855A14.257,14.257,0,0,1,43.87,56.472c1.4,1.7.882,1.783,2.974.457,2.226-1.41,3.183-2.838,2.856-5.837-.794-7.251,2.606-12.335,9.391-15.318.928-.407,1.1-.75.464-1.564q-2.118-2.715-4.143-5.509a1.248,1.248,0,0,0-1.837-.482,14.862,14.862,0,0,1-20.86-8.981c-.293-.96-.673-1.062-1.4-.423-1.335,1.171-2.672,2.34-4.047,3.465-.625.512-.621.932-.168,1.576a14.923,14.923,0,0,1,2.54,6.671,2.554,2.554,0,0,0,1.089,1.8c1.66,1.269,3.338,2.522,4.934,3.865a2.23,2.23,0,0,0,2.667.359,5.368,5.368,0,0,1,7.056,3.138,5.489,5.489,0,0,1-10.252,3.927,5.289,5.289,0,0,1-.241-2.931,1.644,1.644,0,0,0-.73-1.855c-1.514-1.107-2.974-2.287-4.67-3.6M6.5,40.524c.732-3.292,2.062-4.375,5.255-4.386,2.246-.007,4.493.014,6.737,0a4.755,4.755,0,0,1,3.174,1.119c.937.775,1.139,1.937,1.539,3.013,4.279-2.988,4.643-10.648.821-15.45A11.9,11.9,0,0,0,6.753,23.639,11.719,11.719,0,0,0,6.5,40.524M72.82,57.832a11.711,11.711,0,0,0-.734-17.108,11.872,11.872,0,0,0-17.1,1.712c-3.615,4.47-3.133,12.217.953,15.291,1.135-3.44,2.317-4.279,6.044-4.286q2.19,0,4.379,0c4.1,0,4.927.553,6.46,4.391m-17.5-34.893c2.9-2.058,4.257-7.349,2.958-11.539A11.86,11.86,0,0,0,35.8,10.9c-1.521,4.234-.309,9.648,2.694,12.031,1.789-3.954,2.306-4.275,6.874-4.277,1.357,0,2.713,0,4.07,0,3.583.011,4.845.935,5.878,4.282M40.552,73.964c4.541-3.822,4.652-11.815.225-16.383a11.772,11.772,0,0,0-17.167.03c-4.325,4.807-4.236,12.729.236,16.185a3.378,3.378,0,0,0,.271-.546c.73-2.542,1.73-3.495,4.37-3.686,2.181-.159,4.379-.127,6.567-.07,3.513.093,4.748,1.139,5.5,4.47m-25.635-34.8c-1.2,0-2.4-.009-3.6,0-.9.007-1.6.4-1.612,1.337-.016,1.005-.582,2.269.925,2.806a12.2,12.2,0,0,0,8.424,0c1.41-.5,1.048-1.651.975-2.635a1.517,1.517,0,0,0-1.664-1.512q-1.722,0-3.447,0m17.367,33.5q-1.722,0-3.445,0c-.869,0-1.623.25-1.646,1.255-.023,1.028-.525,2.306.907,2.847a11.2,11.2,0,0,0,8.4-.055c1.4-.568.823-1.874.8-2.892-.02-.914-.766-1.148-1.569-1.153-1.148-.007-2.3,0-3.445,0m14.67-50.8v-.009c-1.141,0-2.285-.009-3.429,0-.764.007-1.573.1-1.6,1.071-.02,1.066-.616,2.422.859,3a10.952,10.952,0,0,0,8.5-.086c1.332-.555.734-1.792.748-2.749.011-.9-.684-1.216-1.5-1.228-1.194-.018-2.39,0-3.586,0M64.513,56.636v.009c-1.253,0-2.506-.014-3.759,0-.807.011-1.528.3-1.53,1.212,0,.966-.559,2.185.778,2.758a10.8,10.8,0,0,0,8.533.059c1.387-.553.834-1.864.823-2.895-.014-.962-.762-1.139-1.553-1.146-1.1-.007-2.194,0-3.292,0M14.913,3.1a2.341,2.341,0,0,0-2.467,2.287,2.335,2.335,0,0,0,2.36,2.544A2.338,2.338,0,0,0,17.28,5.656,2.367,2.367,0,0,0,14.913,3.1M7.887,65.72a2.334,2.334,0,0,0-2.328-2.426,2.419,2.419,0,1,0-.011,4.836,2.318,2.318,0,0,0,2.34-2.41M62.744,75.06a2.419,2.419,0,1,0-2.453,2.46,2.329,2.329,0,0,0,2.453-2.46M75.1,19.123a2.374,2.374,0,0,0-2.458,2.308,2.42,2.42,0,0,0,4.832.275A2.472,2.472,0,0,0,75.1,19.123M40.334,39.187a2.474,2.474,0,0,0-2.488,2.308,2.419,2.419,0,0,0,4.829.282,2.412,2.412,0,0,0-2.342-2.59" transform="translate(0 0)" fill="#fff"/>
        <path id="Trazado_835210" data-name="Trazado 835210" d="M15.039,15.58A5.453,5.453,0,1,1,9.662,9.993a5.541,5.541,0,0,1,5.377,5.587M12.011,15.5A2.315,2.315,0,0,0,9.6,13.179a2.288,2.288,0,0,0-2.426,2.447A2.5,2.5,0,0,0,9.56,18.043a2.583,2.583,0,0,0,2.451-2.54" transform="translate(5.265 12.729)" fill="#fff"/>
        <path id="Trazado_835211" data-name="Trazado 835211" d="M31.427,28.587a5.453,5.453,0,1,1-.136-10.905,5.453,5.453,0,1,1,.136,10.905m2.41-5.418a2.412,2.412,0,0,0-2.319-2.46,2.343,2.343,0,0,0-2.513,2.4,2.3,2.3,0,0,0,2.447,2.437,2.352,2.352,0,0,0,2.385-2.374" transform="translate(32.948 22.523)" fill="#fff"/>
        <path id="Trazado_835212" data-name="Trazado 835212" d="M23.679,2.381a5.593,5.593,0,0,1,5.6,5.384,5.6,5.6,0,0,1-5.573,5.587,5.486,5.486,0,0,1-.032-10.971m2.431,5.53a2.329,2.329,0,0,0-2.237-2.5,2.577,2.577,0,0,0-2.615,2.372,2.435,2.435,0,0,0,2.476,2.465,2.27,2.27,0,0,0,2.376-2.34" transform="translate(23.213 3.033)" fill="#fff"/>
        <path id="Trazado_835213" data-name="Trazado 835213" d="M17.312,24.722a5.521,5.521,0,0,1,.011,11.041,5.657,5.657,0,0,1-5.575-5.607,5.585,5.585,0,0,1,5.564-5.434M17.3,27.751a2.611,2.611,0,0,0-2.517,2.5A2.431,2.431,0,0,0,17.221,32.6a2.209,2.209,0,0,0,2.419-2.431A2.364,2.364,0,0,0,17.3,27.751" transform="translate(14.964 31.491)" fill="#fff"/>
      </g>
    </g>
  </g>
</svg>
