<svg xmlns="http://www.w3.org/2000/svg" xmlns:xlink="http://www.w3.org/1999/xlink" width="107" height="107" viewBox="0 0 107 107">
  <defs>
    <clipPath id="clip-path">
      <rect id="Rectángulo_375559" data-name="Rectángulo 375559" width="68.602" height="69.666" fill="#fff"/>
    </clipPath>
  </defs>
  <g id="Grupo_156312" data-name="Grupo 156312" transform="translate(-288.668 -4448)">
    <path id="Elipse_5845" data-name="Elipse 5845" d="M53.5,0A53.5,53.5,0,1,1,0,53.5,53.5,53.5,0,0,1,53.5,0Z" transform="translate(288.668 4448)" fill="#9f0f6a"/>
    <g id="Grupo_1017066" data-name="Grupo 1017066" transform="translate(308.066 4466.667)">
      <g id="Grupo_1017065" data-name="Grupo 1017065" clip-path="url(#clip-path)">
        <path id="Trazado_717291" data-name="Trazado 717291" d="M20.555,158.356c-4.791,0-9.583.008-14.374,0-3.787-.009-6.13-2.339-6.154-6.092,0-.474.022-.95,0-1.423-.069-1.255.489-1.926,1.764-1.784,1.33.149,1.691-.385,1.681-1.685-.057-7.02-.029-14.042-.025-21.062,0-2.129.178-2.312,2.24-2.316,2.989-.006,5.977,0,8.966,0,.9,0,1.842.059,1.845,1.239s-.932,1.248-1.838,1.247c-2.467,0-4.934.03-7.4-.015-.965-.017-1.348.287-1.344,1.3q.048,10.033,0,20.066c0,.944.37,1.227,1.269,1.224q13.449-.03,26.9,0c1.059,0,1.266-.469,1.254-1.387-.036-2.751-.013-5.5-.012-8.254,0-.379,0-.759.005-1.138.009-.868.317-1.533,1.3-1.5.9.032,1.172.681,1.173,1.481,0,2.941.059,5.884-.017,8.823-.035,1.363.166,2.2,1.818,1.983,1.125-.149,1.649.507,1.621,1.629-.022.853.034,1.711-.029,2.561a5.671,5.671,0,0,1-5.555,5.087c-5.028.038-10.057.011-15.085.011Zm.066-6.83c-5.59,0-11.18.023-16.77-.018-1.21-.009-1.492.441-1.226,1.546.46,1.916,1.722,2.813,4.013,2.826.8,0,1.395-.07,1.4-1.1a1.086,1.086,0,0,1,1.191-1.141,1.089,1.089,0,0,1,1.216,1.114c.026.865.406,1.131,1.235,1.128q8.953-.032,17.907-.005c.708,0,1.2-.132,1.208-.99a1.132,1.132,0,0,1,1.242-1.246c.813.012,1.168.525,1.214,1.288.027.452.112.8.661.931a3.839,3.839,0,0,0,4.671-2.679c.35-1.416.174-1.65-1.329-1.652q-8.314-.01-16.628,0" transform="translate(-0.013 -88.694)" fill="#fff"/>
        <path id="Trazado_717292" data-name="Trazado 717292" d="M28.1,113.005a3.327,3.327,0,0,1,1.781-3.033,1.479,1.479,0,0,0,.87-1.57A4.282,4.282,0,0,1,33,104.233c7.479-4.019,13.292-10.2,19.951-15.271.71-.541,1.412-1.427,2.349-.767a3.875,3.875,0,0,1,1.716,3.121c.012,1.075-1.2,1.481-2.084.651-.632-.59-1-.439-1.545.009q-6.135,5.082-12.3,10.126c-.678.552-.656,1-.224,1.67.691,1.076,1.289,2.211,1.941,3.313.494.834.882,1.728-.178,2.342-1.1.635-1.627-.266-2.1-1.058-.632-1.058-1.268-2.116-1.846-3.2-.374-.7-.784-.838-1.466-.4-.878.561-1.82,1.023-2.7,1.585a2.137,2.137,0,0,0-.832,3.068c.641,1.215,1.331,2.408,2.069,3.567a2.05,2.05,0,0,0,3.044.859c6.6-4.1,14.137-5.919,21.22-8.836,1.8-.742,1.835-.687.839-2.435-1.173-2.06-2.367-4.108-3.549-6.163-.478-.83-.869-1.739.2-2.341.993-.558,1.575.192,2.027.976,1.66,2.874,3.333,5.741,4.958,8.634.868,1.545.631,2.148-1.059,2.788C58.522,108.329,53.6,110.2,48.658,112c-1.1.4-1.332.829-.639,1.8a16.51,16.51,0,0,1,1.272,2.219,3.6,3.6,0,0,1-1.333,4.833,3.556,3.556,0,0,1-4.843-1.279,28.487,28.487,0,0,1-1.628-2.835c-.387-.775-.809-.883-1.566-.471a4.24,4.24,0,0,1-4.592-.093c-.835-.547-1.483-.213-2.246.108a3.516,3.516,0,0,1-4.98-3.272m19,4.424c-.66-1.078-1.4-2.383-2.248-3.61-.24-.346-.687.068-1,.245-.363.2-.591.523-.361.933.621,1.105,1.251,2.206,1.927,3.278a.839.839,0,0,0,1.121.317c.363-.173.576-.472.56-1.163" transform="translate(-20.102 -62.921)" fill="#fff"/>
        <path id="Trazado_717293" data-name="Trazado 717293" d="M178.149,24.686c-2.229,0-4.459.024-6.688-.006a3.341,3.341,0,0,1-3.576-3.551c-.032-2.134-.006-4.269-.007-6.4,0-.841.216-1.562,1.216-1.577s1.258.676,1.26,1.531c0,1.85-.007,3.7.01,5.55.015,1.6.354,1.962,1.9,1.968,3.984.017,7.969-.015,11.953.017,1.323.01,1.894-.543,1.884-1.873q-.047-5.976,0-11.953c.01-1.294-.471-1.935-1.831-1.925q-6.047.045-12.1,0c-1.247-.007-1.861.514-1.819,1.785a11.944,11.944,0,0,1-.049,1.7,1.093,1.093,0,0,1-1.019,1.021c-.582.078-1.178-.143-1.249-.692-.216-1.675-.577-3.414.536-4.941a3.174,3.174,0,0,1,2.691-1.352c4.648,0,9.3-.025,13.945.016a3.242,3.242,0,0,1,3.345,3.332q.064,6.972,0,13.945a3.279,3.279,0,0,1-3.438,3.392c-2.324.041-4.648.009-6.973.01" transform="translate(-120.039 -2.851)" fill="#fff"/>
        <path id="Trazado_717294" data-name="Trazado 717294" d="M178.3,148.666c-2.229,0-4.459.024-6.688-.006a3.33,3.33,0,0,1-3.576-3.549q-.043-6.831,0-13.661a3.3,3.3,0,0,1,3.505-3.471q6.83-.046,13.661,0a3.308,3.308,0,0,1,3.51,3.467c.039,2.086.008,4.174.012,6.261,0,.911-.087,1.826-1.282,1.793s-1.2-.987-1.2-1.873c0-1.755-.033-3.511.008-5.265.03-1.3-.479-1.93-1.835-1.92q-6.048.045-12.1,0c-1.25-.007-1.824.523-1.817,1.79q.033,6.119,0,12.238c0,1.2.563,1.718,1.743,1.714q6.12-.022,12.238,0c1.285.007,1.8-.615,1.759-1.847a8.963,8.963,0,0,1,.061-1.7,1.092,1.092,0,0,1,1.209-.968,1.028,1.028,0,0,1,1.122.892,8.48,8.48,0,0,1-.162,3.94,3.21,3.21,0,0,1-3.2,2.159c-2.325,0-4.648,0-6.973,0" transform="translate(-120.185 -91.533)" fill="#fff"/>
        <path id="Trazado_717295" data-name="Trazado 717295" d="M.014,50.2c0-2.8.031-5.595-.014-8.392-.021-1.334.525-1.879,1.863-1.867q6.258.058,12.516,0c1.266-.009,1.8.522,1.791,1.789q-.038,8.606,0,17.211c0,1.2-.514,1.724-1.714,1.718q-6.33-.031-12.659,0C.527,60.68-.011,60.148,0,58.881.039,55.989.015,53.1.014,50.2m13.66.1c0-2.228-.021-4.456.011-6.684.012-.839-.284-1.2-1.155-1.19-2.939.03-5.879.035-8.817,0C2.77,42.42,2.481,42.8,2.487,43.7q.042,6.613,0,13.226c-.006.9.29,1.276,1.229,1.264,2.891-.038,5.784-.044,8.675,0,1.011.017,1.321-.376,1.3-1.342-.048-2.18-.015-4.361-.016-6.542" transform="translate(0 -28.575)" fill="#fff"/>
        <path id="Trazado_717296" data-name="Trazado 717296" d="M84.751,10.376a10.349,10.349,0,1,1-20.7-.054,10.349,10.349,0,1,1,20.7.054M74.46,18.19a8.042,8.042,0,0,0,7.784-7.866,7.842,7.842,0,1,0-15.684.116,8.045,8.045,0,0,0,7.9,7.749" transform="translate(-45.82 0)" fill="#fff"/>
        <path id="Trazado_717297" data-name="Trazado 717297" d="M197.371,152.747a4.654,4.654,0,1,1-4.567-4.738,4.519,4.519,0,0,1,4.567,4.738m-2.549-.118a2.1,2.1,0,1,0-2.072,2.135,2.244,2.244,0,0,0,2.072-2.135" transform="translate(-134.53 -105.877)" fill="#fff"/>
        <path id="Trazado_717298" data-name="Trazado 717298" d="M194.873,20.106a10.97,10.97,0,0,1,1.558.015,1.2,1.2,0,0,1-.021,2.362c-.7.082-1.418.04-2.126.076a1.271,1.271,0,0,0-1.345,1.2c-.1.87.547.815,1.118.889a1.129,1.129,0,0,1,1.083,1.254,1.039,1.039,0,0,1-1.031,1.14c-1.21-.013-1.243.716-1.208,1.593a14.189,14.189,0,0,1-.03,1.845,1.21,1.21,0,0,1-2.414-.009,12.8,12.8,0,0,1-.03-1.561c.025-.977.124-1.917-1.354-1.907-.622,0-.934-.6-.883-1.251a1.115,1.115,0,0,1,1.091-1.1c.6-.058,1.049-.109,1.158-.909.4-2.945,1.326-3.678,4.438-3.629" transform="translate(-134.614 -14.367)" fill="#fff"/>
        <path id="Trazado_717299" data-name="Trazado 717299" d="M161.625,111.565c-1.217.052-1.88-.2-2-1.052s.458-1.284,1.23-1.445c1.752-.366,3.5-.74,5.264-1.053.792-.141,1.568-.01,1.742.975.167.945-.419,1.395-1.247,1.569-1.8.378-3.6.728-4.987,1.006" transform="translate(-114.173 -77.234)" fill="#fff"/>
        <path id="Trazado_717300" data-name="Trazado 717300" d="M141.9,65.335a1.708,1.708,0,0,1-.408,1.035q-1.481,1.985-2.977,3.959c-.515.675-1.189,1.027-1.951.475s-.62-1.322-.125-2c1.03-1.408,2.086-2.8,3.151-4.181a1.277,1.277,0,0,1,1.638-.434,1.119,1.119,0,0,1,.671,1.145" transform="translate(-97.304 -45.821)" fill="#fff"/>
        <path id="Trazado_717301" data-name="Trazado 717301" d="M155.047,85.3a1.426,1.426,0,0,1-.67,1.184c-1.353,1.026-2.7,2.058-4.078,3.054-.679.492-1.437.628-2-.147a1.254,1.254,0,0,1,.391-1.855c1.382-1.065,2.781-2.11,4.186-3.146a1.384,1.384,0,0,1,1.592-.154,1.123,1.123,0,0,1,.575,1.063" transform="translate(-105.898 -60.121)" fill="#fff"/>
        <path id="Trazado_717302" data-name="Trazado 717302" d="M19.663,74.466c-.757,0-1.516.031-2.271-.01a1.213,1.213,0,0,1,.038-2.426q2.27-.052,4.543,0a1.108,1.108,0,0,1,1.182,1.158,1.141,1.141,0,0,1-1.221,1.267c-.755.038-1.514.009-2.271.007" transform="translate(-11.595 -51.509)" fill="#fff"/>
        <path id="Trazado_717303" data-name="Trazado 717303" d="M19.654,90.471c-.71,0-1.42.017-2.13,0-.759-.022-1.287-.37-1.311-1.184a1.128,1.128,0,0,1,1.23-1.254c1.514-.032,3.029-.034,4.543.005A1.105,1.105,0,0,1,23.158,89.2a1.144,1.144,0,0,1-1.232,1.257c-.755.036-1.514.008-2.271.008v0" transform="translate(-11.598 -62.952)" fill="#fff"/>
        <path id="Trazado_717304" data-name="Trazado 717304" d="M26.539,58.47c-.331,0-.662.01-.993,0-.757-.028-1.3-.354-1.328-1.168-.032-.89.521-1.264,1.348-1.289C26.18,55.993,26.8,56,27.41,56c.8,0,1.438.272,1.468,1.174.034.983-.621,1.289-1.488,1.3-.284,0-.568,0-.851,0V58.47" transform="translate(-17.323 -40.059)" fill="#fff"/>
        <path id="Trazado_717305" data-name="Trazado 717305" d="M88.032,24.621c0-.994-.028-1.989.007-2.982.049-1.413.783-1.976,2.021-1.408q3.288,1.509,6.476,3.233a1.273,1.273,0,0,1,.043,2.373c-2.161,1.175-4.368,2.27-6.6,3.293-1.109.507-1.862-.029-1.925-1.245-.056-1.086-.012-2.177-.012-3.265h-.005" transform="translate(-62.965 -14.316)" fill="#fff"/>
      </g>
    </g>
  </g>
</svg>
