<svg xmlns="http://www.w3.org/2000/svg" width="63.44" height="67.969" viewBox="0 0 63.44 67.969">
  <g id="calendario_3_" data-name="calendario (3)" transform="translate(-17.058)">
    <g id="Grupo_1068194" data-name="Grupo 1068194" transform="translate(17.058)">
      <path id="Trazado_721118" data-name="Trazado 721118" d="M47.482,367.462H21.59a4.531,4.531,0,0,1-4.531-4.531V358.4H51.835Z" transform="translate(-17.059 -310.821)" fill="#d3dcfb"/>
      <path id="Trazado_721119" data-name="Trazado 721119" d="M75.97,79.594v31.719H21.59a4.531,4.531,0,0,1-4.531-4.531V79.594L48.78,68.266Z" transform="translate(-17.059 -59.203)" fill="#ebf5fc"/>
      <g id="Grupo_1068187" data-name="Grupo 1068187" transform="translate(4.533 24.922)">
        <path id="Trazado_721120" data-name="Trazado 721120" d="M54.672,192.265H52.265A1.062,1.062,0,0,1,51.2,191.2V188.8a1.062,1.062,0,0,1,1.062-1.062h2.407a1.062,1.062,0,0,1,1.062,1.062V191.2A1.062,1.062,0,0,1,54.672,192.265Z" transform="translate(-51.203 -187.734)" fill="#3c58a0"/>
        <path id="Trazado_721121" data-name="Trazado 721121" d="M122.939,192.265h-2.407a1.062,1.062,0,0,1-1.062-1.062V188.8a1.062,1.062,0,0,1,1.062-1.062h2.407A1.062,1.062,0,0,1,124,188.8V191.2A1.062,1.062,0,0,1,122.939,192.265Z" transform="translate(-110.407 -187.734)" fill="#3c58a0"/>
        <path id="Trazado_721122" data-name="Trazado 721122" d="M191.205,192.265H188.8a1.062,1.062,0,0,1-1.062-1.062V188.8a1.062,1.062,0,0,1,1.062-1.062h2.407a1.062,1.062,0,0,1,1.062,1.062V191.2A1.062,1.062,0,0,1,191.205,192.265Z" transform="translate(-169.611 -187.734)" fill="#3c58a0"/>
        <path id="Trazado_721123" data-name="Trazado 721123" d="M259.472,192.265h-2.407A1.062,1.062,0,0,1,256,191.2V188.8a1.062,1.062,0,0,1,1.062-1.062h2.407a1.062,1.062,0,0,1,1.062,1.062V191.2A1.062,1.062,0,0,1,259.472,192.265Z" transform="translate(-228.815 -187.734)" fill="#3c58a0"/>
        <path id="Trazado_721124" data-name="Trazado 721124" d="M327.727,192.265H325.32a1.062,1.062,0,0,1-1.062-1.062V188.8a1.062,1.062,0,0,1,1.062-1.062h2.407a1.062,1.062,0,0,1,1.062,1.062V191.2A1.062,1.062,0,0,1,327.727,192.265Z" transform="translate(-288.009 -187.734)" fill="#3c58a0"/>
        <path id="Trazado_721125" data-name="Trazado 721125" d="M395.994,192.265h-2.407a1.062,1.062,0,0,1-1.062-1.062V188.8a1.062,1.062,0,0,1,1.062-1.062h2.407a1.062,1.062,0,0,1,1.062,1.062V191.2A1.062,1.062,0,0,1,395.994,192.265Z" transform="translate(-347.214 -187.734)" fill="#3c58a0"/>
        <path id="Trazado_721126" data-name="Trazado 721126" d="M54.672,260.531H52.265a1.062,1.062,0,0,1-1.062-1.062v-2.407A1.062,1.062,0,0,1,52.265,256h2.407a1.062,1.062,0,0,1,1.062,1.062v2.407A1.062,1.062,0,0,1,54.672,260.531Z" transform="translate(-51.203 -246.938)" fill="#3c58a0"/>
        <path id="Trazado_721127" data-name="Trazado 721127" d="M122.939,260.531h-2.407a1.062,1.062,0,0,1-1.062-1.062v-2.407A1.062,1.062,0,0,1,120.532,256h2.407A1.062,1.062,0,0,1,124,257.062v2.407A1.062,1.062,0,0,1,122.939,260.531Z" transform="translate(-110.407 -246.938)" fill="#3c58a0"/>
        <path id="Trazado_721128" data-name="Trazado 721128" d="M191.205,260.531H188.8a1.062,1.062,0,0,1-1.062-1.062v-2.407A1.062,1.062,0,0,1,188.8,256h2.407a1.062,1.062,0,0,1,1.062,1.062v2.407A1.062,1.062,0,0,1,191.205,260.531Z" transform="translate(-169.611 -246.938)" fill="#3c58a0"/>
        <path id="Trazado_721129" data-name="Trazado 721129" d="M260.534,260.531v-3.4A1.133,1.133,0,0,0,259.4,256h-2.266A1.133,1.133,0,0,0,256,257.133V259.4a1.133,1.133,0,0,0,1.133,1.133Z" transform="translate(-228.815 -246.937)" fill="#3c58a0"/>
        <path id="Trazado_721130" data-name="Trazado 721130" d="M54.672,328.8H52.265a1.062,1.062,0,0,1-1.062-1.062v-2.407a1.062,1.062,0,0,1,1.062-1.062h2.407a1.062,1.062,0,0,1,1.062,1.062v2.407A1.062,1.062,0,0,1,54.672,328.8Z" transform="translate(-51.203 -306.142)" fill="#3c58a0"/>
        <path id="Trazado_721131" data-name="Trazado 721131" d="M122.939,328.8h-2.407a1.062,1.062,0,0,1-1.062-1.062v-2.407a1.062,1.062,0,0,1,1.062-1.062h2.407A1.062,1.062,0,0,1,124,325.329v2.407A1.062,1.062,0,0,1,122.939,328.8Z" transform="translate(-110.407 -306.142)" fill="#3c58a0"/>
        <path id="Trazado_721132" data-name="Trazado 721132" d="M191.205,328.8H188.8a1.062,1.062,0,0,1-1.062-1.062v-2.407a1.062,1.062,0,0,1,1.062-1.062h2.407a1.062,1.062,0,0,1,1.062,1.062v2.407A1.062,1.062,0,0,1,191.205,328.8Z" transform="translate(-169.611 -306.142)" fill="#3c58a0"/>
      </g>
      <path id="Trazado_721133" data-name="Trazado 721133" d="M400.489,187.733h-2.343a1.092,1.092,0,0,0-.4.077,1.093,1.093,0,0,1,.693,1.017v2.343a1.094,1.094,0,0,1-.693,1.017,1.089,1.089,0,0,0,.4.077h2.343a1.094,1.094,0,0,0,1.094-1.094v-2.343A1.094,1.094,0,0,0,400.489,187.733Z" transform="translate(-347.208 -162.811)" fill="#2a428c"/>
      <path id="Trazado_721134" data-name="Trazado 721134" d="M332.222,187.733h-2.343a1.091,1.091,0,0,0-.4.077,1.093,1.093,0,0,1,.693,1.017v2.343a1.094,1.094,0,0,1-.693,1.017,1.089,1.089,0,0,0,.4.077h2.343a1.094,1.094,0,0,0,1.094-1.094v-2.343A1.094,1.094,0,0,0,332.222,187.733Z" transform="translate(-288.003 -162.811)" fill="#2a428c"/>
      <path id="Trazado_721135" data-name="Trazado 721135" d="M263.967,187.733h-2.343a1.091,1.091,0,0,0-.4.077,1.094,1.094,0,0,1,.693,1.017v2.343a1.094,1.094,0,0,1-.693,1.017,1.089,1.089,0,0,0,.4.077h2.343a1.094,1.094,0,0,0,1.094-1.094v-2.343A1.094,1.094,0,0,0,263.967,187.733Z" transform="translate(-228.809 -162.811)" fill="#2a428c"/>
      <path id="Trazado_721136" data-name="Trazado 721136" d="M195.7,187.733h-2.343a1.092,1.092,0,0,0-.4.077,1.094,1.094,0,0,1,.693,1.017v2.343a1.094,1.094,0,0,1-.693,1.017,1.089,1.089,0,0,0,.4.077H195.7a1.094,1.094,0,0,0,1.094-1.094v-2.343A1.094,1.094,0,0,0,195.7,187.733Z" transform="translate(-169.605 -162.811)" fill="#2a428c"/>
      <path id="Trazado_721137" data-name="Trazado 721137" d="M127.433,187.733H125.09a1.092,1.092,0,0,0-.4.077,1.093,1.093,0,0,1,.693,1.017v2.343a1.094,1.094,0,0,1-.693,1.017,1.089,1.089,0,0,0,.4.077h2.343a1.094,1.094,0,0,0,1.094-1.094v-2.343A1.094,1.094,0,0,0,127.433,187.733Z" transform="translate(-110.401 -162.811)" fill="#2a428c"/>
      <path id="Trazado_721138" data-name="Trazado 721138" d="M59.167,187.733H56.824a1.092,1.092,0,0,0-.4.077,1.094,1.094,0,0,1,.693,1.017v2.343a1.094,1.094,0,0,1-.693,1.017,1.089,1.089,0,0,0,.4.077h2.343a1.094,1.094,0,0,0,1.094-1.094v-2.343A1.094,1.094,0,0,0,59.167,187.733Z" transform="translate(-51.197 -162.811)" fill="#2a428c"/>
      <path id="Trazado_721139" data-name="Trazado 721139" d="M59.167,256H56.824a1.092,1.092,0,0,0-.4.077,1.094,1.094,0,0,1,.693,1.017v2.343a1.094,1.094,0,0,1-.693,1.017,1.09,1.09,0,0,0,.4.077h2.343a1.094,1.094,0,0,0,1.094-1.094v-2.343A1.094,1.094,0,0,0,59.167,256Z" transform="translate(-51.197 -222.015)" fill="#2a428c"/>
      <path id="Trazado_721140" data-name="Trazado 721140" d="M59.167,324.267H56.824a1.091,1.091,0,0,0-.4.077,1.094,1.094,0,0,1,.693,1.017V327.7a1.094,1.094,0,0,1-.693,1.017,1.089,1.089,0,0,0,.4.077h2.343a1.094,1.094,0,0,0,1.094-1.094v-2.343A1.094,1.094,0,0,0,59.167,324.267Z" transform="translate(-51.197 -281.22)" fill="#2a428c"/>
      <path id="Trazado_721141" data-name="Trazado 721141" d="M127.433,256H125.09a1.092,1.092,0,0,0-.4.077,1.093,1.093,0,0,1,.693,1.017v2.343a1.094,1.094,0,0,1-.693,1.017,1.089,1.089,0,0,0,.4.077h2.343a1.094,1.094,0,0,0,1.094-1.094v-2.343A1.094,1.094,0,0,0,127.433,256Z" transform="translate(-110.401 -222.015)" fill="#2a428c"/>
      <path id="Trazado_721142" data-name="Trazado 721142" d="M127.433,324.267H125.09a1.091,1.091,0,0,0-.4.077,1.093,1.093,0,0,1,.693,1.017V327.7a1.094,1.094,0,0,1-.693,1.017,1.089,1.089,0,0,0,.4.077h2.343a1.094,1.094,0,0,0,1.094-1.094v-2.343A1.094,1.094,0,0,0,127.433,324.267Z" transform="translate(-110.401 -281.22)" fill="#2a428c"/>
      <path id="Trazado_721143" data-name="Trazado 721143" d="M195.7,256h-2.343a1.092,1.092,0,0,0-.4.077,1.094,1.094,0,0,1,.693,1.017v2.343a1.094,1.094,0,0,1-.693,1.017,1.089,1.089,0,0,0,.4.077H195.7a1.094,1.094,0,0,0,1.094-1.094v-2.343A1.094,1.094,0,0,0,195.7,256Z" transform="translate(-169.605 -222.015)" fill="#2a428c"/>
      <path id="Trazado_721144" data-name="Trazado 721144" d="M265.06,260.531v-3.437A1.094,1.094,0,0,0,263.966,256h-2.343a1.092,1.092,0,0,0-.4.077,1.094,1.094,0,0,1,.693,1.017v2.343a1.094,1.094,0,0,1-.693,1.017,1.09,1.09,0,0,0,.4.077h3.437Z" transform="translate(-228.809 -222.015)" fill="#2a428c"/>
      <path id="Trazado_721145" data-name="Trazado 721145" d="M195.7,324.267h-2.343a1.091,1.091,0,0,0-.4.077,1.094,1.094,0,0,1,.693,1.017V327.7a1.094,1.094,0,0,1-.693,1.017,1.089,1.089,0,0,0,.4.077H195.7a1.094,1.094,0,0,0,1.094-1.094v-2.343A1.094,1.094,0,0,0,195.7,324.267Z" transform="translate(-169.605 -281.22)" fill="#2a428c"/>
      <path id="Trazado_721146" data-name="Trazado 721146" d="M437.114,143.721v33.03h3.148V145.032Z" transform="translate(-381.35 -124.642)" fill="#d3dcfb"/>
      <path id="Trazado_721147" data-name="Trazado 721147" d="M75.97,49.993V38.665a4.531,4.531,0,0,0-4.531-4.531H21.59a4.531,4.531,0,0,0-4.531,4.531V49.993Z" transform="translate(-17.059 -29.603)" fill="#ff4155"/>
      <g id="Grupo_1068193" data-name="Grupo 1068193" transform="translate(10.303 8.037)">
        <g id="Grupo_1068192" data-name="Grupo 1068192">
          <g id="Grupo_1068188" data-name="Grupo 1068188">
            <path id="Trazado_721148" data-name="Trazado 721148" d="M98.641,62.592H95.692a1.026,1.026,0,1,1,0-2.051h2.949a1.026,1.026,0,1,1,0,2.051Z" transform="translate(-94.666 -60.541)" fill="#e80054"/>
          </g>
          <g id="Grupo_1068189" data-name="Grupo 1068189" transform="translate(7.246)">
            <path id="Trazado_721149" data-name="Trazado 721149" d="M153.223,62.592h-2.949a1.026,1.026,0,1,1,0-2.051h2.949a1.026,1.026,0,1,1,0,2.051Z" transform="translate(-149.248 -60.541)" fill="#e80054"/>
          </g>
          <g id="Grupo_1068190" data-name="Grupo 1068190" transform="translate(26.056)">
            <path id="Trazado_721150" data-name="Trazado 721150" d="M294.918,62.592h-2.95a1.026,1.026,0,0,1,0-2.051h2.95a1.026,1.026,0,0,1,0,2.051Z" transform="translate(-290.943 -60.541)" fill="#e80054"/>
          </g>
          <g id="Grupo_1068191" data-name="Grupo 1068191" transform="translate(33.302)">
            <path id="Trazado_721151" data-name="Trazado 721151" d="M349.5,62.592h-2.95a1.026,1.026,0,0,1,0-2.051h2.95a1.026,1.026,0,0,1,0,2.051Z" transform="translate(-345.526 -60.541)" fill="#e80054"/>
          </g>
        </g>
      </g>
      <path id="Trazado_721152" data-name="Trazado 721152" d="M125.123,8.5a2.832,2.832,0,0,1-5.664,0V2.832a2.832,2.832,0,1,1,5.664,0V8.5Z" transform="translate(-105.865)" fill="#ebf5fc"/>
      <path id="Trazado_721153" data-name="Trazado 721153" d="M321.4,8.5a2.832,2.832,0,0,1-5.664,0V2.832a2.832,2.832,0,0,1,5.664,0V8.5Z" transform="translate(-276.086)" fill="#ebf5fc"/>
      <path id="Trazado_721154" data-name="Trazado 721154" d="M326.8,0a2.818,2.818,0,0,0-1.571.476,2.829,2.829,0,0,1,1.261,2.356V8.5a2.829,2.829,0,0,1-1.261,2.356,2.831,2.831,0,0,0,4.4-2.356V2.832A2.832,2.832,0,0,0,326.8,0Z" transform="translate(-284.322)" fill="#d3dcfb"/>
      <path id="Trazado_721155" data-name="Trazado 721155" d="M130.526,0a2.818,2.818,0,0,0-1.571.476,2.829,2.829,0,0,1,1.261,2.356V8.5a2.829,2.829,0,0,1-1.261,2.356,2.831,2.831,0,0,0,4.4-2.356V2.832A2.832,2.832,0,0,0,130.526,0Z" transform="translate(-114.1)" fill="#d3dcfb"/>
      <path id="Trazado_721156" data-name="Trazado 721156" d="M406.137,34.133H402.99a4.531,4.531,0,0,1,4.531,4.531V49.993h3.147V38.664a4.531,4.531,0,0,0-4.531-4.531Z" transform="translate(-351.756 -29.602)" fill="#e80054"/>
      <path id="Trazado_721157" data-name="Trazado 721157" d="M17.058,111.74H75.969v2.051H17.058Z" transform="translate(-17.058 -96.906)" fill="#e80054"/>
    </g>
    <circle id="Elipse_5946" data-name="Elipse 5946" cx="16.992" cy="16.992" r="16.992" transform="translate(46.514 33.985)" fill="#4fabf7"/>
    <circle id="Elipse_5947" data-name="Elipse 5947" cx="12.461" cy="12.461" r="12.461" transform="translate(51.045 38.516)" fill="#ebf5fc"/>
    <g id="Grupo_1068196" data-name="Grupo 1068196" transform="translate(62.48 42.022)">
      <g id="Grupo_1068195" data-name="Grupo 1068195" transform="translate(0)">
        <path id="Trazado_721158" data-name="Trazado 721158" d="M360.242,324.255a1.026,1.026,0,0,1-1.026-1.026v-5.664a1.026,1.026,0,0,1,2.051,0v5.664A1.026,1.026,0,0,1,360.242,324.255Z" transform="translate(-359.216 -316.54)" fill="#3c58a0"/>
      </g>
    </g>
    <g id="Grupo_1068198" data-name="Grupo 1068198" transform="translate(64.746 49.951)">
      <g id="Grupo_1068197" data-name="Grupo 1068197" transform="translate(0)">
        <path id="Trazado_721159" data-name="Trazado 721159" d="M380.706,378.325h-3.4a1.026,1.026,0,0,1,0-2.051h3.4a1.026,1.026,0,0,1,0,2.051Z" transform="translate(-376.282 -376.274)" fill="#3c58a0"/>
      </g>
    </g>
    <path id="Trazado_721160" data-name="Trazado 721160" d="M356.667,256c-.53,0-1.055.026-1.573.073a16.992,16.992,0,0,1,0,33.838c.518.048,1.042.073,1.573.073a16.992,16.992,0,0,0,0-33.985Z" transform="translate(-293.161 -222.015)" fill="#1886ea"/>
    <path id="Trazado_721161" data-name="Trazado 721161" d="M356.675,290.133a12.588,12.588,0,0,0-1.572.1,12.462,12.462,0,0,1,0,24.725,12.588,12.588,0,0,0,1.572.1,12.461,12.461,0,1,0,0-24.922Z" transform="translate(-293.169 -251.617)" fill="#d3dcfb"/>
    <circle id="Elipse_5948" data-name="Elipse 5948" cx="2.266" cy="2.266" r="2.266" transform="translate(61.24 48.711)" fill="#ffdd40"/>
  </g>
</svg>
