<svg xmlns="http://www.w3.org/2000/svg" width="19.041" height="17.273" viewBox="0 0 19.041 17.273">
  <g id="Grupo_1068061" data-name="Grupo 1068061" transform="translate(-480.949 -584.574)">
    <path id="Trazado_717259" data-name="Trazado 717259" d="M497.387,588.247l-3.143-3.143-5.076,5.076-5.076-5.076-3.143,3.143,5.076,5.076-5.076,5.076,3.143,3.143,5.076-5.076,5.076,5.076,3.143-3.143-5.076-5.076Z" transform="translate(0 -0.113)" fill="#7c119b"/>
    <g id="Grupo_1017056" data-name="Grupo 1017056" transform="translate(482.717 584.574)">
      <g id="Grupo_1017055" data-name="Grupo 1017055">
        <g id="Grupo_1017054" data-name="Grupo 1017054">
          <g id="Grupo_1017053" data-name="Grupo 1017053">
            <path id="Trazado_717260" data-name="Trazado 717260" d="M486.757,601.847l-3.56-3.559,5.077-5.076-5.077-5.077,3.56-3.559,5.076,5.076,5.076-5.076,3.56,3.559-5.076,5.077,5.076,5.076-3.56,3.559-5.076-5.077Zm5.076-5.911,5.076,5.076,2.725-2.725-5.076-5.076,5.076-5.077-2.725-2.724-5.076,5.076-5.076-5.076-2.725,2.724,5.076,5.077-5.076,5.076,2.725,2.725Z" transform="translate(-483.197 -584.574)" fill="#ffd9bb"/>
          </g>
        </g>
      </g>
    </g>
  </g>
</svg>
