<svg xmlns="http://www.w3.org/2000/svg" xmlns:xlink="http://www.w3.org/1999/xlink" width="114" height="114" viewBox="0 0 114 114">
  <defs>
    <clipPath id="clip-path">
      <rect id="Rectángulo_380304" data-name="Rectángulo 380304" width="75.848" height="75.111" fill="none"/>
    </clipPath>
  </defs>
  <g id="Grupo_1082114" data-name="Grupo 1082114" transform="translate(-1221.333 -396)">
    <g id="Grupo_1017061" data-name="Grupo 1017061">
      <circle id="Elipse_5878" data-name="Elipse 5878" cx="57" cy="57" r="57" transform="translate(1221.333 396)" fill="#eae7f5"/>
    </g>
    <g id="Grupo_1082043" data-name="Grupo 1082043" transform="translate(1239.485 416.276)">
      <g id="Grupo_1082042" data-name="Grupo 1082042" clip-path="url(#clip-path)">
        <path id="Trazado_836251" data-name="Trazado 836251" d="M179.728,132.375l.663.191c.359.921,1.335.9,2.029,1.249a12.971,12.971,0,0,1,4.881,18.64,14.952,14.952,0,0,1-8.112,5.767,18.333,18.333,0,0,1-3.968-1.091c-.334-.208-.666-.42-1-.623a13.065,13.065,0,0,1-4.893-17.045,14.87,14.87,0,0,1,5.943-5.994,20.2,20.2,0,0,1,4.461-1.094m-2,13.034c0,1.332.012,2.663,0,4-.012.947.416,1.166,1.193.724,2.356-1.34,4.7-2.7,7.047-4.056.659-.379.724-.78.038-1.177q-3.583-2.072-7.178-4.123c-.739-.424-1.1-.228-1.1.641.009,1.332,0,2.663,0,4" transform="translate(-118.211 -93.178)" fill="#f48a97"/>
        <path id="Trazado_836252" data-name="Trazado 836252" d="M11.293,158.576A13.027,13.027,0,0,1,2.7,137.753a11.957,11.957,0,0,1,8.541-4.915,17.68,17.68,0,0,1,4.782,2.411c1.632,1.386,3.286,2.775,3.826,5-1.058.224-2.006.847-3.192-.006a2.732,2.732,0,0,0-4.437,1.943c-.185,1.116-.651,1.1-1.477.925a7.543,7.543,0,0,1-3.622-1.865c-.575-.527-.931-.436-1.149.305a5.958,5.958,0,0,0,2.185,6.311c.388.282.79.546,1.2.829-.515.643-1.241.7-1.864.963-.378.157-.962.026-.956.685.006.619.473.818.967.942,3.46.866,8.164-.1,10.011-3.733,1.015-1.994,1.85-4.079,2.766-6.123.119.081.3.135.348.245,1.779,4.533-.222,11.084-4.1,14.047-1.624,1.242-3.53,1.844-5.244,2.853" transform="translate(0 -93.504)" fill="#90d8f9"/>
        <path id="Trazado_836253" data-name="Trazado 836253" d="M50.838,8.278C50.3,1.738,54.1-.1,59.111,0,68.7.211,78.29.045,87.879.037c.293,0,.586.045.879.069.327.8,1.235.849,1.782,1.375,1.213,1.167,2.243,2.406,1.987,4.254-.5-.47-.961-1.023-1.722-1.033-1.478-.021-2.956-.029-4.434-.014a1.112,1.112,0,0,0-1.19,1.071c-.193,1.572-1.152,2.165-2.647,2.162-5.667-.011-11.334,0-17-.006-1.4,0-2.383-.533-2.556-2.071-.059-.524-.313-1.068-.846-1.077-1.943-.03-4.012-.642-5.791.367-1.556.882-.866,2.658-1,4.079q-.014.147-.03.294L50.838,8.278m24.286-4.14c.042-.684-.174-1.153-.953-1.176-.622-.018-1.055.188-1.1.883s.172,1.154.952,1.177c.623.018,1.052-.191,1.1-.884" transform="translate(-35.75 0)" fill="#427095"/>
        <path id="Trazado_836254" data-name="Trazado 836254" d="M14.18,54.322a13.019,13.019,0,0,1,.3-25.854c.169.616.776.528,1.2.7a13.328,13.328,0,0,1,4.421,2.578,12.831,12.831,0,0,1,4.172,9.836,12.54,12.54,0,0,1-3.7,8.966c-1.821,1.893-4.111,2.766-6.385,3.774m2.638-6.171c1.181.007,2.363.052,3.542.01a2.214,2.214,0,0,0,2.351-2.307c.05-2.9.037-5.806.007-8.708a2.315,2.315,0,0,0-2.207-2.5,32.467,32.467,0,0,0-3.385-.049c-1.766-.013-3.532-.065-5.3-.03-1.9.039-2.693.856-2.7,2.709q-.024,4.2,0,8.391c.01,1.695.816,2.477,2.54,2.49s3.435,0,5.152-.006" transform="translate(-2.001 -20.039)" fill="#fee079"/>
        <path id="Trazado_836255" data-name="Trazado 836255" d="M88.873,226.259c-3.243.013-6.486.035-9.729.038q-10.7.009-21.391,0c-4.357-.006-6.778-2.415-6.793-6.728q-.006-1.623-.009-3.246l4.47-1.515c.012,1.329.023,2.658.038,3.986.025,2.1.777,2.893,2.818,2.894,10.585.008,21.17-.006,31.756.02a3.1,3.1,0,0,0,2.606-1.078,4.045,4.045,0,0,1-.654,2.745c-.643,1.422-2.236,1.754-3.111,2.884" transform="translate(-35.864 -151.202)" fill="#437296"/>
        <path id="Trazado_836256" data-name="Trazado 836256" d="M46.292,156.452l-4.47,1.515-3.794-.048c1.714-1.009,3.62-1.611,5.244-2.853,3.877-2.963,5.878-9.514,4.1-14.047-.043-.11-.229-.165-.348-.245-.063-.423-.044-.875-.433-1.177-.54-2.229-2.194-3.618-3.827-5a17.675,17.675,0,0,0-4.782-2.411c1.253-.519,2.566-.124,3.845-.251l4.48,1.542c.339.279.669.569,1.019.835a12.841,12.841,0,0,1,5.2,13.522c-.732,3.83-3.123,6.494-6.231,8.624" transform="translate(-26.735 -92.847)" fill="#6cccfd"/>
        <path id="Trazado_836257" data-name="Trazado 836257" d="M205.47,27.958c5.839-.1,10.332,2.193,12.954,7.542a12.949,12.949,0,0,1-11.48,18.55c-.492.005-.985,0-1.477,0l-1.047-.232A13,13,0,0,0,211.7,32.242c-1.808-2.013-4.2-2.97-6.558-4.04l.326-.244" transform="translate(-143.891 -19.677)" fill="#6cccfd"/>
        <path id="Trazado_836258" data-name="Trazado 836258" d="M41.133,53.963c2.273-1.008,4.564-1.882,6.385-3.775a12.538,12.538,0,0,0,3.7-8.966,12.832,12.832,0,0,0-4.172-9.836,13.322,13.322,0,0,0-4.421-2.578c-.42-.171-1.026-.083-1.2-.7l2.611-.151,4.469,1.229c.372.236.749.465,1.115.71,4.1,2.746,6.4,6.532,6.248,11.522-.163,5.226-2.812,8.986-7.363,11.459a16.416,16.416,0,0,1-4.466,1.208l-2.912-.123" transform="translate(-28.953 -19.68)" fill="#f9d169"/>
        <path id="Trazado_836259" data-name="Trazado 836259" d="M205.936,158.463a14.953,14.953,0,0,0,8.112-5.767,12.971,12.971,0,0,0-4.881-18.64c-.695-.354-1.671-.328-2.03-1.249,7.5-.918,12.792,5.361,13.549,11a13.139,13.139,0,0,1-10.327,14.554,22.422,22.422,0,0,1-3.819.235l-.606-.138" transform="translate(-144.958 -93.419)" fill="#ef7382"/>
        <path id="Trazado_836260" data-name="Trazado 836260" d="M186.991,217.071l.606.138c0,1.126,0,2.251-.012,3.377-.023,3.919-2.449,6.422-6.366,6.547-.731.023-1.465-.03-2.2-.048.875-1.131,2.469-1.462,3.111-2.884a4.045,4.045,0,0,0,.654-2.746,24.223,24.223,0,0,0,.236-5.475,18.31,18.31,0,0,0,3.968,1.091" transform="translate(-126.012 -152.028)" fill="#355f81"/>
        <path id="Trazado_836261" data-name="Trazado 836261" d="M187.592,8.4l-.326.244c-1.5-.094-2.792.714-4.21.974a14.137,14.137,0,0,0-.267-3.764c.257-1.848-.774-3.086-1.987-4.254-.546-.526-1.454-.573-1.781-1.375.834-.015,1.672-.088,2.5-.036a6.1,6.1,0,0,1,6.062,6.441c.005.59.005,1.18.007,1.77" transform="translate(-126.012 -0.123)" fill="#355f81"/>
        <path id="Trazado_836262" data-name="Trazado 836262" d="M50.965,113.324a16.414,16.414,0,0,0,4.466-1.209q.006,3.714.013,7.427L50.964,118v-4.676" transform="translate(-35.873 -78.917)" fill="#427095"/>
        <path id="Trazado_836263" data-name="Trazado 836263" d="M196.056,113.178l1.048.232q-.03,2.412-.059,4.822a20.162,20.162,0,0,0-4.461,1.092q-.022-3.522-.045-7.043c1.194.216,2.265.911,3.517.9" transform="translate(-135.528 -79.034)" fill="#355f81"/>
        <path id="Trazado_836264" data-name="Trazado 836264" d="M103.483,44.078q.023,3.521.045,7.043a14.874,14.874,0,0,0-5.943,5.994,13.064,13.064,0,0,0,4.893,17.045c.337.2.668.415,1,.624a24.221,24.221,0,0,1-.236,5.475,3.1,3.1,0,0,1-2.606,1.078c-10.585-.026-21.17-.011-31.756-.019-2.041,0-2.793-.8-2.817-2.894-.016-1.329-.026-2.657-.038-3.986,3.108-2.13,5.5-4.794,6.231-8.624a12.841,12.841,0,0,0-5.2-13.522c-.349-.266-.68-.557-1.019-.835q-.007-3.713-.013-7.427c4.551-2.473,7.2-6.232,7.363-11.459.155-4.99-2.148-8.776-6.248-11.522-.366-.245-.743-.474-1.115-.71.01-.1.02-.2.029-.294.136-1.42-.554-3.2,1-4.079,1.78-1.009,3.848-.4,5.791-.367.532.008.787.552.845,1.077.173,1.538,1.152,2.07,2.556,2.071,5.667,0,11.334-.005,17,.006,1.5,0,2.454-.59,2.647-2.162a1.112,1.112,0,0,1,1.19-1.071c1.478-.015,2.956-.007,4.434.014.761.011,1.223.563,1.722,1.033a14.138,14.138,0,0,1,.267,3.764c-.4.277-.8.561-1.212.831a13.02,13.02,0,0,0,.472,22.4c.25.15.473.346.708.52M82.905,39.552A8.862,8.862,0,0,0,75.861,50a8.737,8.737,0,0,1-.534,4.424c-.179.512-.724,1.1-.192,1.639s1.129.033,1.621-.19a2.971,2.971,0,0,1,3.308.283A5.323,5.323,0,0,0,82.9,57.273a7.177,7.177,0,0,0,1.133.279A9.257,9.257,0,0,0,93.776,46.71c-1.217-6.023-7.282-8.405-10.871-7.157" transform="translate(-46.472 -10.831)" fill="#f8f6f7"/>
        <path id="Trazado_836265" data-name="Trazado 836265" d="M201.007,164.859c0-1.332.007-2.663,0-4-.006-.869.359-1.065,1.1-.641q3.59,2.06,7.178,4.123c.686.4.622.8-.038,1.177-2.35,1.351-4.691,2.716-7.047,4.056-.777.442-1.2.223-1.193-.724.017-1.332,0-2.663,0-4" transform="translate(-141.485 -112.629)" fill="#fefbfc"/>
        <path id="Trazado_836266" data-name="Trazado 836266" d="M33.555,156.437c.389.3.37.754.433,1.177-.916,2.044-1.751,4.129-2.766,6.123-1.847,3.629-6.551,4.6-10.011,3.732-.494-.124-.961-.322-.967-.942-.006-.659.578-.528.956-.685.623-.259,1.349-.32,1.864-.963-.412-.284-.813-.547-1.2-.83a5.958,5.958,0,0,1-2.185-6.311c.218-.741.574-.833,1.149-.305a7.545,7.545,0,0,0,3.622,1.865c.827.173,1.292.191,1.477-.925a2.732,2.732,0,0,1,4.437-1.943c1.186.853,2.134.231,3.192.006" transform="translate(-13.7 -109.687)" fill="#fdfdfe"/>
        <path id="Trazado_836267" data-name="Trazado 836267" d="M128.084,11.179c-.048.691-.478.9-1.1.882-.78-.023-1-.492-.952-1.177s.477-.9,1.1-.883c.779.023,1,.492.954,1.177" transform="translate(-88.709 -7.039)" fill="#355f81"/>
        <path id="Trazado_836268" data-name="Trazado 836268" d="M31.726,62.621c-1.717,0-3.435.019-5.152.006s-2.53-.8-2.54-2.49q-.025-4.2,0-8.391c.011-1.853.805-2.67,2.7-2.709,1.765-.036,3.531.016,5.3.029,1.32,1.735.841,3.728.812,5.656a4.372,4.372,0,0,0-.887-.753,2.221,2.221,0,0,0-2.705.313,2.053,2.053,0,0,0-.53,2.528A2.24,2.24,0,0,0,31.1,58.148c.811-.064,1.225-.743,1.785-1.193-.136,1.94.707,4.081-1.162,5.666" transform="translate(-16.909 -34.509)" fill="#f48a97"/>
        <path id="Trazado_836269" data-name="Trazado 836269" d="M51.161,54.773c.029-1.929.508-3.921-.812-5.656a32.555,32.555,0,0,1,3.385.049,2.315,2.315,0,0,1,2.207,2.5c.03,2.9.043,5.806-.007,8.708a2.214,2.214,0,0,1-2.351,2.306c-1.179.042-2.361,0-3.542-.01,1.868-1.585,1.026-3.726,1.162-5.665a4.088,4.088,0,0,0-.042-2.233" transform="translate(-35.224 -34.559)" fill="#ef7382"/>
        <path id="Trazado_836270" data-name="Trazado 836270" d="M175.117,53.492c-.235-.174-.458-.37-.708-.52a13.02,13.02,0,0,1-.472-22.4c.409-.27.808-.554,1.212-.831,1.418-.26,2.71-1.068,4.21-.974,2.355,1.07,4.75,2.027,6.557,4.04a13,13,0,0,1-7.281,21.579c-1.253.014-2.324-.68-3.518-.9m8.215-19.956c-3.655-.009-4.555.879-4.558,4.486a7.744,7.744,0,0,0,.005.886c.1.889-.251,1.269-1.165,1.192-.831-.07-1.708.046-1.746,1.1-.042,1.166.878,1.292,1.766,1.219.939-.077,1.18.342,1.154,1.21-.051,1.722-.012,3.446-.016,5.169,0,.857-.053,1.86,1.12,1.855,1.112,0,1.011-.979,1.009-1.775,0-1.723.039-3.448-.017-5.169-.03-.923.208-1.409,1.226-1.29a1.607,1.607,0,0,0,1.267-.261,1.048,1.048,0,0,0,.417-1.173,1.251,1.251,0,0,0-1.51-.881c-1.124.139-1.536-.322-1.394-1.416a10.453,10.453,0,0,0,.011-1.328,1.513,1.513,0,0,1,1.739-1.7c.738.006,1.477.006,2.215-.016a.937.937,0,0,0,1.033-1,.965.965,0,0,0-1.081-1.1c-.492-.01-.984,0-1.477,0" transform="translate(-118.106 -20.246)" fill="#90d7f9"/>
        <path id="Trazado_836271" data-name="Trazado 836271" d="M104.032,114.717a5.323,5.323,0,0,1-2.841-1.113,2.971,2.971,0,0,0-3.308-.283c-.491.222-1.088.728-1.62.19s.013-1.127.192-1.639a8.734,8.734,0,0,0,.534-4.424A8.862,8.862,0,0,1,104.033,97c3.942,1.661,6.3,4.479,6.481,8.882-.668-.623-1.4-.871-2-.005-.834,1.185-1.712,1.02-2.79.364-1.045-.636-1.751-1.253-.976-2.58a1.012,1.012,0,0,0-.476-1.6,1.246,1.246,0,0,0-1.612.669c-.659,1.09-.717,3.214.162,4.055,2.551,2.438,4.78,3.43,7.379.781a6.308,6.308,0,0,1-.136,1c-.931,3.1-3.183,4.921-6.029,6.151" transform="translate(-67.6 -68.275)" fill="#aee59c"/>
        <path id="Trazado_836272" data-name="Trazado 836272" d="M129.523,105.114c-.184-4.4-2.539-7.222-6.481-8.882,3.589-1.248,9.654,1.135,10.871,7.157a9.258,9.258,0,0,1-9.739,10.842,7.177,7.177,0,0,1-1.133-.279c2.847-1.23,5.1-3.048,6.029-6.151a6.28,6.28,0,0,0,.136-1,2.75,2.75,0,0,0,.317-1.686" transform="translate(-86.608 -67.511)" fill="#8adaa4"/>
        <path id="Trazado_836273" data-name="Trazado 836273" d="M43.472,65.733a4.088,4.088,0,0,1,.042,2.233c-.56.45-.974,1.128-1.785,1.193a2.24,2.24,0,0,1-2.379-1.337,2.053,2.053,0,0,1,.53-2.528,2.221,2.221,0,0,1,2.705-.313,4.373,4.373,0,0,1,.887.753" transform="translate(-27.535 -45.519)" fill="#fefbfc"/>
        <path id="Trazado_836274" data-name="Trazado 836274" d="M202.539,44.878c.492,0,.985-.008,1.477,0a.965.965,0,0,1,1.081,1.1.937.937,0,0,1-1.033,1c-.738.022-1.477.022-2.215.016a1.513,1.513,0,0,0-1.739,1.7,10.447,10.447,0,0,1-.011,1.328c-.142,1.094.27,1.555,1.394,1.416a1.251,1.251,0,0,1,1.51.881,1.048,1.048,0,0,1-.417,1.173,1.607,1.607,0,0,1-1.267.261c-1.017-.119-1.255.367-1.226,1.29.056,1.722.013,3.446.017,5.169,0,.8.1,1.77-1.009,1.775-1.173,0-1.123-1-1.12-1.855,0-1.723-.035-3.448.016-5.169.025-.868-.215-1.287-1.155-1.21-.889.073-1.809-.053-1.766-1.219.038-1.053.914-1.168,1.746-1.1.915.077,1.268-.3,1.165-1.192a7.748,7.748,0,0,1-.005-.886c0-3.607.9-4.495,4.558-4.486" transform="translate(-137.312 -31.587)" fill="#fdfdfe"/>
        <path id="Trazado_836275" data-name="Trazado 836275" d="M125.071,117.683a2.75,2.75,0,0,1-.317,1.686c-2.6,2.648-4.829,1.656-7.379-.781-.879-.841-.821-2.966-.162-4.055a1.247,1.247,0,0,1,1.612-.669,1.012,1.012,0,0,1,.476,1.6c-.775,1.327-.069,1.944.976,2.58,1.078.656,1.956.821,2.79-.364.609-.865,1.336-.618,2,.005" transform="translate(-82.156 -80.08)" fill="#fefbfc"/>
      </g>
    </g>
  </g>
</svg>
