<svg xmlns="http://www.w3.org/2000/svg" xmlns:xlink="http://www.w3.org/1999/xlink" width="169" height="169" viewBox="0 0 169 169">
  <defs>
    <clipPath id="clip-path">
      <rect id="Rect치ngulo_380256" data-name="Rect치ngulo 380256" width="115.814" height="84.54" fill="none"/>
    </clipPath>
  </defs>
  <g id="Grupo_1082119" data-name="Grupo 1082119" transform="translate(3958.999 7485.949)">
    <g id="Grupo_1081902" data-name="Grupo 1081902" transform="translate(-4696 -9543.949)">
      <g id="Grupo_159183" data-name="Grupo 159183" transform="translate(737.001 2058)">
        <path id="Uni칩n_12" data-name="Uni칩n 12" d="M84.5,0A84.5,84.5,0,1,1,0,84.5,84.5,84.5,0,0,1,84.5,0Z" fill="#9f0f6a"/>
      </g>
    </g>
    <g id="Grupo_1081912" data-name="Grupo 1081912" transform="translate(-3932.406 -7443.719)">
      <g id="Grupo_1081911" data-name="Grupo 1081911" clip-path="url(#clip-path)">
        <path id="Trazado_836033" data-name="Trazado 836033" d="M97.058,66.224c-.132,1.53-1.054,1.96-2.472,1.934-3.008-.054-6.02.026-9.027-.038A1.655,1.655,0,0,0,83.632,69.5a16.1,16.1,0,0,0-.8,4.866c.117,4.8.789,5.449,5.471,5.507,1.459.018,3.689-.651,3.717,1.688.028,2.359-2.2,1.734-3.665,1.739-10.683.036-21.367.019-32.051.019-.6,0-1.206.027-1.805-.015-1.121-.079-1.911-.648-1.859-1.819a1.682,1.682,0,0,1,1.837-1.613c1.578-.046,3.164-.089,4.738,0a1.615,1.615,0,0,0,1.93-1.369,16.425,16.425,0,0,0,.781-4.648c-.066-5.028-.768-5.719-5.716-5.719-2.107,0-4.226.143-6.317-.041-2.037-.179-2.33.955-1.6,2.214,1.554,2.687,1.128,5.539,1.133,8.356.006,3.518-2.032,5.644-5.507,5.82-1.876.095-3.761.018-5.642.027a1.858,1.858,0,0,1-2.136-2.032A2.088,2.088,0,0,1,38.4,81.114c1.394.036,2.791-.034,4.186-.058,2.934.118,3.535-.451,3.555-3.369q.007-1.114,0-2.23c-.019-2.956-.581-3.482-3.549-3.33q-16.681-.043-33.361-.085c-5.809-.012-5.809,0-5.717,5.813.044,2.788.515,3.267,3.321,3.27,7.741.008,15.482.02,23.222-.015,1.272-.006,2.4.065,3.028,1.375-.156,1.468-1,2.049-2.443,2.045-8.282-.023-16.565.045-24.847-.047-3.568-.039-5.4-2.348-5.739-5.915-.346-3.63,1.084-6.889,1.521-10.335Q3.914,49.768,5.96,31.265c.751-6.75,4.821-10.577,11.645-10.6,2.937-.009,5.879-.114,8.808.038,1.95.1,2.761-.308,2.628-2.5-.215-3.525-.085-7.073-.05-10.611C29.036,3.134,31.8.1,36.242.072c16.64-.088,33.28-.041,49.92-.047,1.042,0,1.97.171,2.306,1.358-.123,2.007-1.485,2.053-3.04,2.05q-24.157-.041-48.313-.014c-2.908,0-4.641,1.152-4.767,3.672-.207,4.128-.121,8.273-.068,12.41.024,1.823,1.709,1.092,2.616,1.343,1.05.29.821-.8.827-1.4.03-3.009.011-6.019.016-9.029.006-3.448.727-4.189,4.253-4.191q32.4-.016,64.795,0c3.5,0,4.272.787,4.272,4.211,0,11.963-.012,23.927.034,35.89,0,.74-.64,1.9.8,2.188,1.442.227,2.393.121,2.382-1.841-.072-13.1-.033-26.2-.045-39.3,0-2.16-.949-3.587-3.241-3.849-4.85-.035-9.7-.08-14.552-.1-1.37,0-2.6-.128-2.669-1.91C91.958.244,92.889.033,93.928.033c4.96,0,9.925-.105,14.88.062a6.992,6.992,0,0,1,6.978,7.321q.051,25.814,0,51.627a8.9,8.9,0,0,1-8.941,9.079c-1.576.053-3.158.059-4.734-.005-1.143-.046-2.2-.325-2.03-1.869a2.408,2.408,0,0,1,2.483-1.467c2-.029,4.046.423,5.992-.412,2.61-.718,3.68-2.651,3.878-5.139.131-1.639-.085-3.309.078-4.943.213-2.138-.52-2.951-2.637-2.336-4.137-.024-8.275-.067-12.413-.069-16.407-.008-32.814.031-49.22-.05-1.9-.009-2.283.569-2.018,2.285.435,2.822.8,5.662,1.018,8.507.136,1.787.8,2.255,2.621,2.244,14.75-.093,29.5-.048,44.253-.059,1.232,0,2.458-.091,2.943,1.415m-32.041,4.05a21.857,21.857,0,0,1-.278,8.043c-.259.9-.332,1.538,1.007,1.518,4.353-.066,8.708-.042,13.062-.016,1.134.007,1.511-.481,1.2-1.522-.8-2.651-.49-5.333-.276-8.015.968-1.743.255-2.259-1.513-2.235-3.914.053-7.832.1-11.743-.019-2.02-.064-2.464.528-1.456,2.247M56.089,36.153c-4.891-.03-9.789-.236-14.67-.031C37.8,36.275,34.8,36,33.933,31.7c-.177-.881-.683-.992-1.4-.3q-3.5,3.363-7.09,6.63c-.7.639-.556,1.043.066,1.614,2.6,2.386,5.165,4.809,7.713,7.191a2.006,2.006,0,0,0,.9-1.4c.818-3.133,2.778-4.153,6.007-4.012,5.331.233,10.681.009,16.024-.021,3.131.851,2.174-1.481,2.357-2.983.232-1.91-.312-2.9-2.419-2.264M5.52,65.771c-.7,2.8-.7,2.8,2.156,2.8H41.881c2.756,0,2.756,0,2.3-2.826-.7-6.127-1.372-12.258-2.157-18.374-.109-.847.461-2.323-1.247-2.4-1.473-.068-3.064-.373-3.527,1.744a10.249,10.249,0,0,1-.955,2.282c-1.088,2.189-2.913,2.593-4.732.937q-4.761-4.333-9.4-8.8c-1.726-1.655-1.739-2.995-.031-4.626q4.655-4.446,9.422-8.774c1.89-1.714,3.707-1.264,4.816,1.1.51,1.087.962,2.2,1.448,3.3.369.834,1.117.6,1.765.592s.6-.459.605-.946a7.314,7.314,0,0,0-7.5-7.623q-8.02-.064-16.041,0a6.842,6.842,0,0,0-7.1,6.2C8.99,34.528,8.495,38.713,8.024,42.9c-.857,7.622-1.672,15.248-2.5,22.872m97.611-17.3c2.231.591,2.737-.333,2.717-2.508q-.161-16.825,0-33.652c.023-2.2-.522-3.056-2.714-2.5Q71.766,9.778,40.4,9.717c-1.3,0-1.439.513-1.422,1.586.055,3.309.038,6.62.008,9.929a2.421,2.421,0,0,0,.875,2.14,9.951,9.951,0,0,1,3.585,7.505c.06,1.672.779,1.919,2.221,1.89,4.211-.082,8.426-.042,12.639-.025,2.739.011,3.587.875,3.626,3.661.022,1.579.019,3.159,0,4.739-.033,2.878-.929,3.793-3.768,3.807-3.686.019-7.373-.027-11.059.033-.7.012-2.039-.651-1.79,1.059.167,1.148-.307,2.637,1.853,2.55,3.53-.143,7.07-.034,10.606-.039q22.681-.036,45.361-.077" transform="translate(0 0)" fill="#040404"/>
        <path id="Trazado_836034" data-name="Trazado 836034" d="M164.468,127.17c-1.946.835-3.994.383-5.992.412a2.406,2.406,0,0,0-2.482,1.467l-3.022-.024c-.485-1.506-1.711-1.416-2.943-1.415-14.751.011-29.5-.034-44.253.059-1.82.011-2.485-.456-2.621-2.243-.216-2.846-.583-5.686-1.018-8.508-.265-1.716.121-2.294,2.018-2.285,16.406.081,32.813.042,49.22.05,4.138,0,8.275.045,12.413.069.114,4.2.777,8.455-1.319,12.418m-36.105-5.839v.017c.371,0,.743-.007,1.115,0,1.111.024,1.946-.4,2.015-1.586.079-1.366-.868-1.767-2.041-1.779-.965-.01-1.935-.024-2.9.057a1.47,1.47,0,0,0-1.459,1.64,1.533,1.533,0,0,0,1.483,1.636,14.927,14.927,0,0,0,1.783.013" transform="translate(-55.914 -62.8)" fill="#f7f4f5"/>
        <path id="Trazado_836035" data-name="Trazado 836035" d="M130.807,3.188c.071,1.782,1.3,1.9,2.669,1.91,4.851.018,9.7.063,14.552.1C148.3,6.351,149,7.339,149,8.63c-.057,13.853-.052,27.706-.063,41.559-1.442-.285-.8-1.447-.8-2.187-.046-11.963-.03-23.927-.034-35.89,0-3.423-.778-4.209-4.273-4.211q-32.4-.014-64.794,0c-3.525,0-4.247.742-4.253,4.191,0,3.01.014,6.02-.016,9.029-.006.6.224,1.689-.827,1.4-.907-.251-2.593.48-2.616-1.343-.053-4.137-.139-8.282.067-12.41.126-2.52,1.859-3.671,4.767-3.672q24.157-.01,48.314.014c1.555,0,2.916-.043,3.039-2.051a4.844,4.844,0,0,0,3.3.13" transform="translate(-39.035 -1.675)" fill="#514850"/>
        <path id="Trazado_836036" data-name="Trazado 836036" d="M37.312,169.771c-.624-1.311-1.756-1.381-3.028-1.375-7.741.035-15.482.023-23.223.015-2.805,0-3.277-.482-3.321-3.27-.092-5.815-.092-5.825,5.717-5.813q16.68.033,33.361.085a18.617,18.617,0,0,1,0,8.928c-1.4.024-2.792.094-4.186.058a2.088,2.088,0,0,0-2.255,1.373h-3.06m-.872-7.652c-1.5,0-3,.014-4.493,0-1.207-.015-2.154.443-2.177,1.715-.024,1.291.955,1.769,2.135,1.775q4.493.024,8.985,0c1.242,0,2.343-.369,2.278-1.844-.057-1.3-1.055-1.664-2.236-1.649-1.5.019-3,0-4.493,0M11.1,163.835c-.046,1.208.134,2.329,1.654,2.359,1.552.031,1.7-1.12,1.7-2.313s-.12-2.35-1.659-2.358c-1.508-.008-1.76,1.077-1.7,2.313m9.549-.014c.078-1.2-.155-2.306-1.7-2.3-1.415,0-1.642,1.047-1.628,2.209s-.01,2.414,1.592,2.462c1.556.047,1.789-1.068,1.735-2.369" transform="translate(-4.23 -87.286)" fill="#f7f4f5"/>
        <path id="Trazado_836037" data-name="Trazado 836037" d="M150.35,60.245q-22.68.039-45.361.077c-3.536.005-7.076-.1-10.606.039-2.16.088-1.685-1.4-1.853-2.549-.249-1.71,1.094-1.047,1.79-1.059,3.686-.061,7.372-.015,11.059-.033,2.839-.014,3.735-.929,3.768-3.807.018-1.579.022-3.159,0-4.739-.039-2.786-.887-3.65-3.626-3.661-4.213-.016-8.427-.057-12.639.025-1.442.028-2.161-.218-2.221-1.89a9.952,9.952,0,0,0-3.585-7.505A2.421,2.421,0,0,1,86.2,33c.031-3.309.047-6.62-.008-9.929-.018-1.073.123-1.589,1.422-1.586q31.371.095,62.742.094,0,19.331-.007,38.662m-30.7-32.034H106.783c-4.928,0-5.378.46-5.333,5.448a12.7,12.7,0,0,0,.038,1.352,2.808,2.808,0,0,0,2.948,2.8q15.119.06,30.238,0c1.975-.008,2.985-1.211,3.068-3.165.035-.826.018-1.654.009-2.481-.029-2.938-.992-3.941-3.889-3.954-4.739-.021-9.478-.006-14.216-.006" transform="translate(-47.219 -11.772)" fill="#d4f3fa"/>
        <path id="Trazado_836038" data-name="Trazado 836038" d="M12.208,94.989c.832-7.624,1.647-15.25,2.5-22.872.471-4.186.967-8.371,1.538-12.544a6.842,6.842,0,0,1,7.095-6.2q8.02-.075,16.041,0a7.314,7.314,0,0,1,7.5,7.623c0,.487.046.941-.6.946s-1.4.241-1.765-.592c-.486-1.1-.938-2.213-1.448-3.3-1.109-2.363-2.926-2.812-4.816-1.1q-4.769,4.324-9.423,8.774c-1.707,1.631-1.695,2.97.031,4.625q4.646,4.457,9.4,8.8c1.819,1.655,3.644,1.252,4.732-.937a10.246,10.246,0,0,0,.956-2.282C44.4,73.81,46,74.115,47.469,74.183c1.708.079,1.139,1.555,1.247,2.4.785,6.117,1.452,12.248,2.157,18.375l-38.665.029m8.03-3.581c1.434-.2,3.662.608,3.575-1.818-.078-2.167-2.187-1.569-3.572-1.556-1.361.013-3.446-.642-3.444,1.661s2.094,1.5,3.441,1.713" transform="translate(-6.688 -29.218)" fill="#ccc3cb"/>
        <path id="Trazado_836039" data-name="Trazado 836039" d="M86.411,78.9c-5.342.031-10.693.254-16.024.021-3.229-.141-5.189.879-6.007,4.012a2.006,2.006,0,0,1-.9,1.4c-2.548-2.382-5.114-4.8-7.713-7.191-.621-.571-.767-.974-.066-1.614q3.588-3.268,7.09-6.63c.717-.689,1.223-.579,1.4.3.863,4.3,3.871,4.574,7.486,4.422,4.881-.206,9.779,0,14.67.031q.031,2.623.062,5.247" transform="translate(-30.261 -37.5)" fill="#9cf095"/>
        <path id="Trazado_836040" data-name="Trazado 836040" d="M157.983,155.361c-.215,2.682-.523,5.365.275,8.015.314,1.041-.063,1.528-1.2,1.522-4.354-.025-8.709-.049-13.062.016-1.339.02-1.265-.614-1.007-1.518a21.894,21.894,0,0,0,.279-8.043c2.3.265,4.673-.52,6.934.429-2.092,1.212-1.33,3.117-1.07,4.82a1.439,1.439,0,0,0,1.585,1.02,1.367,1.367,0,0,0,1.361-1c.427-1.735,1.049-3.553-.947-4.83,2.232-.947,4.571-.189,6.848-.43" transform="translate(-78.254 -85.078)" fill="#554c54"/>
        <path id="Trazado_836041" data-name="Trazado 836041" d="M11.738,145.423l38.665-.029c.453,2.824.453,2.826-2.3,2.826H13.895c-2.858,0-2.858,0-2.156-2.8" transform="translate(-6.218 -79.653)" fill="#b9aeb7"/>
        <path id="Trazado_836042" data-name="Trazado 836042" d="M228.085,60.161q0-19.331.007-38.662c2.192-.554,2.736.3,2.714,2.5q-.175,16.824,0,33.652c.021,2.175-.486,3.1-2.717,2.508" transform="translate(-124.954 -11.688)" fill="#b0dfed"/>
        <path id="Trazado_836043" data-name="Trazado 836043" d="M241.952,52.779c.012-13.853.006-27.706.063-41.559.005-1.291-.694-2.279-.968-3.434,2.292.263,3.239,1.689,3.241,3.849.012,13.1-.027,26.2.045,39.3.01,1.962-.94,2.069-2.382,1.841" transform="translate(-132.056 -4.265)" fill="#3e383c"/>
        <path id="Trazado_836044" data-name="Trazado 836044" d="M157.874,152.7c-2.277.241-4.616-.516-6.848.431l-.929-.009c-2.262-.949-4.63-.164-6.934-.429-1.009-1.72-.565-2.311,1.454-2.247,3.911.123,7.83.073,11.744.019,1.768-.024,2.481.492,1.513,2.235" transform="translate(-78.145 -82.417)" fill="#3e383c"/>
        <path id="Trazado_836045" data-name="Trazado 836045" d="M240.081,127.072c2.1-3.964,1.433-8.22,1.319-12.418,2.116-.615,2.85.2,2.637,2.336-.163,1.634.053,3.3-.078,4.943-.2,2.489-1.268,4.421-3.878,5.139" transform="translate(-131.526 -62.703)" fill="#c0bdbf"/>
        <path id="Trazado_836046" data-name="Trazado 836046" d="M94.177,168.417a18.611,18.611,0,0,0,0-8.928c2.968-.152,3.53.373,3.549,3.33q.007,1.114,0,2.23c-.019,2.917-.621,3.486-3.555,3.369" transform="translate(-51.594 -87.362)" fill="#ded9dd"/>
        <path id="Trazado_836047" data-name="Trazado 836047" d="M124.108,84.972q-.031-2.623-.062-5.247c2.107-.633,2.651.354,2.419,2.264-.183,1.5.775,3.834-2.357,2.983" transform="translate(-67.957 -43.572)" fill="#70be78"/>
        <path id="Trazado_836048" data-name="Trazado 836048" d="M156.272,125.383a14.927,14.927,0,0,1-1.783-.013,1.533,1.533,0,0,1-1.483-1.636,1.47,1.47,0,0,1,1.459-1.64c.96-.081,1.93-.067,2.9-.057,1.173.012,2.12.413,2.041,1.779-.069,1.183-.9,1.61-2.015,1.586-.372-.009-.744,0-1.115,0v-.017" transform="translate(-83.823 -66.852)" fill="#040404"/>
        <path id="Trazado_836049" data-name="Trazado 836049" d="M63.153,165.5c1.5,0,3,.014,4.493,0,1.181-.015,2.179.348,2.236,1.649.065,1.474-1.036,1.839-2.278,1.844q-4.493.016-8.985,0c-1.18-.006-2.159-.483-2.135-1.775.023-1.272.97-1.73,2.177-1.715,1.5.019,3,0,4.493,0" transform="translate(-30.944 -90.662)" fill="#111"/>
        <path id="Trazado_836050" data-name="Trazado 836050" d="M15.2,166.5c-.065-1.237.187-2.322,1.7-2.314,1.539.009,1.664,1.17,1.659,2.359s-.149,2.344-1.7,2.313c-1.52-.03-1.7-1.151-1.653-2.358" transform="translate(-8.321 -89.945)" fill="#040404"/>
        <path id="Trazado_836051" data-name="Trazado 836051" d="M32.29,166.476c.054,1.3-.179,2.416-1.735,2.369-1.6-.049-1.578-1.293-1.592-2.462s.213-2.206,1.628-2.209c1.544,0,1.777,1.1,1.7,2.3" transform="translate(-15.867 -89.941)" fill="#040404"/>
        <path id="Trazado_836052" data-name="Trazado 836052" d="M138.129,36.35c4.739,0,9.478-.015,14.216.006,2.9.013,3.859,1.016,3.889,3.954.009.827.026,1.656-.009,2.481-.083,1.954-1.093,3.157-3.068,3.165q-15.119.062-30.238,0a2.808,2.808,0,0,1-2.948-2.8,12.71,12.71,0,0,1-.038-1.352c-.045-4.988.405-5.447,5.333-5.448h12.863m3.107,3.387c-5.487-.025-10.975-.023-16.462-.1-1.171-.016-1.562.336-1.56,1.527s.384,1.549,1.559,1.532c5.487-.076,10.974-.075,16.461-.1,1.153.145,2.35.608,2.353-1.427s-1.2-1.567-2.351-1.433m8.746-.178c0,.024,0,.047-.006.07-.375,0-.751-.009-1.126,0-1,.028-2.069-.339-2.114,1.43-.046,1.812.963,1.684,2.132,1.653.975-.026,1.952-.007,2.927-.007.549,0,1.134-.039,1.124-.761s.41-1.73-.312-2.086a7.754,7.754,0,0,0-2.626-.3" transform="translate(-65.702 -19.911)" fill="#010101"/>
        <path id="Trazado_836053" data-name="Trazado 836053" d="M25.8,133.348c-1.347-.211-3.439.6-3.441-1.713s2.083-1.649,3.444-1.661c1.385-.013,3.494-.611,3.572,1.556.087,2.426-2.141,1.615-3.575,1.818" transform="translate(-12.248 -71.158)" fill="#040404"/>
        <path id="Trazado_836054" data-name="Trazado 836054" d="M157.409,156.371l.929.009c2,1.276,1.374,3.095.947,4.83a1.367,1.367,0,0,1-1.36,1,1.438,1.438,0,0,1-1.585-1.02c-.26-1.7-1.023-3.608,1.069-4.82" transform="translate(-85.456 -85.666)" fill="#040404"/>
        <path id="Trazado_836055" data-name="Trazado 836055" d="M145.213,46.588c-5.487.026-10.975.025-16.461.1-1.174.016-1.557-.346-1.559-1.532s.389-1.543,1.56-1.527c5.487.075,10.974.073,16.462.1q0,1.43,0,2.86" transform="translate(-69.681 -23.902)" fill="#9cf095"/>
        <path id="Trazado_836056" data-name="Trazado 836056" d="M182.459,43.454a7.754,7.754,0,0,1,2.626.3c.722.356.3,1.366.312,2.086s-.575.761-1.124.761c-.976,0-1.952-.019-2.927.007-1.17.031-2.178.159-2.132-1.653.045-1.769,1.119-1.4,2.114-1.43.375-.011.751,0,1.126,0,0-.024,0-.047.006-.07" transform="translate(-98.179 -23.806)" fill="#ccc3cb"/>
        <path id="Trazado_836057" data-name="Trazado 836057" d="M167.046,46.534q0-1.43,0-2.86c1.149-.134,2.354-.606,2.351,1.432s-1.2,1.572-2.353,1.427" transform="translate(-91.514 -23.848)" fill="#70be78"/>
      </g>
    </g>
  </g>
</svg>
