<svg xmlns="http://www.w3.org/2000/svg" xmlns:xlink="http://www.w3.org/1999/xlink" width="169" height="169" viewBox="0 0 169 169">
  <defs>
    <clipPath id="clip-path">
      <rect id="Rect치ngulo_380253" data-name="Rect치ngulo 380253" width="104.238" height="104.163" fill="none"/>
    </clipPath>
  </defs>
  <g id="Grupo_1082116" data-name="Grupo 1082116" transform="translate(-719.001 -4207.951)">
    <g id="Grupo_1015076" data-name="Grupo 1015076" transform="translate(-18 2149.951)">
      <g id="Grupo_159183" data-name="Grupo 159183" transform="translate(737.001 2058)">
        <path id="Uni칩n_12" data-name="Uni칩n 12" d="M84.5,0A84.5,84.5,0,1,1,0,84.5,84.5,84.5,0,0,1,84.5,0Z" fill="#9f0f6a"/>
      </g>
    </g>
    <g id="Grupo_1081906" data-name="Grupo 1081906" transform="translate(747.881 4235.933)">
      <g id="Grupo_1081905" data-name="Grupo 1081905" clip-path="url(#clip-path)">
        <path id="Trazado_835935" data-name="Trazado 835935" d="M65.623,92.386a5.207,5.207,0,0,1-3.1,4.6c-.762.327-.947.944-1.277,1.545a9.929,9.929,0,0,1-9.151,5.627,9.826,9.826,0,0,1-9.125-5.65A3.921,3.921,0,0,0,41.3,96.784c-2.26-1.263-3.314-3.678-2.321-5.854a3.666,3.666,0,0,0-.045-3.787,7.539,7.539,0,0,1-.419-2.282c-3.243,3.241-6.4,6.381-9.534,9.541a6.623,6.623,0,0,1-2.376,1.643Q16.727,99.8,6.88,103.631c-2.078.812-3.973.82-5.6-.868-1.557-1.618-1.492-3.458-.715-5.448Q4.374,87.568,8.077,77.78A7.118,7.118,0,0,1,9.8,75.207c4.229-4.186,8.408-8.421,12.649-12.594a2.159,2.159,0,0,0,.693-2.685A22.38,22.38,0,0,1,22.11,48.56c.186-1.219-.018-1.556-1.275-1.527-3.428.079-6.86.043-10.29.024C5.33,47.026,1.455,44.041.283,39.18c-1.112-4.609,1.1-9.108,5.737-11.374.983-.48,1.066-.906.912-1.893A16.733,16.733,0,0,1,37.211,13.921a2.714,2.714,0,0,0,3.151,1.363A12.8,12.8,0,0,1,52.81,20.649a2.774,2.774,0,0,0,2.343,1.4,6.025,6.025,0,0,1,2.48.348c3.167,1.532,5.145.082,7.3-2.2C70.022,14.8,75.363,9.643,80.624,4.41c5.726-5.7,14.093-5.892,19.518-.487,5.543,5.522,5.4,13.871-.371,19.669q-8.814,8.856-17.7,17.644a2.64,2.64,0,0,0-.838,3.093,21.882,21.882,0,0,1,.852,4.519c.118,1.174.427,1.848,1.747,1.571,1.605-.338,2.114.374,1.891,1.911a6.558,6.558,0,0,0,.041,2.092c.475,2.577,3.443,3.484,5.542,1.726,2.64-2.212,2.64-2.212,5.054.2,1.188,1.188,2.326,2.433,3.583,3.542.865.763.81,1.319-.048,1.953a3.036,3.036,0,0,0-.3.3c-1.307,1.287-2.742,2.516-1.842,4.681.883,2.126,2.708,2.265,4.568,2.048,1.654-.193,1.986.45,1.9,1.959a64.048,64.048,0,0,0,0,6.717c.058,1.243-.388,1.528-1.536,1.464-1.964-.111-4.017-.277-4.947,2.112-.89,2.285.707,3.525,2.075,4.8.805.752,1.051,1.245.091,2.12-1.809,1.648-3.538,3.394-5.2,5.193-.8.865-1.295.736-1.963-.062a13.114,13.114,0,0,0-1.652-1.609,2.978,2.978,0,0,0-3.319-.524,3.163,3.163,0,0,0-2.052,2.9c-.062,1.105.34,2.631-.234,3.218-.81.829-2.371.223-3.607.3-.7.043-1.4.01-2.1.007-1.26-.005-2.773.418-3.713-.134-1.094-.642-.28-2.289-.442-3.486a3.267,3.267,0,0,0-1.953-2.76,3.022,3.022,0,0,0-3.338.4,11.207,11.207,0,0,0-.927.851c-1.793,1.745-1.792,1.746-3.781.048M32.564,43.7q4.2,0,8.4,0c4.9,0,9.8.055,14.7-.033a4.965,4.965,0,0,0,4.822-4.65,5.141,5.141,0,0,0-3.906-5.282,5.03,5.03,0,0,0-5.846,3.283c-.12.325-.142.692-.29,1-.633,1.317-1.813.511-2.72.594-1.122.1-.634-.875-.541-1.357a7.938,7.938,0,0,1,3.56-5.461,2.742,2.742,0,0,0,1.32-2.22A10.087,10.087,0,0,0,32.4,25.562c-.279.951-.351,1.632.829,2.122a5.893,5.893,0,0,1,3.484,4.2c.143.564.825,1.512-.275,1.654-.9.116-2.149.633-2.827-.438-2.455-3.882-4.464-3.916-6.684-.077-.731,1.263-2.022.585-2.977.494-.8-.076-.324-1.021-.185-1.557a6.106,6.106,0,0,1,3.623-4.348,2.354,2.354,0,0,0,1.561-1.959,12.124,12.124,0,0,1,4.991-7.736c1.173-.829,1.128-1.4.348-2.439a13.452,13.452,0,0,0-24.141,9.505c.133,1.2.461,1.9,1.893,2.181A9.538,9.538,0,0,1,19.908,34.9c.152.647.96,1.835-.356,1.988-1.005.117-2.514.96-2.958-1.313A6.543,6.543,0,0,0,8.53,30.443,6.713,6.713,0,0,0,10.3,43.684c7.42.036,14.84.011,22.26.012M54.223,63.862H45.829c-.07,0-.14,0-.21,0-1.155.029-1.921.58-1.87,1.768.046,1.066.794,1.571,1.851,1.58.91.007,1.819-.007,2.728.008,3.418.054,5.416,2.069,5.45,5.523.022,2.239-.009,4.477.016,6.715,0,.429-.255,1.141.487,1.16a39.94,39.94,0,0,0,6.907-.076c1.034-.155,1.167-1.9,1.841-2.84.609-.852,1.163-1.746,1.8-2.573,2.367-3.052,5.324-5.547,7.961-8.344,2.83-3,5.043-6.338,5.781-10.485,2.436-13.683-6.656-27.115-20.564-30.393-2.666-.628-2.545-.625-2.606,2.007-.037,1.6.228,2.309,2.034,2.679a8.15,8.15,0,0,1,6.381,9.046,8.449,8.449,0,0,1-8.31,7.411c-1.468.036-2.938.007-4.407.007-4.118,0-4.054,0-4.069,4.162-.006,1.917.766,2.613,2.638,2.578,4.056-.075,8.114-.047,12.171-.015,3.115.025,5.336,2.11,5.377,4.961.042,2.936-2.215,5.075-5.441,5.111-2.518.027-5.036.005-7.555.006M34.682,47.06H29.226c-3.854,0-3.815,0-4,3.981a20.342,20.342,0,0,0,6,15.565c3.039,3.183,7.036,5.759,8.846,9.727,2.007,4.4,5.075,4.768,8.963,4.328a.812.812,0,0,1,.209,0c.9.13,1.224-.211,1.2-1.152-.063-2.306-.02-4.616-.024-6.924,0-1.4-.746-2.025-2.108-2-.7.011-1.4,0-2.1,0-3.6-.017-5.9-2.023-5.867-5.108.037-2.991,2.321-4.967,5.786-4.974q7.554-.016,15.108,0c1.274.005,2.577-.081,2.562-1.7s-1.337-1.674-2.6-1.667c-3.777.021-7.554.01-11.331.007-4.32,0-6.16-1.816-6.17-6.067a23.689,23.689,0,0,1,.016-2.516c.122-1.166-.263-1.57-1.479-1.525-2.515.093-5.035.028-7.553.028m34.1,28.625a21.6,21.6,0,0,0-3.865,5.689,1.682,1.682,0,0,0-.118,1.771,5.928,5.928,0,0,1,.717,3.42A2.177,2.177,0,0,0,68.529,88.6c4.531-2.641,9.188-.745,10.325,4.379.289,1.3.925,1.131,1.722,1.111.822-.021,1.592.313,1.9-1.142,1.089-5.081,5.832-7.026,10.317-4.283,1.063.65,1.47.212,2.065-.412s1.261-1.023.517-2.221c-2.766-4.453-.788-9.151,4.341-10.288,1.305-.289,1.112-.937,1.1-1.727-.01-.834.286-1.587-1.154-1.9-4.991-1.071-7.033-5.883-4.39-10.156a1.488,1.488,0,0,0-.283-2.255c-.787-.784-1.29-1.069-2.416-.353-3.561,2.264-7.636,1.039-9.612-2.671-.189-.354-.035-1.065-.875-1a27.419,27.419,0,0,1-1.737,6.366c7.22.821,11.761,5.089,12.056,11.24a11.745,11.745,0,0,1-9.435,12.152c-6.2,1.362-11.105-1.944-14.193-9.762m32.043-62.057a10.32,10.32,0,0,0-7.149-9.794,11.016,11.016,0,0,0-11.76,3.981c-.485.675-.205.958.211,1.374q6.446,6.436,12.882,12.881c.411.412.736.79,1.367.21,2.551-2.345,4.447-5.005,4.449-8.652M30.712,71.039a6.851,6.851,0,0,0-.525-.683,34.241,34.241,0,0,1-4.361-5.092c-.619-.923-1-.318-1.44.116-3.713,3.707-7.405,7.436-11.147,11.114-.7.693-.538,1.095.076,1.682,1.466,1.4,2.923,2.819,4.3,4.309.738.8,1.174.6,1.835-.076,3.485-3.539,7.013-7.036,10.523-10.551.24-.24.456-.5.741-.82M23.317,93.672,10.533,80.864c-1.138,2.951-2.337,6.143-3.61,9.3a1.73,1.73,0,0,0,.417,2.213q2.288,2.148,4.443,4.437a1.731,1.731,0,0,0,2.2.482c3.16-1.279,6.353-2.477,9.335-3.629m3.589-2.033c.369-.335.682-.6.97-.885,3.264-3.254,6.5-6.537,9.8-9.751a1.483,1.483,0,0,0,.161-2.3,42.585,42.585,0,0,0-3.75-4.5c-.591-.621-1-.769-1.681-.072Q27.044,79.585,21.6,84.95c-.6.589-.554.973.024,1.529,1.511,1.451,2.97,2.955,4.456,4.432.237.236.5.443.831.729M89.064,73.9a8.413,8.413,0,0,0-9.082-8.325,3.648,3.648,0,0,0-2.77,1.21c-1.194,1.456-2.5,2.83-3.832,4.161a3.667,3.667,0,0,0-1.12,2.6,8.406,8.406,0,1,0,16.8.351m-9.2-52a7.923,7.923,0,0,0-.545-.693c-1.574-1.585-3.18-3.14-4.725-4.752-.7-.726-1.067-.212-1.516.238-2.367,2.371-4.715,4.762-7.117,7.1-.744.723-.82,1.122.2,1.627a21.936,21.936,0,0,1,5.026,3.37c.844.767,1.333.6,2.043-.141,1.88-1.967,3.837-3.863,5.759-5.791.287-.288.552-.6.88-.955m-.2,17c.187-.163.408-.334.6-.529,2.471-2.464,4.921-4.947,7.416-7.386.636-.622.449-1.005-.09-1.526-1.454-1.408-2.9-2.829-4.288-4.3-.639-.675-1.079-.883-1.833-.089-1.97,2.073-4.011,4.081-6.064,6.074-.62.6-.715,1.041-.108,1.729a28.178,28.178,0,0,1,3.515,5.184c.187.342.274.816.847.84M93.587,25.464c-.571-.617-.836-.922-1.121-1.208-4.144-4.148-8.35-8.235-12.4-12.473-1.221-1.278-1.7-.415-2.418.322-.707.721-1.643,1.179-.345,2.418,4.189,4,8.218,8.166,12.339,12.237.375.371.654,1.295,1.458.738.849-.588,1.608-1.307,2.487-2.035m-41.7,61.917c2.654,0,5.309-.019,7.963.008,1.171.012,2.21-.264,2.268-1.585.064-1.461-1-1.791-2.27-1.787q-7.753.027-15.507,0c-1.171,0-2.209.262-2.268,1.584-.065,1.462,1,1.8,2.27,1.788,2.515-.024,5.029-.007,7.544-.007m.209,3.365c-2.584,0-5.169.017-7.753-.008-1.269-.012-2.334.325-2.27,1.787.058,1.322,1.1,1.589,2.268,1.585q7.753-.03,15.507,0c1.269,0,2.334-.327,2.27-1.788-.058-1.321-1.1-1.6-2.268-1.584-2.584.029-5.169.009-7.753.009m-5.58,6.829c1.854,4.145,9.02,4.388,11.182,0ZM9.089,99.125l-4-4.064c-.526,1.334-1.023,2.619-1.539,3.9a1.233,1.233,0,0,0,.235,1.517,1.292,1.292,0,0,0,1.535.139c1.271-.521,2.554-1.01,3.77-1.487" transform="translate(0 0)" fill="#040403"/>
        <path id="Trazado_835936" data-name="Trazado 835936" d="M37.213,57.627c-7.42,0-14.84.025-22.26-.011a6.713,6.713,0,0,1-1.774-13.241,6.543,6.543,0,0,1,8.065,5.134c.444,2.273,1.953,1.43,2.958,1.313,1.316-.153.507-1.341.356-1.988A9.538,9.538,0,0,0,16.688,41.1c-1.432-.283-1.76-.984-1.893-2.181a13.452,13.452,0,0,1,24.141-9.506c.78,1.044.825,1.61-.348,2.439A12.125,12.125,0,0,0,33.6,39.59a2.354,2.354,0,0,1-1.561,1.958A6.107,6.107,0,0,0,28.413,45.9c-.138.536-.612,1.481.185,1.557.956.092,2.247.77,2.977-.494,2.22-3.838,4.228-3.8,6.684.077.678,1.071,1.922.554,2.827.438,1.1-.142.419-1.09.275-1.654a5.893,5.893,0,0,0-3.484-4.2c-1.18-.489-1.108-1.171-.829-2.122A10.087,10.087,0,0,1,56.71,43.5a2.742,2.742,0,0,1-1.32,2.22,7.938,7.938,0,0,0-3.56,5.461c-.093.483-.581,1.461.541,1.358.907-.084,2.087.723,2.72-.594.148-.309.17-.676.29-1a5.03,5.03,0,0,1,5.846-3.283,5.141,5.141,0,0,1,3.906,5.282,4.965,4.965,0,0,1-4.822,4.65c-4.9.088-9.8.031-14.7.033q-4.2,0-8.4,0" transform="translate(-4.648 -13.932)" fill="#e3e6ea"/>
        <path id="Trazado_835937" data-name="Trazado 835937" d="M114.561,99.121c2.518,0,5.037.022,7.555-.006,3.227-.035,5.483-2.174,5.441-5.111-.04-2.851-2.261-4.936-5.377-4.96-4.057-.033-8.115-.06-12.171.015-1.872.034-2.645-.661-2.638-2.578.014-4.162-.049-4.162,4.069-4.162,1.469,0,2.939.029,4.407-.007a8.449,8.449,0,0,0,8.31-7.411,8.149,8.149,0,0,0-6.381-9.046c-1.806-.37-2.071-1.076-2.034-2.679.061-2.632-.06-2.635,2.606-2.007,13.909,3.278,23,16.71,20.565,30.393-.738,4.148-2.951,7.484-5.781,10.485-2.637,2.8-5.594,5.292-7.961,8.344-.641.827-1.195,1.72-1.8,2.572-.673.942-.807,2.685-1.841,2.84a39.988,39.988,0,0,1-6.908.076c-.741-.019-.482-.732-.487-1.16-.025-2.238.006-4.477-.016-6.715-.034-3.455-2.032-5.47-5.451-5.524-.909-.014-1.819,0-2.728-.008-1.057-.008-1.805-.514-1.851-1.579-.051-1.188.715-1.74,1.87-1.768.07,0,.14,0,.21,0h8.394" transform="translate(-60.337 -35.26)" fill="#fce7a5"/>
        <path id="Trazado_835938" data-name="Trazado 835938" d="M69.442,111.922c2.518,0,5.039.065,7.553-.028,1.216-.045,1.6.359,1.479,1.525a23.688,23.688,0,0,0-.016,2.516c.01,4.251,1.85,6.063,6.17,6.067,3.777,0,7.554.014,11.331-.007,1.262-.007,2.584.042,2.6,1.667s-1.289,1.709-2.562,1.7q-7.554-.028-15.108,0c-3.465.008-5.748,1.983-5.785,4.974-.039,3.084,2.265,5.09,5.867,5.108.7,0,1.4.01,2.1,0,1.363-.021,2.107.6,2.109,2,0,2.308-.04,4.617.023,6.924.026.941-.3,1.282-1.2,1.152a.816.816,0,0,0-.21,0c-3.887.44-6.956.073-8.963-4.328-1.809-3.969-5.807-6.544-8.845-9.727a20.343,20.343,0,0,1-6-15.566c.184-3.979.145-3.981,4-3.981h5.456" transform="translate(-34.76 -64.862)" fill="#fce7a5"/>
        <path id="Trazado_835939" data-name="Trazado 835939" d="M157.86,152.485c3.088,7.818,7.991,11.125,14.193,9.762a11.745,11.745,0,0,0,9.435-12.152c-.295-6.152-4.836-10.419-12.056-11.24a27.431,27.431,0,0,0,1.737-6.366c.84-.065.686.646.875,1,1.976,3.71,6.051,4.936,9.612,2.671,1.126-.716,1.629-.431,2.416.353a1.488,1.488,0,0,1,.283,2.255c-2.643,4.273-.6,9.085,4.39,10.156,1.44.309,1.144,1.061,1.154,1.9.009.79.2,1.438-1.1,1.727-5.129,1.137-7.107,5.835-4.341,10.288.745,1.2.092,1.583-.517,2.221s-1,1.062-2.064.412c-4.486-2.743-9.228-.8-10.317,4.283-.312,1.456-1.082,1.121-1.9,1.142-.8.021-1.432.19-1.722-1.111-1.137-5.124-5.793-7.02-10.325-4.379a2.178,2.178,0,0,1-3.014-2.041,5.924,5.924,0,0,0-.717-3.419,1.683,1.683,0,0,1,.118-1.771,21.587,21.587,0,0,1,3.865-5.689" transform="translate(-89.078 -76.801)" fill="#fac328"/>
        <path id="Trazado_835940" data-name="Trazado 835940" d="M213.445,18.319c0,3.647-1.9,6.307-4.447,8.652-.631.58-.955.2-1.367-.21q-6.436-6.445-12.882-12.881c-.417-.416-.7-.7-.211-1.374A11.016,11.016,0,0,1,206.3,8.525a10.316,10.316,0,0,1,7.148,9.793" transform="translate(-112.624 -4.693)" fill="#a7afb9"/>
        <path id="Trazado_835941" data-name="Trazado 835941" d="M48.337,160.384c-.285.316-.5.58-.741.82-3.51,3.515-7.038,7.012-10.523,10.551-.661.671-1.1.876-1.835.076-1.373-1.491-2.83-2.907-4.3-4.309-.614-.587-.781-.989-.076-1.682,3.742-3.679,7.434-7.407,11.147-11.114.435-.434.821-1.04,1.44-.116a34.242,34.242,0,0,0,4.361,5.092,6.789,6.789,0,0,1,.525.683" transform="translate(-17.626 -89.345)" fill="#f97f6b"/>
        <path id="Trazado_835942" data-name="Trazado 835942" d="M32.564,205.2c-2.982,1.152-6.175,2.35-9.335,3.629a1.731,1.731,0,0,1-2.2-.482q-2.154-2.282-4.443-4.437a1.73,1.73,0,0,1-.417-2.213c1.274-3.162,2.472-6.355,3.611-9.305L32.564,205.2" transform="translate(-9.246 -111.529)" fill="#c7ccd4"/>
        <path id="Trazado_835943" data-name="Trazado 835943" d="M56.1,193.247c-.327-.285-.593-.493-.831-.729-1.485-1.477-2.946-2.981-4.456-4.432-.578-.556-.62-.94-.024-1.529q5.439-5.375,10.811-10.817c.685-.7,1.091-.548,1.681.073a42.6,42.6,0,0,1,3.751,4.5,1.483,1.483,0,0,1-.161,2.3c-3.3,3.213-6.538,6.5-9.8,9.751-.288.287-.6.55-.97.885" transform="translate(-29.194 -101.609)" fill="#5ad1af"/>
        <path id="Trazado_835944" data-name="Trazado 835944" d="M188.716,164.287a8.407,8.407,0,1,1-16.8-.351,3.669,3.669,0,0,1,1.12-2.6c1.334-1.332,2.638-2.705,3.832-4.162a3.648,3.648,0,0,1,2.771-1.21,8.413,8.413,0,0,1,9.082,8.324m-3.367.095a5.033,5.033,0,1,0-5.136,4.983,5.078,5.078,0,0,0,5.136-4.983" transform="translate(-99.652 -90.391)" fill="#f2ce6b"/>
        <path id="Trazado_835945" data-name="Trazado 835945" d="M170.058,44.077c-.327.357-.592.667-.88.955-1.922,1.928-3.878,3.823-5.759,5.791-.71.743-1.2.908-2.043.141a21.925,21.925,0,0,0-5.026-3.37c-1.016-.5-.94-.9-.2-1.627,2.4-2.334,4.75-4.725,7.117-7.1.449-.451.82-.964,1.516-.238,1.545,1.612,3.151,3.167,4.725,4.752a7.985,7.985,0,0,1,.545.693" transform="translate(-90.196 -22.185)" fill="#f87e6b"/>
        <path id="Trazado_835946" data-name="Trazado 835946" d="M182.946,72.757c-.572-.025-.66-.5-.847-.84a28.2,28.2,0,0,0-3.515-5.184c-.607-.689-.512-1.128.108-1.729,2.053-1.993,4.093-4,6.064-6.074.754-.793,1.195-.585,1.833.09,1.392,1.469,2.835,2.89,4.288,4.3.538.521.726.9.09,1.527-2.5,2.438-4.946,4.922-7.416,7.385-.2.2-.417.367-.6.53" transform="translate(-103.286 -33.864)" fill="#5ad1af"/>
        <path id="Trazado_835947" data-name="Trazado 835947" d="M199.311,40.814c-.878.728-1.638,1.447-2.487,2.035-.8.556-1.083-.367-1.458-.738-4.121-4.072-8.15-8.238-12.339-12.238-1.3-1.24-.362-1.7.345-2.418.723-.737,1.2-1.6,2.418-.322,4.05,4.237,8.257,8.325,12.4,12.473.285.285.55.591,1.121,1.208" transform="translate(-105.724 -15.35)" fill="#dcdfe3"/>
        <path id="Trazado_835948" data-name="Trazado 835948" d="M109.923,203.256c-2.515,0-5.029-.017-7.544.007-1.269.012-2.334-.325-2.27-1.788.058-1.321,1.1-1.589,2.268-1.584q7.753.03,15.507,0c1.27,0,2.334.326,2.27,1.787-.058,1.321-1.1,1.6-2.268,1.585-2.654-.028-5.309-.009-7.963-.009" transform="translate(-58.031 -115.876)" fill="#c9ced6"/>
        <path id="Trazado_835949" data-name="Trazado 835949" d="M110.134,215.89c2.584,0,5.169.02,7.753-.009,1.171-.013,2.21.263,2.268,1.584.064,1.461-1,1.792-2.271,1.788q-7.753-.026-15.507,0c-1.17,0-2.21-.263-2.268-1.585-.064-1.462,1-1.8,2.27-1.787,2.584.024,5.169.007,7.753.007" transform="translate(-58.032 -125.145)" fill="#c9ced6"/>
        <path id="Trazado_835950" data-name="Trazado 835950" d="M110.686,232.151h11.181c-2.161,4.388-9.327,4.145-11.181,0" transform="translate(-64.164 -134.576)" fill="#a5adb7"/>
        <path id="Trazado_835951" data-name="Trazado 835951" d="M13.771,230.233c-1.216.477-2.5.966-3.77,1.487a1.292,1.292,0,0,1-1.535-.139,1.233,1.233,0,0,1-.235-1.517c.515-1.277,1.013-2.562,1.539-3.9l4,4.064" transform="translate(-4.682 -131.109)" fill="#c0c4cc"/>
        <path id="Trazado_835952" data-name="Trazado 835952" d="M190.008,169.029a5.033,5.033,0,1,1-5.034-5.083,5.08,5.08,0,0,1,5.034,5.083m-3.336-.043c-.142-1.024-.677-1.683-1.741-1.665a1.657,1.657,0,0,0-.012,3.313c1.061.046,1.6-.627,1.753-1.648" transform="translate(-104.311 -95.038)" fill="#040403"/>
        <path id="Trazado_835953" data-name="Trazado 835953" d="M191.326,173.639c-.15,1.021-.692,1.694-1.753,1.648a1.657,1.657,0,0,1,.012-3.313c1.064-.018,1.6.641,1.741,1.665" transform="translate(-108.965 -99.692)" fill="#e3e6ea"/>
      </g>
    </g>
  </g>
</svg>
