<svg xmlns="http://www.w3.org/2000/svg" xmlns:xlink="http://www.w3.org/1999/xlink" width="169" height="169" viewBox="0 0 169 169">
  <defs>
    <clipPath id="clip-path">
      <rect id="Rect치ngulo_380254" data-name="Rect치ngulo 380254" width="103.502" height="94.498" fill="none"/>
    </clipPath>
  </defs>
  <g id="Grupo_1082117" data-name="Grupo 1082117" transform="translate(-1069.666 -4207.95)">
    <g id="Grupo_1015077" data-name="Grupo 1015077" transform="translate(-18.334 2149.951)">
      <g id="Grupo_159184" data-name="Grupo 159184" transform="translate(1088 2057.999)">
        <path id="Uni칩n_12" data-name="Uni칩n 12" d="M84.5,0A84.5,84.5,0,1,1,0,84.5,84.5,84.5,0,0,1,84.5,0Z" transform="translate(0 0)" fill="#9f0f6a"/>
      </g>
    </g>
    <g id="Grupo_1081908" data-name="Grupo 1081908" transform="translate(1102.415 4245.598)">
      <g id="Grupo_1081907" data-name="Grupo 1081907" clip-path="url(#clip-path)">
        <path id="Trazado_835954" data-name="Trazado 835954" d="M92.586,35.387c-.218.914-.619,1.753-1.706,1.632-1.434-.16-1.614.51-1.607,1.732q.068,12.426,0,24.854c-.007,1.223.154,1.691,1.6,1.66A12.017,12.017,0,0,1,103.49,77.56c.028,3.907.035,7.814,0,11.72a12.164,12.164,0,1,1-24.328.058c-.026-1.481-.057-2.966.012-4.444.048-1.024-.24-1.413-1.343-1.406q-10.407.069-20.815,0c-.938,0-1.4.229-1.273,1.229a8.569,8.569,0,0,1,.006,1.009c.011,1.548-.533,3.464.183,4.548.794,1.2,2.848.285,4.343.454a6.316,6.316,0,0,1,5.628,5.9c.042.739-.008,1.483.024,2.222.08,1.888-.9,2.712-2.7,2.717-2.156.006-4.311,0-6.467,0q-14.954,0-29.909,0c-2.917,0-3.461-.534-3.47-3.343-.017-5.21,2.262-7.5,7.472-7.505,2.712,0,2.712,0,2.712-2.756,0-4.456,0-4.456-4.474-4.456q-11.822,0-23.644,0c-3.786,0-5.426-1.635-5.427-5.39Q.015,52.15.023,26.185c0-3.764,1.64-5.419,5.4-5.42,20.613-.007,41.226-.039,61.838.051,2.032.009,2.555-.575,2.329-2.449a23.129,23.129,0,0,1-.013-3.835,2.449,2.449,0,0,1,2.667-2.642q14.248-.018,28.494,0a2.468,2.468,0,0,1,2.748,2.761c.02,6.533.03,13.067-.005,19.6-.011,1.915-.938,2.877-2.908,2.758-1.458-.089-3.581,1.068-4.08-1.6.37-1.4,1.481-1.392,2.576-1.3,1.037.09,1.425-.271,1.411-1.346q-.076-5.546,0-11.093c.012-.959-.279-1.269-1.256-1.261-7.193.058-14.386.065-21.579.088-1.275-.026-2.553,0-3.823-.093-1.037-.078-1.227.4-1.212,1.3.042,2.553.014,5.106.014,7.66,0,5.018,0,5.018,5.028,4.647,4.165.028,8.33.088,12.5.062a2.243,2.243,0,0,1,2.441,1.317m-56.58,58.5a21.231,21.231,0,0,0-6.771-.105,3.174,3.174,0,0,0-2.849,2.727c-.273,1.233-.044,2.05,1.567,1.967,2.407-.124,4.824-.063,7.237-.08,8.46.017,16.92.046,25.379.028.725,0,1.783.483,2.125-.533a3.076,3.076,0,0,0-.627-3.028,3.412,3.412,0,0,0-2.707-1.147c-7.785.036-15.573-.29-23.354.171M87.4,80.842C86.683,77.6,85.737,74.379,89.333,72c1.051-.7.637-2.263.294-3.182-.323-.864-1.423-.073-2.053.22a8.717,8.717,0,0,0-5.393,7.9c-.176,4.3-.2,8.624.008,12.923.261,5.314,4.616,8.886,9.984,8.5,4.18-.382,7.688-3.4,8.068-7.433a78.284,78.284,0,0,0-.007-15.121c-.359-3.587-2.729-5.88-6.068-7.129-.44-.165-1.227-.564-1.249.3-.032,1.232-.52,2.521,1.01,3.557,2.41,1.631,2.833,6.614.761,8.717-1.119,1.136-2.116,2.051-1.934,3.823.08.783-.6,1.313-1.5,1.294-.79-.017-1.5-.535-1.383-1.179.4-2.217-1.135-3.2-2.475-4.342m-77.222-.408a2.005,2.005,0,0,0,.4.079q33.624.026,67.248.061c1.09,0,1.4-.428,1.366-1.438a14.544,14.544,0,0,1,.73-6.163c.314-.757.056-1.156-.785-1.146-.539.006-1.077,0-1.616,0q-21.709,0-43.419,0c-1.159,0-2.371.128-2.69-1.434.225-1.415,1.224-1.535,2.4-1.528,5.049.028,10.1.012,15.148.012q16.056,0,32.112,0a5.31,5.31,0,0,0,5.128-5c0-8.347-.031-16.694.031-25.041.01-1.378-.313-1.847-1.764-1.809-3.9.1-7.808.053-11.713.027-2.317-.015-3.161-.857-3.184-3.152-.027-2.827-.066-5.656.021-8.481.039-1.267-.241-1.719-1.633-1.716q-31.2.078-62.407.024c-1.827,0-2.522.7-2.5,2.519C3.087,29.2,3.013,29.2,6.058,29.2c.4,0,.808,0,1.212,0,2.828.021,3.592.761,3.6,3.577.009,9.357-.006,18.714.016,28.07a4.891,4.891,0,0,1-.732,2.871c-1.286,1.01-2.8.7-4.248.711-2.971.025-2.938.007-2.869,3.036.021.945.131,1.5,1.294,1.432,1.932-.109,3.873-.073,5.81-.1,5.007.025,10.015.082,15.021.051,1.25-.008,2.059.366,2.391,1.6-.47,1.192-1.409,1.4-2.581,1.394-4.929-.008-9.859.052-14.788.087-1.94-.044-3.879-.08-5.819-.134-.843-.023-1.212.359-1.2,1.2.023,1.944,0,3.888.02,5.831a1.61,1.61,0,0,0,1.79,1.732c1.737,0,3.475-.081,5.212-.128M44.6,90.716v.014h2.625c5.572,0,5.521,0,5.45-5.6-.017-1.39-.509-1.687-1.764-1.656-2.959.074-5.923.015-8.884.032-5.475.032-5.475.038-5.348,5.51a1.345,1.345,0,0,1,0,.2c-.145,1.115.288,1.559,1.46,1.516,2.151-.078,4.307-.022,6.461-.022M7.761,50.131c0-3.156-.073-6.314.032-9.467.049-1.462-.478-1.93-1.842-1.749a5.523,5.523,0,0,1-1.408,0c-1.295-.165-1.6.468-1.561,1.639C3.052,42.566,3,44.582,3,46.6q0,6.044,0,12.087c0,2.678,0,2.6,2.741,2.689,1.525.052,2.13-.318,2.058-1.976-.135-3.083-.039-6.177-.039-9.265M86.5,14.837v.013c-4.1,0-8.206.013-12.309-.01-.915-.005-1.545.087-1.535,1.269.01,1.125.562,1.342,1.509,1.341q12.309-.015,24.618.005c.979,0,1.677-.17,1.652-1.436-.025-1.25-.789-1.186-1.625-1.185q-6.155.007-12.309,0M5.915,32.141c-1.461.078-2.821-.452-2.826,1.726,0,1.892.85,2.042,2.306,1.959,1.258-.072,2.47.258,2.423-1.827-.04-1.766-.769-2.048-1.9-1.858M92.872,77.334c-.051-1.191.094-2.6-1.47-2.685s-1.66,1.223-1.63,2.427c.03,1.187-.225,2.68,1.534,2.716,1.637.033,1.481-1.392,1.565-2.459" transform="translate(-0.011 -7.076)" fill="#040405"/>
        <path id="Trazado_835955" data-name="Trazado 835955" d="M22.232,1.617C22.6.373,23.485.045,24.7.051c6.462.032,12.933-.19,19.383.1C47.524.3,50.5,2.381,53.52,3.942c1.347.7,1.082,2.785-.41,3.445C49.1,9.16,45.29,11.145,40.549,11.022c-11.974-.311-23.961-.1-35.943-.105-3.44,0-4.589-1.159-4.6-4.6,0-.808-.021-1.616,0-2.423C.086,1.624,1.357.151,3.594.1,7.833.009,12.075.075,16.316.066a1.794,1.794,0,0,1,2.016,1.553c-.238,1.229-1.062,1.586-2.213,1.563-1.548-.032-3.1.061-4.645-.019-1.085-.056-1.461.34-1.337,1.385a6.131,6.131,0,0,1,0,1.612c-.222,1.467.436,1.781,1.8,1.762,5.318-.074,10.638-.03,15.958-.03H40.218c3.133,0,3.062,0,3.12-3.074.025-1.323-.356-1.692-1.677-1.675-5.588.072-11.177.01-16.766.046-1.258.008-2.285-.182-2.663-1.572M3.181,6.044C2.5,8.266,4.1,7.838,5.325,7.938c1.47.119,2.229-.289,1.686-1.9.332-2.921.33-2.836-2.276-2.881-2.57-.044-1.441,1.716-1.553,2.891m46.64-.51c-.713-.358-1.136-.553-1.542-.778-.6-.334-1.108-.422-1.525.3-.29.5-.51,1.06-.16,1.5.467.589.955-.077,1.416-.213a16.76,16.76,0,0,0,1.81-.806" transform="translate(0 0)" fill="#060604"/>
        <path id="Trazado_835956" data-name="Trazado 835956" d="M191.95,33.044c7.193-.023,14.386-.03,21.579-.088.977-.008,1.268.3,1.256,1.261q-.067,5.546,0,11.093c.015,1.075-.373,1.436-1.41,1.346-1.1-.1-2.207-.1-2.577,1.3l-3.907-.014a2.243,2.243,0,0,0-2.441-1.317c-4.165.025-8.33-.035-12.5-.063q0-1.465-.007-2.93c1.607-.031,3.215-.077,4.822-.087,1.023-.006,1.744-.4,1.744-1.487s-.712-1.479-1.742-1.48c-1.608,0-3.215-.049-4.823-.078q0-.834-.009-1.667,5.852-.049,11.7-.1c2.154-.015,4.308,0,6.462-.021a1.4,1.4,0,0,0,1.577-1.463,1.426,1.426,0,0,0-1.565-1.481c-.471-.015-.942-.006-1.413-.008l-16.756-.074Zm14.509,7.541c-1.21,0-2.419-.006-3.628,0-.927.007-1.578.4-1.618,1.4a1.344,1.344,0,0,0,1.472,1.53c2.485.03,4.971.026,7.457.007a1.392,1.392,0,0,0,1.542-1.491,1.415,1.415,0,0,0-1.6-1.44c-1.21-.008-2.419,0-3.628,0" transform="translate(-114.318 -19.628)" fill="#f7ddbc"/>
        <path id="Trazado_835957" data-name="Trazado 835957" d="M37.1,4c.379,1.39,1.4,1.58,2.663,1.572,5.589-.036,11.178.026,16.766-.046,1.322-.017,1.7.353,1.677,1.676-.058,3.072.013,3.074-3.12,3.074H42.76c-5.32,0-10.639-.044-15.958.03-1.368.019-2.025-.294-1.8-1.762A6.135,6.135,0,0,0,25,6.93c-.124-1.045.252-1.441,1.337-1.385,1.544.08,3.1-.013,4.645.019C32.133,5.587,32.958,5.23,33.2,4l3.9,0" transform="translate(-14.864 -2.382)" fill="#fad002"/>
        <path id="Trazado_835958" data-name="Trazado 835958" d="M14.608,81.127a4.891,4.891,0,0,0,.732-2.872c-.022-9.357-.007-18.714-.016-28.07,0-2.816-.767-3.557-3.6-3.577-.4,0-.808,0-1.212,0-3.044,0-2.971,0-3.01-2.957-.024-1.818.671-2.522,2.5-2.52q31.2.043,62.407-.024c1.392,0,1.672.448,1.633,1.716-.087,2.824-.048,5.654-.021,8.48.022,2.3.866,3.137,3.184,3.153,3.9.025,7.811.075,11.713-.028,1.45-.038,1.773.43,1.763,1.809-.061,8.347-.03,16.694-.03,25.041a5.31,5.31,0,0,1-5.128,5q-16.056.011-32.112,0c-5.049,0-10.1.017-15.148-.012-1.176-.007-2.175.113-2.4,1.528l-3.86.057c-.332-1.23-1.141-1.6-2.391-1.6-5.007.032-10.014-.026-15.021-.051q.007-2.54.014-5.079M36.884,65.939c0,3.7-.021,7.4.008,11.1.017,2.093.724,2.817,2.767,2.822,7.538.019,15.076-.005,22.615.017,1.779.005,2.6-.834,2.6-2.573s-.048-3.5.023-5.248c.032-.785-.559-2.194,1.118-1.91,1.185.2,3.021-1.222,3.272,1.667A9.16,9.16,0,0,0,80,79.771,9.41,9.41,0,0,0,87.619,69.1a9.2,9.2,0,0,0-11.175-7.524,1.881,1.881,0,0,1-2.416-.981c-2.706-4.408-5.485-8.772-8.27-13.131-1.391-2.178-2.892-2.159-4.328.011-.7,1.064-1.43,2.122-2.034,3.242a2.175,2.175,0,0,1-2.245,1.246c-5.788-.062-11.577-.039-17.365-.024-2.189.006-2.88.69-2.9,2.894-.025,3.7-.007,7.4-.007,11.1M26.31,73.87c-1.682,0-3.364.008-5.047,0-1.134-.008-2.115.328-2.092,1.614.021,1.142.914,1.518,1.988,1.514,3.364-.013,6.729-.006,10.092,0,1.046,0,1.941-.286,1.969-1.507.032-1.368-.962-1.61-2.067-1.612-1.615,0-3.23,0-4.844,0m.083-17.07c-1.748,0-3.5.028-5.244-.01-1.094-.024-1.951.351-1.983,1.491-.032,1.161.851,1.578,1.921,1.58,3.429,0,6.858.011,10.287-.006,1.047-.005,1.92-.355,1.856-1.6-.062-1.229-.948-1.468-2-1.455-1.614.019-3.227.005-4.841.005m-.224,7.972c1.749,0,3.5.027,5.247-.01,1.052-.022,1.9-.432,1.814-1.664-.072-1.087-.846-1.428-1.835-1.428-3.431,0-6.862.013-10.292-.007-1.1-.006-1.933.408-1.934,1.547,0,1.16.9,1.555,1.956,1.562,1.682.013,3.363,0,5.045,0m.127,4.21c-1.682,0-3.365.013-5.047,0-1.147-.012-2.108.347-2.078,1.625.026,1.144.937,1.511,2,1.509,3.365-.007,6.729,0,10.094-.006,1.039,0,1.944-.3,1.956-1.526.014-1.358-.967-1.6-2.08-1.6-1.615,0-3.23,0-4.845,0M26.113,51.94c-1.743,0-3.486.008-5.229,0-1.051-.007-1.714.521-1.706,1.534a1.426,1.426,0,0,0,1.6,1.439c3.62.008,7.239.018,10.859,0,.91,0,1.574-.415,1.582-1.427.009-1.1-.657-1.54-1.679-1.543-1.81-.006-3.62,0-5.43,0m-2.6,29.911v-.011c1,0,2.007.057,3-.017A1.423,1.423,0,0,0,27.928,80.4a1.319,1.319,0,0,0-1.249-1.539c-2.063-.1-4.134-.1-6.2-.021a1.369,1.369,0,0,0-1.325,1.5,1.48,1.48,0,0,0,1.554,1.5c.934.036,1.87.008,2.8.008" transform="translate(-4.471 -24.482)" fill="#e7f3fc"/>
        <path id="Trazado_835959" data-name="Trazado 835959" d="M42.508,156.617l3.86-.057c.318,1.563,1.531,1.435,2.69,1.434q21.71,0,43.419,0c.539,0,1.077.011,1.616,0,.841-.01,1.1.388.785,1.146a14.543,14.543,0,0,0-.73,6.163c.03,1.01-.276,1.44-1.366,1.438q-33.624-.055-67.248-.061a2.044,2.044,0,0,1-.4-.078q0-4.252,0-8.506c4.929-.035,9.859-.1,14.788-.087,1.172,0,2.112-.2,2.581-1.394m17.151,6.906c.8,0,1.6.015,2.406,0,.987-.022,1.735-.453,1.783-1.5.048-1.062-.684-1.579-1.663-1.607q-2.6-.076-5.212.009A1.453,1.453,0,0,0,55.4,161.9c-.025,1.081.673,1.552,1.655,1.61.866.051,1.737.011,2.606.013" transform="translate(-14.972 -93.246)" fill="#534599"/>
        <path id="Trazado_835960" data-name="Trazado 835960" d="M215.924,164.138c1.34,1.147,2.871,2.125,2.475,4.342-.115.643.593,1.163,1.383,1.179.892.019,1.575-.512,1.5-1.294-.182-1.771.815-2.687,1.934-3.823,2.073-2.1,1.649-7.085-.761-8.716-1.53-1.036-1.042-2.325-1.01-3.557.022-.861.809-.462,1.249-.3,3.339,1.249,5.709,3.541,6.068,7.129a78.277,78.277,0,0,1,.007,15.12c-.38,4.028-3.888,7.051-8.068,7.432a11.35,11.35,0,0,1-4.8-8.445c-.19-3.011.005-6.046.03-9.07" transform="translate(-128.536 -90.372)" fill="#e7f3fc"/>
        <path id="Trazado_835961" data-name="Trazado 835961" d="M208.194,164.112c-.025,3.024-.22,6.06-.03,9.07a11.35,11.35,0,0,0,4.8,8.445c-5.369.383-9.723-3.189-9.984-8.5-.211-4.3-.184-8.62-.008-12.922a8.716,8.716,0,0,1,5.393-7.9c.63-.294,1.73-1.085,2.053-.221.344.92.757,2.486-.294,3.183-3.6,2.383-2.65,5.607-1.933,8.846" transform="translate(-120.805 -90.346)" fill="#d2e6f7"/>
        <path id="Trazado_835962" data-name="Trazado 835962" d="M87.747,214.306c7.782-.461,15.569-.134,23.354-.17a3.409,3.409,0,0,1,2.707,1.147,3.076,3.076,0,0,1,.627,3.028c-.343,1.016-1.4.531-2.126.533-8.459.018-16.919-.011-25.379-.028a6.992,6.992,0,0,1,.816-4.509" transform="translate(-51.752 -127.49)" fill="#534599"/>
        <path id="Trazado_835963" data-name="Trazado 835963" d="M98.538,196.155c-2.154,0-4.31-.056-6.461.022-1.172.042-1.605-.4-1.46-1.517a1.339,1.339,0,0,0,0-.2c-.127-5.472-.127-5.479,5.348-5.51,2.961-.017,5.925.042,8.884-.032,1.255-.032,1.747.265,1.764,1.656.07,5.6.122,5.6-5.451,5.6H98.538v-.013" transform="translate(-53.952 -112.516)" fill="#695dae"/>
        <path id="Trazado_835964" data-name="Trazado 835964" d="M12.12,89.892c0,3.089-.1,6.182.038,9.265.073,1.658-.532,2.029-2.058,1.977-2.736-.093-2.739-.011-2.74-2.689q0-6.044,0-12.087c0-2.015.051-4.031-.019-6.043-.04-1.171.267-1.8,1.561-1.639a5.522,5.522,0,0,0,1.408,0c1.363-.18,1.891.288,1.842,1.749-.106,3.152-.032,6.311-.032,9.467" transform="translate(-4.371 -46.836)" fill="#695dae"/>
        <path id="Trazado_835965" data-name="Trazado 835965" d="M193.474,19.186q6.155,0,12.309,0c.837,0,1.6-.066,1.625,1.185.025,1.266-.673,1.437-1.651,1.436q-12.309-.011-24.619,0c-.947,0-1.5-.217-1.509-1.341-.01-1.183.62-1.275,1.535-1.269,4.1.023,8.206.01,12.309.01Z" transform="translate(-106.986 -11.425)" fill="#695dae"/>
        <path id="Trazado_835966" data-name="Trazado 835966" d="M14.8,160.165q0,4.253,0,8.506c-1.737.047-3.475.132-5.212.128a1.61,1.61,0,0,1-1.79-1.732c-.024-1.944,0-3.888-.021-5.831-.009-.845.36-1.227,1.2-1.2,1.94.053,3.879.09,5.819.134" transform="translate(-4.63 -95.313)" fill="#403678"/>
        <path id="Trazado_835967" data-name="Trazado 835967" d="M184.545,43.61l.007,2.93c-5.028.37-5.028.37-5.028-4.647,0-2.553.029-5.107-.014-7.66-.015-.9.175-1.38,1.212-1.3,1.269.1,2.548.068,3.823.093q0,1.322,0,2.644c-1,.086-1.938.368-1.95,1.555-.013,1.208.988,1.426,1.941,1.588q0,.834.009,1.667c-.986.1-1.95.364-1.951,1.558s.977,1.443,1.95,1.574" transform="translate(-106.914 -19.608)" fill="#e7c59e"/>
        <path id="Trazado_835968" data-name="Trazado 835968" d="M74.693,214.194a6.992,6.992,0,0,0-.816,4.509c-2.413.017-4.83-.043-7.237.08-1.611.083-1.84-.734-1.567-1.967a3.174,3.174,0,0,1,2.849-2.727,21.228,21.228,0,0,1,6.771.105" transform="translate(-38.698 -127.379)" fill="#403678"/>
        <path id="Trazado_835969" data-name="Trazado 835969" d="M14.557,140.068q-.007,2.54-.014,5.08c-1.937.025-3.877-.011-5.809.1-1.163.066-1.272-.487-1.294-1.432-.069-3.029-.1-3.011,2.869-3.036,1.447-.012,2.962.3,4.248-.711" transform="translate(-4.42 -83.423)" fill="#d2e6f7"/>
        <path id="Trazado_835970" data-name="Trazado 835970" d="M10.436,61.9c1.134-.19,1.864.092,1.9,1.858.047,2.084-1.166,1.754-2.424,1.827-1.456.083-2.311-.067-2.306-1.959.005-2.178,1.365-1.648,2.826-1.726" transform="translate(-4.532 -36.839)" fill="#403678"/>
        <path id="Trazado_835971" data-name="Trazado 835971" d="M225.05,169.771c-.085,1.067.072,2.492-1.565,2.459-1.759-.036-1.5-1.53-1.534-2.716-.03-1.2.052-2.516,1.63-2.427s1.418,1.493,1.47,2.685" transform="translate(-132.189 -99.512)" fill="#01b97f"/>
        <path id="Trazado_835972" data-name="Trazado 835972" d="M7.642,10.688C7.754,9.512,6.625,7.753,9.2,7.8c2.606.045,2.608-.041,2.277,2.881l-3.83.01" transform="translate(-4.461 -4.643)" fill="#fa4654"/>
        <path id="Trazado_835973" data-name="Trazado 835973" d="M7.624,14.931l3.83-.01c.543,1.615-.216,2.023-1.686,1.9-1.229-.1-2.828.329-2.144-1.894" transform="translate(-4.443 -8.887)" fill="#f62a39"/>
        <path id="Trazado_835974" data-name="Trazado 835974" d="M118.178,12.171a16.76,16.76,0,0,1-1.81.806c-.461.136-.949.8-1.416.213-.35-.441-.13-1,.16-1.5.417-.718.925-.63,1.525-.3.406.226.828.42,1.542.778" transform="translate(-68.357 -6.636)" fill="#403678"/>
        <path id="Trazado_835975" data-name="Trazado 835975" d="M189.082,42.856c-.953-.162-1.954-.379-1.941-1.588.012-1.187.951-1.469,1.95-1.555l16.756.074c.471,0,.943-.006,1.413.009a1.425,1.425,0,0,1,1.565,1.481,1.4,1.4,0,0,1-1.576,1.463c-2.154.023-4.308.006-6.462.021q-5.852.039-11.7.1" transform="translate(-111.459 -23.653)" fill="#040405"/>
        <path id="Trazado_835976" data-name="Trazado 835976" d="M220.112,51.818c1.21,0,2.419-.006,3.628,0a1.416,1.416,0,0,1,1.6,1.441,1.392,1.392,0,0,1-1.542,1.491c-2.486.019-4.971.023-7.457-.007a1.344,1.344,0,0,1-1.472-1.531c.04-1,.691-1.388,1.618-1.395,1.21-.009,2.419,0,3.628,0" transform="translate(-127.97 -30.86)" fill="#040405"/>
        <path id="Trazado_835977" data-name="Trazado 835977" d="M189.088,54.737c-.973-.131-1.951-.381-1.95-1.574s.965-1.453,1.951-1.558c1.608.028,3.215.077,4.823.078,1.03,0,1.743.4,1.742,1.48s-.721,1.481-1.744,1.487c-1.607.01-3.215.056-4.822.087" transform="translate(-111.458 -30.736)" fill="#040405"/>
        <path id="Trazado_835978" data-name="Trazado 835978" d="M80.138,72.913c0-3.7-.019-7.4.007-11.1.015-2.2.706-2.887,2.895-2.894,5.788-.015,11.577-.038,17.365.024a2.175,2.175,0,0,0,2.245-1.246c.6-1.121,1.33-2.178,2.034-3.242,1.436-2.17,2.937-2.189,4.328-.011,2.785,4.359,5.564,8.723,8.27,13.131a1.881,1.881,0,0,0,2.416.981,9.2,9.2,0,0,1,11.175,7.524,9.41,9.41,0,0,1-7.624,10.668,9.16,9.16,0,0,1-10.711-7.954c-.251-2.889-2.087-1.466-3.272-1.667-1.677-.285-1.086,1.125-1.118,1.91-.071,1.747-.026,3.5-.023,5.248s-.82,2.578-2.6,2.573c-7.538-.022-15.076,0-22.615-.017-2.043-.005-2.75-.728-2.767-2.822-.03-3.7-.008-7.4-.008-11.1m20.955.973h16.663l-8.286-12.911L106.853,56.7,95.977,73.887ZM88.594,62.02c-1.271-.05-2.548-.045-3.813-.164-1.3-.121-1.569.471-1.558,1.646.049,5.243.021,10.486.021,15.73,0,5.139,0,5.139,5.351,4.506,3.83.043,7.659.108,11.488.125,5.144.021,5.087.006,5.069-5.162,0-1.395-.489-1.672-1.742-1.635-2.756.08-5.515.006-8.273.034-1.13.011-2.2-.089-2.777-1.211-.526-1.028-.059-1.929.51-2.816,2.069-3.224,4.113-6.464,6.159-9.7.455-.721,1.025-1.5-.561-1.478-3.291.052-6.583.088-9.874.13m31.389,9.635c.415.7.727,1.207,1.02,1.725,1.178,2.079.383,3.573-1.975,3.705-.47.026-.942.007-1.413.008-2.378.006-2.63.39-1.756,2.683a6.244,6.244,0,0,0,11.868-3.842c-.817-3.245-3.864-5-7.745-4.28" transform="translate(-47.725 -31.457)" fill="#060604"/>
        <path id="Trazado_835979" data-name="Trazado 835979" d="M43.485,122.12c1.615,0,3.23,0,4.844,0,1.105,0,2.1.244,2.067,1.612-.028,1.221-.923,1.507-1.969,1.507-3.364,0-6.729-.008-10.093,0-1.075,0-1.967-.372-1.988-1.514-.023-1.285.958-1.621,2.092-1.614,1.682.011,3.364,0,5.046,0" transform="translate(-21.647 -72.732)" fill="#0f1010"/>
        <path id="Trazado_835980" data-name="Trazado 835980" d="M43.561,79.9c1.614,0,3.227.014,4.841-.005,1.048-.013,1.933.226,2,1.455.063,1.248-.81,1.6-1.857,1.6-3.429.017-6.858.01-10.287.006-1.07,0-1.953-.419-1.921-1.58.032-1.14.889-1.515,1.983-1.491,1.747.038,3.5.01,5.244.01" transform="translate(-21.64 -47.58)" fill="#0f1010"/>
        <path id="Trazado_835981" data-name="Trazado 835981" d="M43.342,95.051c-1.682,0-3.363.011-5.045,0-1.054-.008-1.957-.4-1.956-1.562,0-1.14.836-1.554,1.934-1.548,3.431.02,6.861.009,10.292.007.988,0,1.763.34,1.835,1.428.081,1.232-.762,1.642-1.814,1.664-1.748.037-3.5.011-5.247.012" transform="translate(-21.644 -54.759)" fill="#0f1010"/>
        <path id="Trazado_835982" data-name="Trazado 835982" d="M43.473,110.031c1.615,0,3.23,0,4.845,0,1.113,0,2.094.24,2.08,1.6-.013,1.227-.917,1.524-1.956,1.526-3.365.007-6.729,0-10.094.006-1.063,0-1.974-.366-2-1.509-.03-1.278.932-1.636,2.078-1.625,1.682.017,3.364,0,5.047,0" transform="translate(-21.648 -65.531)" fill="#0f1010"/>
        <path id="Trazado_835983" data-name="Trazado 835983" d="M43.3,67.891c1.81,0,3.62-.005,5.43,0,1.022,0,1.688.446,1.679,1.543-.008,1.012-.672,1.423-1.582,1.427-3.619.018-7.239.008-10.859,0a1.426,1.426,0,0,1-1.6-1.439c-.008-1.013.655-1.542,1.706-1.534,1.743.012,3.486,0,5.229,0" transform="translate(-21.66 -40.434)" fill="#040405"/>
        <path id="Trazado_835984" data-name="Trazado 835984" d="M40.667,137.345c-.935,0-1.871.028-2.8-.008a1.48,1.48,0,0,1-1.554-1.5,1.369,1.369,0,0,1,1.325-1.5c2.064-.077,4.135-.074,6.2.021a1.319,1.319,0,0,1,1.249,1.539,1.423,1.423,0,0,1-1.409,1.421c-1,.074-2,.017-3,.017v.011" transform="translate(-21.624 -79.976)" fill="#0f1010"/>
        <path id="Trazado_835985" data-name="Trazado 835985" d="M104.222,169.145c-.869,0-1.74.04-2.606-.012-.982-.058-1.68-.529-1.655-1.61a1.453,1.453,0,0,1,1.575-1.478q2.6-.085,5.212-.008c.978.028,1.711.545,1.663,1.607-.048,1.046-.8,1.477-1.783,1.5-.8.018-1.6,0-2.406,0" transform="translate(-59.535 -98.868)" fill="#040405"/>
        <path id="Trazado_835986" data-name="Trazado 835986" d="M101.058,75.382c3.291-.042,6.583-.078,9.874-.13,1.586-.025,1.017.757.561,1.478-2.046,3.239-4.089,6.479-6.159,9.7-.569.887-1.036,1.789-.511,2.816.574,1.123,1.648,1.223,2.777,1.211,2.758-.027,5.517.047,8.273-.034,1.253-.036,1.737.241,1.743,1.635.018,5.168.075,5.183-5.069,5.162-3.83-.016-7.659-.081-11.488-.124q0-10.858,0-21.718" transform="translate(-60.189 -44.819)" fill="#0ed08f"/>
        <path id="Trazado_835987" data-name="Trazado 835987" d="M93.147,75.311q0,10.859,0,21.718c-5.351.633-5.351.633-5.351-4.506,0-5.244.028-10.487-.021-15.73-.011-1.174.262-1.767,1.558-1.646,1.265.119,2.542.114,3.814.164" transform="translate(-52.278 -44.748)" fill="#01b97f"/>
        <path id="Trazado_835988" data-name="Trazado 835988" d="M140.343,72.993,148.628,85.9H131.965c2.788-4.307,5.218-8.845,8.378-12.911" transform="translate(-78.597 -43.474)" fill="#fa4654"/>
        <path id="Trazado_835989" data-name="Trazado 835989" d="M171.922,99.165c3.881-.721,6.928,1.035,7.745,4.28a6.244,6.244,0,0,1-11.868,3.842c-.874-2.293-.623-2.677,1.756-2.683.471,0,.944.018,1.413-.008,2.358-.132,3.153-1.626,1.975-3.705-.294-.518-.606-1.026-1.02-1.725" transform="translate(-99.664 -58.966)" fill="#fad002"/>
        <path id="Trazado_835990" data-name="Trazado 835990" d="M132.809,66.693c-3.16,4.066-5.59,8.6-8.378,12.911h-5.116l10.876-17.188,2.618,4.277" transform="translate(-71.063 -37.174)" fill="#f62a39"/>
      </g>
    </g>
  </g>
</svg>
