<svg xmlns="http://www.w3.org/2000/svg" xmlns:xlink="http://www.w3.org/1999/xlink" width="142" height="142" viewBox="0 0 142 142">
  <defs>
    <clipPath id="clip-path">
      <rect id="Rectángulo_380271" data-name="Rectángulo 380271" width="85.859" height="85.718" fill="none"/>
    </clipPath>
  </defs>
  <g id="Grupo_1082065" data-name="Grupo 1082065" transform="translate(-420 -1882.5)">
    <circle id="Elipse_5855" data-name="Elipse 5855" cx="71" cy="71" r="71" transform="translate(420 1882.5)" fill="#9f0f6a"/>
    <g id="Grupo_1082011" data-name="Grupo 1082011" transform="translate(448.07 1910.642)">
      <g id="Grupo_1082010" data-name="Grupo 1082010" clip-path="url(#clip-path)">
        <path id="Trazado_836140" data-name="Trazado 836140" d="M80.394,59.857c1.693.158,3.852-.739,4.962.4,1.028,1.056.307,3.174.309,4.82.023,18.944-.007,37.888.052,56.831.005,1.7-.44,2.184-2.164,2.18q-36.522-.084-73.045.005c-5.478.022-10.657-4.334-10.423-10.4.023-.593.009-1.188.011-1.781.444-.3.435-.83.6-1.257a10.007,10.007,0,0,1,15.25-4.688,11.19,11.19,0,0,1,3.992,5.6c.125-13.619.121-27.166.135-40.712,0-.693-.211-1.432.255-2.076.524.476,1.053.946,1.57,1.428,2.285,2.132,4.272,4.573,6.749,6.506a15.4,15.4,0,0,0,5.582,1.735c2.692,1.32,5.634,1.8,8.76,2.905-1.137-3.174-1.587-6.1-2.913-8.753a26.03,26.03,0,0,0-1.586-5.72l-6.795-6.96,19.333-.063A21.7,21.7,0,0,0,52.843,63.1,19.155,19.155,0,0,1,57.2,75.568c-.234,4.88.311,5.624,4.19,5.716.012.412.024.823.037,1.235a4.282,4.282,0,1,0,8.557,0c.014-.412.025-.824.037-1.235,3.554-.085,4.258-.8,4.242-4.3,0-.473-.034-.945-.052-1.418A17.74,17.74,0,0,1,77.446,64.7a31.258,31.258,0,0,0,2.947-4.845M54.368,93.563a24.6,24.6,0,0,0-2.541-2.8c-.869-1.081-1.659-1.206-2.529-.024a1.408,1.408,0,0,1-2.258.377,6.4,6.4,0,0,0-1.818-.692c-.647-.209-1.042-.593-.9-1.3.411-2.108-.778-2.365-2.428-2.17a6.471,6.471,0,0,1-1.6,0c-1.306-.174-1.916.292-1.689,1.657a1.53,1.53,0,0,1-1.44,1.985,3.917,3.917,0,0,0-1.467.614,1.167,1.167,0,0,1-1.839-.234c-1.05-1.452-2.024-1.291-3.034.056a6.817,6.817,0,0,1-1.256,1.258c-1.094.856-1.2,1.659-.024,2.528a1.408,1.408,0,0,1,.375,2.258,6.326,6.326,0,0,0-.692,1.818c-.208.65-.6,1.039-1.3.9-2.109-.411-2.364.78-2.169,2.429a6.471,6.471,0,0,1,0,1.6c-.174,1.307.294,1.915,1.658,1.689a1.53,1.53,0,0,1,1.985,1.441,3.916,3.916,0,0,0,.613,1.467,1.167,1.167,0,0,1-.231,1.839c-1.452,1.051-1.291,2.024.056,3.034a6.826,6.826,0,0,1,1.257,1.256c.855,1.094,1.659,1.205,2.528.024a1.411,1.411,0,0,1,2.258-.38,6.351,6.351,0,0,0,1.818.693c.653.208,1.037.6.9,1.3-.41,2.11.78,2.364,2.429,2.169a6.471,6.471,0,0,1,1.6,0c1.307.174,1.915-.294,1.688-1.658a1.53,1.53,0,0,1,1.441-1.984,3.926,3.926,0,0,0,1.467-.613,1.167,1.167,0,0,1,1.84.231c1.05,1.452,2.024,1.292,3.034-.055a6.828,6.828,0,0,1,1.256-1.257c1.095-.855,1.205-1.659.024-2.528A1.408,1.408,0,0,1,53,108.238a6.343,6.343,0,0,0,.692-1.818c.209-.65.6-1.039,1.3-.9,2.109.41,2.362-.779,2.171-2.429a8.075,8.075,0,0,1,0-1.778c.122-1.139-.275-1.645-1.48-1.532-.55.051-1.326.309-1.651-.287a15.554,15.554,0,0,1-1.447-3.417c-.2-.757.769-1.1,1.181-1.656.205-.276.4-.561.6-.854m11.153,23.359v-.011c2.375,0,4.753.064,7.125-.014a9.281,9.281,0,0,0,.512-18.49c-4.657-.45-5.619-1.385-5.991-6.156-.088-1.133-.712-1.031-1.423-1-.66.024-1.372-.237-1.492.935a8.006,8.006,0,0,0,7.7,9.041,7.264,7.264,0,0,1,3.4.905,6.408,6.408,0,0,1-3.238,11.92c-4.572.06-9.145.046-13.717,0-1.067-.011-1.3.407-1.269,1.362.029.9-.022,1.6,1.27,1.544,2.371-.1,4.75-.028,7.125-.028" transform="translate(-0.05 -38.378)" fill="#e1e6f5"/>
        <path id="Trazado_836141" data-name="Trazado 836141" d="M20.335,55.627c-.466.644-.255,1.382-.255,2.076-.013,13.546-.01,27.092-.135,40.712a11.19,11.19,0,0,0-3.992-5.6A10.007,10.007,0,0,0,.7,97.5c-.161.428-.153.957-.6,1.258C.1,81.379.069,64,.132,46.613a9.025,9.025,0,0,1,3.592-7.39c.791.361,1.114,1.419,2.137,1.437,1.047,2.01,2.831,3.317,4.5,4.733.437.475.863.962,1.315,1.423q4.324,4.41,8.658,8.811" transform="translate(-0.061 -25.227)" fill="#c7ccec"/>
        <path id="Trazado_836142" data-name="Trazado 836142" d="M147.194,37.19a19.156,19.156,0,0,0-4.359-12.466,21.717,21.717,0,0,1-1.819-3.245A15.717,15.717,0,0,1,149.57,1.347c6.144-2.477,11.871-1.55,16.708,2.876,4.72,4.319,6.156,9.825,4.454,16.063-.109.4-.232.8-.348,1.193a31.255,31.255,0,0,1-2.947,4.845,17.735,17.735,0,0,0-3.232,10.866l-4.2-.04c-.007-2.729.033-5.459-.043-8.187-.034-1.214.162-1.843,1.613-1.82a3.988,3.988,0,0,0,3.725-2.577,3.761,3.761,0,0,0-.753-4.423,3.822,3.822,0,0,0-4.467-1.23,4.122,4.122,0,0,0-2.921,4.022c-.011,1.094-.383,1.431-1.454,1.431s-1.464-.333-1.45-1.431a4.125,4.125,0,0,0-2.589-3.91,3.718,3.718,0,0,0-4.294.621,3.9,3.9,0,0,0-1.436,4.42,3.97,3.97,0,0,0,3.723,3.054c1.589.041,1.84.657,1.792,2.022-.095,2.667-.04,5.339-.047,8.009l-4.2.04M167.1,14.518c-.136-4.64-5.766-10.14-10.365-10.141-.633,0-1.1.182-1.012.886s-.519,1.717.843,1.964a8.833,8.833,0,0,1,7.7,7.724c.244,1.345,1.28.726,1.994.793.877.082.854-.613.844-1.226" transform="translate(-90.041 0)" fill="#f8d167"/>
        <path id="Trazado_836143" data-name="Trazado 836143" d="M61.251,40.2l6.8,6.961a25.08,25.08,0,0,1-3.334.088c-1.67-.166-2.609.255-2.294,2.132-3.536-3.48-7.1-6.932-10.6-10.451a68.612,68.612,0,0,1-5.784-5.976,12.173,12.173,0,0,1,3.716-3.943c3.381,2.932,6.354,6.281,9.577,9.376.635.61,1.281,1.209,1.922,1.812" transform="translate(-29.609 -18.662)" fill="#efaf46"/>
        <path id="Trazado_836144" data-name="Trazado 836144" d="M30.6,20.791a12.166,12.166,0,0,0-3.716,3.943A3.042,3.042,0,0,0,24.7,26.913C23,27.724,21.929,29.22,20.756,30.6c-1.671-1.416-3.456-2.723-4.5-4.733,3.352-3.07,6.585-6.261,9.626-9.641A21.567,21.567,0,0,1,30.6,20.791" transform="translate(-10.454 -10.438)" fill="#d48a42"/>
        <path id="Trazado_836145" data-name="Trazado 836145" d="M20.669,5.811c-3.042,3.381-6.273,6.571-9.626,9.641-1.022-.017-1.345-1.075-2.136-1.437-.041-.232-.082-.465-.122-.7C10.87,11.74,12.5,9.69,14.41,7.927c.6-.557.4-.993-.1-1.478-1.894-1.836-3.545-3.974-6.161-4.9,2.8-1.97,5.7-2.056,8.383-.045a14.136,14.136,0,0,1,4.134,4.31" transform="translate(-5.244 -0.02)" fill="#b6b6b6"/>
        <path id="Trazado_836146" data-name="Trazado 836146" d="M2.909,4.279c2.616.928,4.267,3.066,6.161,4.9.5.486.7.921.1,1.479-1.908,1.763-3.54,3.813-5.626,5.391A7,7,0,0,1,2.909,4.279" transform="translate(0 -2.752)" fill="#ccc"/>
        <path id="Trazado_836147" data-name="Trazado 836147" d="M100.553,142.645c-.207.293-.4.578-.6.854-.412.554-1.381.9-1.181,1.656a15.553,15.553,0,0,0,1.447,3.417c.325.6,1.1.339,1.651.287,1.206-.113,1.6.393,1.481,1.532a8.075,8.075,0,0,0,0,1.778c.191,1.65-.062,2.839-2.171,2.429-.705-.137-1.094.252-1.3.9a6.356,6.356,0,0,1-.692,1.818,1.408,1.408,0,0,0,.379,2.257c1.181.869,1.07,1.674-.024,2.529a6.818,6.818,0,0,0-1.257,1.257c-1.01,1.347-1.983,1.508-3.034.055a1.167,1.167,0,0,0-1.839-.231,3.935,3.935,0,0,1-1.467.613,1.53,1.53,0,0,0-1.441,1.984c.226,1.364-.381,1.832-1.689,1.658a6.457,6.457,0,0,0-1.6,0c-1.649.2-2.839-.06-2.429-2.169.137-.7-.248-1.1-.9-1.3a6.352,6.352,0,0,1-1.818-.693,1.411,1.411,0,0,0-2.258.38c-.869,1.181-1.673,1.07-2.528-.024a6.816,6.816,0,0,0-1.258-1.256c-1.347-1.01-1.508-1.983-.056-3.034a1.167,1.167,0,0,0,.231-1.839,3.911,3.911,0,0,1-.612-1.467,1.53,1.53,0,0,0-1.985-1.441c-1.364.226-1.833-.381-1.658-1.689a6.454,6.454,0,0,0,0-1.6c-.2-1.649.06-2.84,2.169-2.429.705.137,1.094-.252,1.3-.9a6.326,6.326,0,0,1,.692-1.818,1.408,1.408,0,0,0-.376-2.258c-1.18-.869-1.07-1.672.024-2.528a6.829,6.829,0,0,0,1.256-1.258c1.01-1.347,1.983-1.508,3.034-.056a1.167,1.167,0,0,0,1.839.234,3.909,3.909,0,0,1,1.467-.614,1.53,1.53,0,0,0,1.44-1.985c-.227-1.365.383-1.831,1.689-1.657a6.473,6.473,0,0,0,1.6,0c1.65-.2,2.839.061,2.428,2.169-.138.708.257,1.092.9,1.3a6.4,6.4,0,0,1,1.818.692,1.409,1.409,0,0,0,2.258-.377c.87-1.181,1.66-1.057,2.528.024a24.54,24.54,0,0,1,2.541,2.8M80.51,151.727a7.131,7.131,0,1,0,7.092-7.122,7.1,7.1,0,0,0-7.092,7.122" transform="translate(-46.235 -87.459)" fill="#79a0d4"/>
        <path id="Trazado_836148" data-name="Trazado 836148" d="M168.344,173.813c-2.375,0-4.754-.07-7.125.028-1.293.054-1.241-.641-1.27-1.544-.031-.955.2-1.374,1.268-1.362,4.572.05,9.146.064,13.717,0a6.408,6.408,0,0,0,3.238-11.92,7.264,7.264,0,0,0-3.4-.905,8.006,8.006,0,0,1-7.7-9.041c.12-1.172.832-.911,1.492-.935.711-.026,1.335-.128,1.423,1,.372,4.771,1.334,5.706,5.991,6.156a9.281,9.281,0,0,1-.512,18.49c-2.373.078-4.75.014-7.125.014v.011" transform="translate(-102.873 -95.269)" fill="#efae45"/>
        <path id="Trazado_836149" data-name="Trazado 836149" d="M28.871,49.861c1.173-1.383,2.239-2.879,3.947-3.69,5.659,5.275,11.08,10.788,16.424,16.378-1.612-.193-2.383.361-2.132,2.129a25.225,25.225,0,0,1,.051,3.353c-2.477-1.933-4.464-4.374-6.749-6.506-.517-.483-1.046-.952-1.57-1.428q-4.33-4.405-8.658-8.812c-.452-.461-.877-.948-1.315-1.423" transform="translate(-18.569 -29.696)" fill="#efae42"/>
        <path id="Trazado_836150" data-name="Trazado 836150" d="M172.892,104.11l4.2.04c.018.473.05.945.052,1.418.017,3.5-.688,4.213-4.241,4.3h-8.632c-3.878-.092-4.424-.836-4.19-5.716l4.2-.04h8.6" transform="translate(-102.933 -66.96)" fill="#d4883f"/>
        <path id="Trazado_836151" data-name="Trazado 836151" d="M79.954,89.711a25.222,25.222,0,0,0-.051-3.353c-.252-1.768.52-2.322,2.132-2.128,2.2.071,2.2.071,2.136-2.13-.315-1.877.625-2.3,2.294-2.132a25.081,25.081,0,0,0,3.334-.088A26.019,26.019,0,0,1,91.384,85.6l-5.847,5.848a15.4,15.4,0,0,1-5.582-1.736" transform="translate(-51.361 -51.376)" fill="#f6d1b6"/>
        <path id="Trazado_836152" data-name="Trazado 836152" d="M171.91,120.243h8.632c-.012.412-.024.824-.037,1.235a4.282,4.282,0,1,1-8.557,0c-.013-.412-.025-.824-.037-1.235" transform="translate(-110.568 -77.337)" fill="#efae42"/>
        <path id="Trazado_836153" data-name="Trazado 836153" d="M95.775,101.754l5.847-5.848c1.326,2.651,1.776,5.58,2.913,8.753-3.127-1.11-6.069-1.585-8.76-2.905" transform="translate(-61.6 -61.684)" fill="#6f6d6d"/>
        <path id="Trazado_836154" data-name="Trazado 836154" d="M170.31,70.684h-2.9c.007-2.85-.025-5.7.039-8.55.025-1.1-.372-1.439-1.444-1.439s-1.47.34-1.445,1.438c.064,2.849.033,5.7.04,8.55h-2.9c.007-2.67-.048-5.342.046-8.009.049-1.366-.2-1.982-1.792-2.022a3.97,3.97,0,0,1-3.723-3.054,3.9,3.9,0,0,1,1.436-4.42,3.718,3.718,0,0,1,4.294-.621,4.125,4.125,0,0,1,2.589,3.91c-.014,1.1.38,1.431,1.451,1.431s1.443-.336,1.454-1.431a4.122,4.122,0,0,1,2.921-4.022,3.823,3.823,0,0,1,4.468,1.23A3.762,3.762,0,0,1,175.6,58.1a3.989,3.989,0,0,1-3.725,2.577c-1.451-.022-1.646.606-1.612,1.82.075,2.727.035,5.458.042,8.187m-8.578-13.948c-.039-.895-.376-1.63-1.379-1.673a1.277,1.277,0,0,0-1.429,1.41c.035.986.724,1.365,1.667,1.4.81.03,1.224-.272,1.14-1.137m8.525.351c-.04.368.215.806,1.093.788.938-.019,1.65-.353,1.742-1.329a1.276,1.276,0,0,0-1.353-1.483c-1-.01-1.4.68-1.482,2.024" transform="translate(-100.35 -33.535)" fill="#efae42"/>
        <path id="Trazado_836155" data-name="Trazado 836155" d="M195.345,22.406c.01.614.034,1.309-.844,1.226-.714-.067-1.75.552-1.994-.793a8.832,8.832,0,0,0-7.7-7.724c-1.362-.247-.752-1.25-.843-1.964s.378-.886,1.012-.886c4.6,0,10.229,5.5,10.365,10.141" transform="translate(-118.285 -7.889)" fill="#fbe595"/>
        <path id="Trazado_836156" data-name="Trazado 836156" d="M58.493,56.492c.067,2.2.067,2.2-2.136,2.13-5.344-5.59-10.765-11.1-16.424-16.378a3.04,3.04,0,0,1,2.178-2.178,68.7,68.7,0,0,0,5.784,5.975c3.5,3.519,7.062,6.971,10.6,10.451" transform="translate(-25.684 -25.769)" fill="#f8d167"/>
        <path id="Trazado_836157" data-name="Trazado 836157" d="M96.057,167.273a7.131,7.131,0,1,1,7.074,7.14,7.084,7.084,0,0,1-7.074-7.14" transform="translate(-61.781 -103.005)" fill="#e0e5f5"/>
        <path id="Trazado_836158" data-name="Trazado 836158" d="M179.995,86.106c-.007-2.85.025-5.7-.04-8.55-.025-1.1.373-1.438,1.445-1.438s1.469.341,1.444,1.439c-.064,2.849-.032,5.7-.04,8.55h-2.81" transform="translate(-115.742 -48.957)" fill="#f8d167"/>
        <path id="Trazado_836159" data-name="Trazado 836159" d="M166.959,62c.083.865-.33,1.167-1.141,1.137-.943-.035-1.632-.415-1.667-1.4a1.277,1.277,0,0,1,1.429-1.41c1,.043,1.34.778,1.379,1.673" transform="translate(-105.577 -38.801)" fill="#f8d167"/>
        <path id="Trazado_836160" data-name="Trazado 836160" d="M195.9,62.358c.079-1.343.486-2.033,1.482-2.024a1.276,1.276,0,0,1,1.353,1.483c-.092.976-.8,1.31-1.742,1.329-.878.018-1.133-.421-1.093-.788" transform="translate(-125.998 -38.806)" fill="#f8d167"/>
      </g>
    </g>
  </g>
</svg>
