<svg xmlns="http://www.w3.org/2000/svg" width="58.081" height="52.687" viewBox="0 0 58.081 52.687">
  <g id="Grupo_1017057" data-name="Grupo 1017057" transform="translate(-480.949 -584.574)">
    <path id="Trazado_717259" data-name="Trazado 717259" d="M531.09,594.691,521.5,585.1,506.02,600.589,490.535,585.1l-9.586,9.586,15.485,15.485L480.949,625.66l9.586,9.586,15.485-15.485L521.5,635.245l9.586-9.586-15.484-15.485Z" transform="translate(0 0.743)" fill="#f6f6f6"/>
    <g id="Grupo_1017056" data-name="Grupo 1017056" transform="translate(486.341 584.574)">
      <g id="Grupo_1017055" data-name="Grupo 1017055">
        <g id="Grupo_1017054" data-name="Grupo 1017054">
          <g id="Grupo_1017053" data-name="Grupo 1017053">
            <path id="Trazado_717260" data-name="Trazado 717260" d="M494.057,637.261,483.2,626.4l15.485-15.485L483.2,595.431l10.86-10.857,15.485,15.485,15.485-15.485,10.86,10.857L520.4,610.919,535.886,626.4l-10.86,10.857-15.485-15.485Zm15.485-18.03,15.485,15.485,8.312-8.312-15.485-15.485,15.485-15.487-8.312-8.31L509.542,602.6l-15.485-15.482-8.312,8.31,15.485,15.487L485.745,626.4l8.312,8.312Z" transform="translate(-483.197 -584.574)" fill="#6fefc4"/>
          </g>
        </g>
      </g>
    </g>
  </g>
</svg>
