<svg xmlns="http://www.w3.org/2000/svg" xmlns:xlink="http://www.w3.org/1999/xlink" width="169" height="169" viewBox="0 0 169 169">
  <defs>
    <clipPath id="clip-path">
      <rect id="Rect치ngulo_380252" data-name="Rect치ngulo 380252" width="113" height="113.038" fill="none"/>
    </clipPath>
  </defs>
  <g id="Grupo_1082115" data-name="Grupo 1082115" transform="translate(-366.501 -4207.951)">
    <g id="Grupo_1015075" data-name="Grupo 1015075" transform="translate(-18.5 2149.951)">
      <g id="Grupo_159182" data-name="Grupo 159182" transform="translate(385.001 2058)">
        <path id="Uni칩n_12" data-name="Uni칩n 12" d="M84.5,0A84.5,84.5,0,1,1,0,84.5,84.5,84.5,0,0,1,84.5,0Z" transform="translate(0 0)" fill="#9f0f6a"/>
      </g>
    </g>
    <g id="Grupo_1081904" data-name="Grupo 1081904" transform="translate(394.501 4235.933)">
      <g id="Grupo_1081903" data-name="Grupo 1081903" clip-path="url(#clip-path)">
        <path id="Trazado_835893" data-name="Trazado 835893" d="M50.822,12.028c-.055-1.469.577-1.877,2.091-1.871,16.982.067,33.964.03,50.947.049,5.768.006,9.127,3.406,9.131,9.217q.019,29.99,0,59.98c0,5.933-3.354,9.29-9.284,9.3-9.337.019-18.674.046-28.01-.034-1.6-.014-2.161.3-2.063,2.012.163,2.857.112,5.733.015,8.6-.045,1.3.406,1.632,1.625,1.556a22.471,22.471,0,0,1,3.96.1A5.971,5.971,0,0,1,84.7,106.6c.6,6.4.6,6.4-5.734,6.4-16.174,0-32.347-.023-48.521.035-1.635.006-2.429-.275-2.185-2.106.163-1.228,0-2.5.038-3.744a6.123,6.123,0,0,1,6-6.34c.219-.019.44-.027.661-.035,4.382-.167,4.382-.167,4.382-4.476,0-1.911-.109-3.831.034-5.731.116-1.545-.35-1.948-1.91-1.934-9.189.08-18.379.042-27.569.038-6.676,0-9.87-3.181-9.871-9.826q0-29.77-.018-59.539a8.981,8.981,0,0,1,3.4-7.513c1.214-.975,2.125-1.132,2.723.563-.078.637.634,1.313-.366,1.91-2.07,1.236-2.412,3.283-2.406,5.531.038,12.535.011,25.071.024,37.607,0,2.487.081,4.975.125,7.462.011.931-.737,2.369.547,2.6a10.908,10.908,0,0,0,5.385-.193c.823-.291.261-2.289.28-3.51.049-3.153.021-6.308.016-9.462Q9.7,33.111,9.659,11.879c.025-3.372.1-6.745.048-10.115C9.687.515,9.862-.029,11.333,0q7.808.154,15.622,0c1.439-.025,1.681.484,1.662,1.768-.05,3.369.049,6.739.088,10.109-.037.806-.105,1.611-.106,2.416q-.01,19.854,0,39.707c0,3.971.053,7.942-.029,11.911-.028,1.336.327,1.926,1.714,1.723a4.965,4.965,0,0,1,1.54,0c1.889.327,2.265-.493,2.253-2.283-.081-12.72.118-25.444-.12-38.161-.1-5.362.305-10.352,3.912-14.614a2.021,2.021,0,0,0,.232-.614l4.263-6.734,4.232,6.743a33.9,33.9,0,0,0,1.985,3.416,12.222,12.222,0,0,1,2.173,7.813c-.113,14.092-.021,28.186-.091,42.278-.008,1.706.4,2.191,2.158,2.184q27.2-.1,54.4.011c2.312.012,2.843-.762,2.294-2.776.043-.8.124-1.606.125-2.409q.012-21.041,0-42.082c0-5.376-1.439-6.837-6.738-6.838q-25.892,0-51.784,0l-.295-1.549M47.2,64.9c.509-2.163-.218-3.05-2.531-2.738a34.919,34.919,0,0,1-4.612.038c-2.718,0-2.718,0-2.518,2.7-.5,2.149.175,3.086,2.524,2.766a17.031,17.031,0,0,1,4.609,0c2.364.331,3-.645,2.529-2.767M31.8,106.815c-.207,2.812-.207,2.815,2.469,2.816H78.742c2.676,0,2.676,0,2.469-2.816a2.5,2.5,0,0,0-2.829-2.625q-21.875-.034-43.75,0a2.5,2.5,0,0,0-2.83,2.625M42.85,91.383q-.007,3.3-.012,6.608c-.438,2.051.023,2.93,2.479,2.867q11.185-.285,22.381,0c2.456.063,2.917-.816,2.479-2.867q-.006-3.3-.012-6.608c.472-1.985-.049-2.774-2.34-2.726q-11.314.236-22.634,0c-2.291-.048-2.811.741-2.34,2.726M47.2,56.065V22.046c-3.314,3.73-6.466,3.271-9.651.233v33.79c-.494,2.158.237,3.055,2.544,2.753a17.594,17.594,0,0,1,4.567,0c2.326.313,3.012-.624,2.54-2.758M25.118,64.9q.04-30.091.1-60.181c0-1.1-.4-1.361-1.415-1.345-3.012.049-6.032.121-9.038-.023-1.719-.082-1.673.83-1.68,2.025-.006,1.222,0,2.182,1.709,2.008,1.455-.148,2.938,0,4.407-.04,1.2-.034,2.029-.034,2.042,1.677.014,1.748-.861,1.674-2.033,1.641-1.4-.04-2.811.131-4.185-.044-1.853-.235-2.006.695-1.943,2.156.078,1.806,1.393,1,2.244,1.23.827.224,2.171-.755,2.33,1.094.141,1.64-.252,2.423-2.1,2.227-1.041-.11-2.5-.695-2.517,1.548-.022,2.325,1.444,1.7,2.638,1.748,1.174.047,2.353.042,3.527,0,1.193-.042,2.027-.051,2.042,1.668.015,1.779-.908,1.645-2.053,1.622-1.4-.028-2.793-.015-4.189,0-1.706.013-2.607,1.357-1.807,2.8.6,1.089,1.725.495,2.6.522,1.14.035,1.889.019,1.907,1.593.019,1.614-.666,1.853-1.956,1.715-.436-.047-.887.038-1.321-.015-1.37-.169-1.338.717-1.324,1.656.014.908-.1,1.794,1.291,1.734,1.687-.073,3.385.062,5.069-.04,1.333-.08,1.74.33,1.769,1.71.033,1.544-.686,1.644-1.863,1.591-1.467-.066-2.939-.026-4.409-.013a1.84,1.84,0,0,0-1.733,2.856c.687,1.085,1.895.473,2.836.468,1.261-.006,1.639.4,1.616,1.644-.021,1.155-.2,1.85-1.549,1.663-.505-.07-1.035.047-1.54-.021-1.422-.191-1.481.646-1.506,1.729-.027,1.183.265,1.758,1.589,1.68,1.685-.1,3.386.066,5.069-.05,1.469-.1,1.43.715,1.461,1.764.034,1.106-.238,1.6-1.455,1.54-1.759-.092-3.527.006-5.291-.034-.884-.02-1.287.212-1.377,1.2-.155,1.7.368,2.4,2.167,2.222,1.095-.111,2.484-.589,2.463,1.617-.021,2.235-1.452,1.455-2.521,1.594a2.506,2.506,0,0,1-.661,0c-1.258-.175-1.472.524-1.433,1.575.037.989-.108,1.947,1.417,1.827a21.186,21.186,0,0,1,3.963.013c1.056.117,2.718-.934,2.762,1.536.043,2.405-1.531,1.593-2.653,1.663-1.391.086-2.792.043-4.188.014-.887-.019-1.476.167-1.164,1.238-.214,2.723-.214,2.723,2.527,2.725a64.87,64.87,0,0,1,6.824.052c2.37.253,3-.661,2.54-2.78M109.38,81.206c.555-2.545.039-5.133.289-7.681.193-1.961-.4-2.539-2.46-2.534q-50.7.109-101.406.052c-.514,0-1.029.019-1.543,0-.668-.025-.912.3-.885.937.13,3.074-.293,6.164.257,9.227.559,3.022,2.084,4.1,5.92,4.1q46.954.007,93.908,0a15.257,15.257,0,0,0,1.98-.08c2.187-.288,3.5-1.649,3.94-4.016M42.351,11.529c-1.33,2.242-2.368,4.171-3.586,5.979-.747,1.108-.475,1.65.607,2.14a16.664,16.664,0,0,1,1.51.893c1.22.717,4.914-.4,5.5-1.643.19-.406-.047-.695-.223-.992-1.187-2-2.385-4-3.807-6.376" transform="translate(0 0)" fill="#080a0a"/>
        <path id="Trazado_835894" data-name="Trazado 835894" d="M168.447,80.057c.549,2.014.018,2.788-2.295,2.776q-27.2-.141-54.4-.011c-1.753.007-2.166-.477-2.157-2.184.07-14.093-.023-28.186.09-42.278a12.22,12.22,0,0,0-2.172-7.813,33.853,33.853,0,0,1-1.985-3.416l4.229.049q.147.775.3,1.55a3.339,3.339,0,0,0,.637,1.84,9.518,9.518,0,0,1,1.709,6.172c-.094,13.593,0,27.188-.091,40.781-.013,2.012.516,2.589,2.561,2.581,17.858-.08,35.717-.046,53.576-.046" transform="translate(-58.937 -15.152)" fill="#40c3fe"/>
        <path id="Trazado_835895" data-name="Trazado 835895" d="M74.229,27a2.01,2.01,0,0,1-.233.614c-3.606,4.263-4.012,9.253-3.912,14.615.238,12.716.039,25.44.12,38.161.011,1.79-.365,2.61-2.253,2.283a4.965,4.965,0,0,0-1.54,0c-1.387.2-1.742-.386-1.714-1.722.082-3.969.029-7.941.029-11.912q0-19.854,0-39.707c0-.806.069-1.611.106-2.417l2.637.1v5.263c1.29-1.692,2.858-3.073,3.158-5.167a11.234,11.234,0,0,1,3.6-.109" transform="translate(-36.132 -15.026)" fill="#40c3fe"/>
        <path id="Trazado_835896" data-name="Trazado 835896" d="M7.747,80.121c-.044-2.487-.122-4.975-.125-7.462-.013-12.535.014-25.071-.024-37.607C7.591,32.8,7.934,30.757,10,29.521c1-.6.287-1.273.366-1.91l.992-.367q-.023,24.7-.051,49.41c-.007,3.967.491,3.414-3.564,3.467" transform="translate(-4.243 -15.215)" fill="#80d7fd"/>
        <path id="Trazado_835897" data-name="Trazado 835897" d="M7.674,79.932c4.055-.053,3.557.5,3.564-3.467q.045-24.7.051-49.41l2.54-.149q.036,21.232.072,42.465c.005,3.154.034,6.308-.016,9.462-.019,1.222.543,3.22-.28,3.51a10.908,10.908,0,0,1-5.385.193c-1.284-.235-.536-1.673-.547-2.6" transform="translate(-4.17 -15.027)" fill="#40c3fe"/>
        <path id="Trazado_835898" data-name="Trazado 835898" d="M74.145,27.236c-.3,2.094-1.868,3.474-3.158,5.167V27.139l3.158.1" transform="translate(-39.645 -15.157)" fill="#80d7fd"/>
        <path id="Trazado_835899" data-name="Trazado 835899" d="M174.169,82.078c-17.859,0-35.718-.034-53.576.046-2.045.009-2.574-.568-2.561-2.58.086-13.593,0-27.188.091-40.782a9.515,9.515,0,0,0-1.709-6.171,3.335,3.335,0,0,1-.637-1.84q25.891,0,51.783,0c5.3,0,6.737,1.461,6.738,6.838q0,21.04,0,42.082c0,.8-.081,1.606-.124,2.409M151.706,33.993c-5.809,0-11.618.071-17.424-.044-1.7-.033-2.08.481-2.045,2.1.106,5,.092,10,.005,15-.026,1.47.431,1.855,1.867,1.848q17.535-.079,35.07,0c1.36.005,1.923-.245,1.893-1.782-.1-5.144-.088-10.292,0-15.436.022-1.37-.358-1.725-1.717-1.707-5.881.077-11.763.033-17.645.033m-28.15,47.6c1.25,0,2.507-.081,3.748.023,1.283.107,1.487-.534,1.389-1.574-.083-.878.347-2.122-1.289-1.861-1.7.272-2.046-.455-2.037-2.06q.1-18.306.007-36.613c-.007-1.515.19-2.425,1.984-2.125,1.582.264,1.282-.9,1.341-1.829.064-1.009-.043-1.651-1.36-1.59-2.275.106-4.56.083-6.837.008-1.217-.04-1.875.105-1.862,1.615.012,1.477.468,2.031,1.906,1.811,1.076-.164,1.524.176,1.519,1.408q-.072,18.969,0,37.937c0,1.2-.391,1.6-1.5,1.425-1.4-.215-1.9.281-1.929,1.777-.038,1.7.849,1.719,2.052,1.659.953-.047,1.911-.009,2.867-.01M141.24,56.081c-2.427,0-4.855.044-7.28-.019-1.141-.03-1.755.15-1.713,1.529.1,3.085.076,6.176.007,9.263-.026,1.183.4,1.506,1.532,1.5,4.926-.047,9.855-.057,14.781.007,1.224.016,1.472-.464,1.454-1.548-.052-3.087-.058-6.177,0-9.264.022-1.144-.33-1.532-1.5-1.488-2.423.088-4.853.026-7.279.026m20.744,12.247c2.566,0,5.133-.043,7.7.02,1.063.026,1.389-.339,1.372-1.383q-.081-4.837,0-9.674c.015-.994-.37-1.231-1.291-1.225q-7.587.05-15.174,0c-.959-.008-1.274.306-1.261,1.256.042,3.224.052,6.451,0,9.674-.019,1.078.38,1.378,1.406,1.354,2.418-.059,4.838-.019,7.257-.019m-24,4.443c-.873,0-1.75.049-2.62-.011-1.241-.086-1.409.607-1.419,1.623-.011,1.068.278,1.627,1.471,1.579,1.672-.067,3.349-.064,5.021,0,1.23.046,1.427-.6,1.437-1.629.011-1.075-.3-1.66-1.488-1.573-.8.058-1.6.011-2.4.012m21.107,0c-.73,0-1.464.048-2.189-.011-1.243-.1-1.875.244-1.851,1.674.023,1.347.66,1.57,1.776,1.529,1.458-.053,2.922-.064,4.379,0,1.177.053,1.512-.476,1.5-1.567-.014-1.018-.177-1.725-1.423-1.633-.726.053-1.459.01-2.189.007m-10.649,1.452c.341-1.534-.767-1.407-1.842-1.47-1.238-.072-1.594.433-1.63,1.635-.045,1.507.765,1.568,1.9,1.587,1.216.021,1.778-.4,1.569-1.752m20.842.154c.211-1.274-.4-1.648-1.6-1.63-1.077.016-1.589.311-1.578,1.488.011,1.119.2,1.777,1.546,1.744,1.161-.028,1.852-.29,1.635-1.6" transform="translate(-64.66 -17.173)" fill="#80d7fd"/>
        <path id="Trazado_835900" data-name="Trazado 835900" d="M7.859,171.007c-.55-3.063-.127-6.152-.257-9.227-.027-.638.216-.962.884-.937.514.019,1.029,0,1.543,0q50.7,0,101.406-.052c2.065,0,2.652.573,2.46,2.534-.25,2.548.266,5.136-.289,7.681-2.562,1.325-5.311,1.374-8.122,1.37q-44.752-.054-89.5,0c-2.81,0-5.56-.045-8.122-1.37M54.12,169.68c1.334.227,1.8-.347,1.783-1.683-.017-1.228-.272-1.852-1.687-1.852-1.4,0-1.929.411-1.9,1.862.024,1.343.486,1.891,1.807,1.672m8.327-1.86c.329-1.295-.368-1.657-1.662-1.663-1.232-.005-1.852.269-1.853,1.683,0,1.394.406,1.931,1.859,1.9,1.34-.025,1.895-.482,1.655-1.924m6.647.342c.095-1.128.055-2.046-1.5-2-1.227.033-2.115.087-2.038,1.71.057,1.192.214,1.94,1.663,1.862,1.117-.059,2.11-.046,1.873-1.568" transform="translate(-4.226 -89.8)" fill="#d7d6d9"/>
        <path id="Trazado_835901" data-name="Trazado 835901" d="M29.541,69.137c-.311-1.072.277-1.257,1.164-1.238,1.4.029,2.8.072,4.188-.014,1.122-.07,2.7.743,2.653-1.663-.044-2.47-1.706-1.419-2.762-1.536a21.186,21.186,0,0,0-3.963-.013c-1.525.12-1.38-.838-1.417-1.827-.04-1.051.175-1.75,1.433-1.575a2.506,2.506,0,0,0,.661,0c1.069-.139,2.5.642,2.521-1.593.021-2.206-1.368-1.729-2.463-1.618-1.8.183-2.321-.521-2.167-2.222.09-.992.493-1.224,1.377-1.2,1.763.041,3.532-.057,5.291.034,1.217.064,1.489-.434,1.455-1.54-.032-1.049.008-1.865-1.461-1.764-1.683.116-3.384-.05-5.069.05-1.324.078-1.616-.5-1.589-1.68.025-1.083.084-1.919,1.506-1.729.505.068,1.035-.049,1.54.021,1.353.188,1.527-.508,1.549-1.663.023-1.248-.355-1.65-1.616-1.644-.942,0-2.15.616-2.836-.468A1.84,1.84,0,0,1,31.27,41.4c1.47-.013,2.942-.053,4.409.013,1.177.053,1.9-.047,1.863-1.591-.03-1.381-.436-1.791-1.769-1.71-1.684.1-3.382-.033-5.069.04-1.393.06-1.277-.826-1.291-1.734-.014-.939-.045-1.825,1.324-1.656.434.053.885-.032,1.321.015,1.29.138,1.974-.1,1.956-1.715-.018-1.574-.768-1.558-1.907-1.593-.873-.027-1.994.567-2.6-.522-.8-1.446.1-2.789,1.806-2.8,1.4-.011,2.793-.024,4.19,0,1.146.023,2.068.158,2.053-1.622-.015-1.719-.849-1.709-2.042-1.668-1.174.041-2.353.045-3.527,0-1.195-.048-2.661.577-2.638-1.748.021-2.243,1.476-1.659,2.517-1.548,1.851.2,2.243-.587,2.1-2.227-.159-1.849-1.5-.87-2.33-1.094-.851-.23-2.166.576-2.244-1.23-.063-1.461.09-2.391,1.943-2.156,1.374.174,2.789,0,4.185.044,1.172.033,2.047.107,2.033-1.641-.014-1.711-.844-1.711-2.042-1.677-1.469.042-2.952-.108-4.407.04-1.706.173-1.715-.787-1.709-2.008.006-1.195-.04-2.107,1.68-2.025,3.007.144,6.025.072,9.038.023,1.011-.016,1.418.242,1.415,1.345q-.082,30.09-.1,60.181l-11.89,0" transform="translate(-16.314 -4.232)" fill="#f6d234"/>
        <path id="Trazado_835902" data-name="Trazado 835902" d="M8.228,183.928c2.562,1.325,5.311,1.373,8.122,1.37q44.752-.054,89.5,0c2.81,0,5.56-.045,8.122-1.37-.438,2.367-1.752,3.728-3.94,4.016a15.179,15.179,0,0,1-1.98.08q-46.954.005-93.907,0c-3.836,0-5.361-1.074-5.92-4.1" transform="translate(-4.595 -102.721)" fill="#abaab0"/>
        <path id="Trazado_835903" data-name="Trazado 835903" d="M85.036,83.957V50.168c3.185,3.038,6.337,3.5,9.651-.233V83.954c-1.052-.188-2.3.559-3.133-.666.006-1.245-.049-2.494.036-3.733S91.4,77.722,89.94,77.72s-1.948.455-1.818,1.877c.113,1.235.047,2.487.06,3.732-.857,1.168-2.094.439-3.146.628m6.536-21.628c0-1.319-.085-2.645.023-3.956.118-1.436-.547-1.7-1.809-1.7-1.2.006-1.708.318-1.667,1.612.083,2.636.1,5.279-.007,7.913-.061,1.446.558,1.719,1.808,1.712,1.185-.007,1.764-.326,1.673-1.627s-.02-2.637-.02-3.956m-3.4,10.349c-.214,1.211.082,1.933,1.546,1.871,1.144-.048,1.95-.1,1.89-1.615-.047-1.188-.15-1.937-1.63-1.817-1.076.087-2.146-.068-1.807,1.562" transform="translate(-47.491 -27.888)" fill="#ec5a3c"/>
        <path id="Trazado_835904" data-name="Trazado 835904" d="M97.023,213.585q.006-3.3.012-6.608h27.313q.007,3.3.012,6.608H97.023" transform="translate(-54.186 -115.594)" fill="#d7d6d9"/>
        <path id="Trazado_835905" data-name="Trazado 835905" d="M121.337,241.931c.207,2.812.207,2.815-2.469,2.815q-22.236,0-44.471,0c-2.676,0-2.676,0-2.469-2.815Z" transform="translate(-40.126 -135.115)" fill="#abaab0"/>
        <path id="Trazado_835906" data-name="Trazado 835906" d="M121.438,238.589H72.029a2.5,2.5,0,0,1,2.829-2.625q21.875-.034,43.75,0a2.5,2.5,0,0,1,2.829,2.625" transform="translate(-40.227 -131.773)" fill="#d7d6d9"/>
        <path id="Trazado_835907" data-name="Trazado 835907" d="M124.164,203.526H96.851c-.472-1.986.048-2.774,2.34-2.726q11.314.236,22.634,0c2.291-.048,2.811.74,2.34,2.726" transform="translate(-54.001 -112.143)" fill="#abaab0"/>
        <path id="Trazado_835908" data-name="Trazado 835908" d="M96.837,221.943h27.338c.438,2.051-.023,2.93-2.479,2.867q-11.185-.285-22.381,0c-2.456.063-2.917-.816-2.479-2.867" transform="translate(-54 -123.952)" fill="#abaab0"/>
        <path id="Trazado_835909" data-name="Trazado 835909" d="M90.853,26.113c1.423,2.379,2.62,4.374,3.807,6.376.176.3.413.586.223.992-.585,1.248-4.279,2.361-5.5,1.643a16.664,16.664,0,0,0-1.51-.893c-1.082-.489-1.354-1.031-.607-2.14,1.218-1.808,2.256-3.737,3.586-5.979" transform="translate(-48.502 -14.584)" fill="#f3bb72"/>
        <path id="Trazado_835910" data-name="Trazado 835910" d="M29.854,147l11.89,0c.458,2.119-.169,3.033-2.539,2.78a64.872,64.872,0,0,0-6.824-.052c-2.74,0-2.74,0-2.527-2.725" transform="translate(-16.627 -82.095)" fill="#fabf2d"/>
        <path id="Trazado_835911" data-name="Trazado 835911" d="M84.851,126.146c1.053-.189,2.289.54,3.146-.628a10.481,10.481,0,0,0,3.371-.041c.831,1.225,2.082.478,3.134.666.472,2.133-.214,3.07-2.54,2.758a17.555,17.555,0,0,0-4.567,0c-2.307.3-3.038-.6-2.544-2.753" transform="translate(-47.306 -70.077)" fill="#e13423"/>
        <path id="Trazado_835912" data-name="Trazado 835912" d="M84.924,143.459c-.2-2.7-.2-2.7,2.518-2.7a34.92,34.92,0,0,0,4.612-.038c2.313-.312,3.04.574,2.531,2.738H84.924" transform="translate(-47.386 -78.557)" fill="#f6d234"/>
        <path id="Trazado_835913" data-name="Trazado 835913" d="M84.823,147h9.662c.471,2.122-.164,3.1-2.529,2.767a17.068,17.068,0,0,0-4.609,0c-2.349.321-3.027-.616-2.524-2.765" transform="translate(-47.285 -82.096)" fill="#fabf2d"/>
        <path id="Trazado_835914" data-name="Trazado 835914" d="M172.523,38.042c5.882,0,11.765.044,17.645-.033,1.359-.018,1.739.337,1.717,1.707-.083,5.145-.1,10.292,0,15.436.03,1.538-.533,1.788-1.893,1.782q-17.535-.068-35.071,0c-1.435.007-1.893-.378-1.867-1.848.087-5,.1-10-.005-15-.034-1.616.346-2.131,2.045-2.1,5.806.114,11.616.044,17.424.044m15.819,12.777c.041-2.642.036-5.287.142-7.926.049-1.206-.453-1.472-1.552-1.469q-14.447.048-28.894,0c-1.083,0-1.6.222-1.55,1.446.1,2.641.081,5.288.109,7.932-.424,1.959.049,2.791,2.361,2.753q13.5-.219,27-.006c2.242.032,2.873-.695,2.379-2.73" transform="translate(-85.477 -21.221)" fill="#080d09"/>
        <path id="Trazado_835915" data-name="Trazado 835915" d="M127.172,85.651c-.956,0-1.914-.038-2.867.01-1.2.059-2.09.044-2.052-1.659.034-1.5.53-1.992,1.929-1.777,1.106.17,1.5-.227,1.5-1.425q-.066-18.969,0-37.937c0-1.232-.442-1.573-1.519-1.408-1.438.22-1.895-.334-1.906-1.811-.012-1.51.645-1.655,1.862-1.615,2.277.075,4.562.1,6.837-.008,1.317-.061,1.424.581,1.36,1.589-.059.927.242,2.094-1.341,1.829-1.794-.3-1.99.611-1.984,2.125q.08,18.306-.007,36.614c-.009,1.605.332,2.332,2.037,2.06,1.636-.261,1.206.983,1.289,1.861.1,1.039-.105,1.681-1.389,1.574-1.242-.1-2.5-.023-3.748-.023" transform="translate(-68.276 -21.232)" fill="#080d0f"/>
        <path id="Trazado_835916" data-name="Trazado 835916" d="M162.07,88.087c2.427,0,4.856.062,7.28-.026,1.174-.043,1.526.345,1.5,1.489-.06,3.087-.054,6.176,0,9.264.018,1.084-.231,1.564-1.454,1.548-4.926-.064-9.854-.054-14.781-.007-1.13.011-1.559-.313-1.533-1.5.069-3.087.089-6.178-.007-9.263-.042-1.378.572-1.558,1.713-1.528,2.425.063,4.853.019,7.28.019m5.087,3.529c-2.693-.042-5.4.094-8.074-.179-2.408-.247-2.937.718-2.481,2.789-.51,2.188.262,3.007,2.56,2.743a25.73,25.73,0,0,1,5.723,0c2.277.253,3.1-.528,2.58-2.743q0-1.108.009-2.215c.061-.265,0-.429-.317-.394" transform="translate(-85.491 -49.179)" fill="#080a0a"/>
        <path id="Trazado_835917" data-name="Trazado 835917" d="M209.474,100.349c-2.419,0-4.839-.04-7.257.019-1.027.025-1.425-.276-1.406-1.354.056-3.224.047-6.45,0-9.674-.013-.95.3-1.263,1.261-1.256q7.587.058,15.174,0c.921-.006,1.306.231,1.291,1.225q-.075,4.837,0,9.674c.017,1.044-.309,1.41-1.372,1.384-2.564-.064-5.131-.021-7.7-.02m5.557-6.1c.245-2.737.245-2.738-2.447-2.74H206.7c-2.737,0-2.737,0-2.429,2.739-.615,2.074.032,2.936,2.3,2.733a33.443,33.443,0,0,1,6.148,0c2.3.223,2.822-.743,2.317-2.736" transform="translate(-112.15 -49.194)" fill="#080a0a"/>
        <path id="Trazado_835918" data-name="Trazado 835918" d="M160.957,125.9c.8,0,1.6.047,2.4-.012,1.185-.087,1.5.5,1.488,1.574-.01,1.024-.207,1.674-1.437,1.629-1.672-.062-3.35-.065-5.021,0-1.193.048-1.482-.51-1.471-1.579.011-1.017.179-1.71,1.42-1.624.869.06,1.746.011,2.62.011" transform="translate(-87.636 -70.302)" fill="#f7f9fa"/>
        <path id="Trazado_835919" data-name="Trazado 835919" d="M208.76,125.886c.73,0,1.463.045,2.189-.008,1.245-.092,1.408.616,1.423,1.633.014,1.091-.321,1.62-1.5,1.567-1.457-.065-2.921-.054-4.379,0-1.116.041-1.753-.182-1.776-1.529-.024-1.43.608-1.774,1.85-1.674.725.059,1.459.011,2.19.012" transform="translate(-114.333 -70.29)" fill="#f7f9fa"/>
        <path id="Trazado_835920" data-name="Trazado 835920" d="M185.357,127.339c.209,1.349-.353,1.774-1.569,1.752-1.138-.02-1.948-.08-1.9-1.587.036-1.2.392-1.707,1.63-1.635,1.075.063,2.184-.064,1.842,1.47" transform="translate(-101.579 -70.293)" fill="#f7f9fa"/>
        <path id="Trazado_835921" data-name="Trazado 835921" d="M232.933,127.493c.217,1.313-.474,1.575-1.635,1.6-1.342.032-1.535-.625-1.546-1.744-.011-1.178.5-1.472,1.578-1.488,1.2-.018,1.814.356,1.6,1.63" transform="translate(-128.314 -70.293)" fill="#f7f9fa"/>
        <path id="Trazado_835922" data-name="Trazado 835922" d="M110.721,176.452c-1.321.219-1.783-.329-1.807-1.672-.026-1.451.506-1.863,1.9-1.862,1.415,0,1.67.624,1.687,1.852.019,1.336-.449,1.91-1.783,1.683" transform="translate(-60.826 -96.572)" fill="#f7f9fa"/>
        <path id="Trazado_835923" data-name="Trazado 835923" d="M127.421,174.608c.239,1.442-.315,1.9-1.655,1.924-1.453.027-1.86-.51-1.859-1.9,0-1.413.62-1.688,1.853-1.683,1.293.005,1.991.368,1.662,1.663" transform="translate(-69.2 -96.587)" fill="#f7f9fa"/>
        <path id="Trazado_835924" data-name="Trazado 835924" d="M142.443,174.948c.237,1.522-.757,1.509-1.873,1.568-1.449.077-1.606-.67-1.663-1.862-.076-1.623.812-1.677,2.038-1.71,1.553-.042,1.593.876,1.5,2" transform="translate(-77.575 -96.586)" fill="#f7f9fa"/>
        <path id="Trazado_835925" data-name="Trazado 835925" d="M95.456,70.855c0,1.319-.072,2.643.02,3.956s-.488,1.619-1.673,1.627c-1.25.007-1.869-.266-1.808-1.712.112-2.634.091-5.277.007-7.913-.041-1.294.466-1.605,1.667-1.612,1.262-.006,1.927.261,1.809,1.7-.108,1.31-.023,2.636-.023,3.956" transform="translate(-51.376 -36.414)" fill="#fdf2f0"/>
        <path id="Trazado_835926" data-name="Trazado 835926" d="M95.431,118.434a10.48,10.48,0,0,1-3.371.041c-.013-1.245.053-2.5-.06-3.732-.13-1.422.351-1.88,1.818-1.877s1.735.588,1.649,1.835-.03,2.488-.036,3.733" transform="translate(-51.37 -63.034)" fill="#fdf2f0"/>
        <path id="Trazado_835927" data-name="Trazado 835927" d="M92.062,99.455c-.34-1.63.731-1.475,1.807-1.562,1.48-.12,1.582.629,1.63,1.817.06,1.513-.747,1.567-1.89,1.615-1.464.062-1.76-.66-1.546-1.871" transform="translate(-51.38 -54.665)" fill="#fdf2f0"/>
        <path id="Trazado_835928" data-name="Trazado 835928" d="M160.939,55.136c-.029-2.644,0-5.291-.109-7.932-.049-1.223.467-1.449,1.55-1.446q14.447.047,28.894,0c1.1,0,1.6.263,1.552,1.469-.106,2.639-.1,5.284-.143,7.926l-31.744-.018" transform="translate(-89.82 -25.556)" fill="#afee5f"/>
        <path id="Trazado_835929" data-name="Trazado 835929" d="M160.9,67l31.744.018c.494,2.035-.136,2.762-2.379,2.73q-13.5-.195-27,.006c-2.313.038-2.785-.795-2.362-2.753" transform="translate(-89.785 -37.417)" fill="#64dc17"/>
        <path id="Trazado_835930" data-name="Trazado 835930" d="M171.734,102.027c.52,2.215-.3,3-2.58,2.743a25.73,25.73,0,0,0-5.723,0c-2.3.264-3.07-.555-2.56-2.743h10.863" transform="translate(-89.761 -56.981)" fill="#fabf2d"/>
        <path id="Trazado_835931" data-name="Trazado 835931" d="M171.736,98.453H160.874c-.456-2.071.072-3.035,2.481-2.789,2.669.273,5.381.137,8.074.179l.317.394q0,1.107-.009,2.215" transform="translate(-89.763 -53.407)" fill="#f6d234"/>
        <path id="Trazado_835932" data-name="Trazado 835932" d="M185.285,96.5l-.317-.394c.313-.035.378.129.317.394" transform="translate(-103.302 -53.674)" fill="#fabf2d"/>
        <path id="Trazado_835933" data-name="Trazado 835933" d="M219.124,102.037c.5,1.993-.014,2.959-2.317,2.736a33.443,33.443,0,0,0-6.148,0c-2.268.2-2.915-.659-2.3-2.733h10.765" transform="translate(-116.244 -56.986)" fill="#fabf2d"/>
        <path id="Trazado_835934" data-name="Trazado 835934" d="M219.232,98.572H208.467c-.307-2.737-.307-2.738,2.429-2.739h5.888c2.692,0,2.692,0,2.447,2.74" transform="translate(-116.351 -53.521)" fill="#f6d234"/>
      </g>
    </g>
  </g>
</svg>
