<svg xmlns="http://www.w3.org/2000/svg" xmlns:xlink="http://www.w3.org/1999/xlink" width="169" height="169" viewBox="0 0 169 169">
  <defs>
    <clipPath id="clip-path">
      <rect id="Rect치ngulo_380212" data-name="Rect치ngulo 380212" width="122.083" height="116.099" fill="none"/>
    </clipPath>
  </defs>
  <g id="Grupo_1082122" data-name="Grupo 1082122" transform="translate(-366.501 -9826.865)">
    <g id="Grupo_1015075" data-name="Grupo 1015075" transform="translate(-18.5 7768.865)">
      <g id="Grupo_159182" data-name="Grupo 159182" transform="translate(385.001 2058)">
        <path id="Uni칩n_12" data-name="Uni칩n 12" d="M84.5,0A84.5,84.5,0,1,1,0,84.5,84.5,84.5,0,0,1,84.5,0Z" transform="translate(0 0)" fill="#9f0f6a"/>
      </g>
    </g>
    <g id="Grupo_1081882" data-name="Grupo 1081882" transform="translate(386.04 9853.315)">
      <g id="Grupo_1081881" data-name="Grupo 1081881" clip-path="url(#clip-path)">
        <path id="Trazado_835800" data-name="Trazado 835800" d="M96.7,102.2a43.755,43.755,0,0,0,9.6-20.012,43.145,43.145,0,0,0,.124-16.574c-.089-.468-.121-.946-.2-1.416-.241-1.459.24-2.589,1.718-2.929,1.6-.368,2.592.483,2.919,2.046a47.59,47.59,0,0,1,1.014,12.544A48.672,48.672,0,0,1,97.66,108.214c-1.715,1.742-.85,3.744-.814,5.61.015.787,1.218.265,1.842.127,3.635-.808,7.245-1.74,10.889-2.5a10.3,10.3,0,0,1,12.118,7.465c1.443,5.248-1.24,10.9-6.487,12.391-10.664,3.032-21.4,5.858-32.253,8.135-5.2,1.09-10.255.165-15.154-1.759Q50.777,131,33.751,124.321c-3.32-1.31-6.754-.447-10.129-.67-1.058-.07-.754.832-.735,1.377.084,2.371-1.131,3.253-3.377,3.235-5.4-.042-10.8.01-16.207-.024C.735,128.222.026,127.5.024,124.98.01,111.553.035,98.126,0,84.7c-.006-2.239.985-3.174,3.18-3.118,2.461.064,4.943-.167,7.383.067,2.312.221,2.583-.67,2.318-2.667a47.528,47.528,0,0,1,3.309-24.249c.059-.147.087-.307.154-.449.764-1.634,1.347-3.866,3.778-2.9s1.421,2.943.7,4.654a45.046,45.046,0,0,0-3.128,23.774c.154,1.174.458,1.811,1.874,1.829,2.769.035,3.456.66,3.247,3.422-.235,3.1,1.913,1.809,3.259,2.083,1.941.4,2.13-.623,2.11-2.242-.081-6.673-.039-13.347-.032-20.021,0-3.13.572-3.682,3.783-3.686,5.085-.007,10.171-.07,15.254.037,1.689.036,2.376-.257,2.273-2.164-.184-3.406-.077-6.83-.043-10.246.026-2.557.735-3.286,3.248-3.29q9.653-.014,19.306.052c2.67.016,3.41.756,3.416,3.378.015,7.389.084,14.779-.045,22.165-.036,2.035.582,2.484,2.518,2.428,5-.144,10.009-.054,15.015-.046,3.263.006,3.819.575,3.822,3.922.007,8.022,0,16.044,0,24.764M22.87,105.379c0,3.813.092,7.628-.042,11.436-.06,1.713.484,2.248,2.129,2.05,5.437-.656,10.429.815,15.421,2.887,9.505,3.946,19.144,7.57,28.716,11.358A23.772,23.772,0,0,0,83.786,134.5c9.616-2.363,19.205-4.84,28.79-7.333,3.554-.924,5.39-3.795,4.588-6.872-.844-3.236-3.795-4.8-7.478-3.958-7.648,1.75-15.287,3.533-22.944,5.245a28.3,28.3,0,0,1-16.617-1.075c-7.545-2.885-15.081-5.794-22.631-8.665-1.606-.611-3.07-1.365-2.31-3.395s2.348-1.7,3.974-1.068q7.2,2.791,14.425,5.511c3.786,1.421,7.067.127,8.472-3.278,1.385-3.357-.138-6.524-3.981-8.127-7.236-3.019-14.489-5.995-21.727-9.008a7,7,0,0,0-2.768-.563c-6.275.018-12.551.073-18.824-.033-1.685-.028-1.944.606-1.912,2.063.085,3.811.029,7.624.029,11.437M70.615,73.755c0-7.142-.046-14.284.036-21.425.018-1.551-.4-2.054-1.974-2.021-4.2.09-8.412.072-12.616-.027-1.462-.034-1.89.417-1.884,1.872q.074,18.33,0,36.661a2.216,2.216,0,0,0,1.631,2.451q6.413,2.513,12.731,5.262c1.614.707,2.139.6,2.113-1.347-.1-7.141-.038-14.283-.038-21.425m21.31,23.2c0-5.641-.036-11.282.026-16.923.015-1.336-.372-1.8-1.743-1.772-4.289.076-8.582.1-12.87-.008-1.57-.039-2,.428-1.981,1.987.085,6.434.03,12.87.045,19.306a3.929,3.929,0,0,0,.236,1.847c2.263,3.94,2.074,7.763.047,11.787-1.4,2.782-.314,4.1,2.84,4.332,3.962.29,7.706-.8,11.518-1.535,1.558-.3,1.951-1.041,1.922-2.577-.1-5.48-.04-10.963-.04-16.445M4.794,104.7c0,5.634.05,11.269-.034,16.9-.022,1.484.439,1.906,1.883,1.862,3.171-.1,6.349-.081,9.521-.005,1.369.033,1.971-.261,1.962-1.821q-.094-16.782,0-33.565c.007-1.418-.506-1.739-1.8-1.71-3.172.072-6.352.13-9.52-.019-1.765-.083-2.075.579-2.047,2.169.094,5.394.036,10.792.036,16.187M49.418,77.243c0-3.1-.068-6.2.029-9.29.048-1.505-.323-2.074-1.962-2.025-4.2.125-8.418.111-12.624.005-1.555-.04-2,.4-1.973,1.965.1,5.477.159,10.961-.021,16.434-.075,2.272.494,2.858,2.816,2.888,4.233.054,8.578-.96,12.7.912,1.3.591,1.021-.514,1.026-1.124.028-3.256.013-6.511.014-9.767" transform="translate(0 -23.807)" fill="#050505"/>
        <path id="Trazado_835801" data-name="Trazado 835801" d="M91.44,0a51.566,51.566,0,0,1,18.335,2.883c1.547.562,2.909,1.324,2.293,3.213-.641,1.966-2.132,1.881-3.879,1.312-16.344-5.324-31.231-2.66-44.547,8.3-1.342,1.105-2.734,1.965-4.118.347s-.329-2.871,1-4C69.892,4.1,80.722.1,91.44,0" transform="translate(-30.783)" fill="#060606"/>
        <path id="Trazado_835802" data-name="Trazado 835802" d="M197.234,15.185a2.476,2.476,0,0,1,2.509,1.221,2.189,2.189,0,0,1-.29,2.651c-1.31,1.591-2.693,3.121-4.045,4.678Q188,32.269,180.6,40.806c-1.1,1.276-2.347,2.5-4,1.1-1.717-1.451-.8-2.9.411-4.287,6-6.868,11.959-13.772,17.948-20.649.712-.818,1.309-1.866,2.277-1.787" transform="translate(-91.845 -7.938)" fill="#070707"/>
        <path id="Trazado_835803" data-name="Trazado 835803" d="M207.725,61.709a5.879,5.879,0,0,1-5.944-6.08,5.98,5.98,0,0,1,5.941-5.892,6.122,6.122,0,0,1,6.007,6.124,6.028,6.028,0,0,1-6,5.848m1.178-5.781a1.171,1.171,0,0,0-1.046-1.319.988.988,0,0,0-1.223.808,1.027,1.027,0,0,0,.832,1.411,1.172,1.172,0,0,0,1.437-.9" transform="translate(-105.506 -26.006)" fill="#060606"/>
        <path id="Trazado_835804" data-name="Trazado 835804" d="M185.885,19.606a5.972,5.972,0,0,1-11.942-.157,5.972,5.972,0,1,1,11.942.157M181.1,19.59a1.149,1.149,0,0,0-1.086-1.237,1.1,1.1,0,0,0-1.259,1.07,1.057,1.057,0,0,0,1.067,1.24A1.113,1.113,0,0,0,181.1,19.59" transform="translate(-90.95 -7.072)" fill="#050505"/>
        <path id="Trazado_835805" data-name="Trazado 835805" d="M48.278,40.331a2.293,2.293,0,0,1,2.33,2.48A2.22,2.22,0,0,1,48.1,45.079a2.161,2.161,0,0,1-2.177-2.34,2.252,2.252,0,0,1,2.359-2.408" transform="translate(-24.01 -21.088)" fill="#0e0f0f"/>
        <path id="Trazado_835806" data-name="Trazado 835806" d="M47.883,156.169c0-3.813.056-7.626-.029-11.437-.032-1.457.227-2.091,1.912-2.063,6.274.106,12.55.051,18.824.033a7.006,7.006,0,0,1,2.768.563c7.238,3.013,14.492,5.989,21.727,9.008,3.842,1.6,5.365,4.771,3.981,8.127-1.4,3.405-4.685,4.7-8.472,3.278q-7.228-2.713-14.425-5.51c-1.627-.631-3.219-.949-3.974,1.068s.7,2.783,2.31,3.394c7.55,2.871,15.086,5.78,22.631,8.665a28.3,28.3,0,0,0,16.618,1.075c7.656-1.712,15.3-3.495,22.944-5.245,3.683-.843,6.634.722,7.478,3.958.8,3.078-1.033,5.948-4.588,6.873-9.584,2.492-19.173,4.969-28.79,7.333A23.776,23.776,0,0,1,94.106,183.9c-9.572-3.788-19.21-7.412-28.716-11.358C60.4,170.47,55.407,169,49.97,169.655c-1.646.2-2.189-.336-2.129-2.05.134-3.808.042-7.623.042-11.436" transform="translate(-25.013 -74.598)" fill="#fbd1bb"/>
        <path id="Trazado_835807" data-name="Trazado 835807" d="M129.987,78.959c0,7.142-.058,14.284.038,21.425.026,1.952-.5,2.054-2.113,1.347q-6.309-2.763-12.731-5.262a2.215,2.215,0,0,1-1.631-2.451q.072-18.33,0-36.661c-.006-1.454.422-1.906,1.884-1.872,4.2.1,8.412.117,12.616.027,1.577-.033,1.991.47,1.973,2.021-.081,7.141-.036,14.283-.036,21.425" transform="translate(-59.373 -29.011)" fill="#f4828c"/>
        <path id="Trazado_835808" data-name="Trazado 835808" d="M174.208,132.806c0,5.482-.062,10.965.04,16.445.029,1.535-.365,2.277-1.922,2.577-3.813.733-7.556,1.825-11.518,1.535-3.155-.231-4.242-1.551-2.84-4.333,2.027-4.024,2.216-7.847-.047-11.787a3.927,3.927,0,0,1-.236-1.847c-.016-6.435.04-12.871-.045-19.306-.021-1.559.411-2.026,1.981-1.988,4.288.105,8.581.084,12.87.009,1.371-.024,1.758.436,1.743,1.772-.063,5.64-.026,11.282-.026,16.923" transform="translate(-82.283 -59.661)" fill="#fbbe58"/>
        <path id="Trazado_835809" data-name="Trazado 835809" d="M10.006,149.415c0-5.4.057-10.793-.036-16.187-.027-1.59.282-2.251,2.047-2.169,3.167.149,6.348.091,9.52.019,1.292-.029,1.8.292,1.8,1.71q-.081,16.782,0,33.565c.009,1.56-.593,1.854-1.962,1.822-3.172-.076-6.35-.091-9.521,0-1.445.044-1.906-.378-1.883-1.862.083-5.633.033-11.268.033-16.9" transform="translate(-5.212 -68.525)" fill="#969fb0"/>
        <path id="Trazado_835810" data-name="Trazado 835810" d="M85.429,99.593c0,3.256.014,6.511-.013,9.767-.005.609.273,1.714-1.026,1.124-4.119-1.873-8.464-.858-12.7-.912-2.323-.03-2.891-.616-2.816-2.888.18-5.473.117-10.957.021-16.434-.027-1.566.419-2,1.973-1.965,4.206.106,8.419.119,12.624-.005,1.64-.049,2.01.52,1.962,2.025-.1,3.094-.029,6.193-.03,9.29" transform="translate(-36.011 -46.158)" fill="#5ea1fa"/>
      </g>
    </g>
  </g>
</svg>
