<svg xmlns="http://www.w3.org/2000/svg" xmlns:xlink="http://www.w3.org/1999/xlink" width="169" height="169" viewBox="0 0 169 169">
  <defs>
    <clipPath id="clip-path">
      <rect id="Rect치ngulo_380216" data-name="Rect치ngulo 380216" width="113.958" height="115.723" fill="none"/>
    </clipPath>
  </defs>
  <g id="Grupo_1082126" data-name="Grupo 1082126" transform="translate(6927.999 1873.135)">
    <g id="Grupo_1081726" data-name="Grupo 1081726" transform="translate(-7665 -3931.135)">
      <g id="Grupo_159183" data-name="Grupo 159183" transform="translate(737.001 2058)">
        <path id="Uni칩n_12" data-name="Uni칩n 12" d="M84.5,0A84.5,84.5,0,1,1,0,84.5,84.5,84.5,0,0,1,84.5,0Z" fill="#9f0f6a"/>
      </g>
    </g>
    <g id="Grupo_1081890" data-name="Grupo 1081890" transform="translate(-6900.478 -1846.497)">
      <g id="Grupo_1081889" data-name="Grupo 1081889" clip-path="url(#clip-path)">
        <path id="Trazado_835849" data-name="Trazado 835849" d="M60.846,145.122c1.561.315,1.89,1.388,1.879,2.813-.039,5.214.053,10.429-.055,15.641-.034,1.643.379,2.156,2.071,2.108,3.535-.1,3.657.127,3.66,3.8,0,6.243-2.451,9.924-7.458,11.074a12.724,12.724,0,0,1-2.817.249q-23.82.021-47.64.016c-8.231.01-11.319-6.084-10.3-13.594.224-1.647,1.7-1.753,2.988-1.563,2.219.327,2.687-.582,2.669-2.69-.1-11.928-.054-23.858-.047-35.787,0-2.935.344-3.275,3.269-3.28,5.135-.009,10.271.023,15.406-.019,1.426-.012,2.5.319,2.823,1.871-.3,1.525-1.305,1.97-2.762,1.954-3.075-.034-6.15.029-9.225.052a23.846,23.846,0,0,1-3.07-.088c-2.262-.345-2.713.663-2.694,2.753q.145,16.443,0,32.887c-.016,1.894.548,2.37,2.391,2.36,13.8-.073,27.6-.039,41.407-.039,5.759,0,5.759,0,5.5-5.72.023-4.015.077-8.031.052-12.045-.009-1.447.409-2.462,1.947-2.752M8.172,169.514a14.842,14.842,0,0,1-2.115-.094c-2.086-.382-2.328.764-2.147,2.4a5.636,5.636,0,0,0,5.267,5.139c1.88.059,4.624,1.165,4.429-2.591-.018-.348.549-.727.844-1.091h1.664c.341.514,1.027,1.072.967,1.534-.335,2.555,1.316,2.222,2.894,2.218q14.28-.033,28.559,0c1.578,0,3.23.336,2.893-2.22-.061-.46.625-1.019.966-1.533h1.663a2.971,2.971,0,0,1,1.086,2.471c-.04.481-.178,1.016.622,1.271a6.944,6.944,0,0,0,8.355-3.792c1-2.945.772-3.786-1.092-3.785q-27.427.015-54.854.068" transform="translate(0 -65.099)"/>
        <path id="Trazado_835850" data-name="Trazado 835850" d="M48.575,106.9q10.669-8.74,21.346-17.472c1.112-.906,2.194-2.339,3.839-.853,2.043,1.848,2.658,4.668,1.431,6.342a2.039,2.039,0,0,1-2.49-.837c-.648-1.169-1.225-1.071-2.169-.286q-10.634,8.848-21.348,17.6c-.951.775-.955,1.361-.348,2.333,1.293,2.07,2.416,4.245,3.706,6.318a2.563,2.563,0,0,1-.165,3.429,2.624,2.624,0,0,1-3.252-1.611c-1.064-2.02-2.272-3.962-3.383-5.958-.491-.881-1-1.357-2.036-.693-1.851,1.182-3.748,2.292-5.626,3.432-1.9,1.371-1.942,3.13-.933,5,1.085,2.015,2.239,4,3.433,5.949,1.314,2.148,3.266,2.74,5.47,1.53,2.692-1.479,5.293-3.122,7.933-4.695,10.035-3.263,19.78-7.315,29.695-10.905.827-.3.979-.662.526-1.364-.384-.6-.759-1.2-1.137-1.8-2.064-3.62-4.083-7.268-6.217-10.846-.794-1.332-.949-2.453.216-3.584a2.563,2.563,0,0,1,3.065,1.54c2.824,4.995,5.734,9.942,8.576,14.927,1.165,2.043.854,2.894-1.367,3.765-3.874,1.519-7.769,2.982-11.655,4.468-3.674,1.351-7.358,2.676-11.021,4.057-4.984,1.879-5.064,1.95-2.3,6.4,1.645,2.652,2.023,5.2.438,7.944-3.451,2.769-5.995,2.754-9.076-.055-.982-1.705-2.064-3.363-2.917-5.131-.8-1.653-1.56-2.217-3.371-1.11a5.714,5.714,0,0,1-6.308.14c-2.278-1.606-3.978-.958-5.823.431-2.771.071-5.1-.694-6.439-3.368-1.331-2.651-.247-4.831,1.314-6.926,1.158-.633,2.907-.67,2.718-2.668-.368-3.878,1.554-6.326,4.811-8.119,3.836-2.112,7.765-4.122,10.87-7.333M56.8,131.5c-.577-2.164-1.7-.941-2.753-.474-1.565.7-1.059,1.542-.226,2.438.884,1.578,1.744,3.17,2.66,4.729a1.847,1.847,0,0,0,2.638.8,1.755,1.755,0,0,0,.6-2.656c-.923-1.641-1.944-3.227-2.924-4.836m-22.577-4.24c-1.239.483-2.275,1.074-2.149,2.5a1.689,1.689,0,0,0,1.884,1.663c.962-.089,2.309-.456,2.178-1.587a2.91,2.91,0,0,0-1.913-2.578" transform="translate(-14.851 -46.202)"/>
        <path id="Trazado_835851" data-name="Trazado 835851" d="M74.693,129.3a2.562,2.562,0,0,0,.165-3.429c-1.289-2.072-2.413-4.248-3.705-6.318-.607-.972-.6-1.558.348-2.333q10.72-8.744,21.348-17.6c.944-.785,1.521-.883,2.168.286a2.04,2.04,0,0,0,2.49.837l1.872,3.019c-1.165,1.131-1.01,2.253-.216,3.584,2.134,3.578,4.152,7.226,6.215,10.846a3.657,3.657,0,0,1-1.752,1.135c-5.506,2.044-11.035,4.03-16.5,6.167-3.914,1.529-8.131,2.435-11.454,5.263q-.19-.036-.379-.08l-.6-1.378" transform="translate(-37.168 -52.039)" fill="#c2f036"/>
        <path id="Trazado_835852" data-name="Trazado 835852" d="M169.983,15.408a2.225,2.225,0,0,1-1.88-2.578c.046-1.1-.036-2.212.023-3.315a5.589,5.589,0,0,1,5.654-5.525q11.367-.1,22.736,0a5.533,5.533,0,0,1,5.721,5.688q.1,11.367,0,22.735a5.535,5.535,0,0,1-5.73,5.681q-11.367.094-22.736,0a5.568,5.568,0,0,1-5.642-5.771c-.066-3.551.01-7.1-.029-10.657a2.257,2.257,0,0,1,1.885-2.576c1.536.3,1.958,1.323,1.937,2.765-.047,3.148.065,6.3-.04,9.445-.075,2.253.856,3.08,3.08,3.053,6.612-.08,13.225-.027,19.838-.029,3.483,0,3.744-.283,3.6-3.822.023-6.684.024-13.369.082-20.053.016-1.893-.8-2.711-2.694-2.694-6.684.059-13.37.059-20.054.082-3.344-.137-3.778.192-3.821,2.906-.011.711-.028,1.423,0,2.132a2.2,2.2,0,0,1-1.928,2.541" transform="translate(-88.329 -2.07)"/>
        <path id="Trazado_835853" data-name="Trazado 835853" d="M200.347,150.59a2.235,2.235,0,0,1,1.9,2.565c-.047,1.1.036,2.213-.023,3.316a5.588,5.588,0,0,1-5.637,5.546q-11.372.108-22.745,0a5.536,5.536,0,0,1-5.729-5.684q-.1-11.371,0-22.744a5.536,5.536,0,0,1,5.737-5.675q11.253-.093,22.508,0a5.6,5.6,0,0,1,5.864,5.8c.067,3.552-.011,7.108.028,10.661a2.274,2.274,0,0,1-1.909,2.567c-1.519-.334-1.938-1.356-1.914-2.8.053-3.235-.024-6.472.031-9.707.032-1.871-.711-2.768-2.649-2.75-6.707.061-13.414.065-20.122.091-3.525-.166-3.8.092-3.8,3.6,0,6.614.052,13.228-.03,19.841-.028,2.238.824,3.1,3.064,3.068,6.613-.082,13.228-.027,19.842-.03,3.5,0,3.769-.285,3.6-3.8.172-1.534-.308-3.4,1.976-3.855" transform="translate(-88.313 -67.192)"/>
        <path id="Trazado_835854" data-name="Trazado 835854" d="M26.752,57.259c0,4.578-.066,9.158.029,13.735.046,2.2-.721,3.151-3.017,3.123-6.867-.085-13.736-.073-20.6-.005-2.1.021-3.006-.727-2.992-2.9Q.257,57,.168,42.8c-.014-2.189.931-2.9,3.011-2.879,6.867.066,13.736.08,20.6-.006,2.311-.029,3.041.954,3,3.14-.093,4.734-.029,9.472-.029,14.209M22.881,66.49c.026-7.094.033-14.188.1-21.282.01-1.116-.333-1.512-1.474-1.494-4.57.075-9.142.072-13.713.1a10.031,10.031,0,0,1-1.179-.083c-2.232-.411-2.709.6-2.673,2.7.125,7.342.086,14.688.017,22.032-.014,1.454.393,1.9,1.86,1.868,4.658-.089,9.318-.033,13.978-.033,3.246,0,3.247,0,3.148-3.334a4.667,4.667,0,0,0-.06-.469" transform="translate(-0.088 -20.971)"/>
        <path id="Trazado_835855" data-name="Trazado 835855" d="M64.182,16.962a17.075,17.075,0,1,1,16.9,17.185,17.1,17.1,0,0,1-16.9-17.185m7.565-8.9.021-.029c-5.123,4.792-5.071,13.223.113,18.411s13.613,5.229,18.417.116l-.034.023.506-.457A13,13,0,0,0,90.636,7.7a12.986,12.986,0,0,0-18.422-.155l-.468.519" transform="translate(-33.725 0)"/>
        <path id="Trazado_835856" data-name="Trazado 835856" d="M208.737,154.8c-2.283.452-1.8,2.32-1.976,3.855-1.329,0-2.658,0-3.987.011-3.656.028-7.354.294-10.622-1.876.552-.008,1.105,0,1.656-.026a7.6,7.6,0,0,0,.856-15.114,7.552,7.552,0,0,0-8.424,5.657,20.208,20.208,0,0,0-.293,3.281,13.281,13.281,0,0,1-1.467-3.64c-.832-3.639-.21-7.316-.4-10.969,6.708-.026,13.415-.029,20.122-.091,1.938-.018,2.681.879,2.649,2.75-.055,3.235.022,6.472-.031,9.707-.024,1.446.4,2.468,1.914,2.8V154.8" transform="translate(-96.703 -71.405)" fill="#c2f036"/>
        <path id="Trazado_835857" data-name="Trazado 835857" d="M200.483,34.775c.146,3.539-.115,3.82-3.6,3.821-6.613,0-13.226-.051-19.838.03-2.225.027-3.155-.8-3.08-3.053.1-3.145-.007-6.3.04-9.445.021-1.442-.4-2.466-1.937-2.765q0-1.838,0-3.676A2.2,2.2,0,0,0,174,17.147c-.03-.709-.014-1.422,0-2.132.043-2.714.477-3.043,3.821-2.906.156,4.754-.825,9.627,1.488,14.154a13.459,13.459,0,0,0,4.081,5.133c.282,3.577,1.249,4.188,3.845,2.432,4.332,1.518,8.819.857,13.253.947" transform="translate(-90.416 -6.349)" fill="#57b6ea"/>
        <path id="Trazado_835858" data-name="Trazado 835858" d="M98.531,179.465c1.585-2.745,1.207-5.292-.438-7.944-2.76-4.452-2.681-4.524,2.3-6.4,3.663-1.381,7.347-2.707,11.021-4.057q.008,1.8.015,3.594c-1.538.289-1.956,1.3-1.947,2.752.024,4.015-.029,8.03-.052,12.045l-10.9.013" transform="translate(-50.587 -84.632)" fill="#a9dff8"/>
        <path id="Trazado_835859" data-name="Trazado 835859" d="M50.677,127.865c-3.1,3.212-7.033,5.221-10.87,7.334-3.257,1.794-5.18,4.24-4.811,8.119.19,2-1.559,2.035-2.718,2.668q-.008-8.073-.015-16.146c3.075-.023,6.15-.086,9.225-.052,1.456.016,2.458-.429,2.762-1.954l6.428.031" transform="translate(-16.953 -67.172)" fill="#a7def6"/>
        <path id="Trazado_835860" data-name="Trazado 835860" d="M162.356,113.6c-1.549.009-2.375-.5-2.5-1.724a1.769,1.769,0,0,1,1.544-2.044q4.614-.972,9.243-1.875c1.22-.236,2.27.1,2.555,1.442.281,1.32-.448,2.077-1.723,2.339-3.156.647-6.313,1.289-9.119,1.862" transform="translate(-83.992 -56.693)"/>
        <path id="Trazado_835861" data-name="Trazado 835861" d="M159.481,85.945a2.286,2.286,0,0,1-1.121,1.722c-2.261,1.714-4.538,3.407-6.806,5.11-1.095.822-2.189,1.023-3.069-.231-.829-1.181-.179-2.089.781-2.816,2.325-1.76,4.666-3.5,7-5.241a1.869,1.869,0,0,1,2.2-.284,1.849,1.849,0,0,1,1.016,1.74" transform="translate(-77.824 -44.118)"/>
        <path id="Trazado_835862" data-name="Trazado 835862" d="M138.282,75.3a1.858,1.858,0,0,1-1.725-2.885c1.831-2.658,3.811-5.217,5.8-7.764a1.669,1.669,0,0,1,2.518-.294,1.606,1.606,0,0,1,.554,2.29c-1.97,2.753-4.03,5.442-6.1,8.118-.252.326-.8.419-1.04.535" transform="translate(-71.578 -33.584)"/>
        <path id="Trazado_835863" data-name="Trazado 835863" d="M25.88,131.889q.007,8.073.015,16.146c-1.561,2.1-2.644,4.276-1.314,6.927,1.342,2.674,3.668,3.439,6.439,3.369,5.173,5.029,11.48,6.375,18.419,5.669,3.081,2.809,5.625,2.824,9.076.055l10.9-.014c.26,5.721.26,5.721-5.5,5.721-13.8,0-27.6-.033-41.407.04-1.843.009-2.407-.466-2.391-2.36q.134-16.443,0-32.887c-.019-2.09.433-3.1,2.694-2.753a23.843,23.843,0,0,0,3.07.088" transform="translate(-10.57 -69.222)" fill="#57b6ea"/>
        <path id="Trazado_835864" data-name="Trazado 835864" d="M63.1,223.726H23.5c-2.869.039-5.13-.936-6.277-3.766q27.427-.039,54.854-.068c1.864,0,2.087.84,1.092,3.785l-10.063.05" transform="translate(-9.049 -115.544)" fill="#f8e009"/>
        <path id="Trazado_835865" data-name="Trazado 835865" d="M33.955,227.971H70.233c-.341.513-1.027,1.073-.966,1.533.337,2.555-1.315,2.224-2.893,2.22q-14.28-.033-28.559,0c-1.578,0-3.23.336-2.894-2.218.06-.461-.625-1.02-.967-1.534" transform="translate(-17.842 -119.79)" fill="#fbbb04"/>
        <path id="Trazado_835866" data-name="Trazado 835866" d="M12.447,219.848c1.148,2.83,3.408,3.8,6.277,3.766-.3.364-.862.743-.844,1.091.2,3.756-2.549,2.651-4.429,2.591a5.636,5.636,0,0,1-5.267-5.139c-.181-1.64.061-2.786,2.147-2.4a14.839,14.839,0,0,0,2.115.094" transform="translate(-4.275 -115.433)" fill="#fbbb04"/>
        <path id="Trazado_835867" data-name="Trazado 835867" d="M113.91,227.917l10.063-.05a6.944,6.944,0,0,1-8.355,3.792c-.8-.255-.662-.79-.622-1.27a2.972,2.972,0,0,0-1.086-2.471" transform="translate(-59.856 -119.736)" fill="#fbbb04"/>
        <path id="Trazado_835868" data-name="Trazado 835868" d="M63.243,153.331l.6,1.378c-6.826,3.752-13.378,1.021-14.894-6.207,1.878-1.141,3.775-2.251,5.627-3.433,1.04-.664,1.546-.188,2.036.693,1.111,2,2.32,3.939,3.383,5.958a2.624,2.624,0,0,0,3.252,1.611" transform="translate(-25.719 -76.065)" fill="#f49a8c"/>
        <path id="Trazado_835869" data-name="Trazado 835869" d="M81.131,151.984c3.323-2.828,7.54-3.734,11.454-5.264,5.47-2.137,11-4.122,16.5-6.167a3.652,3.652,0,0,0,1.752-1.134c.381.6.755,1.2,1.139,1.8.453.7.3,1.064-.526,1.363-9.914,3.59-19.659,7.642-29.695,10.906l-.629-1.5" transform="translate(-42.631 -73.26)" fill="#a0d41c"/>
        <path id="Trazado_835870" data-name="Trazado 835870" d="M61.514,191.928c-6.939.706-13.245-.64-18.419-5.669,1.845-1.389,3.544-2.037,5.823-.431a5.714,5.714,0,0,0,6.308-.14c1.811-1.106,2.573-.543,3.371,1.11.854,1.768,1.935,3.425,2.917,5.131" transform="translate(-22.645 -97.15)" fill="#a7def6"/>
        <path id="Trazado_835871" data-name="Trazado 835871" d="M62.462,158.935l.629,1.5c-2.64,1.572-5.241,3.215-7.933,4.694-2.2,1.21-4.156.618-5.47-1.53-1.194-1.953-2.348-3.934-3.432-5.949-1.009-1.874-.964-3.633.933-5,1.515,7.229,8.068,9.96,14.893,6.207.126.028.252.056.379.08" transform="translate(-23.962 -80.211)" fill="#f36651"/>
        <path id="Trazado_835872" data-name="Trazado 835872" d="M85.109,179.742c.98,1.609,2,3.2,2.924,4.836a1.756,1.756,0,0,1-.6,2.656,1.848,1.848,0,0,1-2.639-.8c-.916-1.559-1.776-3.151-2.66-4.728.44-1.492,1.833-1.543,2.979-1.965" transform="translate(-43.156 -94.448)" fill="#f36651"/>
        <path id="Trazado_835873" data-name="Trazado 835873" d="M38.441,170.807a2.91,2.91,0,0,1,1.913,2.578c.13,1.13-1.216,1.5-2.178,1.587a1.689,1.689,0,0,1-1.884-1.663c-.126-1.427.91-2.018,2.149-2.5" transform="translate(-19.064 -89.753)" fill="#c35149"/>
        <path id="Trazado_835874" data-name="Trazado 835874" d="M84.236,178.366c-1.146.422-2.539.473-2.979,1.965-.832-.9-1.339-1.74.226-2.438,1.048-.468,2.177-1.691,2.753.473" transform="translate(-42.283 -93.072)" fill="#c35149"/>
        <path id="Trazado_835875" data-name="Trazado 835875" d="M206.761,34.713c-4.434-.09-8.921.571-13.253-.946.014-1.417.093-2.838.025-4.252-.071-1.478-.036-2.619,2.012-2.433a1.645,1.645,0,0,0,1.746-1.832,1.727,1.727,0,0,0-1.765-1.842c-1.188-.049-2.207.014-1.993-1.711a2.164,2.164,0,0,1,2.539-2.135c1.1.018,2.209.039,3.306-.045a1.854,1.854,0,0,0,.58-3.561,7.157,7.157,0,0,0-10.182,5.973c-.071.908-.153,1.5-1.282,1.444-1.951-.1-2.723.92-2.446,2.807-.155.01-.31.018-.465.021-2.313-4.527-1.333-9.4-1.489-14.154,6.685-.023,13.37-.023,20.054-.082,1.9-.017,2.71.8,2.693,2.694-.057,6.684-.058,13.369-.081,20.053" transform="translate(-96.694 -6.287)" fill="#a9dff8"/>
        <path id="Trazado_835876" data-name="Trazado 835876" d="M187.963,156.852c3.268,2.17,6.965,1.9,10.622,1.876,1.329-.01,2.658-.008,3.987-.011.164,3.518-.1,3.8-3.6,3.8-6.614,0-13.229-.052-19.842.029-2.24.028-3.092-.83-3.064-3.068.082-6.613.027-13.228.03-19.842,0-3.508.277-3.765,3.8-3.6.188,3.653-.434,7.331.4,10.969a13.276,13.276,0,0,0,1.468,3.641,8.739,8.739,0,0,0,6.2,6.2" transform="translate(-92.513 -71.464)" fill="#a0d41c"/>
        <path id="Trazado_835877" data-name="Trazado 835877" d="M16.23,48.024C20.8,48,25.373,48,29.944,47.927c1.141-.019,1.484.378,1.473,1.494-.063,7.094-.07,14.188-.1,21.282l-4.761-.039c.678-.772,1.428-1.524.8-2.684-.589-1.09-1.613-1.072-2.656-1.073-1.881,0-3.761-.042-5.642-.066-.734-1.236-2.034-2.2-1.884-3.863,2.761.048,5.522.111,8.283.136a1.82,1.82,0,0,0,2.083-1.794c.049-1.351-.834-1.973-2.13-1.983-2.291-.019-4.583.032-6.872-.027a3.182,3.182,0,0,0-2.275,1.062L16.23,48.024m7.62,7.513c.471,0,.942,0,1.414,0,1.263.014,2.242-.487,2.278-1.825.04-1.488-1-1.992-2.36-1.976-.942.011-1.885.009-2.827,0-1.263-.011-2.242.485-2.277,1.824-.039,1.488,1,2,2.359,1.977.471-.007.942,0,1.414,0" transform="translate(-8.528 -25.184)" fill="#c2f036"/>
        <path id="Trazado_835878" data-name="Trazado 835878" d="M22.293,70.58l4.761.039a4.534,4.534,0,0,1,.06.469c.1,3.333.1,3.334-3.148,3.334-4.659,0-9.32-.056-13.978.033-1.467.028-1.874-.414-1.86-1.868.069-7.344.109-14.69-.017-22.032-.036-2.1.442-3.109,2.674-2.7a10.016,10.016,0,0,0,1.179.083q.019,6.173.038,12.347a2.687,2.687,0,0,0,.911,2.607c-.149,1.668,1.151,2.627,1.885,3.863-1.39.08-2.88.242-2.772,2.075.106,1.8,1.595,1.826,2.99,1.806,2.426-.036,4.852-.04,7.277-.058" transform="translate(-4.261 -25.1)" fill="#a0d41c"/>
        <path id="Trazado_835879" data-name="Trazado 835879" d="M80.544,11.746A13.131,13.131,0,0,1,99.1,30.328l-.506.457.034-.023c-3.855.006-7.78.333-11.03-2.419,3.279-1.7,6.554-3.4,9.839-5.082.8-.412,1.533-.888,1.589-1.878.064-1.121-.71-1.66-1.6-2.1-3.381-1.685-6.74-3.416-10.138-5.064-2.167-1.051-3.327-.336-3.381,2.054-.07,3.07-.061,6.141-.086,9.212-3.429-3.8-4.008-8.4-3.722-13.244l-.021.029.468-.519" transform="translate(-42.054 -4.199)" fill="#f49a8c"/>
        <path id="Trazado_835880" data-name="Trazado 835880" d="M83.45,33.043c3.25,2.752,7.175,2.424,11.03,2.419-4.8,5.114-13.243,5.061-18.417-.116s-5.236-13.618-.113-18.411c-.286,4.844.293,9.445,3.722,13.245.238,3.368.777,3.776,3.778,2.862" transform="translate(-37.907 -8.899)" fill="#f36651"/>
        <path id="Trazado_835881" data-name="Trazado 835881" d="M80.591,15.9l-.468.519.468-.519" transform="translate(-42.102 -8.357)" fill="#f36651"/>
        <path id="Trazado_835882" data-name="Trazado 835882" d="M119.144,55.519l.506-.457-.506.457" transform="translate(-62.606 -28.933)" fill="#f36651"/>
        <path id="Trazado_835883" data-name="Trazado 835883" d="M194.273,163.081a8.74,8.74,0,0,1-6.2-6.2,20.144,20.144,0,0,1,.292-3.281,7.553,7.553,0,0,1,8.424-5.657,7.6,7.6,0,0,1-.857,15.114c-.551.028-1.1.018-1.656.027m4.937-8.646a3.064,3.064,0,0,0-2.5-2.5,3.349,3.349,0,0,0-4.354,1.771,3.754,3.754,0,0,0,5.084,5.084,3.351,3.351,0,0,0,1.766-4.355" transform="translate(-98.823 -77.693)"/>
        <path id="Trazado_835884" data-name="Trazado 835884" d="M188.236,29.829c-.277-1.888.495-2.909,2.446-2.808,1.129.059,1.212-.537,1.282-1.444A7.157,7.157,0,0,1,202.146,19.6a1.854,1.854,0,0,1-.58,3.561c-1.1.084-2.2.063-3.306.045a2.165,2.165,0,0,0-2.539,2.135c-.213,1.724.8,1.661,1.993,1.711a1.726,1.726,0,0,1,1.765,1.841,1.645,1.645,0,0,1-1.746,1.832c-2.048-.186-2.083.956-2.012,2.433.068,1.414-.01,2.835-.025,4.252-2.6,1.756-3.563,1.145-3.845-2.432.237-2.173.8-4.526-2.7-4.493-.3,0-.613-.431-.919-.662" transform="translate(-98.882 -9.935)" fill="#3a529d"/>
        <path id="Trazado_835885" data-name="Trazado 835885" d="M187.78,41.922c.307.231.615.664.919.662,3.5-.033,2.934,2.32,2.7,4.493a13.472,13.472,0,0,1-4.081-5.134c.156,0,.311-.01.466-.021" transform="translate(-98.427 -22.028)" fill="#a7def6"/>
        <path id="Trazado_835886" data-name="Trazado 835886" d="M26.623,91.607c-2.426.018-4.852.022-7.277.058-1.4.02-2.884,0-2.99-1.806-.108-1.833,1.382-1.994,2.772-2.075,1.881.024,3.761.065,5.642.066,1.043,0,2.068-.018,2.656,1.073.626,1.16-.124,1.912-.8,2.684" transform="translate(-8.591 -46.128)" fill="#3c559a"/>
        <path id="Trazado_835887" data-name="Trazado 835887" d="M17.161,75.582a2.686,2.686,0,0,1-.911-2.607,3.181,3.181,0,0,1,2.275-1.062c2.289.059,4.581.008,6.872.027,1.3.01,2.179.633,2.13,1.983a1.82,1.82,0,0,1-2.083,1.794c-2.761-.025-5.522-.088-8.283-.135" transform="translate(-8.51 -37.788)" fill="#3c559a"/>
        <path id="Trazado_835888" data-name="Trazado 835888" d="M28.108,59.757c-.471,0-.942-.005-1.414,0-1.36.019-2.4-.49-2.359-1.977.035-1.34,1.014-1.835,2.277-1.824q1.414.013,2.827,0c1.36-.016,2.4.488,2.36,1.976-.036,1.338-1.015,1.839-2.278,1.825-.471-.005-.942,0-1.414,0" transform="translate(-12.787 -29.403)" fill="#3c559a"/>
        <path id="Trazado_835889" data-name="Trazado 835889" d="M91.789,34.712c-3,.914-3.541.506-3.778-2.862.025-3.072.017-6.143.086-9.213.055-2.39,1.214-3.1,3.381-2.054,3.4,1.648,6.757,3.379,10.138,5.064.89.443,1.664.983,1.6,2.1-.056.989-.784,1.466-1.589,1.878-3.285,1.683-6.56,3.386-9.839,5.082m5.178-7.123c-1.6-.8-2.771-1.394-3.947-1.98-.521-.26-1.1-.52-1.109.426-.012,1.242-.4,2.86.225,3.621s1.836-.6,2.814-.965a18.351,18.351,0,0,0,2.016-1.1" transform="translate(-46.247 -10.568)"/>
        <path id="Trazado_835890" data-name="Trazado 835890" d="M203.381,158.682a3.351,3.351,0,0,1-1.766,4.355,3.754,3.754,0,0,1-5.084-5.084,3.348,3.348,0,0,1,4.354-1.771c-1.1.837-1.5,1.837-.419,2.917s2.08.684,2.915-.418" transform="translate(-102.994 -81.94)" fill="#57b6ea"/>
        <path id="Trazado_835891" data-name="Trazado 835891" d="M207.616,158.951c-.835,1.1-1.836,1.5-2.915.418s-.679-2.081.419-2.917a3.063,3.063,0,0,1,2.5,2.5" transform="translate(-107.229 -82.209)" fill="#a7def6"/>
        <path id="Trazado_835892" data-name="Trazado 835892" d="M101.142,33.409a18.351,18.351,0,0,1-2.016,1.1c-.978.363-2.188,1.731-2.814.965s-.237-2.379-.225-3.621c.009-.946.587-.685,1.109-.426,1.176.587,2.35,1.179,3.947,1.98" transform="translate(-50.422 -16.388)"/>
      </g>
    </g>
  </g>
</svg>
