<svg xmlns="http://www.w3.org/2000/svg" xmlns:xlink="http://www.w3.org/1999/xlink" width="169" height="169" viewBox="0 0 169 169">
  <defs>
    <clipPath id="clip-path">
      <rect id="Rect치ngulo_380255" data-name="Rect치ngulo 380255" width="104.799" height="103.951" fill="none"/>
    </clipPath>
  </defs>
  <g id="Grupo_1082118" data-name="Grupo 1082118" transform="translate(4311.499 7485.949)">
    <g id="Grupo_1081901" data-name="Grupo 1081901" transform="translate(-4696.5 -9543.949)">
      <g id="Grupo_159182" data-name="Grupo 159182" transform="translate(385.001 2058)">
        <path id="Uni칩n_12" data-name="Uni칩n 12" d="M84.5,0A84.5,84.5,0,1,1,0,84.5,84.5,84.5,0,0,1,84.5,0Z" transform="translate(0 0)" fill="#9f0f6a"/>
      </g>
    </g>
    <g id="Grupo_1081910" data-name="Grupo 1081910" transform="translate(-4279.398 -7453.425)">
      <g id="Grupo_1081909" data-name="Grupo 1081909" clip-path="url(#clip-path)">
        <path id="Trazado_835991" data-name="Trazado 835991" d="M89.4,19.632c0-2.226-.652-4.417-.256-6.671A15.954,15.954,0,0,1,98.361.642c.311-.149.847-.087.89-.642H110.3c1.162.667,2.389,1.242,3.474,2.016a15.435,15.435,0,0,1,6.858,14.4c-.079,1.21-.487,2.409-.164,3.638-.784-.011-.738.686-.934,1.139a16.816,16.816,0,0,1-3.938,5.6,2.215,2.215,0,0,0-1,2.27c.031,3.538-.029,7.076.035,10.613.022,1.191-.243,1.664-1.566,1.645q-8.163-.115-16.328,0c-1.226.014-1.64-.264-1.615-1.563.072-3.671-.013-7.345-.036-11.018a1.48,1.48,0,0,0-.378-1.509c-2.493-2.029-3.926-4.795-5.308-7.6m15.37-2.021c1.364,0,2.73.061,4.089-.019,1.179-.069,1.16.649,1.1,1.43-.06.729.348,1.92-1.026,1.69-2.625-.439-2.675,1.1-2.511,2.955.066.744.011,1.5.011,2.249,0,3.581,0,3.509,3.564,3.532,1.318.009,1.736-.428,1.522-1.629a2.768,2.768,0,0,1,1.38-2.87,12.118,12.118,0,0,0,4.722-9.15A12.757,12.757,0,1,0,96.8,24.944c.8.657,1.691,1.192,1.448,2.444-.352,1.813.558,2.274,2.161,2.032a4.35,4.35,0,0,1,1.224,0c1.278.176,1.835-.224,1.734-1.636a35.681,35.681,0,0,1,0-5.313c.116-1.494-.45-1.928-1.831-1.736-1.14.158-1.88,0-1.878-1.552,0-1.51.657-1.662,1.84-1.587,1.086.068,2.181.015,3.271.016m.012,20.546h2.648c4.276,0,4.222,0,4.127-4.323-.027-1.229-.477-1.456-1.559-1.431-2.579.062-5.161.02-7.742.02-4.357,0-4.327,0-4.066,4.443.055.944.308,1.337,1.294,1.305,1.764-.056,3.531-.016,5.3-.015" transform="translate(-52.579)" fill="#070706"/>
        <path id="Trazado_835992" data-name="Trazado 835992" d="M81.319,64.97c.955-.052,1.449.217,1.436,1.356-.075,6.263.116,12.536-.151,18.79-.224,5.236-2.807,9.423-6.939,12.637-2.032,1.581-1.64,5.389.675,6.365,5.94,2.5,11.894,4.978,17.831,7.49,9.278,3.926,14.246,11.43,14.262,21.5q0,3.065,0,6.129c0,3.131,0,3.131-3.165,2.885.011-2.517.064-5.034.02-7.55-.036-2.088.255-4.212-.524-6.24a4.106,4.106,0,0,0-.317-1.788,18.709,18.709,0,0,0-10.636-11.7c-5.235-2.265-10.542-4.367-15.749-6.695-1.852-.828-3.391-1.25-5.247.036a8.867,8.867,0,0,1-4.43,1.407c-1.61.106-1.982.9-1.887,2.369.118,1.83-.038,3.677.051,5.51.06,1.229-.465,1.479-1.561,1.455-1.005-.023-1.668-.055-1.6-1.382.109-2.036-.028-4.084.052-6.123.041-1.058-.205-1.574-1.358-1.713a15.843,15.843,0,0,1-6.487-2.286,2.024,2.024,0,0,0-2.092-.1c-6.041,2.625-12.17,5.06-18.133,7.85a17.562,17.562,0,0,0-10.266,13.119,12.824,12.824,0,0,0-.539,4.185c-.006,3.233-.038,6.466-.059,9.7a9.785,9.785,0,0,0-1.018.05c-1.542.232-2.122-.3-2.043-1.96.192-4.007-.342-8.064.423-12.025A21.35,21.35,0,0,1,34.766,112c6.2-2.761,12.473-5.347,18.712-8.016,1.846-.79,2.543-4.813.936-6.052-5.491-4.236-7.5-9.9-7.312-16.646.135-4.83.062-9.668,0-14.5-.015-1.219.2-1.986,1.6-1.868,1.758-.242,1.648,1,1.68,2.122l-.015,4.033c-.023,4.357-.144,8.715-.047,13.068.169,7.618,6.124,13.587,13.93,14.12A14.527,14.527,0,0,0,79.411,85.951c.7-4.934.269-9.919.22-14.883q.035-2.01.07-4.019c.1-1.034-.228-2.4,1.617-2.079m-9.912,38.013a5.857,5.857,0,0,0-.1-2.73,18.987,18.987,0,0,1-13.076-.119v2.834c-.5,1.918.344,2.815,2.191,3.278a17.944,17.944,0,0,0,8.676.093c1.952-.459,2.846-1.334,2.307-3.356" transform="translate(-12.665 -38.326)" fill="#070706"/>
        <path id="Trazado_835993" data-name="Trazado 835993" d="M28.937,233.659c.021-3.233.053-6.466.059-9.7a12.811,12.811,0,0,1,.54-4.185c.973-.029,1.678.721,2.583.888.156,2.288.612,2.53,2.959,1.571a81.026,81.026,0,0,0,32.747,6.592,4.314,4.314,0,0,0,3.244-.052,57.327,57.327,0,0,0,11.961-.758,76.617,76.617,0,0,0,20.487-5.8c2.742.7,3.06.54,3.229-1.58l2.446-.825c.779,2.028.488,4.152.524,6.24.043,2.516-.009,5.033-.02,7.55l-9.161.059c.023-.949.007-1.9.079-2.847.094-1.227-.017-2.016-1.653-1.994-1.571.021-1.578.829-1.537,1.935.035.948-.008,1.9-.016,2.849-1.837.033-3.674.1-5.511.095q-25.341-.01-50.683-.038c.023-.949.007-1.9.079-2.847.094-1.227-.017-2.016-1.653-1.994-1.571.021-1.578.829-1.537,1.935.035.948-.008,1.9-.016,2.849l-9.152.052" transform="translate(-17.092 -129.81)" fill="#a1887f"/>
        <path id="Trazado_835994" data-name="Trazado 835994" d="M179.475,72.914c0-5.516-.014-11.031.005-16.547.016-4.693,2.036-6.713,6.719-6.724q9.7-.023,19.408,0c3.377.007,5.14,1.77,5.157,5.171.023,4.426-.046,8.853.038,13.278.024,1.291-.371,1.615-1.608,1.578-1.465-.044-3.482-.68-4.265.279-.748.915-.285,2.85-.289,4.337-.017,5.448-.027,10.9.011,16.343.008,1.144-.116,1.695-1.421,1.048-2.222-1.1-4.461-1.886-6.879-.318-.9.587-1.822-.223-2.672-.579a3.151,3.151,0,0,0-3.093-.041,3.907,3.907,0,0,1-4.4.019,3.223,3.223,0,0,0-3.088.015c-3.613,1.443-3.624,1.415-3.624-2.535V72.914M201.49,84.97c.018-.34.052-.68.053-1.02.035-10.088.03-20.175.141-30.262.015-1.368-.747-1.012-1.4-1.015-4.84-.02-9.68-.03-14.52,0-2.264.013-3.213.973-3.214,3.251q-.007,14.519.028,29.039c-.131,1.512-.493,3.181,2.091,2.116.428-.176,1.173.243,1.7.52a3.808,3.808,0,0,0,3.863.038c.47-.259,1.128-.678,1.5-.529,2.675,1.069,5.29.215,7.933.2,2.71-.016,1.957-.99,1.818-2.335" transform="translate(-106.005 -29.315)" fill="#020202"/>
        <path id="Trazado_835995" data-name="Trazado 835995" d="M.03,68.355C.03,62.7.071,57.039,0,51.382c-.016-1.333.173-1.874,1.718-1.853,6.884.1,13.77.024,20.655.05,4.4.016,6.494,2.122,6.506,6.545q.031,12.168,0,24.336c-.013,4.656-2.107,6.743-6.755,6.756-6.817.02-13.635-.034-20.451.038C.294,87.269-.016,86.847,0,85.533c.071-5.725.03-11.452.03-17.178m25.7-13.346c-.247-1.863-1.482-2.411-3.162-2.409-5.711.008-11.424.093-17.132-.046-2-.049-2.754.474-2.221,2.452.133,1.009-1.091,2.7,1.086,2.729,6.2.08,12.4.06,18.6,0,1.685-.015,2.877-.8,2.827-2.732m.068,5.226a9.2,9.2,0,0,1-4.023.553c-5.653,0-11.306.04-16.958-.03-1.345-.017-1.729.375-1.717,1.717q.1,10.011,0,20.022c-.01,1.223.293,1.637,1.582,1.622,5.992-.068,11.986-.015,17.979-.038,2.257-.009,3.12-.932,3.128-3.292.017-5.517.005-11.033.005-16.549v-4" transform="translate(0 -29.254)" fill="#070706"/>
        <path id="Trazado_835996" data-name="Trazado 835996" d="M41.342,16.36c-1.5.171-3.922-.8-4.972.373-.892,1-.348,3.377-.244,5.133.081,1.366-.486,1.548-1.659,1.547-1.107,0-1.554-.211-1.5-1.435.1-2.45.068-4.907.011-7.359-.023-1,.182-1.454,1.328-1.435,3.952.067,7.907.079,11.858,0,1.467-.03,1.217.856,1.253,1.725.038.906.017,1.586-1.257,1.48-1.489-.123-3-.029-4.813-.029" transform="translate(-19.467 -7.786)" fill="#0f0f0f"/>
        <path id="Trazado_835997" data-name="Trazado 835997" d="M201.088,18.291c0,1.091-.029,2.182.008,3.271.036,1.066.154,1.88-1.487,1.872-1.676-.008-1.672-.785-1.641-1.991.041-1.626.577-3.814-.247-4.737-.978-1.1-3.21-.271-4.9-.345-1.429-.063-2.862-.028-4.293-.008-1.031.014-1.953.226-1.922-1.461.028-1.55.612-1.75,1.928-1.72,3.542.078,7.089.095,10.631-.006,1.45-.041,2.163.226,1.947,1.858a24.989,24.989,0,0,0-.027,3.268" transform="translate(-110.221 -7.774)" fill="#0f0f0f"/>
        <path id="Trazado_835998" data-name="Trazado 835998" d="M89.674,57.041c-.032-1.125.078-2.363-1.68-2.122.2-2.327-.538-4.76.786-6.96,1.382,2.8,2.815,5.568,5.308,7.6a1.481,1.481,0,0,1,.378,1.509l-4.792-.025" transform="translate(-51.957 -28.327)" fill="#414141"/>
        <path id="Trazado_835999" data-name="Trazado 835999" d="M159.579,55.575c-1.845-.323-1.517,1.045-1.617,2.079a18.065,18.065,0,0,1-4.022-1.928,16.825,16.825,0,0,0,3.938-5.6c.2-.453.15-1.151.934-1.14,1.148,2.094.42,4.406.768,6.593" transform="translate(-90.925 -28.931)" fill="#414141"/>
        <path id="Trazado_836000" data-name="Trazado 836000" d="M196.208,246.665c.009-.95.051-1.9.016-2.849-.041-1.106-.034-1.914,1.537-1.935,1.636-.022,1.747.767,1.653,1.994-.072.945-.056,1.9-.079,2.847l-3.127-.056" transform="translate(-115.891 -142.868)" fill="#0f0f0f"/>
        <path id="Trazado_836001" data-name="Trazado 836001" d="M51.294,246.665c.009-.95.051-1.9.016-2.849-.041-1.106-.034-1.914,1.537-1.935,1.636-.022,1.747.767,1.653,1.994-.072.945-.056,1.9-.079,2.847l-3.127-.056" transform="translate(-30.297 -142.868)" fill="#0f0f0f"/>
        <path id="Trazado_836002" data-name="Trazado 836002" d="M78.772,14.778c.273,1.212-.193,1.594-1.466,1.6s-1.6-.361-1.571-1.592c.023-1.158.211-1.68,1.544-1.655,1.253.024,1.759.383,1.494,1.645" transform="translate(-44.732 -7.757)" fill="#0f0f0f"/>
        <path id="Trazado_836003" data-name="Trazado 836003" d="M174.689,14.633c.263,1.275-.088,1.769-1.416,1.75-1.212-.017-1.655-.277-1.6-1.562.048-1.111.129-1.761,1.513-1.675,1.138.07,1.915.187,1.5,1.487" transform="translate(-101.397 -7.76)" fill="#0f0f0f"/>
        <path id="Trazado_836004" data-name="Trazado 836004" d="M109.247,20.982c-1.091,0-2.185.053-3.271-.015-1.183-.075-1.839.077-1.84,1.587,0,1.549.738,1.711,1.878,1.552,1.381-.192,1.947.242,1.831,1.736a35.675,35.675,0,0,0,0,5.312c.1,1.411-.456,1.812-1.734,1.636a4.335,4.335,0,0,0-1.224,0c-1.6.242-2.513-.219-2.161-2.032.243-1.252-.648-1.787-1.448-2.444a12.744,12.744,0,1,1,20.816-9.144,12.115,12.115,0,0,1-4.721,9.15,2.769,2.769,0,0,0-1.38,2.87c.215,1.2-.2,1.638-1.522,1.629-3.563-.024-3.564.049-3.564-3.532,0-.75.055-1.5-.011-2.249-.164-1.855-.114-3.395,2.511-2.955,1.374.23.966-.961,1.026-1.69.065-.781.084-1.5-1.1-1.43-1.359.08-2.726.018-4.089.018m-1.87-9.854c-.552-.427.2-1.954-1.223-1.741-.93.139-2.29.4-2.3,1.562a1.89,1.89,0,0,0,1.815,1.835c.725-.05,1.847-.248,1.7-1.656m-4.469,6.051c.179-1.81-1.215-1.9-2.017-1.967-1.372-.114-.938,1.311-1.169,2.088-.316,1.062.406,1.183,1.274,1.213,1.174.041,2.08-.094,1.911-1.334m12.183-6.3A3.408,3.408,0,0,0,112.546,9.4c-1.222-.059-.96,1.225-1.067,1.966-.18,1.235,1.032,1.473,1.737,1.46,1.014-.018,1.282-1.207,1.874-1.947m2.5,7.6c.571-.118,1.684.368,1.354-.992-.2-.815.287-2.223-1.144-2.15-.735.037-2.138.038-2.05,1.41.061.965.226,2.171,1.84,1.732" transform="translate(-57.054 -3.371)" fill="#fad644"/>
        <path id="Trazado_836005" data-name="Trazado 836005" d="M117.417,65.456a18.056,18.056,0,0,0,4.022,1.928q-.036,2.01-.07,4.019c-1.831-.666-2.476-.094-2.343,1.892.168,2.508.007,5.035.055,7.553.021,1.089-.277,1.609-1.483,1.6q-10.824-.055-21.648,0c-1.052,0-1.459-.38-1.439-1.436.044-2.382-.109-4.773.05-7.145.129-1.936-.443-2.829-2.456-2.457q.007-2.017.015-4.034l4.791.025c.023,3.673.108,7.347.036,11.018-.025,1.3.389,1.578,1.615,1.563q8.163-.1,16.328,0c1.323.019,1.587-.454,1.566-1.645-.064-3.537,0-7.076-.035-10.613a2.215,2.215,0,0,1,1-2.27" transform="translate(-54.402 -38.662)" fill="#f9c177"/>
        <path id="Trazado_836006" data-name="Trazado 836006" d="M117.884,84.909c-1.766,0-3.533-.041-5.3.016-.986.032-1.239-.362-1.294-1.306-.261-4.445-.291-4.443,4.066-4.443,2.581,0,5.163.042,7.742-.02,1.081-.026,1.532.2,1.559,1.43.095,4.324.149,4.323-4.127,4.323h-2.648" transform="translate(-65.679 -46.753)" fill="#a9b6bd"/>
        <path id="Trazado_836007" data-name="Trazado 836007" d="M32.984,190.056c-.905-.166-1.61-.917-2.583-.888a17.56,17.56,0,0,1,10.266-13.119c5.963-2.79,12.092-5.225,18.133-7.849a2.023,2.023,0,0,1,2.091.1,15.85,15.85,0,0,0,6.487,2.286c1.152.138,1.4.655,1.357,1.713-.079,2.039.058,4.087-.052,6.123-.071,1.326.592,1.359,1.6,1.382,1.1.025,1.621-.226,1.561-1.454-.089-1.833.068-3.68-.051-5.51-.095-1.469.277-2.263,1.887-2.369a8.878,8.878,0,0,0,4.43-1.407c1.856-1.286,3.4-.864,5.247-.036,5.207,2.328,10.514,4.43,15.749,6.695a18.709,18.709,0,0,1,10.635,11.7,4.1,4.1,0,0,1,.317,1.787l-2.446.825c-.979-5.039-3.347-9.176-7.874-11.828-.58-.34-1.386-1.5-2.162-.127-.6,1.071-.965,1.89.544,2.8a11.893,11.893,0,0,1,6.263,10.74,76.584,76.584,0,0,1-20.486,5.8,57.3,57.3,0,0,1-11.961.759c-.131-1.31.66-3.173-1.962-2.876-2.267.257-.834,1.969-1.283,2.928a81.034,81.034,0,0,1-32.748-6.591c.321-4.729,2.32-8.532,6.5-10.873,1.483-.831,1.007-1.525.544-2.542-.65-1.43-1.44-.529-2.116-.135a15.889,15.889,0,0,0-7.887,11.979m38.665.587c.2-1.217-.443-1.481-1.522-1.483-1.027,0-1.445.312-1.434,1.391.011,1.05.2,1.639,1.44,1.6,1.089-.03,1.7-.31,1.516-1.512m0-6.075c.189-1.145-.307-1.571-1.458-1.544-.954.023-1.535.177-1.492,1.326.036.973.052,1.721,1.37,1.664,1.022-.044,1.773-.169,1.58-1.447" transform="translate(-17.956 -99.204)" fill="#bba9a3"/>
        <path id="Trazado_836008" data-name="Trazado 836008" d="M91.982,79.608c2.014-.372,2.586.521,2.456,2.457-.158,2.372-.005,4.763-.05,7.145-.02,1.055.387,1.439,1.438,1.435q10.824-.039,21.648.005c1.206.006,1.5-.514,1.483-1.6-.049-2.517.113-5.046-.055-7.553-.133-1.986.511-2.558,2.342-1.892.049,4.964.477,9.949-.22,14.883A14.527,14.527,0,0,1,105.865,106.8c-7.805-.534-13.76-6.5-13.93-14.12-.1-4.353.024-8.711.047-13.067m14.665,22.714c.082-1.041-.118-1.847-1.355-1.834a5.932,5.932,0,0,1-3.742-1.466c-1.437-1.144-1.968.093-2.6.812-.973,1.109.35,1.339.888,1.752a11.317,11.317,0,0,0,5.244,2.116c1.081.171,1.756-.167,1.565-1.38" transform="translate(-54.28 -46.861)" fill="#fbd6a6"/>
        <path id="Trazado_836009" data-name="Trazado 836009" d="M124.289,157.929c.539,2.021-.355,2.9-2.307,3.356a17.944,17.944,0,0,1-8.676-.093c-1.847-.463-2.693-1.36-2.191-3.278a25.839,25.839,0,0,0,13.174.016" transform="translate(-65.546 -93.272)" fill="#fbd6a6"/>
        <path id="Trazado_836010" data-name="Trazado 836010" d="M124.495,153.839a25.839,25.839,0,0,1-13.174-.016V150.99a18.987,18.987,0,0,0,13.076.119,5.857,5.857,0,0,1,.1,2.73" transform="translate(-65.752 -89.183)" fill="#f9c177"/>
        <path id="Trazado_836011" data-name="Trazado 836011" d="M200.556,205.273a11.893,11.893,0,0,0-6.263-10.74c-1.509-.905-1.149-1.725-.544-2.8.776-1.375,1.582-.212,2.162.127,4.527,2.653,6.9,6.789,7.874,11.828-.169,2.119-.488,2.275-3.229,1.58" transform="translate(-114.13 -112.863)" fill="#fdfdfd"/>
        <path id="Trazado_836012" data-name="Trazado 836012" d="M36.71,203.731A15.888,15.888,0,0,1,44.6,191.752c.675-.394,1.466-1.295,2.116.135.462,1.017.939,1.711-.544,2.542-4.179,2.341-6.178,6.144-6.5,10.873-2.347.96-2.8.717-2.959-1.571" transform="translate(-21.683 -112.879)" fill="#fdfdfd"/>
        <path id="Trazado_836013" data-name="Trazado 836013" d="M123.88,237.614c.449-.96-.984-2.671,1.283-2.928,2.622-.3,1.831,1.567,1.962,2.876a4.314,4.314,0,0,1-3.244.052" transform="translate(-73.146 -138.6)" fill="#f5f7f8"/>
        <path id="Trazado_836014" data-name="Trazado 836014" d="M187.026,89.292q-.018-14.52-.029-29.039c0-2.278.95-3.238,3.215-3.251,4.84-.027,9.68-.017,14.52,0,.65,0,1.412-.354,1.4,1.015-.111,10.087-.106,20.175-.141,30.263,0,.34-.035.68-.054,1.019a5.856,5.856,0,0,0-4.651.471,2.477,2.477,0,0,1-2.509-.1,4.217,4.217,0,0,0-4.406-.075,2.413,2.413,0,0,1-2.509.265,5.925,5.925,0,0,0-4.834-.573m9.238-12.744c1.494,0,2.992-.063,4.481.019,1.268.07,1.83-.271,1.812-1.68-.016-1.309-.526-1.6-1.7-1.573q-4.48.091-8.963,0c-1.167-.023-1.7.246-1.714,1.565-.015,1.4.54,1.76,1.811,1.687,1.422-.081,2.851-.018,4.277-.018m-.071-15.893c-1.562,0-3.125.048-4.684-.016-1.178-.048-1.312.6-1.3,1.532.008.96.013,1.734,1.348,1.711,3.258-.057,6.518-.042,9.777-.008,1.26.013,1.177-.8,1.19-1.642.013-.876,0-1.634-1.234-1.591-1.7.058-3.394.014-5.092.014m.31,9.417c1.5,0,3-.055,4.49.018,1.151.056,1.565-.361,1.534-1.521-.027-1.017-.31-1.477-1.4-1.46q-4.8.072-9.594,0c-1.167-.017-1.3.594-1.319,1.534-.023,1.029.3,1.487,1.4,1.443,1.631-.065,3.266-.017,4.9-.016m-3.353,11.2c.2-1.223-.44-1.468-1.521-1.5-1.262-.034-1.407.6-1.426,1.628-.02,1.107.46,1.359,1.46,1.372,1.113.014,1.7-.31,1.487-1.5m4.556-1.429c-1.2-.312-1.336.467-1.362,1.5s.327,1.435,1.4,1.429,1.624-.223,1.6-1.452c-.027-1.1-.321-1.7-1.632-1.481" transform="translate(-110.45 -33.646)" fill="#81cac3"/>
        <path id="Trazado_836015" data-name="Trazado 836015" d="M186.931,135.537a5.927,5.927,0,0,1,4.834.573,2.413,2.413,0,0,0,2.509-.265,4.217,4.217,0,0,1,4.406.075,2.476,2.476,0,0,0,2.509.1,5.856,5.856,0,0,1,4.651-.471c.139,1.345.893,2.319-1.818,2.335-2.642.016-5.258.87-7.933-.2-.374-.15-1.032.269-1.5.528a3.809,3.809,0,0,1-3.863-.038c-.529-.277-1.275-.7-1.7-.52-2.583,1.065-2.222-.6-2.091-2.115" transform="translate(-110.355 -79.891)" fill="#2d958c"/>
        <path id="Trazado_836016" data-name="Trazado 836016" d="M30.278,75.684v4c0,5.517.011,11.033-.005,16.549-.007,2.361-.871,3.284-3.127,3.293-5.993.024-11.987-.029-17.98.038-1.289.014-1.592-.4-1.582-1.622q.08-10.011,0-20.022c-.013-1.341.372-1.734,1.717-1.717,5.652.07,11.305.029,16.958.031a9.2,9.2,0,0,0,4.023-.553M19.036,92.469c1.97,0,3.94-.037,5.909.014,1.246.032,1.22-.745,1.217-1.61s.054-1.616-1.21-1.6q-5.909.072-11.818,0c-1.149-.016-1.355.521-1.33,1.489.025.937-.037,1.773,1.324,1.727,1.967-.067,3.939-.017,5.909-.018m.007-6.429c.948,0,1.9-.042,2.845.011.984.056,1.521-.19,1.465-1.331C23.306,83.762,23.334,83,22,83.053c-1.961.084-3.93.07-5.893,0-1.18-.041-1.49.453-1.51,1.56-.023,1.234.546,1.5,1.606,1.437.945-.056,1.9-.012,2.845-.012" transform="translate(-4.477 -44.703)" fill="#afee60"/>
        <path id="Trazado_836017" data-name="Trazado 836017" d="M30.053,62.913c.05,1.937-1.142,2.717-2.827,2.732-6.2.055-12.4.075-18.6,0-2.178-.028-.953-1.72-1.086-2.729Z" transform="translate(-4.32 -37.159)" fill="#cdcccf"/>
        <path id="Trazado_836018" data-name="Trazado 836018" d="M30.137,59.371l-22.516,0c-.534-1.977.224-2.5,2.221-2.452,5.708.138,11.421.054,17.132.046,1.68,0,2.915.546,3.162,2.409" transform="translate(-4.404 -33.616)" fill="#fdfdfd"/>
        <path id="Trazado_836019" data-name="Trazado 836019" d="M117.86,16.407c.144,1.408-.978,1.605-1.7,1.656a1.889,1.889,0,0,1-1.814-1.835c0-1.16,1.365-1.423,2.3-1.562,1.418-.212.671,1.315,1.222,1.741" transform="translate(-67.536 -8.651)" fill="#f5f7f8"/>
        <path id="Trazado_836020" data-name="Trazado 836020" d="M107.313,30.884c.169,1.24-.737,1.375-1.911,1.334-.868-.03-1.59-.151-1.275-1.213.231-.777-.2-2.2,1.169-2.088.8.067,2.2.157,2.016,1.967" transform="translate(-61.459 -17.076)" fill="#f5f7f8"/>
        <path id="Trazado_836021" data-name="Trazado 836021" d="M136.542,16.2c-.592.74-.861,1.928-1.874,1.947-.705.013-1.917-.225-1.737-1.461.108-.741-.155-2.025,1.067-1.966a3.406,3.406,0,0,1,2.544,1.479" transform="translate(-78.506 -8.691)" fill="#fdfdfd"/>
        <path id="Trazado_836022" data-name="Trazado 836022" d="M145.219,32.349c-1.614.439-1.779-.767-1.84-1.732-.087-1.373,1.316-1.373,2.05-1.41,1.431-.072.946,1.335,1.144,2.15.33,1.361-.783.874-1.354.992" transform="translate(-84.685 -17.249)" fill="#fdfdfd"/>
        <path id="Trazado_836023" data-name="Trazado 836023" d="M126.9,221.237c.187,1.2-.427,1.482-1.516,1.512-1.24.035-1.428-.555-1.44-1.6-.012-1.08.406-1.394,1.434-1.391,1.079,0,1.722.267,1.522,1.483" transform="translate(-73.208 -129.798)" fill="#fdfdfd"/>
        <path id="Trazado_836024" data-name="Trazado 836024" d="M126.9,206.309c.194,1.277-.558,1.4-1.58,1.447-1.319.057-1.334-.691-1.37-1.664-.043-1.149.538-1.3,1.492-1.326,1.151-.027,1.647.4,1.458,1.544" transform="translate(-73.213 -120.945)" fill="#fdfdfd"/>
        <path id="Trazado_836025" data-name="Trazado 836025" d="M116.322,130.053c.191,1.213-.483,1.551-1.565,1.38a11.317,11.317,0,0,1-5.244-2.116c-.537-.413-1.861-.643-.888-1.752.631-.719,1.162-1.956,2.6-.812a5.932,5.932,0,0,0,3.742,1.466c1.237-.013,1.437.794,1.355,1.834" transform="translate(-63.955 -74.592)" fill="#fdfdfd"/>
        <path id="Trazado_836026" data-name="Trazado 836026" d="M200.852,100.138c-1.426,0-2.856-.063-4.277.019-1.271.073-1.826-.285-1.811-1.687.014-1.318.546-1.587,1.714-1.564q4.48.088,8.963,0c1.178-.024,1.687.265,1.7,1.573.018,1.409-.544,1.75-1.812,1.68-1.489-.082-2.987-.02-4.481-.02" transform="translate(-115.038 -57.236)" fill="#f5f7f8"/>
        <path id="Trazado_836027" data-name="Trazado 836027" d="M200.823,65.953c1.7,0,3.4.044,5.092-.014,1.237-.042,1.246.716,1.233,1.592-.012.841.07,1.655-1.189,1.642-3.259-.034-6.519-.049-9.777.008-1.335.023-1.34-.751-1.348-1.711-.007-.935.126-1.58,1.3-1.532,1.559.064,3.122.016,4.684.016" transform="translate(-115.08 -38.945)" fill="#f5f7f8"/>
        <path id="Trazado_836028" data-name="Trazado 836028" d="M201.137,84.708c-1.633,0-3.268-.049-4.9.016-1.092.043-1.418-.414-1.4-1.443.021-.94.152-1.551,1.319-1.534q4.8.072,9.595,0c1.095-.016,1.377.443,1.4,1.46.032,1.16-.383,1.577-1.534,1.521-1.494-.073-2.994-.018-4.491-.018" transform="translate(-115.084 -48.283)" fill="#fdfdfd"/>
        <path id="Trazado_836029" data-name="Trazado 836029" d="M197.777,114.193c.208,1.192-.374,1.517-1.488,1.5-1-.013-1.48-.265-1.46-1.372.019-1.03.164-1.662,1.426-1.628,1.081.029,1.722.273,1.522,1.5" transform="translate(-115.077 -66.564)" fill="#fdfdfd"/>
        <path id="Trazado_836030" data-name="Trazado 836030" d="M211.194,112.763c1.311-.215,1.605.379,1.632,1.481.029,1.229-.531,1.447-1.6,1.452s-1.424-.388-1.4-1.429.157-1.817,1.362-1.5" transform="translate(-123.937 -66.563)" fill="#fdfdfd"/>
        <path id="Trazado_836031" data-name="Trazado 836031" d="M25.128,112.073c-1.97,0-3.941-.05-5.909.017-1.361.046-1.3-.79-1.324-1.727-.026-.968.18-1.5,1.33-1.489q5.908.078,11.818,0c1.264-.015,1.207.745,1.21,1.6s.03,1.642-1.216,1.61c-1.969-.051-3.939-.014-5.909-.014" transform="translate(-10.569 -64.306)" fill="#f5f7f8"/>
        <path id="Trazado_836032" data-name="Trazado 836032" d="M29.162,96.669c-.948,0-1.9-.043-2.845.012-1.06.062-1.629-.2-1.606-1.437.02-1.107.331-1.6,1.51-1.561,1.962.068,3.931.081,5.893,0,1.339-.057,1.31.71,1.357,1.669.056,1.141-.481,1.387-1.465,1.331-.945-.054-1.9-.012-2.845-.012" transform="translate(-14.595 -55.331)" fill="#fdfdfd"/>
      </g>
    </g>
  </g>
</svg>
