<svg xmlns="http://www.w3.org/2000/svg" width="1030" height="318" viewBox="0 0 1030 318">
  <g id="Grupo_1082057" data-name="Grupo 1082057" transform="translate(-285 -8470.808)">
    <path id="Trazado_836357" data-name="Trazado 836357" d="M0,0H1030V318H0Z" transform="translate(285 8470.808)" fill="#ebe1ef" opacity="0.6"/>
    <g id="Trazado_836358" data-name="Trazado 836358" transform="translate(440.645 8504.549)" fill="none">
      <path d="M23,0H166.206a23,23,0,0,1,23,23V43.009a23,23,0,0,1-23,23H23a23,23,0,0,1-23-23V23A23,23,0,0,1,23,0Z" stroke="none"/>
      <path d="M 23 3.000003814697266 C 17.65782165527344 3.000003814697266 12.6353759765625 5.080371856689453 8.857864379882812 8.857872009277344 C 5.080368041992188 12.63537216186523 3 17.65782165527344 3 23.00000381469727 L 3 43.00900268554688 C 3 48.35118865966797 5.080368041992188 53.37363815307617 8.857864379882812 57.15113830566406 C 12.6353759765625 60.92863464355469 17.65782165527344 63.00900650024414 23 63.00900650024414 L 166.2060546875 63.00900650024414 C 171.5482330322266 63.00900650024414 176.5706787109375 60.92863464355469 180.3481903076172 57.15113830566406 C 184.1256866455078 53.37363815307617 186.2060546875 48.35118865966797 186.2060546875 43.00900268554688 L 186.2060546875 23.00000381469727 C 186.2060546875 17.65782165527344 184.1256866455078 12.63537216186523 180.3481903076172 8.857872009277344 C 176.5706787109375 5.080371856689453 171.5482330322266 3.000003814697266 166.2060546875 3.000003814697266 L 23 3.000003814697266 M 23 7.62939453125e-06 L 166.2060546875 7.62939453125e-06 C 178.9085998535156 7.62939453125e-06 189.2060546875 10.29745101928711 189.2060546875 23.00000381469727 L 189.2060546875 43.00900268554688 C 189.2060546875 55.71155548095703 178.9085998535156 66.00900268554688 166.2060546875 66.00900268554688 L 23 66.00900268554688 C 10.29745483398438 66.00900268554688 0 55.71155548095703 0 43.00900268554688 L 0 23.00000381469727 C 0 10.29745101928711 10.29745483398438 7.62939453125e-06 23 7.62939453125e-06 Z" stroke="none" fill="#ffd9bb"/>
    </g>
    <g id="Trazado_836359" data-name="Trazado 836359" transform="translate(971.947 8676.437)" fill="none">
      <path d="M23,0H166.206a23,23,0,0,1,23,23V43.009a23,23,0,0,1-23,23H23a23,23,0,0,1-23-23V23A23,23,0,0,1,23,0Z" stroke="none"/>
      <path d="M 23 3.000003814697266 C 17.65782165527344 3.000003814697266 12.6353759765625 5.080371856689453 8.857864379882812 8.857872009277344 C 5.080368041992188 12.63537216186523 3 17.65782165527344 3 23.00000381469727 L 3 43.00900268554688 C 3 48.35118865966797 5.080368041992188 53.37363815307617 8.857864379882812 57.15113830566406 C 12.6353759765625 60.92863464355469 17.65782165527344 63.00900650024414 23 63.00900650024414 L 166.2060546875 63.00900650024414 C 171.5482330322266 63.00900650024414 176.5706787109375 60.92863464355469 180.3481903076172 57.15113830566406 C 184.1256866455078 53.37363815307617 186.2060546875 48.35118865966797 186.2060546875 43.00900268554688 L 186.2060546875 23.00000381469727 C 186.2060546875 17.65782165527344 184.1256866455078 12.63537216186523 180.3481903076172 8.857872009277344 C 176.5706787109375 5.080371856689453 171.5482330322266 3.000003814697266 166.2060546875 3.000003814697266 L 23 3.000003814697266 M 23 7.62939453125e-06 L 166.2060546875 7.62939453125e-06 C 178.9085998535156 7.62939453125e-06 189.2060546875 10.29745101928711 189.2060546875 23.00000381469727 L 189.2060546875 43.00900268554688 C 189.2060546875 55.71155548095703 178.9085998535156 66.00900268554688 166.2060546875 66.00900268554688 L 23 66.00900268554688 C 10.29745483398438 66.00900268554688 0 55.71155548095703 0 43.00900268554688 L 0 23.00000381469727 C 0 10.29745101928711 10.29745483398438 7.62939453125e-06 23 7.62939453125e-06 Z" stroke="none" fill="#ffd9bb"/>
    </g>
    <g id="Trazado_836360" data-name="Trazado 836360" transform="translate(440.645 8676.332)" fill="none">
      <path d="M23,0H166.206a23,23,0,0,1,23,23V43.009a23,23,0,0,1-23,23H23a23,23,0,0,1-23-23V23A23,23,0,0,1,23,0Z" stroke="none"/>
      <path d="M 23 3.000003814697266 C 17.65782165527344 3.000003814697266 12.6353759765625 5.080371856689453 8.857864379882812 8.857872009277344 C 5.080368041992188 12.63537216186523 3 17.65782165527344 3 23.00000381469727 L 3 43.00900268554688 C 3 48.35118865966797 5.080368041992188 53.37363815307617 8.857864379882812 57.15113830566406 C 12.6353759765625 60.92863464355469 17.65782165527344 63.00900650024414 23 63.00900650024414 L 166.2060546875 63.00900650024414 C 171.5482330322266 63.00900650024414 176.5706787109375 60.92863464355469 180.3481903076172 57.15113830566406 C 184.1256866455078 53.37363815307617 186.2060546875 48.35118865966797 186.2060546875 43.00900268554688 L 186.2060546875 23.00000381469727 C 186.2060546875 17.65782165527344 184.1256866455078 12.63537216186523 180.3481903076172 8.857872009277344 C 176.5706787109375 5.080371856689453 171.5482330322266 3.000003814697266 166.2060546875 3.000003814697266 L 23 3.000003814697266 M 23 7.62939453125e-06 L 166.2060546875 7.62939453125e-06 C 178.9085998535156 7.62939453125e-06 189.2060546875 10.29745101928711 189.2060546875 23.00000381469727 L 189.2060546875 43.00900268554688 C 189.2060546875 55.71155548095703 178.9085998535156 66.00900268554688 166.2060546875 66.00900268554688 L 23 66.00900268554688 C 10.29745483398438 66.00900268554688 0 55.71155548095703 0 43.00900268554688 L 0 23.00000381469727 C 0 10.29745101928711 10.29745483398438 7.62939453125e-06 23 7.62939453125e-06 Z" stroke="none" fill="#6fefc4"/>
    </g>
    <g id="Trazado_836361" data-name="Trazado 836361" transform="translate(971.947 8504.444)" fill="none">
      <path d="M23,0H166.206a23,23,0,0,1,23,23V43.009a23,23,0,0,1-23,23H23a23,23,0,0,1-23-23V23A23,23,0,0,1,23,0Z" stroke="none"/>
      <path d="M 23 3.000003814697266 C 17.65782165527344 3.000003814697266 12.6353759765625 5.080371856689453 8.857864379882812 8.857872009277344 C 5.080368041992188 12.63537216186523 3 17.65782165527344 3 23.00000381469727 L 3 43.00900268554688 C 3 48.35118865966797 5.080368041992188 53.37363815307617 8.857864379882812 57.15113830566406 C 12.6353759765625 60.92863464355469 17.65782165527344 63.00900650024414 23 63.00900650024414 L 166.2060546875 63.00900650024414 C 171.5482330322266 63.00900650024414 176.5706787109375 60.92863464355469 180.3481903076172 57.15113830566406 C 184.1256866455078 53.37363815307617 186.2060546875 48.35118865966797 186.2060546875 43.00900268554688 L 186.2060546875 23.00000381469727 C 186.2060546875 17.65782165527344 184.1256866455078 12.63537216186523 180.3481903076172 8.857872009277344 C 176.5706787109375 5.080371856689453 171.5482330322266 3.000003814697266 166.2060546875 3.000003814697266 L 23 3.000003814697266 M 23 7.62939453125e-06 L 166.2060546875 7.62939453125e-06 C 178.9085998535156 7.62939453125e-06 189.2060546875 10.29745101928711 189.2060546875 23.00000381469727 L 189.2060546875 43.00900268554688 C 189.2060546875 55.71155548095703 178.9085998535156 66.00900268554688 166.2060546875 66.00900268554688 L 23 66.00900268554688 C 10.29745483398438 66.00900268554688 0 55.71155548095703 0 43.00900268554688 L 0 23.00000381469727 C 0 10.29745101928711 10.29745483398438 7.62939453125e-06 23 7.62939453125e-06 Z" stroke="none" fill="#6fefc4"/>
    </g>
    <path id="Trazado_836362" data-name="Trazado 836362" d="M23,0H166.206a23,23,0,0,1,23,23V43.009a23,23,0,0,1-23,23H23a23,23,0,0,1-23-23V23A23,23,0,0,1,23,0Z" transform="translate(424.738 8517.273)" fill="#ffd9bb"/>
    <path id="Trazado_836363" data-name="Trazado 836363" d="M23,0H166.206a23,23,0,0,1,23,23V43.009a23,23,0,0,1-23,23H23a23,23,0,0,1-23-23V23A23,23,0,0,1,23,0Z" transform="translate(956.041 8689.161)" fill="#ffd9bb"/>
    <path id="Trazado_836364" data-name="Trazado 836364" d="M23,0H166.206a23,23,0,0,1,23,23V43.009a23,23,0,0,1-23,23H23a23,23,0,0,1-23-23V23A23,23,0,0,1,23,0Z" transform="translate(424.738 8689.057)" fill="#6fefc4"/>
    <path id="Trazado_836365" data-name="Trazado 836365" d="M23,0H166.206a23,23,0,0,1,23,23V43.009a23,23,0,0,1-23,23H23a23,23,0,0,1-23-23V23A23,23,0,0,1,23,0Z" transform="translate(956.041 8517.169)" fill="#6fefc4"/>
    <g id="Trazado_836366" data-name="Trazado 836366" transform="translate(662.773 8608.319)" fill="#9f0f6a">
      <path d="M 263.470703125 63.5 L 23.0000057220459 63.5 C 20.09685134887695 63.5 17.28135108947754 62.93177032470703 14.63169765472412 61.81103897094727 C 12.07165908813477 60.72822952270508 9.772235870361328 59.17780685424805 7.797197818756104 57.20280838012695 C 5.822197914123535 55.22776794433594 4.271774768829346 52.9283447265625 3.188966989517212 50.36830902099609 C 2.068236112594604 47.71865463256836 1.50000536441803 44.90315246582031 1.50000536441803 42 L 1.50000536441803 23 C 1.50000536441803 20.09684562683105 2.068236112594604 17.28134536743164 3.188966989517212 14.63169193267822 C 4.271774768829346 12.07165431976318 5.822197914123535 9.772231101989746 7.797197818756104 7.797192096710205 C 9.772235870361328 5.822192192077637 12.07165908813477 4.271769046783447 14.63169765472412 3.188961505889893 C 17.28135108947754 2.068230867385864 20.09685134887695 1.5 23.0000057220459 1.5 L 263.470703125 1.5 C 266.3738403320312 1.5 269.1893615722656 2.068230867385864 271.8390197753906 3.188961505889893 C 274.3990478515625 4.271769046783447 276.6984558105469 5.822192192077637 278.6734924316406 7.797192096710205 C 280.6484985351562 9.772231101989746 282.1989135742188 12.07165431976318 283.28173828125 14.63169193267822 C 284.4024658203125 17.28134536743164 284.970703125 20.09684562683105 284.970703125 23 L 284.970703125 42 C 284.970703125 44.90315246582031 284.4024658203125 47.71865463256836 283.28173828125 50.36830902099609 C 282.1989135742188 52.9283447265625 280.6484985351562 55.22776794433594 278.6734924316406 57.20280838012695 C 276.6984558105469 59.17780685424805 274.3990478515625 60.72822952270508 271.8390197753906 61.81103897094727 C 269.1893615722656 62.93177032470703 266.3738403320312 63.5 263.470703125 63.5 Z" stroke="none"/>
      <path d="M 23 3 C 17.65780639648438 3 12.6353759765625 5.080345153808594 8.857879638671875 8.857883453369141 C 5.080352783203125 12.63538360595703 3 17.65780639648438 3 23 L 3 42 C 3 47.34219360351562 5.080352783203125 52.36461639404297 8.857879638671875 56.14211654663086 C 12.6353759765625 59.91965484619141 17.65780639648438 62 23 62 L 263.470703125 62 C 268.8128967285156 62 273.8353271484375 59.91965484619141 277.6128234863281 56.14211654663086 C 281.3903503417969 52.36461639404297 283.470703125 47.34219360351562 283.470703125 42 L 283.470703125 23 C 283.470703125 17.65780639648438 281.3903503417969 12.63538360595703 277.6128234863281 8.857883453369141 C 273.8353271484375 5.080345153808594 268.8128967285156 3 263.470703125 3 L 23 3 M 23 0 L 263.470703125 0 C 276.1732482910156 0 286.470703125 10.29746246337891 286.470703125 23 L 286.470703125 42 C 286.470703125 54.70253753662109 276.1732482910156 65 263.470703125 65 L 23 65 C 10.29745483398438 65 0 54.70253753662109 0 42 L 0 23 C 0 10.29746246337891 10.29745483398438 0 23 0 Z" stroke="none" fill="#9f0f6a"/>
    </g>
    <g id="Trazado_836367" data-name="Trazado 836367" transform="translate(647.773 8599.319)" fill="none">
      <path d="M23,0H263.471a23,23,0,0,1,23,23V42a23,23,0,0,1-23,23H23A23,23,0,0,1,0,42V23A23,23,0,0,1,23,0Z" stroke="none"/>
      <path d="M 23 3 C 17.65780639648438 3 12.6353759765625 5.080345153808594 8.857879638671875 8.857883453369141 C 5.080352783203125 12.63538360595703 3 17.65780639648438 3 23 L 3 42 C 3 47.34219360351562 5.080352783203125 52.36461639404297 8.857879638671875 56.14211654663086 C 12.6353759765625 59.91965484619141 17.65780639648438 62 23 62 L 263.470703125 62 C 268.8128967285156 62 273.8353271484375 59.91965484619141 277.6128234863281 56.14211654663086 C 281.3903503417969 52.36461639404297 283.470703125 47.34219360351562 283.470703125 42 L 283.470703125 23 C 283.470703125 17.65780639648438 281.3903503417969 12.63538360595703 277.6128234863281 8.857883453369141 C 273.8353271484375 5.080345153808594 268.8128967285156 3 263.470703125 3 L 23 3 M 23 0 L 263.470703125 0 C 276.1732482910156 0 286.470703125 10.29746246337891 286.470703125 23 L 286.470703125 42 C 286.470703125 54.70253753662109 276.1732482910156 65 263.470703125 65 L 23 65 C 10.29745483398438 65 0 54.70253753662109 0 42 L 0 23 C 0 10.29746246337891 10.29745483398438 0 23 0 Z" stroke="none" fill="#9f0f6a"/>
    </g>
    <path id="Trazado_836368" data-name="Trazado 836368" d="M36.36,5.523H32.876V15H30.532V5.523H27.095v-1.9H36.36ZM39.931,15H37.665V6.547h2.266Zm-2.4-10.641a1.112,1.112,0,0,1,.34-.836,1.465,1.465,0,0,1,1.848,0,1.105,1.105,0,0,1,.344.836,1.108,1.108,0,0,1-.348.844,1.448,1.448,0,0,1-1.836,0A1.108,1.108,0,0,1,37.532,4.359ZM49.4,10.852a5.07,5.07,0,0,1-.887,3.129,2.843,2.843,0,0,1-2.395,1.176,2.633,2.633,0,0,1-2.07-.891V18.25H41.79V6.547h2.094l.078.828A2.654,2.654,0,0,1,46.1,6.391a2.862,2.862,0,0,1,2.43,1.156,5.207,5.207,0,0,1,.867,3.188Zm-2.258-.164a3.327,3.327,0,0,0-.418-1.82,1.361,1.361,0,0,0-1.215-.641,1.479,1.479,0,0,0-1.461.813V12.5a1.5,1.5,0,0,0,1.477.836Q47.142,13.336,47.142,10.688Zm3.3.008a5.013,5.013,0,0,1,.484-2.242A3.546,3.546,0,0,1,52.325,6.93a4.069,4.069,0,0,1,2.113-.539,3.849,3.849,0,0,1,2.793,1.047,4.2,4.2,0,0,1,1.207,2.844l.016.578a4.418,4.418,0,0,1-1.086,3.121,4.209,4.209,0,0,1-5.832,0,4.5,4.5,0,0,1-1.09-3.187Zm2.258.16a3.16,3.16,0,0,0,.453,1.843,1.628,1.628,0,0,0,2.578.008,3.457,3.457,0,0,0,.461-2.015,3.128,3.128,0,0,0-.461-1.831,1.5,1.5,0,0,0-1.3-.649,1.474,1.474,0,0,0-1.281.646A3.516,3.516,0,0,0,52.7,10.856Zm11.719,1.808a.727.727,0,0,0-.41-.652,4.659,4.659,0,0,0-1.316-.426q-3.016-.633-3.016-2.562a2.323,2.323,0,0,1,.934-1.879,3.766,3.766,0,0,1,2.441-.754,4.053,4.053,0,0,1,2.574.758,2.388,2.388,0,0,1,.965,1.969H64.337a1.092,1.092,0,0,0-.312-.8A1.322,1.322,0,0,0,63.048,8a1.351,1.351,0,0,0-.883.258.814.814,0,0,0-.312.656.7.7,0,0,0,.355.605,3.657,3.657,0,0,0,1.2.4,9.8,9.8,0,0,1,1.422.379,2.336,2.336,0,0,1,1.789,2.273,2.2,2.2,0,0,1-.992,1.871,4.28,4.28,0,0,1-2.562.715,4.47,4.47,0,0,1-1.887-.379,3.166,3.166,0,0,1-1.293-1.039,2.414,2.414,0,0,1-.469-1.426h2.141a1.179,1.179,0,0,0,.445.922,1.766,1.766,0,0,0,1.109.32,1.635,1.635,0,0,0,.98-.246A.766.766,0,0,0,64.423,12.664ZM71.7,10.711a5.094,5.094,0,0,1,.887-3.148,2.877,2.877,0,0,1,2.426-1.172,2.589,2.589,0,0,1,2.039.922V3h2.266V15H77.282l-.109-.9A2.657,2.657,0,0,1,75,15.156a2.869,2.869,0,0,1-2.395-1.176A5.258,5.258,0,0,1,71.7,10.711Zm2.258.168a3.337,3.337,0,0,0,.414,1.823,1.349,1.349,0,0,0,1.2.634,1.511,1.511,0,0,0,1.477-.884V9.111a1.489,1.489,0,0,0-1.461-.884Q73.962,8.227,73.962,10.879Zm11,4.277a4.15,4.15,0,0,1-3.027-1.141,4.054,4.054,0,0,1-1.168-3.039v-.219a5.106,5.106,0,0,1,.492-2.277,3.612,3.612,0,0,1,1.395-1.547,3.914,3.914,0,0,1,2.059-.543,3.508,3.508,0,0,1,2.73,1.094,4.444,4.444,0,0,1,1,3.1v.922H83.056a2.1,2.1,0,0,0,.66,1.328,2,2,0,0,0,1.395.5,2.437,2.437,0,0,0,2.039-.945l1.109,1.242a3.389,3.389,0,0,1-1.375,1.121A4.511,4.511,0,0,1,84.962,15.156ZM84.7,8.211a1.411,1.411,0,0,0-1.09.455,2.357,2.357,0,0,0-.535,1.3H86.22V9.788a1.681,1.681,0,0,0-.406-1.165A1.456,1.456,0,0,0,84.7,8.211ZM95.821,6.547l.07.945a2.971,2.971,0,0,1,2.43-1.1,2.255,2.255,0,0,1,2.242,1.289A2.9,2.9,0,0,1,103.1,6.391a2.521,2.521,0,0,1,2.047.8,3.681,3.681,0,0,1,.672,2.41V15h-2.266V9.609a1.61,1.61,0,0,0-.281-1.051,1.246,1.246,0,0,0-.992-.332,1.409,1.409,0,0,0-1.406.969l.008,5.8H98.626V9.617a1.59,1.59,0,0,0-.289-1.062,1.259,1.259,0,0,0-.984-.328,1.463,1.463,0,0,0-1.391.8V15H93.7V6.547Zm15.625,8.609a4.15,4.15,0,0,1-3.027-1.141,4.054,4.054,0,0,1-1.168-3.039v-.219a5.106,5.106,0,0,1,.492-2.277,3.612,3.612,0,0,1,1.395-1.547,3.914,3.914,0,0,1,2.059-.543,3.508,3.508,0,0,1,2.73,1.094,4.444,4.444,0,0,1,1,3.1v.922H109.54a2.1,2.1,0,0,0,.66,1.328,2,2,0,0,0,1.395.5,2.437,2.437,0,0,0,2.039-.945l1.109,1.242a3.389,3.389,0,0,1-1.375,1.121A4.511,4.511,0,0,1,111.446,15.156Zm-.258-6.945a1.411,1.411,0,0,0-1.09.455,2.357,2.357,0,0,0-.535,1.3H112.7V9.788a1.681,1.681,0,0,0-.406-1.165A1.456,1.456,0,0,0,111.188,8.211Zm.2-5.211h2.461l-2.164,2.422h-1.836Zm7.516,1.469V6.547h1.445V8.2h-1.445v4.219a1.007,1.007,0,0,0,.18.672.9.9,0,0,0,.688.2,3.6,3.6,0,0,0,.664-.055v1.711a4.648,4.648,0,0,1-1.367.2,2.156,2.156,0,0,1-2.422-2.4V8.2h-1.234V6.547h1.234V4.469Zm7.453,4.2a6.134,6.134,0,0,0-.812-.062,1.654,1.654,0,0,0-1.68.867V15H121.61V6.547h2.133l.063,1.008a2.092,2.092,0,0,1,1.883-1.164,2.366,2.366,0,0,1,.7.1ZM129.829,15h-2.266V6.547h2.266Zm-2.4-10.641a1.112,1.112,0,0,1,.34-.836,1.465,1.465,0,0,1,1.848,0,1.105,1.105,0,0,1,.344.836,1.109,1.109,0,0,1-.348.844,1.448,1.448,0,0,1-1.836,0A1.108,1.108,0,0,1,127.431,4.359Zm7.773,8.977a1.481,1.481,0,0,0,1.016-.344,1.2,1.2,0,0,0,.406-.914h2.117a2.9,2.9,0,0,1-.469,1.574,3.093,3.093,0,0,1-1.262,1.109,3.949,3.949,0,0,1-1.77.395A3.67,3.67,0,0,1,132.384,14a4.56,4.56,0,0,1-1.047-3.184v-.148a4.508,4.508,0,0,1,1.039-3.117,3.627,3.627,0,0,1,2.852-1.164,3.555,3.555,0,0,1,2.543.9,3.2,3.2,0,0,1,.973,2.4h-2.117a1.551,1.551,0,0,0-.406-1.072A1.51,1.51,0,0,0,134,8.786a3.333,3.333,0,0,0-.4,1.866v.235a3.375,3.375,0,0,0,.4,1.878A1.377,1.377,0,0,0,135.2,13.336ZM144.931,15a2.507,2.507,0,0,1-.227-.758,2.732,2.732,0,0,1-2.133.914,3,3,0,0,1-2.059-.719,2.312,2.312,0,0,1-.816-1.812,2.389,2.389,0,0,1,1-2.062,4.915,4.915,0,0,1,2.879-.727h1.039V9.352a1.393,1.393,0,0,0-.3-.937,1.183,1.183,0,0,0-.949-.352,1.345,1.345,0,0,0-.895.273.929.929,0,0,0-.324.75h-2.258a2.268,2.268,0,0,1,.453-1.359,3,3,0,0,1,1.281-.98,4.669,4.669,0,0,1,1.859-.355,3.689,3.689,0,0,1,2.48.785,2.747,2.747,0,0,1,.918,2.207v3.664a4.041,4.041,0,0,0,.336,1.82V15Zm-1.867-1.57a1.945,1.945,0,0,0,.922-.223,1.462,1.462,0,0,0,.625-.6V11.156h-.844q-1.7,0-1.8,1.172l-.008.133a.9.9,0,0,0,.3.7A1.153,1.153,0,0,0,143.063,13.43Zm10.125-.766a.727.727,0,0,0-.41-.652,4.659,4.659,0,0,0-1.316-.426q-3.016-.633-3.016-2.562a2.323,2.323,0,0,1,.934-1.879,3.766,3.766,0,0,1,2.441-.754,4.053,4.053,0,0,1,2.574.758,2.388,2.388,0,0,1,.965,1.969H153.1a1.092,1.092,0,0,0-.312-.8A1.322,1.322,0,0,0,151.813,8a1.351,1.351,0,0,0-.883.258.814.814,0,0,0-.312.656.7.7,0,0,0,.355.605,3.657,3.657,0,0,0,1.2.4,9.8,9.8,0,0,1,1.422.379,2.336,2.336,0,0,1,1.789,2.273,2.205,2.205,0,0,1-.992,1.871,4.28,4.28,0,0,1-2.562.715,4.47,4.47,0,0,1-1.887-.379,3.166,3.166,0,0,1-1.293-1.039,2.414,2.414,0,0,1-.469-1.426h2.141a1.179,1.179,0,0,0,.445.922,1.766,1.766,0,0,0,1.109.32,1.635,1.635,0,0,0,.98-.246A.766.766,0,0,0,153.188,12.664Zm7.281-1.953a5.094,5.094,0,0,1,.887-3.148,2.877,2.877,0,0,1,2.426-1.172,2.589,2.589,0,0,1,2.039.922V3h2.266V15h-2.039l-.109-.9a2.657,2.657,0,0,1-2.172,1.055,2.869,2.869,0,0,1-2.395-1.176A5.258,5.258,0,0,1,160.47,10.711Zm2.258.168a3.337,3.337,0,0,0,.414,1.823,1.349,1.349,0,0,0,1.2.634,1.511,1.511,0,0,0,1.477-.884V9.111a1.489,1.489,0,0,0-1.461-.884Q162.728,8.227,162.728,10.879ZM172.22,15h-2.266V6.547h2.266Zm-2.4-10.641a1.112,1.112,0,0,1,.34-.836,1.465,1.465,0,0,1,1.848,0,1.105,1.105,0,0,1,.344.836A1.109,1.109,0,0,1,172,5.2a1.448,1.448,0,0,1-1.836,0A1.109,1.109,0,0,1,169.821,4.359Zm3.93,6.352a4.954,4.954,0,0,1,.926-3.133,3,3,0,0,1,2.5-1.187,2.631,2.631,0,0,1,2.164.953l.094-.8h2.047v8.172a3.613,3.613,0,0,1-.5,1.93,3.236,3.236,0,0,1-1.418,1.25,4.985,4.985,0,0,1-2.141.43,4.635,4.635,0,0,1-1.812-.371A3.217,3.217,0,0,1,174.267,17l1-1.375a2.645,2.645,0,0,0,2.047.945,1.936,1.936,0,0,0,1.4-.48,1.8,1.8,0,0,0,.5-1.363v-.453a2.612,2.612,0,0,1-2.055.883,2.992,2.992,0,0,1-2.465-1.191,4.953,4.953,0,0,1-.941-3.16Zm2.258.168a3.085,3.085,0,0,0,.461,1.8,1.466,1.466,0,0,0,1.266.653,1.568,1.568,0,0,0,1.477-.775V9a1.564,1.564,0,0,0-1.461-.775,1.476,1.476,0,0,0-1.277.665A3.477,3.477,0,0,0,176.009,10.879ZM185.595,15h-2.266V6.547h2.266ZM183.2,4.359a1.112,1.112,0,0,1,.34-.836,1.465,1.465,0,0,1,1.848,0,1.105,1.105,0,0,1,.344.836,1.109,1.109,0,0,1-.348.844,1.448,1.448,0,0,1-1.836,0A1.109,1.109,0,0,1,183.2,4.359Zm6.961.109V6.547H191.6V8.2h-1.445v4.219a1.007,1.007,0,0,0,.18.672.9.9,0,0,0,.688.2,3.6,3.6,0,0,0,.664-.055v1.711a4.648,4.648,0,0,1-1.367.2,2.156,2.156,0,0,1-2.422-2.4V8.2h-1.234V6.547H187.9V4.469ZM197.759,15a2.507,2.507,0,0,1-.227-.758,2.732,2.732,0,0,1-2.133.914,3,3,0,0,1-2.059-.719,2.312,2.312,0,0,1-.816-1.812,2.389,2.389,0,0,1,1-2.062,4.915,4.915,0,0,1,2.879-.727h1.039V9.352a1.393,1.393,0,0,0-.3-.937,1.183,1.183,0,0,0-.949-.352,1.345,1.345,0,0,0-.895.273.929.929,0,0,0-.324.75h-2.258a2.268,2.268,0,0,1,.453-1.359,3,3,0,0,1,1.281-.98,4.669,4.669,0,0,1,1.859-.355,3.689,3.689,0,0,1,2.48.785,2.747,2.747,0,0,1,.918,2.207v3.664a4.041,4.041,0,0,0,.336,1.82V15Zm-1.867-1.57a1.945,1.945,0,0,0,.922-.223,1.462,1.462,0,0,0,.625-.6V11.156h-.844q-1.7,0-1.8,1.172l-.008.133a.9.9,0,0,0,.3.7A1.153,1.153,0,0,0,195.892,13.43Zm7.93,1.57h-2.266V3h2.266Zm5.75.156a4.15,4.15,0,0,1-3.027-1.141,4.054,4.054,0,0,1-1.168-3.039v-.219a5.106,5.106,0,0,1,.492-2.277,3.612,3.612,0,0,1,1.395-1.547,3.914,3.914,0,0,1,2.059-.543,3.508,3.508,0,0,1,2.73,1.094,4.444,4.444,0,0,1,1,3.1v.922h-5.383a2.1,2.1,0,0,0,.66,1.328,2,2,0,0,0,1.395.5,2.437,2.437,0,0,0,2.039-.945l1.109,1.242a3.389,3.389,0,0,1-1.375,1.121A4.511,4.511,0,0,1,209.571,15.156Zm-.258-6.945a1.411,1.411,0,0,0-1.09.455,2.357,2.357,0,0,0-.535,1.3h3.141V9.788a1.681,1.681,0,0,0-.406-1.165A1.456,1.456,0,0,0,209.313,8.211Zm9.594,4.453a.727.727,0,0,0-.41-.652,4.659,4.659,0,0,0-1.316-.426q-3.016-.633-3.016-2.562a2.323,2.323,0,0,1,.934-1.879,3.766,3.766,0,0,1,2.441-.754,4.053,4.053,0,0,1,2.574.758,2.388,2.388,0,0,1,.965,1.969h-2.258a1.092,1.092,0,0,0-.312-.8A1.322,1.322,0,0,0,217.532,8a1.351,1.351,0,0,0-.883.258.814.814,0,0,0-.312.656.7.7,0,0,0,.355.605,3.657,3.657,0,0,0,1.2.4,9.8,9.8,0,0,1,1.422.379A2.336,2.336,0,0,1,221.1,12.57a2.205,2.205,0,0,1-.992,1.871,4.28,4.28,0,0,1-2.562.715,4.47,4.47,0,0,1-1.887-.379,3.166,3.166,0,0,1-1.293-1.039,2.414,2.414,0,0,1-.469-1.426h2.141a1.179,1.179,0,0,0,.445.922,1.766,1.766,0,0,0,1.109.32,1.635,1.635,0,0,0,.98-.246A.766.766,0,0,0,218.907,12.664Z" transform="translate(676.313 8631.819)" fill="#fff"/>
    <path id="Trazado_836369" data-name="Trazado 836369" d="M12.323,15V3.625h3.5a5.315,5.315,0,0,1,2.684.676,4.712,4.712,0,0,1,1.848,1.922,5.928,5.928,0,0,1,.664,2.832v.523a5.945,5.945,0,0,1-.652,2.82,4.672,4.672,0,0,1-1.84,1.914,5.355,5.355,0,0,1-2.68.688Zm2.344-9.477v7.594H15.8a2.545,2.545,0,0,0,2.1-.9,4.06,4.06,0,0,0,.742-2.57v-.6a4.124,4.124,0,0,0-.719-2.629,2.537,2.537,0,0,0-2.1-.895Zm11.8,9.633a4.15,4.15,0,0,1-3.027-1.141,4.054,4.054,0,0,1-1.168-3.039v-.219A5.106,5.106,0,0,1,22.76,8.48a3.612,3.612,0,0,1,1.395-1.547,3.914,3.914,0,0,1,2.059-.543,3.508,3.508,0,0,1,2.73,1.094,4.444,4.444,0,0,1,1,3.1v.922H24.557a2.1,2.1,0,0,0,.66,1.328,2,2,0,0,0,1.395.5,2.437,2.437,0,0,0,2.039-.945l1.109,1.242a3.389,3.389,0,0,1-1.375,1.121A4.511,4.511,0,0,1,26.463,15.156Zm-.258-6.945a1.411,1.411,0,0,0-1.09.455,2.357,2.357,0,0,0-.535,1.3h3.141V9.788a1.681,1.681,0,0,0-.406-1.165A1.456,1.456,0,0,0,26.206,8.211Zm16.609,2.641a5.07,5.07,0,0,1-.887,3.129,2.843,2.843,0,0,1-2.395,1.176,2.633,2.633,0,0,1-2.07-.891V18.25H35.206V6.547H37.3l.078.828a2.654,2.654,0,0,1,2.141-.984,2.862,2.862,0,0,1,2.43,1.156,5.207,5.207,0,0,1,.867,3.188Zm-2.258-.164a3.327,3.327,0,0,0-.418-1.82,1.361,1.361,0,0,0-1.215-.641,1.479,1.479,0,0,0-1.461.813V12.5a1.5,1.5,0,0,0,1.477.836Q40.557,13.336,40.557,10.688ZM48.1,15.156a4.15,4.15,0,0,1-3.027-1.141,4.054,4.054,0,0,1-1.168-3.039v-.219A5.106,5.106,0,0,1,44.4,8.48,3.612,3.612,0,0,1,45.8,6.934a3.914,3.914,0,0,1,2.059-.543,3.508,3.508,0,0,1,2.73,1.094,4.444,4.444,0,0,1,1,3.1v.922H46.2a2.1,2.1,0,0,0,.66,1.328,2,2,0,0,0,1.395.5,2.437,2.437,0,0,0,2.039-.945L51.4,13.633a3.389,3.389,0,0,1-1.375,1.121A4.511,4.511,0,0,1,48.1,15.156Zm-.258-6.945a1.411,1.411,0,0,0-1.09.455,2.357,2.357,0,0,0-.535,1.3h3.141V9.788a1.681,1.681,0,0,0-.406-1.165A1.456,1.456,0,0,0,47.846,8.211Zm9.766.453A6.134,6.134,0,0,0,56.8,8.6a1.654,1.654,0,0,0-1.68.867V15H52.862V6.547h2.133l.063,1.008A2.092,2.092,0,0,1,56.94,6.391a2.366,2.366,0,0,1,.7.1Zm4.453,4.672a1.481,1.481,0,0,0,1.016-.344,1.2,1.2,0,0,0,.406-.914H65.6a2.9,2.9,0,0,1-.469,1.574,3.093,3.093,0,0,1-1.262,1.109,3.949,3.949,0,0,1-1.77.395A3.67,3.67,0,0,1,59.245,14,4.56,4.56,0,0,1,58.2,10.82v-.148a4.508,4.508,0,0,1,1.039-3.117,3.627,3.627,0,0,1,2.852-1.164,3.555,3.555,0,0,1,2.543.9A3.2,3.2,0,0,1,65.6,9.7H63.487a1.551,1.551,0,0,0-.406-1.072,1.51,1.51,0,0,0-2.223.163,3.333,3.333,0,0,0-.4,1.866v.235a3.375,3.375,0,0,0,.4,1.878A1.377,1.377,0,0,0,62.065,13.336Zm8.719,1.82a4.15,4.15,0,0,1-3.027-1.141,4.054,4.054,0,0,1-1.168-3.039v-.219a5.106,5.106,0,0,1,.492-2.277,3.612,3.612,0,0,1,1.395-1.547,3.914,3.914,0,0,1,2.059-.543,3.508,3.508,0,0,1,2.73,1.094,4.444,4.444,0,0,1,1,3.1v.922H68.877a2.1,2.1,0,0,0,.66,1.328,2,2,0,0,0,1.395.5,2.437,2.437,0,0,0,2.039-.945l1.109,1.242a3.389,3.389,0,0,1-1.375,1.121A4.511,4.511,0,0,1,70.784,15.156Zm-.258-6.945a1.411,1.411,0,0,0-1.09.455,2.357,2.357,0,0,0-.535,1.3h3.141V9.788a1.681,1.681,0,0,0-.406-1.165A1.456,1.456,0,0,0,70.526,8.211Zm12.625,2.641a5.07,5.07,0,0,1-.887,3.129,2.843,2.843,0,0,1-2.395,1.176,2.633,2.633,0,0,1-2.07-.891V18.25H75.541V6.547h2.094l.078.828a2.654,2.654,0,0,1,2.141-.984,2.862,2.862,0,0,1,2.43,1.156,5.207,5.207,0,0,1,.867,3.188Zm-2.258-.164a3.327,3.327,0,0,0-.418-1.82,1.361,1.361,0,0,0-1.215-.641,1.478,1.478,0,0,0-1.461.813V12.5a1.5,1.5,0,0,0,1.477.836Q80.893,13.336,80.893,10.688Zm7.172,2.648a1.481,1.481,0,0,0,1.016-.344,1.2,1.2,0,0,0,.406-.914H91.6a2.9,2.9,0,0,1-.469,1.574,3.093,3.093,0,0,1-1.262,1.109,3.949,3.949,0,0,1-1.77.395A3.67,3.67,0,0,1,85.245,14,4.56,4.56,0,0,1,84.2,10.82v-.148a4.508,4.508,0,0,1,1.039-3.117,3.627,3.627,0,0,1,2.852-1.164,3.555,3.555,0,0,1,2.543.9A3.2,3.2,0,0,1,91.6,9.7H89.487a1.551,1.551,0,0,0-.406-1.072,1.51,1.51,0,0,0-2.223.163,3.333,3.333,0,0,0-.4,1.866v.235a3.375,3.375,0,0,0,.4,1.878A1.377,1.377,0,0,0,88.065,13.336ZM95.276,15H93.01V6.547h2.266Zm-2.4-10.641a1.112,1.112,0,0,1,.34-.836,1.465,1.465,0,0,1,1.848,0,1.105,1.105,0,0,1,.344.836,1.108,1.108,0,0,1-.348.844,1.448,1.448,0,0,1-1.836,0A1.108,1.108,0,0,1,92.877,4.359ZM96.784,10.7a5.013,5.013,0,0,1,.484-2.242A3.546,3.546,0,0,1,98.663,6.93a4.069,4.069,0,0,1,2.113-.539,3.849,3.849,0,0,1,2.793,1.047,4.2,4.2,0,0,1,1.207,2.844l.016.578a4.418,4.418,0,0,1-1.086,3.121,4.209,4.209,0,0,1-5.832,0,4.5,4.5,0,0,1-1.09-3.187Zm2.258.16a3.16,3.16,0,0,0,.453,1.843,1.628,1.628,0,0,0,2.578.008,3.457,3.457,0,0,0,.461-2.015,3.128,3.128,0,0,0-.461-1.831,1.5,1.5,0,0,0-1.3-.649,1.474,1.474,0,0,0-1.281.646A3.516,3.516,0,0,0,99.041,10.856ZM101.221,3h2.461l-2.164,2.422H99.682Zm7.039,3.547.07.977a2.951,2.951,0,0,1,2.43-1.133,2.453,2.453,0,0,1,2,.789,3.682,3.682,0,0,1,.672,2.359V15h-2.258V9.594a1.465,1.465,0,0,0-.312-1.043,1.4,1.4,0,0,0-1.039-.324,1.553,1.553,0,0,0-1.43.813V15h-2.258V6.547Z" transform="translate(456.551 8539.975)" fill="#12263f"/>
    <path id="Trazado_836370" data-name="Trazado 836370" d="M50.712,15V3.625h3.5A5.315,5.315,0,0,1,56.9,4.3a4.712,4.712,0,0,1,1.848,1.922,5.928,5.928,0,0,1,.664,2.832v.523a5.945,5.945,0,0,1-.652,2.82,4.672,4.672,0,0,1-1.84,1.914,5.355,5.355,0,0,1-2.68.688Zm2.344-9.477v7.594h1.133a2.545,2.545,0,0,0,2.1-.9,4.06,4.06,0,0,0,.742-2.57v-.6a4.124,4.124,0,0,0-.719-2.629,2.537,2.537,0,0,0-2.1-.895Zm11.8,9.633a4.15,4.15,0,0,1-3.027-1.141,4.054,4.054,0,0,1-1.168-3.039v-.219a5.106,5.106,0,0,1,.492-2.277,3.612,3.612,0,0,1,1.395-1.547A3.914,3.914,0,0,1,64.6,6.391a3.508,3.508,0,0,1,2.73,1.094,4.444,4.444,0,0,1,1,3.1v.922H62.946a2.1,2.1,0,0,0,.66,1.328,2,2,0,0,0,1.395.5,2.437,2.437,0,0,0,2.039-.945l1.109,1.242a3.389,3.389,0,0,1-1.375,1.121A4.511,4.511,0,0,1,64.853,15.156Zm-.258-6.945a1.411,1.411,0,0,0-1.09.455,2.357,2.357,0,0,0-.535,1.3H66.11V9.788A1.681,1.681,0,0,0,65.7,8.623,1.456,1.456,0,0,0,64.595,8.211ZM75.978,15H73.712V6.547h2.266Zm-2.4-10.641a1.112,1.112,0,0,1,.34-.836,1.465,1.465,0,0,1,1.848,0,1.105,1.105,0,0,1,.344.836,1.108,1.108,0,0,1-.348.844,1.448,1.448,0,0,1-1.836,0A1.108,1.108,0,0,1,73.579,4.359Zm6.336,2.188.07.977a2.951,2.951,0,0,1,2.43-1.133,2.453,2.453,0,0,1,2,.789,3.682,3.682,0,0,1,.672,2.359V15H82.829V9.594a1.465,1.465,0,0,0-.312-1.043,1.4,1.4,0,0,0-1.039-.324,1.553,1.553,0,0,0-1.43.813V15H77.79V6.547ZM89.5,4.469V6.547h1.445V8.2H89.5v4.219a1.007,1.007,0,0,0,.18.672.9.9,0,0,0,.688.2,3.6,3.6,0,0,0,.664-.055v1.711a4.648,4.648,0,0,1-1.367.2,2.156,2.156,0,0,1-2.422-2.4V8.2H86.009V6.547h1.234V4.469Zm6.594,10.688a4.15,4.15,0,0,1-3.027-1.141A4.054,4.054,0,0,1,91.9,10.977v-.219a5.106,5.106,0,0,1,.492-2.277,3.612,3.612,0,0,1,1.395-1.547,3.914,3.914,0,0,1,2.059-.543,3.508,3.508,0,0,1,2.73,1.094,4.444,4.444,0,0,1,1,3.1v.922H94.188a2.1,2.1,0,0,0,.66,1.328,2,2,0,0,0,1.395.5,2.437,2.437,0,0,0,2.039-.945l1.109,1.242a3.389,3.389,0,0,1-1.375,1.121A4.511,4.511,0,0,1,96.095,15.156Zm-.258-6.945a1.411,1.411,0,0,0-1.09.455,2.357,2.357,0,0,0-.535,1.3h3.141V9.788a1.681,1.681,0,0,0-.406-1.165A1.456,1.456,0,0,0,95.837,8.211Zm9.766.453a6.134,6.134,0,0,0-.812-.062,1.654,1.654,0,0,0-1.68.867V15h-2.258V6.547h2.133l.063,1.008a2.092,2.092,0,0,1,1.883-1.164,2.366,2.366,0,0,1,.7.1ZM111.353,15a2.507,2.507,0,0,1-.227-.758,2.732,2.732,0,0,1-2.133.914,3,3,0,0,1-2.059-.719,2.312,2.312,0,0,1-.816-1.812,2.389,2.389,0,0,1,1-2.062,4.915,4.915,0,0,1,2.879-.727h1.039V9.352a1.393,1.393,0,0,0-.3-.937,1.183,1.183,0,0,0-.949-.352,1.345,1.345,0,0,0-.895.273.929.929,0,0,0-.324.75h-2.258a2.268,2.268,0,0,1,.453-1.359,3,3,0,0,1,1.281-.98,4.669,4.669,0,0,1,1.859-.355,3.689,3.689,0,0,1,2.48.785,2.747,2.747,0,0,1,.918,2.207v3.664a4.041,4.041,0,0,0,.336,1.82V15Zm-1.867-1.57a1.945,1.945,0,0,0,.922-.223,1.462,1.462,0,0,0,.625-.6V11.156h-.844q-1.7,0-1.8,1.172l-.008.133a.9.9,0,0,0,.3.7A1.153,1.153,0,0,0,109.485,13.43Zm9.063-.094a1.481,1.481,0,0,0,1.016-.344,1.2,1.2,0,0,0,.406-.914h2.117a2.9,2.9,0,0,1-.469,1.574,3.093,3.093,0,0,1-1.262,1.109,3.949,3.949,0,0,1-1.77.395A3.67,3.67,0,0,1,115.728,14a4.56,4.56,0,0,1-1.047-3.184v-.148a4.508,4.508,0,0,1,1.039-3.117,3.627,3.627,0,0,1,2.852-1.164,3.555,3.555,0,0,1,2.543.9,3.2,3.2,0,0,1,.973,2.4H119.97a1.551,1.551,0,0,0-.406-1.072,1.51,1.51,0,0,0-2.223.163,3.333,3.333,0,0,0-.4,1.866v.235a3.375,3.375,0,0,0,.4,1.878A1.377,1.377,0,0,0,118.548,13.336Zm8.344,0a1.481,1.481,0,0,0,1.016-.344,1.2,1.2,0,0,0,.406-.914h2.117a2.9,2.9,0,0,1-.469,1.574,3.093,3.093,0,0,1-1.262,1.109,3.949,3.949,0,0,1-1.77.395A3.67,3.67,0,0,1,124.071,14a4.56,4.56,0,0,1-1.047-3.184v-.148a4.508,4.508,0,0,1,1.039-3.117,3.627,3.627,0,0,1,2.852-1.164,3.555,3.555,0,0,1,2.543.9,3.2,3.2,0,0,1,.973,2.4h-2.117a1.552,1.552,0,0,0-.406-1.072,1.51,1.51,0,0,0-2.223.163,3.333,3.333,0,0,0-.4,1.866v.235a3.375,3.375,0,0,0,.4,1.878A1.377,1.377,0,0,0,126.892,13.336ZM134.1,15h-2.266V6.547H134.1ZM131.7,4.359a1.112,1.112,0,0,1,.34-.836,1.465,1.465,0,0,1,1.848,0,1.105,1.105,0,0,1,.344.836,1.109,1.109,0,0,1-.348.844,1.448,1.448,0,0,1-1.836,0A1.109,1.109,0,0,1,131.7,4.359ZM135.61,10.7a5.013,5.013,0,0,1,.484-2.242,3.546,3.546,0,0,1,1.395-1.523,4.069,4.069,0,0,1,2.113-.539A3.849,3.849,0,0,1,142.4,7.438a4.2,4.2,0,0,1,1.207,2.844l.016.578a4.418,4.418,0,0,1-1.086,3.121,4.209,4.209,0,0,1-5.832,0,4.5,4.5,0,0,1-1.09-3.187Zm2.258.16a3.16,3.16,0,0,0,.453,1.843,1.628,1.628,0,0,0,2.578.008,3.457,3.457,0,0,0,.461-2.015A3.128,3.128,0,0,0,140.9,8.86a1.5,1.5,0,0,0-1.3-.649,1.474,1.474,0,0,0-1.281.646A3.516,3.516,0,0,0,137.868,10.856ZM140.048,3h2.461l-2.164,2.422h-1.836Zm7.039,3.547.07.977a2.951,2.951,0,0,1,2.43-1.133,2.453,2.453,0,0,1,2,.789,3.682,3.682,0,0,1,.672,2.359V15H150V9.594a1.465,1.465,0,0,0-.312-1.043,1.4,1.4,0,0,0-1.039-.324,1.553,1.553,0,0,0-1.43.813V15h-2.258V6.547Z" transform="translate(949.244 8539.87)" fill="#12263f"/>
    <path id="Trazado_836371" data-name="Trazado 836371" d="M28.045,15V3.625h3.5a5.315,5.315,0,0,1,2.684.676,4.712,4.712,0,0,1,1.848,1.922,5.928,5.928,0,0,1,.664,2.832v.523a5.945,5.945,0,0,1-.652,2.82,4.672,4.672,0,0,1-1.84,1.914,5.355,5.355,0,0,1-2.68.688Zm2.344-9.477v7.594h1.133a2.545,2.545,0,0,0,2.1-.9,4.06,4.06,0,0,0,.742-2.57v-.6a4.124,4.124,0,0,0-.719-2.629,2.537,2.537,0,0,0-2.1-.895Zm11.8,9.633a4.15,4.15,0,0,1-3.027-1.141,4.054,4.054,0,0,1-1.168-3.039v-.219a5.106,5.106,0,0,1,.492-2.277,3.612,3.612,0,0,1,1.395-1.547,3.914,3.914,0,0,1,2.059-.543,3.508,3.508,0,0,1,2.73,1.094,4.444,4.444,0,0,1,1,3.1v.922H40.28a2.1,2.1,0,0,0,.66,1.328,2,2,0,0,0,1.395.5,2.437,2.437,0,0,0,2.039-.945l1.109,1.242a3.389,3.389,0,0,1-1.375,1.121A4.511,4.511,0,0,1,42.186,15.156Zm-.258-6.945a1.411,1.411,0,0,0-1.09.455,2.357,2.357,0,0,0-.535,1.3h3.141V9.788a1.681,1.681,0,0,0-.406-1.165A1.456,1.456,0,0,0,41.928,8.211Zm12.516,5.125a1.481,1.481,0,0,0,1.016-.344,1.2,1.2,0,0,0,.406-.914h2.117a2.9,2.9,0,0,1-.469,1.574,3.093,3.093,0,0,1-1.262,1.109,3.949,3.949,0,0,1-1.77.395A3.67,3.67,0,0,1,51.623,14a4.56,4.56,0,0,1-1.047-3.184v-.148a4.508,4.508,0,0,1,1.039-3.117,3.627,3.627,0,0,1,2.852-1.164,3.555,3.555,0,0,1,2.543.9,3.2,3.2,0,0,1,.973,2.4H55.866a1.551,1.551,0,0,0-.406-1.072,1.51,1.51,0,0,0-2.223.163,3.333,3.333,0,0,0-.4,1.866v.235a3.375,3.375,0,0,0,.4,1.878A1.377,1.377,0,0,0,54.444,13.336ZM61.655,15H59.389V3h2.266ZM65.9,15H63.631V6.547H65.9ZM63.5,4.359a1.112,1.112,0,0,1,.34-.836,1.465,1.465,0,0,1,1.848,0,1.105,1.105,0,0,1,.344.836,1.108,1.108,0,0,1-.348.844,1.448,1.448,0,0,1-1.836,0A1.108,1.108,0,0,1,63.5,4.359Zm8.148,10.8a4.15,4.15,0,0,1-3.027-1.141,4.054,4.054,0,0,1-1.168-3.039v-.219a5.106,5.106,0,0,1,.492-2.277,3.612,3.612,0,0,1,1.395-1.547A3.914,3.914,0,0,1,71.4,6.391a3.508,3.508,0,0,1,2.73,1.094,4.444,4.444,0,0,1,1,3.1v.922H69.741a2.1,2.1,0,0,0,.66,1.328,2,2,0,0,0,1.395.5,2.437,2.437,0,0,0,2.039-.945l1.109,1.242a3.389,3.389,0,0,1-1.375,1.121A4.511,4.511,0,0,1,71.647,15.156Zm-.258-6.945a1.411,1.411,0,0,0-1.09.455,2.357,2.357,0,0,0-.535,1.3H72.9V9.788A1.681,1.681,0,0,0,72.5,8.623,1.456,1.456,0,0,0,71.389,8.211Zm7.094-1.664.07.977a2.951,2.951,0,0,1,2.43-1.133,2.453,2.453,0,0,1,2,.789,3.682,3.682,0,0,1,.672,2.359V15H81.4V9.594a1.465,1.465,0,0,0-.312-1.043,1.4,1.4,0,0,0-1.039-.324,1.553,1.553,0,0,0-1.43.813V15H76.358V6.547Zm9.586-2.078V6.547h1.445V8.2H88.069v4.219a1.007,1.007,0,0,0,.18.672.9.9,0,0,0,.688.2,3.6,3.6,0,0,0,.664-.055v1.711a4.648,4.648,0,0,1-1.367.2,2.156,2.156,0,0,1-2.422-2.4V8.2H84.577V6.547h1.234V4.469Zm6.594,10.688a4.15,4.15,0,0,1-3.027-1.141,4.054,4.054,0,0,1-1.168-3.039v-.219a5.106,5.106,0,0,1,.492-2.277,3.612,3.612,0,0,1,1.395-1.547,3.914,3.914,0,0,1,2.059-.543,3.508,3.508,0,0,1,2.73,1.094,4.444,4.444,0,0,1,1,3.1v.922H92.756a2.1,2.1,0,0,0,.66,1.328,2,2,0,0,0,1.395.5,2.437,2.437,0,0,0,2.039-.945l1.109,1.242a3.389,3.389,0,0,1-1.375,1.121A4.511,4.511,0,0,1,94.663,15.156ZM94.4,8.211a1.411,1.411,0,0,0-1.09.455,2.357,2.357,0,0,0-.535,1.3H95.92V9.788a1.681,1.681,0,0,0-.406-1.165A1.456,1.456,0,0,0,94.4,8.211Z" transform="translate(456.549 8711.758)" fill="#12263f"/>
    <path id="Trazado_836372" data-name="Trazado 836372" d="M51.251,15V3.625h3.5a5.315,5.315,0,0,1,2.684.676,4.712,4.712,0,0,1,1.848,1.922,5.928,5.928,0,0,1,.664,2.832v.523a5.945,5.945,0,0,1-.652,2.82,4.672,4.672,0,0,1-1.84,1.914,5.355,5.355,0,0,1-2.68.688Zm2.344-9.477v7.594h1.133a2.545,2.545,0,0,0,2.1-.9,4.06,4.06,0,0,0,.742-2.57v-.6a4.124,4.124,0,0,0-.719-2.629,2.537,2.537,0,0,0-2.1-.895Zm11.8,9.633a4.15,4.15,0,0,1-3.027-1.141A4.054,4.054,0,0,1,61.2,10.977v-.219a5.106,5.106,0,0,1,.492-2.277,3.612,3.612,0,0,1,1.395-1.547,3.914,3.914,0,0,1,2.059-.543,3.508,3.508,0,0,1,2.73,1.094,4.444,4.444,0,0,1,1,3.1v.922H63.485a2.1,2.1,0,0,0,.66,1.328,2,2,0,0,0,1.395.5,2.437,2.437,0,0,0,2.039-.945l1.109,1.242a3.389,3.389,0,0,1-1.375,1.121A4.511,4.511,0,0,1,65.392,15.156Zm-.258-6.945a1.411,1.411,0,0,0-1.09.455,2.357,2.357,0,0,0-.535,1.3h3.141V9.788a1.681,1.681,0,0,0-.406-1.165A1.456,1.456,0,0,0,65.134,8.211Zm12.516,5.125a1.481,1.481,0,0,0,1.016-.344,1.2,1.2,0,0,0,.406-.914h2.117a2.9,2.9,0,0,1-.469,1.574,3.093,3.093,0,0,1-1.262,1.109,3.949,3.949,0,0,1-1.77.395A3.67,3.67,0,0,1,74.829,14a4.56,4.56,0,0,1-1.047-3.184v-.148a4.508,4.508,0,0,1,1.039-3.117,3.627,3.627,0,0,1,2.852-1.164,3.555,3.555,0,0,1,2.543.9,3.2,3.2,0,0,1,.973,2.4H79.071a1.551,1.551,0,0,0-.406-1.072,1.51,1.51,0,0,0-2.223.163,3.333,3.333,0,0,0-.4,1.866v.235a3.375,3.375,0,0,0,.4,1.878A1.377,1.377,0,0,0,77.649,13.336ZM82.126,10.7a5.013,5.013,0,0,1,.484-2.242A3.546,3.546,0,0,1,84,6.93a4.069,4.069,0,0,1,2.113-.539,3.849,3.849,0,0,1,2.793,1.047,4.2,4.2,0,0,1,1.207,2.844l.016.578a4.418,4.418,0,0,1-1.086,3.121,4.209,4.209,0,0,1-5.832,0,4.5,4.5,0,0,1-1.09-3.187Zm2.258.16a3.16,3.16,0,0,0,.453,1.843,1.628,1.628,0,0,0,2.578.008,3.457,3.457,0,0,0,.461-2.015,3.128,3.128,0,0,0-.461-1.831,1.5,1.5,0,0,0-1.3-.649,1.474,1.474,0,0,0-1.281.646A3.516,3.516,0,0,0,84.384,10.856ZM93.6,6.547l.07.977A2.951,2.951,0,0,1,96.1,6.391a2.453,2.453,0,0,1,2,.789,3.682,3.682,0,0,1,.672,2.359V15H96.517V9.594A1.465,1.465,0,0,0,96.2,8.551a1.4,1.4,0,0,0-1.039-.324,1.553,1.553,0,0,0-1.43.813V15H91.478V6.547Zm10.047,5.7,1.57-5.7h2.359L104.728,15h-2.156L99.72,6.547h2.359Zm8.711,2.914a4.15,4.15,0,0,1-3.027-1.141,4.054,4.054,0,0,1-1.168-3.039v-.219a5.106,5.106,0,0,1,.492-2.277,3.612,3.612,0,0,1,1.395-1.547,3.914,3.914,0,0,1,2.059-.543,3.508,3.508,0,0,1,2.73,1.094,4.444,4.444,0,0,1,1,3.1v.922h-5.383a2.1,2.1,0,0,0,.66,1.328,2,2,0,0,0,1.395.5,2.437,2.437,0,0,0,2.039-.945l1.109,1.242a3.389,3.389,0,0,1-1.375,1.121A4.511,4.511,0,0,1,112.36,15.156ZM112.1,8.211a1.411,1.411,0,0,0-1.09.455,2.357,2.357,0,0,0-.535,1.3h3.141V9.788a1.681,1.681,0,0,0-.406-1.165A1.456,1.456,0,0,0,112.1,8.211Zm9.766.453a6.134,6.134,0,0,0-.812-.062,1.654,1.654,0,0,0-1.68.867V15h-2.258V6.547h2.133l.063,1.008A2.092,2.092,0,0,1,121.2,6.391a2.366,2.366,0,0,1,.7.1Zm5.664,4a.727.727,0,0,0-.41-.652,4.659,4.659,0,0,0-1.316-.426q-3.016-.633-3.016-2.562a2.323,2.323,0,0,1,.934-1.879,3.766,3.766,0,0,1,2.441-.754,4.053,4.053,0,0,1,2.574.758,2.388,2.388,0,0,1,.965,1.969h-2.258a1.092,1.092,0,0,0-.312-.8A1.322,1.322,0,0,0,126.157,8a1.351,1.351,0,0,0-.883.258.814.814,0,0,0-.312.656.7.7,0,0,0,.355.605,3.657,3.657,0,0,0,1.2.4,9.8,9.8,0,0,1,1.422.379,2.336,2.336,0,0,1,1.789,2.273,2.205,2.205,0,0,1-.992,1.871,4.28,4.28,0,0,1-2.562.715,4.47,4.47,0,0,1-1.887-.379,3.166,3.166,0,0,1-1.293-1.039,2.414,2.414,0,0,1-.469-1.426h2.141a1.179,1.179,0,0,0,.445.922,1.766,1.766,0,0,0,1.109.32,1.635,1.635,0,0,0,.98-.246A.766.766,0,0,0,127.532,12.664ZM133.563,15H131.3V6.547h2.266Zm-2.4-10.641a1.112,1.112,0,0,1,.34-.836,1.465,1.465,0,0,1,1.848,0,1.105,1.105,0,0,1,.344.836,1.109,1.109,0,0,1-.348.844,1.448,1.448,0,0,1-1.836,0A1.109,1.109,0,0,1,131.165,4.359Zm3.906,6.336a5.013,5.013,0,0,1,.484-2.242A3.546,3.546,0,0,1,136.95,6.93a4.069,4.069,0,0,1,2.113-.539,3.849,3.849,0,0,1,2.793,1.047,4.2,4.2,0,0,1,1.207,2.844l.016.578a4.418,4.418,0,0,1-1.086,3.121,4.209,4.209,0,0,1-5.832,0,4.5,4.5,0,0,1-1.09-3.187Zm2.258.16a3.16,3.16,0,0,0,.453,1.843,1.628,1.628,0,0,0,2.578.008,3.457,3.457,0,0,0,.461-2.015,3.128,3.128,0,0,0-.461-1.831,1.5,1.5,0,0,0-1.3-.649,1.474,1.474,0,0,0-1.281.646A3.516,3.516,0,0,0,137.329,10.856ZM139.509,3h2.461l-2.164,2.422H137.97Zm7.039,3.547.07.977a2.951,2.951,0,0,1,2.43-1.133,2.453,2.453,0,0,1,2,.789,3.682,3.682,0,0,1,.672,2.359V15h-2.258V9.594a1.465,1.465,0,0,0-.312-1.043,1.4,1.4,0,0,0-1.039-.324,1.553,1.553,0,0,0-1.43.813V15h-2.258V6.547Z" transform="translate(949.244 8711.862)" fill="#12263f"/>
    <path id="Trazado_836373" data-name="Trazado 836373" d="M0,0V53.2" transform="translate(892.548 8722.062) rotate(180)" fill="none" stroke="#9f0f6a" stroke-width="3"/>
    <path id="Trazado_836374" data-name="Trazado 836374" d="M0,0V53.2" transform="translate(676.207 8550.278)" fill="none" stroke="#9f0f6a" stroke-width="3"/>
    <path id="Trazado_836375" data-name="Trazado 836375" d="M0,0V59.2" transform="translate(892.445 8550.277)" fill="none" stroke="#9f0f6a" stroke-width="3"/>
    <path id="Trazado_836376" data-name="Trazado 836376" d="M0,0V59.2" transform="translate(676.311 8722.063) rotate(180)" fill="none" stroke="#9f0f6a" stroke-width="3"/>
    <path id="Trazado_836377" data-name="Trazado 836377" d="M63.734,0H0" transform="translate(956.179 8722.166) rotate(180)" fill="none" stroke="#9f0f6a" stroke-width="3"/>
    <path id="Trazado_836378" data-name="Trazado 836378" d="M63.734,0H0" transform="translate(612.577 8550.174)" fill="none" stroke="#9f0f6a" stroke-width="3"/>
    <path id="Trazado_836379" data-name="Trazado 836379" d="M63.734,0H0" transform="translate(892.445 8550.174)" fill="none" stroke="#9f0f6a" stroke-width="3"/>
    <path id="Trazado_836380" data-name="Trazado 836380" d="M63.734,0H0" transform="translate(676.312 8722.166) rotate(180)" fill="none" stroke="#9f0f6a" stroke-width="3"/>
  </g>
</svg>
