<svg xmlns="http://www.w3.org/2000/svg" xmlns:xlink="http://www.w3.org/1999/xlink" width="142" height="142" viewBox="0 0 142 142">
  <defs>
    <clipPath id="clip-path">
      <rect id="Rectángulo_380272" data-name="Rectángulo 380272" width="91.334" height="85.719" fill="none"/>
    </clipPath>
  </defs>
  <g id="Grupo_1082064" data-name="Grupo 1082064" transform="translate(-1040 -1882.5)">
    <circle id="Elipse_5856" data-name="Elipse 5856" cx="71" cy="71" r="71" transform="translate(1040 1882.5)" fill="#9f0f6a"/>
    <g id="Grupo_1082013" data-name="Grupo 1082013" transform="translate(1065.333 1910.641)">
      <g id="Grupo_1082012" data-name="Grupo 1082012" clip-path="url(#clip-path)">
        <path id="Trazado_836161" data-name="Trazado 836161" d="M20.411,141.022q4.809.029,9.619.059c3.5.027,5.293,1.783,5.3,5.235q.019,12.472,0,24.943c-.005,3.361-1.8,5.139-5.181,5.144q-12.472.019-24.944,0c-3.38,0-5.186-1.79-5.192-5.144q-.022-12.471,0-24.943c.006-3.441,1.82-5.208,5.316-5.235q4.81-.037,9.619-.058h5.465" transform="translate(0 -90.694)" fill="#fecc38"/>
        <path id="Trazado_836162" data-name="Trazado 836162" d="M169.6,145.715c2.444-2.528,5.6-3.6,8.912-4.33a28.79,28.79,0,0,1,5.408-.059,18.4,18.4,0,0,1,12.822,9.205,17.531,17.531,0,0,1-2.518,20.258c-.472-.557-.878-.056-1.249.125-6.788,3.306-13.289,2.629-19.115-1.98-5.054-4-7.213-9.431-6.478-15.975.291-2.59,1.572-4.8,2.218-7.243" transform="translate(-107.558 -90.826)" fill="#b8a8fd"/>
        <path id="Trazado_836163" data-name="Trazado 836163" d="M13.522,3.971c9.234-7.934,24.246-3.242,27.82,8.7.236.789.467,1.579.7,2.368q-.016,2.717-.032,5.434c-.827,3.1-1.8,6.137-4.056,8.566-1.181.07-2.056.879-3.1,1.283-6.916,2.677-14.539,1.387-19.61-4.192C10.16,20.53,9.288,13.977,12.007,6.91c.34-.883,1.1-1.568,1.138-2.569V4.4l.376-.431" transform="translate(-6.75 -0.029)" fill="#3ac6b3"/>
        <path id="Trazado_836164" data-name="Trazado 836164" d="M157.953,15.061Q164.6,8.48,171.245,1.9c2.558-2.536,4.047-2.536,6.615.03q6.368,6.36,12.727,12.729c2.178,2.186,2.181,3.936.027,6.115q-6.7,6.78-13.4,13.551a3.923,3.923,0,0,1-5.333,0Q165.095,27.18,157.956,20.4a3.868,3.868,0,0,1,0-5.338" transform="translate(-100.897 0)" fill="#d95b65"/>
        <path id="Trazado_836165" data-name="Trazado 836165" d="M6.406,12.083c-.041,1-.8,1.686-1.138,2.568-2.719,7.067-1.847,13.62,3.24,19.215,5.071,5.578,12.694,6.869,19.609,4.191,1.043-.4,1.918-1.212,3.1-1.283-2.753,3.576-6.58,5.312-10.832,6.319l-5.4.006A19.306,19.306,0,0,1,4.228,36.962a17.729,17.729,0,0,1,1.042-24.07c.333-.326.623-.728,1.136-.809" transform="translate(-0.011 -7.771)" fill="#04ad95"/>
        <path id="Trazado_836166" data-name="Trazado 836166" d="M162.923,153.8c-.646,2.44-1.926,4.653-2.218,7.243-.736,6.544,1.424,11.977,6.478,15.975,5.826,4.609,12.327,5.287,19.115,1.98.371-.181.777-.682,1.249-.125-7.167,8.561-21.9,7.364-27.866-2.264a17.837,17.837,0,0,1,2.243-22.091,6.5,6.5,0,0,1,1-.719" transform="translate(-100.879 -98.913)" fill="#a495e0"/>
        <path id="Trazado_836167" data-name="Trazado 836167" d="M120.6,42.1a3.868,3.868,0,0,0,0,5.338l-21.8.04q.016-2.717.032-5.434L120.6,42.1" transform="translate(-63.543 -27.04)" fill="#465059"/>
        <path id="Trazado_836168" data-name="Trazado 836168" d="M198.847,96.164a3.923,3.923,0,0,0,5.333,0q.025,8.088.05,16.177a28.851,28.851,0,0,0-5.408.059q.013-8.119.025-16.24" transform="translate(-127.866 -61.845)" fill="#465059"/>
        <path id="Trazado_836169" data-name="Trazado 836169" d="M41.91,98.983l5.4-.006q.019,7.5.038,15.005H41.879q.015-7.5.031-15" transform="translate(-26.933 -63.654)" fill="#465059"/>
        <path id="Trazado_836170" data-name="Trazado 836170" d="M18.3,11.045l-.376.431c-.007-.259.167-.36.376-.431" transform="translate(-11.526 -7.103)" fill="#04ad95"/>
      </g>
    </g>
  </g>
</svg>
