<svg xmlns="http://www.w3.org/2000/svg" xmlns:xlink="http://www.w3.org/1999/xlink" width="107" height="107" viewBox="0 0 107 107">
  <defs>
    <clipPath id="clip-path">
      <rect id="Rectángulo_380024" data-name="Rectángulo 380024" width="81.537" height="80.682" fill="#fff"/>
    </clipPath>
  </defs>
  <g id="Grupo_1082120" data-name="Grupo 1082120" transform="translate(-285 -2024.142)">
    <g id="Grupo_156312" data-name="Grupo 156312" transform="translate(-3.668 -2423.858)">
      <circle id="Elipse_5845" data-name="Elipse 5845" cx="53.5" cy="53.5" r="53.5" transform="translate(288.668 4448)" fill="#9f0f6a"/>
    </g>
    <g id="Grupo_1081604" data-name="Grupo 1081604" transform="translate(298.231 2037.301)">
      <g id="Grupo_1081603" data-name="Grupo 1081603" transform="translate(0 0)" clip-path="url(#clip-path)">
        <path id="Trazado_835201" data-name="Trazado 835201" d="M41.115,80.678c-5.7,0-11.4.01-17.107,0-5.161-.011-8.334-3.112-8.331-8.268,0-1.4-.411-1.9-1.83-2.056C7.005,69.581,2.383,65.9.532,59.254A14.9,14.9,0,0,1,13.989,40.585c.262-.017.528-.018.792-.032a.812.812,0,0,0,.845-.926c0-.5-.042-.988-.639-1.115-.773-.162-1.562-.251-2.334-.419A14.971,14.971,0,0,1,2.517,16.645a7.859,7.859,0,0,1,.388-.69c.525-.807,1.057-1.792,2.219-1.113,1.144.667.607,1.6.148,2.475-3.863,7.393-.481,15.73,7.263,17.925a12.185,12.185,0,1,0,5.809-23.656,12.12,12.12,0,0,0-8.563,1.306c-.887.48-1.817.969-2.456-.189s.34-1.716,1.163-2.205a14.532,14.532,0,0,1,5.841-1.862c.885-.1,1.24-.4,1.354-1.338C16.255,2.63,19.216.016,23.878.01q17.346-.021,34.691,0c4.388.006,7.406,2.428,7.976,6.76.257,1.94,1.49,1.8,2.726,2.077,6.393,1.428,10.558,5.277,11.863,11.709,1.26,6.214-.887,11.325-5.986,15.129a13.5,13.5,0,0,1-6.405,2.548c-.313.041-.625.1-.937.151a1.065,1.065,0,0,0-1.017,1.177c.01.755.439.966,1.106,1.043a14.686,14.686,0,0,1,9.783,4.98,14.256,14.256,0,0,1,2.85,15.068A14.069,14.069,0,0,1,68.876,70.18c-1.541.248-2.132.705-2.157,2.356-.079,5.072-3.292,8.128-8.337,8.139-5.755.013-11.51,0-17.267,0m.03-7.461q8.078,0,16.156,0c.739,0,1.5.061,1.884-.81a4.444,4.444,0,0,0-1.342-4.855,14.818,14.818,0,0,1-5.871-14.92c.22-.957.437-2.047,1.724-1.779,1.242.257,1.115,1.3.94,2.3a12.176,12.176,0,1,0,24.03.659A12.265,12.265,0,0,0,64.592,43.463a12.533,12.533,0,0,0-7.51,4.348c-.57.674-1.275,1.053-2.047.37a1.359,1.359,0,0,1,.027-2.1,7.13,7.13,0,0,1,1.758-1.8c2.328-1.218,2.858-3.143,2.523-5.522a2.258,2.258,0,0,1,0-.632,2.351,2.351,0,0,0-1.288-2.463,13.842,13.842,0,0,1-5.336-6.71,14.732,14.732,0,0,1,5.4-17.66,2.355,2.355,0,0,0,1.124-2.8c-.326-1.3-1.433-.989-2.348-1.029-.474-.02-.952.021-1.425-.006a1.447,1.447,0,0,0-1.68,1.074,3.4,3.4,0,0,1-3.452,2.31q-9.107.074-18.215,0a3.475,3.475,0,0,1-3.579-2.367A1.345,1.345,0,0,0,27,7.46c-.631.04-1.267,0-1.9.008-1.764.032-2.487,1.044-1.934,2.682.227.672.862.9,1.362,1.266,7.778,5.683,8.334,17.4.9,23.326-1.869,1.488-2.628,2.949-2.328,5.164a3.335,3.335,0,0,1,0,.948,3.487,3.487,0,0,0,1.5,3.371c6.806,6.047,7.084,16.086.477,22.076a5.641,5.641,0,0,0-2.006,4.9c.049,1.512.593,2.047,2.081,2.032,5.332-.051,10.665-.02,16-.02M66.628,35.6a11.953,11.953,0,0,0,12.1-12.153,12.138,12.138,0,1,0-24.276.078A11.951,11.951,0,0,0,66.628,35.6m-51.707,32A11.788,11.788,0,0,0,27.068,55.537a12.138,12.138,0,1,0-24.276-.079A11.946,11.946,0,0,0,14.922,67.6M41.193,2.73c-5.862,0-11.725-.023-17.587.01a5.025,5.025,0,0,0-5.253,5c.01.92.492,1.2,1.232,1.323.847.14.724-.526.831-1.019A3.657,3.657,0,0,1,24.39,4.751c1.267-.023,2.535-.008,3.8,0A2.557,2.557,0,0,1,30.9,6.739a1.483,1.483,0,0,0,1.678,1.278Q41.217,8,49.851,8.01a1.4,1.4,0,0,0,1.6-1.17,2.621,2.621,0,0,1,2.935-2.1c1.161.018,2.324-.013,3.485.007,2.31.038,3.455.952,4.08,3.2.14.5-.008,1.288.957,1.084.768-.164.955-.68.972-1.4a4.836,4.836,0,0,0-5.1-4.894c-5.862-.03-11.725-.008-17.587-.008m-.082,75.222c5.913,0,11.828.1,17.736-.032,4.532-.1,5.476-3.671,4.955-7.145a.947.947,0,0,0-1.033-.8c-.667,0-.693.523-.715,1.013-.014.316,0,.633-.023.95-.171,2.592-1.575,3.953-4.147,4-1.319.023-2.638.006-3.959.006q-14.649,0-29.3-.006c-2.792,0-4.183-1.394-4.244-4.165-.007-.316.014-.633-.008-.95-.037-.5.11-1.191-.717-1.11-.556.054-1.185.174-1.268.945-.436,4.052.988,7.363,5.776,7.314,5.648-.059,11.3-.014,16.945-.017" transform="translate(0 0)" fill="#fff"/>
        <path id="Trazado_835202" data-name="Trazado 835202" d="M5.237,19.169c0-1.477-.023-2.956,0-4.432.041-2.279,1.216-3.757,3.484-3.949a54.145,54.145,0,0,1,9.951.028,3.3,3.3,0,0,1,3.283,3.256A54.649,54.649,0,0,1,22,24.024a3.6,3.6,0,0,1-3.925,3.51c-3.007.032-6.015.04-9.021,0a3.606,3.606,0,0,1-3.8-3.771c-.042-1.529-.008-3.06-.01-4.59m8.5-5.631c-1.425,0-2.85.017-4.274-.006-1.067-.017-1.522.468-1.511,1.536.028,2.691.024,5.381,0,8.072-.008,1.1.425,1.686,1.58,1.68q4.116-.021,8.231,0c.978.007,1.477-.4,1.476-1.4-.007-2.8-.011-5.593.007-8.389.007-1.079-.512-1.52-1.556-1.5-1.319.024-2.638.006-3.958.007" transform="translate(2.147 4.345)" fill="#fff"/>
        <path id="Trazado_835203" data-name="Trazado 835203" d="M43.339,31.537a10.787,10.787,0,0,1-16,9.662,3.107,3.107,0,0,0-3.09-.264,2.212,2.212,0,0,1-2.655-.227c-.89-.842-.645-1.809-.3-2.787a8.468,8.468,0,0,0,.624-4.588,10.71,10.71,0,0,1,7.74-12.019A10.886,10.886,0,0,1,42.5,27.423a9,9,0,0,1,.842,4.114m-2.709.172a7.952,7.952,0,0,0-9.749-7.856c-4.4.978-6.956,4.832-6.212,9.535a6.163,6.163,0,0,1-.138,3.555c-.217.5-.261,1.026.553.82a4.054,4.054,0,0,1,3.239.865,7.619,7.619,0,0,0,8.111.2,7.818,7.818,0,0,0,4.2-7.119" transform="translate(8.62 8.592)" fill="#fff"/>
        <path id="Trazado_835204" data-name="Trazado 835204" d="M43.876,41.36c0-1.421-.032-2.843.01-4.262.062-2.02,1.3-2.819,3.036-1.875q3.881,2.11,7.657,4.412c1.6.978,1.544,2.493-.1,3.476q-3.721,2.231-7.529,4.316c-1.748.957-2.974.195-3.072-1.806-.006-.1,0-.21,0-.316q0-1.972,0-3.945m2.72-.293c0,3.441.006,3.451,2.654,1.922.854-.494,2.365-.859,2.363-1.583,0-.95-1.52-1.177-2.38-1.7-.768-.467-1.618-1.545-2.421-1.051-.631.388-.114,1.665-.216,2.411" transform="translate(18.024 14.311)" fill="#fff"/>
        <path id="Trazado_835205" data-name="Trazado 835205" d="M46.308,24.163c0-.686-.034-1.374.007-2.057.068-1.12-.047-1.979-1.529-1.96A1.279,1.279,0,0,1,43.4,18.734c.041-.945.714-1.259,1.535-1.206,1.192.076,1.432-.571,1.376-1.569a12,12,0,0,1,.03-1.9,3.67,3.67,0,0,1,3.763-3.509c.844-.025,1.689-.01,2.533.006s1.46.363,1.481,1.284-.649,1.251-1.441,1.369a7.319,7.319,0,0,1-.948.04c-2.61.049-3.2.821-2.71,3.419.151.807.663.844,1.267.839.935-.007,1.769.229,1.761,1.333-.007.988-.817,1.333-1.655,1.335-1.148,0-1.418.563-1.387,1.589.052,1.74.007,3.481.007,5.222,0,.879-.264,1.665-1.239,1.717-1.077.059-1.415-.762-1.448-1.692-.032-.948-.007-1.9-.007-2.849Z" transform="translate(17.834 4.33)" fill="#fff"/>
        <path id="Trazado_835206" data-name="Trazado 835206" d="M9.491,49.148A8.6,8.6,0,0,1,6.274,48.4c-1.505-.841-1.8-2.6-.46-3.6.875-.655.243-.934-.071-1.336a7.536,7.536,0,0,1-1.219-6.475c.409-1.987,1.79-2.4,3.352-1.108.365.3.732.605,1.123.875,1,.69,1.744.9,2.465-.54a4.069,4.069,0,0,1,5.415-1.886,4.418,4.418,0,0,0,2.734.391,1.923,1.923,0,0,1,2.36,2.063,2.688,2.688,0,0,1-.154,1.088,68.281,68.281,0,0,1-3.28,6.985c-1.679,2.82-5.49,4.454-9.049,4.288m.532-2.93c3.88.128,6.341-1.9,7.617-5.717.542-1.621,1.28-2.685-1.172-3.347-1.807-.487-2.472-.5-2.8,1.48a1.851,1.851,0,0,1-2.325,1.731,9.186,9.186,0,0,1-3.162-.928c-.3-.154-.641-.533-.979-.162-.265.289-.144.717-.04,1.06a4.927,4.927,0,0,0,2.387,2.813c1.611.962,1.673,1.409.478,3.07" transform="translate(1.764 13.953)" fill="#fff"/>
        <path id="Trazado_835207" data-name="Trazado 835207" d="M12.219,21.374A3.58,3.58,0,0,1,8.6,17.61a3.653,3.653,0,0,1,3.675-3.588,3.845,3.845,0,0,1,3.675,3.822,3.654,3.654,0,0,1-3.732,3.53" transform="translate(3.533 5.762)" fill="#fff"/>
        <path id="Trazado_835208" data-name="Trazado 835208" d="M26.341,28.651a3.925,3.925,0,0,1,.418-1.994c.4-.78,1-1.294,1.9-.94a1.27,1.27,0,0,1,.633,1.857c-.515,1.25,0,1.939,1.058,2.555.955.553,1.717.67,2.478-.269.547-.677,1.261-1.05,2.039-.372.83.725.485,1.5-.069,2.229a3.849,3.849,0,0,1-5.182,1.1c-1.663-.931-3.4-1.83-3.276-4.166" transform="translate(10.821 10.521)" fill="#fff"/>
      </g>
    </g>
  </g>
</svg>
